%TF.GenerationSoftware,KiCad,Pcbnew,7.0.2*%
%TF.CreationDate,2023-05-20T09:49:11-05:00*%
%TF.ProjectId,ICOF1,49434f46-312e-46b6-9963-61645f706362,rev?*%
%TF.SameCoordinates,Original*%
%TF.FileFunction,Other,Comment*%
%FSLAX46Y46*%
G04 Gerber Fmt 4.6, Leading zero omitted, Abs format (unit mm)*
G04 Created by KiCad (PCBNEW 7.0.2) date 2023-05-20 09:49:11*
%MOMM*%
%LPD*%
G01*
G04 APERTURE LIST*
%ADD10C,0.030000*%
%ADD11C,0.070000*%
G04 APERTURE END LIST*
D10*
%TO.C,SW1*%
X200494249Y-37720614D02*
X200294249Y-37720614D01*
X200494249Y-37606329D02*
X200379964Y-37692043D01*
X200294249Y-37606329D02*
X200408535Y-37720614D01*
X200389487Y-37520614D02*
X200389487Y-37453948D01*
X200494249Y-37425376D02*
X200494249Y-37520614D01*
X200494249Y-37520614D02*
X200294249Y-37520614D01*
X200294249Y-37520614D02*
X200294249Y-37425376D01*
X200389487Y-37339662D02*
X200389487Y-37272996D01*
X200494249Y-37244424D02*
X200494249Y-37339662D01*
X200494249Y-37339662D02*
X200294249Y-37339662D01*
X200294249Y-37339662D02*
X200294249Y-37244424D01*
X200494249Y-37158710D02*
X200294249Y-37158710D01*
X200294249Y-37158710D02*
X200294249Y-37082520D01*
X200294249Y-37082520D02*
X200303773Y-37063472D01*
X200303773Y-37063472D02*
X200313297Y-37053949D01*
X200313297Y-37053949D02*
X200332345Y-37044425D01*
X200332345Y-37044425D02*
X200360916Y-37044425D01*
X200360916Y-37044425D02*
X200379964Y-37053949D01*
X200379964Y-37053949D02*
X200389487Y-37063472D01*
X200389487Y-37063472D02*
X200399011Y-37082520D01*
X200399011Y-37082520D02*
X200399011Y-37158710D01*
X200418059Y-36958710D02*
X200418059Y-36806330D01*
X200294249Y-36672996D02*
X200294249Y-36634901D01*
X200294249Y-36634901D02*
X200303773Y-36615853D01*
X200303773Y-36615853D02*
X200322821Y-36596806D01*
X200322821Y-36596806D02*
X200360916Y-36587282D01*
X200360916Y-36587282D02*
X200427583Y-36587282D01*
X200427583Y-36587282D02*
X200465678Y-36596806D01*
X200465678Y-36596806D02*
X200484726Y-36615853D01*
X200484726Y-36615853D02*
X200494249Y-36634901D01*
X200494249Y-36634901D02*
X200494249Y-36672996D01*
X200494249Y-36672996D02*
X200484726Y-36692044D01*
X200484726Y-36692044D02*
X200465678Y-36711091D01*
X200465678Y-36711091D02*
X200427583Y-36720615D01*
X200427583Y-36720615D02*
X200360916Y-36720615D01*
X200360916Y-36720615D02*
X200322821Y-36711091D01*
X200322821Y-36711091D02*
X200303773Y-36692044D01*
X200303773Y-36692044D02*
X200294249Y-36672996D01*
X200294249Y-36501567D02*
X200456154Y-36501567D01*
X200456154Y-36501567D02*
X200475202Y-36492044D01*
X200475202Y-36492044D02*
X200484726Y-36482520D01*
X200484726Y-36482520D02*
X200494249Y-36463472D01*
X200494249Y-36463472D02*
X200494249Y-36425377D01*
X200494249Y-36425377D02*
X200484726Y-36406329D01*
X200484726Y-36406329D02*
X200475202Y-36396806D01*
X200475202Y-36396806D02*
X200456154Y-36387282D01*
X200456154Y-36387282D02*
X200294249Y-36387282D01*
X200294249Y-36320615D02*
X200294249Y-36206329D01*
X200494249Y-36263472D02*
X200294249Y-36263472D01*
X200294249Y-36006329D02*
X200294249Y-35872996D01*
X200294249Y-35872996D02*
X200494249Y-36006329D01*
X200494249Y-36006329D02*
X200494249Y-35872996D01*
X200294249Y-35758710D02*
X200294249Y-35720615D01*
X200294249Y-35720615D02*
X200303773Y-35701567D01*
X200303773Y-35701567D02*
X200322821Y-35682520D01*
X200322821Y-35682520D02*
X200360916Y-35672996D01*
X200360916Y-35672996D02*
X200427583Y-35672996D01*
X200427583Y-35672996D02*
X200465678Y-35682520D01*
X200465678Y-35682520D02*
X200484726Y-35701567D01*
X200484726Y-35701567D02*
X200494249Y-35720615D01*
X200494249Y-35720615D02*
X200494249Y-35758710D01*
X200494249Y-35758710D02*
X200484726Y-35777758D01*
X200484726Y-35777758D02*
X200465678Y-35796805D01*
X200465678Y-35796805D02*
X200427583Y-35806329D01*
X200427583Y-35806329D02*
X200360916Y-35806329D01*
X200360916Y-35806329D02*
X200322821Y-35796805D01*
X200322821Y-35796805D02*
X200303773Y-35777758D01*
X200303773Y-35777758D02*
X200294249Y-35758710D01*
X200494249Y-35587281D02*
X200294249Y-35587281D01*
X200294249Y-35587281D02*
X200494249Y-35472996D01*
X200494249Y-35472996D02*
X200294249Y-35472996D01*
X200389487Y-35377757D02*
X200389487Y-35311091D01*
X200494249Y-35282519D02*
X200494249Y-35377757D01*
X200494249Y-35377757D02*
X200294249Y-35377757D01*
X200294249Y-35377757D02*
X200294249Y-35282519D01*
X200094249Y-37587282D02*
X199894249Y-37587282D01*
X199894249Y-37587282D02*
X200094249Y-37472997D01*
X200094249Y-37472997D02*
X199894249Y-37472997D01*
X200094249Y-37349187D02*
X200084726Y-37368235D01*
X200084726Y-37368235D02*
X200075202Y-37377758D01*
X200075202Y-37377758D02*
X200056154Y-37387282D01*
X200056154Y-37387282D02*
X199999011Y-37387282D01*
X199999011Y-37387282D02*
X199979964Y-37377758D01*
X199979964Y-37377758D02*
X199970440Y-37368235D01*
X199970440Y-37368235D02*
X199960916Y-37349187D01*
X199960916Y-37349187D02*
X199960916Y-37320616D01*
X199960916Y-37320616D02*
X199970440Y-37301568D01*
X199970440Y-37301568D02*
X199979964Y-37292044D01*
X199979964Y-37292044D02*
X199999011Y-37282520D01*
X199999011Y-37282520D02*
X200056154Y-37282520D01*
X200056154Y-37282520D02*
X200075202Y-37292044D01*
X200075202Y-37292044D02*
X200084726Y-37301568D01*
X200084726Y-37301568D02*
X200094249Y-37320616D01*
X200094249Y-37320616D02*
X200094249Y-37349187D01*
X199989487Y-36977759D02*
X199989487Y-37044425D01*
X200094249Y-37044425D02*
X199894249Y-37044425D01*
X199894249Y-37044425D02*
X199894249Y-36949187D01*
X200075202Y-36872996D02*
X200084726Y-36863473D01*
X200084726Y-36863473D02*
X200094249Y-36872996D01*
X200094249Y-36872996D02*
X200084726Y-36882520D01*
X200084726Y-36882520D02*
X200075202Y-36872996D01*
X200075202Y-36872996D02*
X200094249Y-36872996D01*
X200075202Y-36663473D02*
X200084726Y-36672997D01*
X200084726Y-36672997D02*
X200094249Y-36701568D01*
X200094249Y-36701568D02*
X200094249Y-36720616D01*
X200094249Y-36720616D02*
X200084726Y-36749187D01*
X200084726Y-36749187D02*
X200065678Y-36768235D01*
X200065678Y-36768235D02*
X200046630Y-36777758D01*
X200046630Y-36777758D02*
X200008535Y-36787282D01*
X200008535Y-36787282D02*
X199979964Y-36787282D01*
X199979964Y-36787282D02*
X199941868Y-36777758D01*
X199941868Y-36777758D02*
X199922821Y-36768235D01*
X199922821Y-36768235D02*
X199903773Y-36749187D01*
X199903773Y-36749187D02*
X199894249Y-36720616D01*
X199894249Y-36720616D02*
X199894249Y-36701568D01*
X199894249Y-36701568D02*
X199903773Y-36672997D01*
X199903773Y-36672997D02*
X199913297Y-36663473D01*
X199960916Y-36492044D02*
X200094249Y-36492044D01*
X199960916Y-36577758D02*
X200065678Y-36577758D01*
X200065678Y-36577758D02*
X200084726Y-36568235D01*
X200084726Y-36568235D02*
X200094249Y-36549187D01*
X200094249Y-36549187D02*
X200094249Y-36520616D01*
X200094249Y-36520616D02*
X200084726Y-36501568D01*
X200084726Y-36501568D02*
X200075202Y-36492044D01*
X199960916Y-36272997D02*
X199960916Y-36196806D01*
X199894249Y-36244425D02*
X200065678Y-36244425D01*
X200065678Y-36244425D02*
X200084726Y-36234902D01*
X200084726Y-36234902D02*
X200094249Y-36215854D01*
X200094249Y-36215854D02*
X200094249Y-36196806D01*
X200094249Y-36130139D02*
X199960916Y-36130139D01*
X199999011Y-36130139D02*
X199979964Y-36120616D01*
X199979964Y-36120616D02*
X199970440Y-36111092D01*
X199970440Y-36111092D02*
X199960916Y-36092044D01*
X199960916Y-36092044D02*
X199960916Y-36072997D01*
X200094249Y-35920615D02*
X199989487Y-35920615D01*
X199989487Y-35920615D02*
X199970440Y-35930139D01*
X199970440Y-35930139D02*
X199960916Y-35949187D01*
X199960916Y-35949187D02*
X199960916Y-35987282D01*
X199960916Y-35987282D02*
X199970440Y-36006329D01*
X200084726Y-35920615D02*
X200094249Y-35939663D01*
X200094249Y-35939663D02*
X200094249Y-35987282D01*
X200094249Y-35987282D02*
X200084726Y-36006329D01*
X200084726Y-36006329D02*
X200065678Y-36015853D01*
X200065678Y-36015853D02*
X200046630Y-36015853D01*
X200046630Y-36015853D02*
X200027583Y-36006329D01*
X200027583Y-36006329D02*
X200018059Y-35987282D01*
X200018059Y-35987282D02*
X200018059Y-35939663D01*
X200018059Y-35939663D02*
X200008535Y-35920615D01*
X200084726Y-35739663D02*
X200094249Y-35758711D01*
X200094249Y-35758711D02*
X200094249Y-35796806D01*
X200094249Y-35796806D02*
X200084726Y-35815854D01*
X200084726Y-35815854D02*
X200075202Y-35825377D01*
X200075202Y-35825377D02*
X200056154Y-35834901D01*
X200056154Y-35834901D02*
X199999011Y-35834901D01*
X199999011Y-35834901D02*
X199979964Y-35825377D01*
X199979964Y-35825377D02*
X199970440Y-35815854D01*
X199970440Y-35815854D02*
X199960916Y-35796806D01*
X199960916Y-35796806D02*
X199960916Y-35758711D01*
X199960916Y-35758711D02*
X199970440Y-35739663D01*
X200094249Y-35653948D02*
X199894249Y-35653948D01*
X200018059Y-35634901D02*
X200094249Y-35577758D01*
X199960916Y-35577758D02*
X200037106Y-35653948D01*
X200084726Y-35501567D02*
X200094249Y-35482520D01*
X200094249Y-35482520D02*
X200094249Y-35444424D01*
X200094249Y-35444424D02*
X200084726Y-35425377D01*
X200084726Y-35425377D02*
X200065678Y-35415853D01*
X200065678Y-35415853D02*
X200056154Y-35415853D01*
X200056154Y-35415853D02*
X200037106Y-35425377D01*
X200037106Y-35425377D02*
X200027583Y-35444424D01*
X200027583Y-35444424D02*
X200027583Y-35472996D01*
X200027583Y-35472996D02*
X200018059Y-35492043D01*
X200018059Y-35492043D02*
X199999011Y-35501567D01*
X199999011Y-35501567D02*
X199989487Y-35501567D01*
X199989487Y-35501567D02*
X199970440Y-35492043D01*
X199970440Y-35492043D02*
X199960916Y-35472996D01*
X199960916Y-35472996D02*
X199960916Y-35444424D01*
X199960916Y-35444424D02*
X199970440Y-35425377D01*
X200494249Y-32720614D02*
X200294249Y-32720614D01*
X200494249Y-32606329D02*
X200379964Y-32692043D01*
X200294249Y-32606329D02*
X200408535Y-32720614D01*
X200389487Y-32520614D02*
X200389487Y-32453948D01*
X200494249Y-32425376D02*
X200494249Y-32520614D01*
X200494249Y-32520614D02*
X200294249Y-32520614D01*
X200294249Y-32520614D02*
X200294249Y-32425376D01*
X200389487Y-32339662D02*
X200389487Y-32272996D01*
X200494249Y-32244424D02*
X200494249Y-32339662D01*
X200494249Y-32339662D02*
X200294249Y-32339662D01*
X200294249Y-32339662D02*
X200294249Y-32244424D01*
X200494249Y-32158710D02*
X200294249Y-32158710D01*
X200294249Y-32158710D02*
X200294249Y-32082520D01*
X200294249Y-32082520D02*
X200303773Y-32063472D01*
X200303773Y-32063472D02*
X200313297Y-32053949D01*
X200313297Y-32053949D02*
X200332345Y-32044425D01*
X200332345Y-32044425D02*
X200360916Y-32044425D01*
X200360916Y-32044425D02*
X200379964Y-32053949D01*
X200379964Y-32053949D02*
X200389487Y-32063472D01*
X200389487Y-32063472D02*
X200399011Y-32082520D01*
X200399011Y-32082520D02*
X200399011Y-32158710D01*
X200418059Y-31958710D02*
X200418059Y-31806330D01*
X200294249Y-31672996D02*
X200294249Y-31634901D01*
X200294249Y-31634901D02*
X200303773Y-31615853D01*
X200303773Y-31615853D02*
X200322821Y-31596806D01*
X200322821Y-31596806D02*
X200360916Y-31587282D01*
X200360916Y-31587282D02*
X200427583Y-31587282D01*
X200427583Y-31587282D02*
X200465678Y-31596806D01*
X200465678Y-31596806D02*
X200484726Y-31615853D01*
X200484726Y-31615853D02*
X200494249Y-31634901D01*
X200494249Y-31634901D02*
X200494249Y-31672996D01*
X200494249Y-31672996D02*
X200484726Y-31692044D01*
X200484726Y-31692044D02*
X200465678Y-31711091D01*
X200465678Y-31711091D02*
X200427583Y-31720615D01*
X200427583Y-31720615D02*
X200360916Y-31720615D01*
X200360916Y-31720615D02*
X200322821Y-31711091D01*
X200322821Y-31711091D02*
X200303773Y-31692044D01*
X200303773Y-31692044D02*
X200294249Y-31672996D01*
X200294249Y-31501567D02*
X200456154Y-31501567D01*
X200456154Y-31501567D02*
X200475202Y-31492044D01*
X200475202Y-31492044D02*
X200484726Y-31482520D01*
X200484726Y-31482520D02*
X200494249Y-31463472D01*
X200494249Y-31463472D02*
X200494249Y-31425377D01*
X200494249Y-31425377D02*
X200484726Y-31406329D01*
X200484726Y-31406329D02*
X200475202Y-31396806D01*
X200475202Y-31396806D02*
X200456154Y-31387282D01*
X200456154Y-31387282D02*
X200294249Y-31387282D01*
X200294249Y-31320615D02*
X200294249Y-31206329D01*
X200494249Y-31263472D02*
X200294249Y-31263472D01*
X200294249Y-31006329D02*
X200294249Y-30872996D01*
X200294249Y-30872996D02*
X200494249Y-31006329D01*
X200494249Y-31006329D02*
X200494249Y-30872996D01*
X200294249Y-30758710D02*
X200294249Y-30720615D01*
X200294249Y-30720615D02*
X200303773Y-30701567D01*
X200303773Y-30701567D02*
X200322821Y-30682520D01*
X200322821Y-30682520D02*
X200360916Y-30672996D01*
X200360916Y-30672996D02*
X200427583Y-30672996D01*
X200427583Y-30672996D02*
X200465678Y-30682520D01*
X200465678Y-30682520D02*
X200484726Y-30701567D01*
X200484726Y-30701567D02*
X200494249Y-30720615D01*
X200494249Y-30720615D02*
X200494249Y-30758710D01*
X200494249Y-30758710D02*
X200484726Y-30777758D01*
X200484726Y-30777758D02*
X200465678Y-30796805D01*
X200465678Y-30796805D02*
X200427583Y-30806329D01*
X200427583Y-30806329D02*
X200360916Y-30806329D01*
X200360916Y-30806329D02*
X200322821Y-30796805D01*
X200322821Y-30796805D02*
X200303773Y-30777758D01*
X200303773Y-30777758D02*
X200294249Y-30758710D01*
X200494249Y-30587281D02*
X200294249Y-30587281D01*
X200294249Y-30587281D02*
X200494249Y-30472996D01*
X200494249Y-30472996D02*
X200294249Y-30472996D01*
X200389487Y-30377757D02*
X200389487Y-30311091D01*
X200494249Y-30282519D02*
X200494249Y-30377757D01*
X200494249Y-30377757D02*
X200294249Y-30377757D01*
X200294249Y-30377757D02*
X200294249Y-30282519D01*
X200094249Y-32587282D02*
X199894249Y-32587282D01*
X199894249Y-32587282D02*
X200094249Y-32472997D01*
X200094249Y-32472997D02*
X199894249Y-32472997D01*
X200094249Y-32349187D02*
X200084726Y-32368235D01*
X200084726Y-32368235D02*
X200075202Y-32377758D01*
X200075202Y-32377758D02*
X200056154Y-32387282D01*
X200056154Y-32387282D02*
X199999011Y-32387282D01*
X199999011Y-32387282D02*
X199979964Y-32377758D01*
X199979964Y-32377758D02*
X199970440Y-32368235D01*
X199970440Y-32368235D02*
X199960916Y-32349187D01*
X199960916Y-32349187D02*
X199960916Y-32320616D01*
X199960916Y-32320616D02*
X199970440Y-32301568D01*
X199970440Y-32301568D02*
X199979964Y-32292044D01*
X199979964Y-32292044D02*
X199999011Y-32282520D01*
X199999011Y-32282520D02*
X200056154Y-32282520D01*
X200056154Y-32282520D02*
X200075202Y-32292044D01*
X200075202Y-32292044D02*
X200084726Y-32301568D01*
X200084726Y-32301568D02*
X200094249Y-32320616D01*
X200094249Y-32320616D02*
X200094249Y-32349187D01*
X199989487Y-31977759D02*
X199989487Y-32044425D01*
X200094249Y-32044425D02*
X199894249Y-32044425D01*
X199894249Y-32044425D02*
X199894249Y-31949187D01*
X200075202Y-31872996D02*
X200084726Y-31863473D01*
X200084726Y-31863473D02*
X200094249Y-31872996D01*
X200094249Y-31872996D02*
X200084726Y-31882520D01*
X200084726Y-31882520D02*
X200075202Y-31872996D01*
X200075202Y-31872996D02*
X200094249Y-31872996D01*
X200075202Y-31663473D02*
X200084726Y-31672997D01*
X200084726Y-31672997D02*
X200094249Y-31701568D01*
X200094249Y-31701568D02*
X200094249Y-31720616D01*
X200094249Y-31720616D02*
X200084726Y-31749187D01*
X200084726Y-31749187D02*
X200065678Y-31768235D01*
X200065678Y-31768235D02*
X200046630Y-31777758D01*
X200046630Y-31777758D02*
X200008535Y-31787282D01*
X200008535Y-31787282D02*
X199979964Y-31787282D01*
X199979964Y-31787282D02*
X199941868Y-31777758D01*
X199941868Y-31777758D02*
X199922821Y-31768235D01*
X199922821Y-31768235D02*
X199903773Y-31749187D01*
X199903773Y-31749187D02*
X199894249Y-31720616D01*
X199894249Y-31720616D02*
X199894249Y-31701568D01*
X199894249Y-31701568D02*
X199903773Y-31672997D01*
X199903773Y-31672997D02*
X199913297Y-31663473D01*
X199960916Y-31492044D02*
X200094249Y-31492044D01*
X199960916Y-31577758D02*
X200065678Y-31577758D01*
X200065678Y-31577758D02*
X200084726Y-31568235D01*
X200084726Y-31568235D02*
X200094249Y-31549187D01*
X200094249Y-31549187D02*
X200094249Y-31520616D01*
X200094249Y-31520616D02*
X200084726Y-31501568D01*
X200084726Y-31501568D02*
X200075202Y-31492044D01*
X199960916Y-31272997D02*
X199960916Y-31196806D01*
X199894249Y-31244425D02*
X200065678Y-31244425D01*
X200065678Y-31244425D02*
X200084726Y-31234902D01*
X200084726Y-31234902D02*
X200094249Y-31215854D01*
X200094249Y-31215854D02*
X200094249Y-31196806D01*
X200094249Y-31130139D02*
X199960916Y-31130139D01*
X199999011Y-31130139D02*
X199979964Y-31120616D01*
X199979964Y-31120616D02*
X199970440Y-31111092D01*
X199970440Y-31111092D02*
X199960916Y-31092044D01*
X199960916Y-31092044D02*
X199960916Y-31072997D01*
X200094249Y-30920615D02*
X199989487Y-30920615D01*
X199989487Y-30920615D02*
X199970440Y-30930139D01*
X199970440Y-30930139D02*
X199960916Y-30949187D01*
X199960916Y-30949187D02*
X199960916Y-30987282D01*
X199960916Y-30987282D02*
X199970440Y-31006329D01*
X200084726Y-30920615D02*
X200094249Y-30939663D01*
X200094249Y-30939663D02*
X200094249Y-30987282D01*
X200094249Y-30987282D02*
X200084726Y-31006329D01*
X200084726Y-31006329D02*
X200065678Y-31015853D01*
X200065678Y-31015853D02*
X200046630Y-31015853D01*
X200046630Y-31015853D02*
X200027583Y-31006329D01*
X200027583Y-31006329D02*
X200018059Y-30987282D01*
X200018059Y-30987282D02*
X200018059Y-30939663D01*
X200018059Y-30939663D02*
X200008535Y-30920615D01*
X200084726Y-30739663D02*
X200094249Y-30758711D01*
X200094249Y-30758711D02*
X200094249Y-30796806D01*
X200094249Y-30796806D02*
X200084726Y-30815854D01*
X200084726Y-30815854D02*
X200075202Y-30825377D01*
X200075202Y-30825377D02*
X200056154Y-30834901D01*
X200056154Y-30834901D02*
X199999011Y-30834901D01*
X199999011Y-30834901D02*
X199979964Y-30825377D01*
X199979964Y-30825377D02*
X199970440Y-30815854D01*
X199970440Y-30815854D02*
X199960916Y-30796806D01*
X199960916Y-30796806D02*
X199960916Y-30758711D01*
X199960916Y-30758711D02*
X199970440Y-30739663D01*
X200094249Y-30653948D02*
X199894249Y-30653948D01*
X200018059Y-30634901D02*
X200094249Y-30577758D01*
X199960916Y-30577758D02*
X200037106Y-30653948D01*
X200084726Y-30501567D02*
X200094249Y-30482520D01*
X200094249Y-30482520D02*
X200094249Y-30444424D01*
X200094249Y-30444424D02*
X200084726Y-30425377D01*
X200084726Y-30425377D02*
X200065678Y-30415853D01*
X200065678Y-30415853D02*
X200056154Y-30415853D01*
X200056154Y-30415853D02*
X200037106Y-30425377D01*
X200037106Y-30425377D02*
X200027583Y-30444424D01*
X200027583Y-30444424D02*
X200027583Y-30472996D01*
X200027583Y-30472996D02*
X200018059Y-30492043D01*
X200018059Y-30492043D02*
X199999011Y-30501567D01*
X199999011Y-30501567D02*
X199989487Y-30501567D01*
X199989487Y-30501567D02*
X199970440Y-30492043D01*
X199970440Y-30492043D02*
X199960916Y-30472996D01*
X199960916Y-30472996D02*
X199960916Y-30444424D01*
X199960916Y-30444424D02*
X199970440Y-30425377D01*
D11*
%TO.C,J2*%
X217340047Y-66148095D02*
X216940047Y-66148095D01*
X217340047Y-65919524D02*
X217111476Y-66090953D01*
X216940047Y-65919524D02*
X217168619Y-66148095D01*
X217130523Y-65748095D02*
X217130523Y-65614762D01*
X217340047Y-65557619D02*
X217340047Y-65748095D01*
X217340047Y-65748095D02*
X216940047Y-65748095D01*
X216940047Y-65748095D02*
X216940047Y-65557619D01*
X217130523Y-65386190D02*
X217130523Y-65252857D01*
X217340047Y-65195714D02*
X217340047Y-65386190D01*
X217340047Y-65386190D02*
X216940047Y-65386190D01*
X216940047Y-65386190D02*
X216940047Y-65195714D01*
X217340047Y-65024285D02*
X216940047Y-65024285D01*
X216940047Y-65024285D02*
X216940047Y-64871904D01*
X216940047Y-64871904D02*
X216959095Y-64833809D01*
X216959095Y-64833809D02*
X216978142Y-64814762D01*
X216978142Y-64814762D02*
X217016238Y-64795714D01*
X217016238Y-64795714D02*
X217073380Y-64795714D01*
X217073380Y-64795714D02*
X217111476Y-64814762D01*
X217111476Y-64814762D02*
X217130523Y-64833809D01*
X217130523Y-64833809D02*
X217149571Y-64871904D01*
X217149571Y-64871904D02*
X217149571Y-65024285D01*
X216940047Y-64548095D02*
X216940047Y-64471904D01*
X216940047Y-64471904D02*
X216959095Y-64433809D01*
X216959095Y-64433809D02*
X216997190Y-64395714D01*
X216997190Y-64395714D02*
X217073380Y-64376666D01*
X217073380Y-64376666D02*
X217206714Y-64376666D01*
X217206714Y-64376666D02*
X217282904Y-64395714D01*
X217282904Y-64395714D02*
X217321000Y-64433809D01*
X217321000Y-64433809D02*
X217340047Y-64471904D01*
X217340047Y-64471904D02*
X217340047Y-64548095D01*
X217340047Y-64548095D02*
X217321000Y-64586190D01*
X217321000Y-64586190D02*
X217282904Y-64624285D01*
X217282904Y-64624285D02*
X217206714Y-64643333D01*
X217206714Y-64643333D02*
X217073380Y-64643333D01*
X217073380Y-64643333D02*
X216997190Y-64624285D01*
X216997190Y-64624285D02*
X216959095Y-64586190D01*
X216959095Y-64586190D02*
X216940047Y-64548095D01*
X216940047Y-64205237D02*
X217263857Y-64205237D01*
X217263857Y-64205237D02*
X217301952Y-64186190D01*
X217301952Y-64186190D02*
X217321000Y-64167142D01*
X217321000Y-64167142D02*
X217340047Y-64129047D01*
X217340047Y-64129047D02*
X217340047Y-64052856D01*
X217340047Y-64052856D02*
X217321000Y-64014761D01*
X217321000Y-64014761D02*
X217301952Y-63995714D01*
X217301952Y-63995714D02*
X217263857Y-63976666D01*
X217263857Y-63976666D02*
X216940047Y-63976666D01*
X216940047Y-63843332D02*
X216940047Y-63614761D01*
X217340047Y-63729047D02*
X216940047Y-63729047D01*
%TD*%
M02*
