%TF.GenerationSoftware,KiCad,Pcbnew,(7.0.0)*%
%TF.CreationDate,2023-04-12T02:18:13-04:00*%
%TF.ProjectId,ICOF1,49434f46-312e-46b6-9963-61645f706362,rev?*%
%TF.SameCoordinates,Original*%
%TF.FileFunction,Other,Comment*%
%FSLAX46Y46*%
G04 Gerber Fmt 4.6, Leading zero omitted, Abs format (unit mm)*
G04 Created by KiCad (PCBNEW (7.0.0)) date 2023-04-12 02:18:13*
%MOMM*%
%LPD*%
G01*
G04 APERTURE LIST*
%ADD10C,0.030000*%
%ADD11C,0.070000*%
G04 APERTURE END LIST*
D10*
%TO.C,SW1*%
X200661476Y-38338094D02*
X200461476Y-38338094D01*
X200661476Y-38223809D02*
X200547190Y-38309523D01*
X200461476Y-38223809D02*
X200575761Y-38338094D01*
X200556714Y-38138094D02*
X200556714Y-38071428D01*
X200661476Y-38042856D02*
X200661476Y-38138094D01*
X200661476Y-38138094D02*
X200461476Y-38138094D01*
X200461476Y-38138094D02*
X200461476Y-38042856D01*
X200556714Y-37957142D02*
X200556714Y-37890476D01*
X200661476Y-37861904D02*
X200661476Y-37957142D01*
X200661476Y-37957142D02*
X200461476Y-37957142D01*
X200461476Y-37957142D02*
X200461476Y-37861904D01*
X200661476Y-37776190D02*
X200461476Y-37776190D01*
X200461476Y-37776190D02*
X200461476Y-37700000D01*
X200461476Y-37700000D02*
X200471000Y-37680952D01*
X200471000Y-37680952D02*
X200480523Y-37671429D01*
X200480523Y-37671429D02*
X200499571Y-37661905D01*
X200499571Y-37661905D02*
X200528142Y-37661905D01*
X200528142Y-37661905D02*
X200547190Y-37671429D01*
X200547190Y-37671429D02*
X200556714Y-37680952D01*
X200556714Y-37680952D02*
X200566238Y-37700000D01*
X200566238Y-37700000D02*
X200566238Y-37776190D01*
X200585285Y-37576190D02*
X200585285Y-37423810D01*
X200461476Y-37290476D02*
X200461476Y-37252381D01*
X200461476Y-37252381D02*
X200471000Y-37233333D01*
X200471000Y-37233333D02*
X200490047Y-37214286D01*
X200490047Y-37214286D02*
X200528142Y-37204762D01*
X200528142Y-37204762D02*
X200594809Y-37204762D01*
X200594809Y-37204762D02*
X200632904Y-37214286D01*
X200632904Y-37214286D02*
X200651952Y-37233333D01*
X200651952Y-37233333D02*
X200661476Y-37252381D01*
X200661476Y-37252381D02*
X200661476Y-37290476D01*
X200661476Y-37290476D02*
X200651952Y-37309524D01*
X200651952Y-37309524D02*
X200632904Y-37328571D01*
X200632904Y-37328571D02*
X200594809Y-37338095D01*
X200594809Y-37338095D02*
X200528142Y-37338095D01*
X200528142Y-37338095D02*
X200490047Y-37328571D01*
X200490047Y-37328571D02*
X200471000Y-37309524D01*
X200471000Y-37309524D02*
X200461476Y-37290476D01*
X200461476Y-37119047D02*
X200623380Y-37119047D01*
X200623380Y-37119047D02*
X200642428Y-37109524D01*
X200642428Y-37109524D02*
X200651952Y-37100000D01*
X200651952Y-37100000D02*
X200661476Y-37080952D01*
X200661476Y-37080952D02*
X200661476Y-37042857D01*
X200661476Y-37042857D02*
X200651952Y-37023809D01*
X200651952Y-37023809D02*
X200642428Y-37014286D01*
X200642428Y-37014286D02*
X200623380Y-37004762D01*
X200623380Y-37004762D02*
X200461476Y-37004762D01*
X200461476Y-36938095D02*
X200461476Y-36823809D01*
X200661476Y-36880952D02*
X200461476Y-36880952D01*
X200461476Y-36656190D02*
X200461476Y-36522857D01*
X200461476Y-36522857D02*
X200661476Y-36656190D01*
X200661476Y-36656190D02*
X200661476Y-36522857D01*
X200461476Y-36408571D02*
X200461476Y-36370476D01*
X200461476Y-36370476D02*
X200471000Y-36351428D01*
X200471000Y-36351428D02*
X200490047Y-36332381D01*
X200490047Y-36332381D02*
X200528142Y-36322857D01*
X200528142Y-36322857D02*
X200594809Y-36322857D01*
X200594809Y-36322857D02*
X200632904Y-36332381D01*
X200632904Y-36332381D02*
X200651952Y-36351428D01*
X200651952Y-36351428D02*
X200661476Y-36370476D01*
X200661476Y-36370476D02*
X200661476Y-36408571D01*
X200661476Y-36408571D02*
X200651952Y-36427619D01*
X200651952Y-36427619D02*
X200632904Y-36446666D01*
X200632904Y-36446666D02*
X200594809Y-36456190D01*
X200594809Y-36456190D02*
X200528142Y-36456190D01*
X200528142Y-36456190D02*
X200490047Y-36446666D01*
X200490047Y-36446666D02*
X200471000Y-36427619D01*
X200471000Y-36427619D02*
X200461476Y-36408571D01*
X200661476Y-36237142D02*
X200461476Y-36237142D01*
X200461476Y-36237142D02*
X200661476Y-36122857D01*
X200661476Y-36122857D02*
X200461476Y-36122857D01*
X200556714Y-36027618D02*
X200556714Y-35960952D01*
X200661476Y-35932380D02*
X200661476Y-36027618D01*
X200661476Y-36027618D02*
X200461476Y-36027618D01*
X200461476Y-36027618D02*
X200461476Y-35932380D01*
X200261476Y-38188571D02*
X200061476Y-38188571D01*
X200061476Y-38188571D02*
X200261476Y-38074286D01*
X200261476Y-38074286D02*
X200061476Y-38074286D01*
X200261476Y-37950476D02*
X200251952Y-37969524D01*
X200251952Y-37969524D02*
X200242428Y-37979047D01*
X200242428Y-37979047D02*
X200223380Y-37988571D01*
X200223380Y-37988571D02*
X200166238Y-37988571D01*
X200166238Y-37988571D02*
X200147190Y-37979047D01*
X200147190Y-37979047D02*
X200137666Y-37969524D01*
X200137666Y-37969524D02*
X200128142Y-37950476D01*
X200128142Y-37950476D02*
X200128142Y-37921905D01*
X200128142Y-37921905D02*
X200137666Y-37902857D01*
X200137666Y-37902857D02*
X200147190Y-37893333D01*
X200147190Y-37893333D02*
X200166238Y-37883809D01*
X200166238Y-37883809D02*
X200223380Y-37883809D01*
X200223380Y-37883809D02*
X200242428Y-37893333D01*
X200242428Y-37893333D02*
X200251952Y-37902857D01*
X200251952Y-37902857D02*
X200261476Y-37921905D01*
X200261476Y-37921905D02*
X200261476Y-37950476D01*
X200156714Y-37611429D02*
X200156714Y-37678095D01*
X200261476Y-37678095D02*
X200061476Y-37678095D01*
X200061476Y-37678095D02*
X200061476Y-37582857D01*
X200242428Y-37506666D02*
X200251952Y-37497143D01*
X200251952Y-37497143D02*
X200261476Y-37506666D01*
X200261476Y-37506666D02*
X200251952Y-37516190D01*
X200251952Y-37516190D02*
X200242428Y-37506666D01*
X200242428Y-37506666D02*
X200261476Y-37506666D01*
X200242428Y-37297143D02*
X200251952Y-37306667D01*
X200251952Y-37306667D02*
X200261476Y-37335238D01*
X200261476Y-37335238D02*
X200261476Y-37354286D01*
X200261476Y-37354286D02*
X200251952Y-37382857D01*
X200251952Y-37382857D02*
X200232904Y-37401905D01*
X200232904Y-37401905D02*
X200213857Y-37411428D01*
X200213857Y-37411428D02*
X200175761Y-37420952D01*
X200175761Y-37420952D02*
X200147190Y-37420952D01*
X200147190Y-37420952D02*
X200109095Y-37411428D01*
X200109095Y-37411428D02*
X200090047Y-37401905D01*
X200090047Y-37401905D02*
X200071000Y-37382857D01*
X200071000Y-37382857D02*
X200061476Y-37354286D01*
X200061476Y-37354286D02*
X200061476Y-37335238D01*
X200061476Y-37335238D02*
X200071000Y-37306667D01*
X200071000Y-37306667D02*
X200080523Y-37297143D01*
X200128142Y-37125714D02*
X200261476Y-37125714D01*
X200128142Y-37211428D02*
X200232904Y-37211428D01*
X200232904Y-37211428D02*
X200251952Y-37201905D01*
X200251952Y-37201905D02*
X200261476Y-37182857D01*
X200261476Y-37182857D02*
X200261476Y-37154286D01*
X200261476Y-37154286D02*
X200251952Y-37135238D01*
X200251952Y-37135238D02*
X200242428Y-37125714D01*
X200128142Y-36939048D02*
X200128142Y-36862857D01*
X200061476Y-36910476D02*
X200232904Y-36910476D01*
X200232904Y-36910476D02*
X200251952Y-36900953D01*
X200251952Y-36900953D02*
X200261476Y-36881905D01*
X200261476Y-36881905D02*
X200261476Y-36862857D01*
X200261476Y-36796190D02*
X200128142Y-36796190D01*
X200166238Y-36796190D02*
X200147190Y-36786667D01*
X200147190Y-36786667D02*
X200137666Y-36777143D01*
X200137666Y-36777143D02*
X200128142Y-36758095D01*
X200128142Y-36758095D02*
X200128142Y-36739048D01*
X200261476Y-36586666D02*
X200156714Y-36586666D01*
X200156714Y-36586666D02*
X200137666Y-36596190D01*
X200137666Y-36596190D02*
X200128142Y-36615238D01*
X200128142Y-36615238D02*
X200128142Y-36653333D01*
X200128142Y-36653333D02*
X200137666Y-36672380D01*
X200251952Y-36586666D02*
X200261476Y-36605714D01*
X200261476Y-36605714D02*
X200261476Y-36653333D01*
X200261476Y-36653333D02*
X200251952Y-36672380D01*
X200251952Y-36672380D02*
X200232904Y-36681904D01*
X200232904Y-36681904D02*
X200213857Y-36681904D01*
X200213857Y-36681904D02*
X200194809Y-36672380D01*
X200194809Y-36672380D02*
X200185285Y-36653333D01*
X200185285Y-36653333D02*
X200185285Y-36605714D01*
X200185285Y-36605714D02*
X200175761Y-36586666D01*
X200251952Y-36405714D02*
X200261476Y-36424762D01*
X200261476Y-36424762D02*
X200261476Y-36462857D01*
X200261476Y-36462857D02*
X200251952Y-36481905D01*
X200251952Y-36481905D02*
X200242428Y-36491428D01*
X200242428Y-36491428D02*
X200223380Y-36500952D01*
X200223380Y-36500952D02*
X200166238Y-36500952D01*
X200166238Y-36500952D02*
X200147190Y-36491428D01*
X200147190Y-36491428D02*
X200137666Y-36481905D01*
X200137666Y-36481905D02*
X200128142Y-36462857D01*
X200128142Y-36462857D02*
X200128142Y-36424762D01*
X200128142Y-36424762D02*
X200137666Y-36405714D01*
X200261476Y-36319999D02*
X200061476Y-36319999D01*
X200185285Y-36300952D02*
X200261476Y-36243809D01*
X200128142Y-36243809D02*
X200204333Y-36319999D01*
X200251952Y-36167618D02*
X200261476Y-36148571D01*
X200261476Y-36148571D02*
X200261476Y-36110475D01*
X200261476Y-36110475D02*
X200251952Y-36091428D01*
X200251952Y-36091428D02*
X200232904Y-36081904D01*
X200232904Y-36081904D02*
X200223380Y-36081904D01*
X200223380Y-36081904D02*
X200204333Y-36091428D01*
X200204333Y-36091428D02*
X200194809Y-36110475D01*
X200194809Y-36110475D02*
X200194809Y-36139047D01*
X200194809Y-36139047D02*
X200185285Y-36158094D01*
X200185285Y-36158094D02*
X200166238Y-36167618D01*
X200166238Y-36167618D02*
X200156714Y-36167618D01*
X200156714Y-36167618D02*
X200137666Y-36158094D01*
X200137666Y-36158094D02*
X200128142Y-36139047D01*
X200128142Y-36139047D02*
X200128142Y-36110475D01*
X200128142Y-36110475D02*
X200137666Y-36091428D01*
X200661476Y-33338094D02*
X200461476Y-33338094D01*
X200661476Y-33223809D02*
X200547190Y-33309523D01*
X200461476Y-33223809D02*
X200575761Y-33338094D01*
X200556714Y-33138094D02*
X200556714Y-33071428D01*
X200661476Y-33042856D02*
X200661476Y-33138094D01*
X200661476Y-33138094D02*
X200461476Y-33138094D01*
X200461476Y-33138094D02*
X200461476Y-33042856D01*
X200556714Y-32957142D02*
X200556714Y-32890476D01*
X200661476Y-32861904D02*
X200661476Y-32957142D01*
X200661476Y-32957142D02*
X200461476Y-32957142D01*
X200461476Y-32957142D02*
X200461476Y-32861904D01*
X200661476Y-32776190D02*
X200461476Y-32776190D01*
X200461476Y-32776190D02*
X200461476Y-32700000D01*
X200461476Y-32700000D02*
X200471000Y-32680952D01*
X200471000Y-32680952D02*
X200480523Y-32671429D01*
X200480523Y-32671429D02*
X200499571Y-32661905D01*
X200499571Y-32661905D02*
X200528142Y-32661905D01*
X200528142Y-32661905D02*
X200547190Y-32671429D01*
X200547190Y-32671429D02*
X200556714Y-32680952D01*
X200556714Y-32680952D02*
X200566238Y-32700000D01*
X200566238Y-32700000D02*
X200566238Y-32776190D01*
X200585285Y-32576190D02*
X200585285Y-32423810D01*
X200461476Y-32290476D02*
X200461476Y-32252381D01*
X200461476Y-32252381D02*
X200471000Y-32233333D01*
X200471000Y-32233333D02*
X200490047Y-32214286D01*
X200490047Y-32214286D02*
X200528142Y-32204762D01*
X200528142Y-32204762D02*
X200594809Y-32204762D01*
X200594809Y-32204762D02*
X200632904Y-32214286D01*
X200632904Y-32214286D02*
X200651952Y-32233333D01*
X200651952Y-32233333D02*
X200661476Y-32252381D01*
X200661476Y-32252381D02*
X200661476Y-32290476D01*
X200661476Y-32290476D02*
X200651952Y-32309524D01*
X200651952Y-32309524D02*
X200632904Y-32328571D01*
X200632904Y-32328571D02*
X200594809Y-32338095D01*
X200594809Y-32338095D02*
X200528142Y-32338095D01*
X200528142Y-32338095D02*
X200490047Y-32328571D01*
X200490047Y-32328571D02*
X200471000Y-32309524D01*
X200471000Y-32309524D02*
X200461476Y-32290476D01*
X200461476Y-32119047D02*
X200623380Y-32119047D01*
X200623380Y-32119047D02*
X200642428Y-32109524D01*
X200642428Y-32109524D02*
X200651952Y-32100000D01*
X200651952Y-32100000D02*
X200661476Y-32080952D01*
X200661476Y-32080952D02*
X200661476Y-32042857D01*
X200661476Y-32042857D02*
X200651952Y-32023809D01*
X200651952Y-32023809D02*
X200642428Y-32014286D01*
X200642428Y-32014286D02*
X200623380Y-32004762D01*
X200623380Y-32004762D02*
X200461476Y-32004762D01*
X200461476Y-31938095D02*
X200461476Y-31823809D01*
X200661476Y-31880952D02*
X200461476Y-31880952D01*
X200461476Y-31656190D02*
X200461476Y-31522857D01*
X200461476Y-31522857D02*
X200661476Y-31656190D01*
X200661476Y-31656190D02*
X200661476Y-31522857D01*
X200461476Y-31408571D02*
X200461476Y-31370476D01*
X200461476Y-31370476D02*
X200471000Y-31351428D01*
X200471000Y-31351428D02*
X200490047Y-31332381D01*
X200490047Y-31332381D02*
X200528142Y-31322857D01*
X200528142Y-31322857D02*
X200594809Y-31322857D01*
X200594809Y-31322857D02*
X200632904Y-31332381D01*
X200632904Y-31332381D02*
X200651952Y-31351428D01*
X200651952Y-31351428D02*
X200661476Y-31370476D01*
X200661476Y-31370476D02*
X200661476Y-31408571D01*
X200661476Y-31408571D02*
X200651952Y-31427619D01*
X200651952Y-31427619D02*
X200632904Y-31446666D01*
X200632904Y-31446666D02*
X200594809Y-31456190D01*
X200594809Y-31456190D02*
X200528142Y-31456190D01*
X200528142Y-31456190D02*
X200490047Y-31446666D01*
X200490047Y-31446666D02*
X200471000Y-31427619D01*
X200471000Y-31427619D02*
X200461476Y-31408571D01*
X200661476Y-31237142D02*
X200461476Y-31237142D01*
X200461476Y-31237142D02*
X200661476Y-31122857D01*
X200661476Y-31122857D02*
X200461476Y-31122857D01*
X200556714Y-31027618D02*
X200556714Y-30960952D01*
X200661476Y-30932380D02*
X200661476Y-31027618D01*
X200661476Y-31027618D02*
X200461476Y-31027618D01*
X200461476Y-31027618D02*
X200461476Y-30932380D01*
X200261476Y-33188571D02*
X200061476Y-33188571D01*
X200061476Y-33188571D02*
X200261476Y-33074286D01*
X200261476Y-33074286D02*
X200061476Y-33074286D01*
X200261476Y-32950476D02*
X200251952Y-32969524D01*
X200251952Y-32969524D02*
X200242428Y-32979047D01*
X200242428Y-32979047D02*
X200223380Y-32988571D01*
X200223380Y-32988571D02*
X200166238Y-32988571D01*
X200166238Y-32988571D02*
X200147190Y-32979047D01*
X200147190Y-32979047D02*
X200137666Y-32969524D01*
X200137666Y-32969524D02*
X200128142Y-32950476D01*
X200128142Y-32950476D02*
X200128142Y-32921905D01*
X200128142Y-32921905D02*
X200137666Y-32902857D01*
X200137666Y-32902857D02*
X200147190Y-32893333D01*
X200147190Y-32893333D02*
X200166238Y-32883809D01*
X200166238Y-32883809D02*
X200223380Y-32883809D01*
X200223380Y-32883809D02*
X200242428Y-32893333D01*
X200242428Y-32893333D02*
X200251952Y-32902857D01*
X200251952Y-32902857D02*
X200261476Y-32921905D01*
X200261476Y-32921905D02*
X200261476Y-32950476D01*
X200156714Y-32611429D02*
X200156714Y-32678095D01*
X200261476Y-32678095D02*
X200061476Y-32678095D01*
X200061476Y-32678095D02*
X200061476Y-32582857D01*
X200242428Y-32506666D02*
X200251952Y-32497143D01*
X200251952Y-32497143D02*
X200261476Y-32506666D01*
X200261476Y-32506666D02*
X200251952Y-32516190D01*
X200251952Y-32516190D02*
X200242428Y-32506666D01*
X200242428Y-32506666D02*
X200261476Y-32506666D01*
X200242428Y-32297143D02*
X200251952Y-32306667D01*
X200251952Y-32306667D02*
X200261476Y-32335238D01*
X200261476Y-32335238D02*
X200261476Y-32354286D01*
X200261476Y-32354286D02*
X200251952Y-32382857D01*
X200251952Y-32382857D02*
X200232904Y-32401905D01*
X200232904Y-32401905D02*
X200213857Y-32411428D01*
X200213857Y-32411428D02*
X200175761Y-32420952D01*
X200175761Y-32420952D02*
X200147190Y-32420952D01*
X200147190Y-32420952D02*
X200109095Y-32411428D01*
X200109095Y-32411428D02*
X200090047Y-32401905D01*
X200090047Y-32401905D02*
X200071000Y-32382857D01*
X200071000Y-32382857D02*
X200061476Y-32354286D01*
X200061476Y-32354286D02*
X200061476Y-32335238D01*
X200061476Y-32335238D02*
X200071000Y-32306667D01*
X200071000Y-32306667D02*
X200080523Y-32297143D01*
X200128142Y-32125714D02*
X200261476Y-32125714D01*
X200128142Y-32211428D02*
X200232904Y-32211428D01*
X200232904Y-32211428D02*
X200251952Y-32201905D01*
X200251952Y-32201905D02*
X200261476Y-32182857D01*
X200261476Y-32182857D02*
X200261476Y-32154286D01*
X200261476Y-32154286D02*
X200251952Y-32135238D01*
X200251952Y-32135238D02*
X200242428Y-32125714D01*
X200128142Y-31939048D02*
X200128142Y-31862857D01*
X200061476Y-31910476D02*
X200232904Y-31910476D01*
X200232904Y-31910476D02*
X200251952Y-31900953D01*
X200251952Y-31900953D02*
X200261476Y-31881905D01*
X200261476Y-31881905D02*
X200261476Y-31862857D01*
X200261476Y-31796190D02*
X200128142Y-31796190D01*
X200166238Y-31796190D02*
X200147190Y-31786667D01*
X200147190Y-31786667D02*
X200137666Y-31777143D01*
X200137666Y-31777143D02*
X200128142Y-31758095D01*
X200128142Y-31758095D02*
X200128142Y-31739048D01*
X200261476Y-31586666D02*
X200156714Y-31586666D01*
X200156714Y-31586666D02*
X200137666Y-31596190D01*
X200137666Y-31596190D02*
X200128142Y-31615238D01*
X200128142Y-31615238D02*
X200128142Y-31653333D01*
X200128142Y-31653333D02*
X200137666Y-31672380D01*
X200251952Y-31586666D02*
X200261476Y-31605714D01*
X200261476Y-31605714D02*
X200261476Y-31653333D01*
X200261476Y-31653333D02*
X200251952Y-31672380D01*
X200251952Y-31672380D02*
X200232904Y-31681904D01*
X200232904Y-31681904D02*
X200213857Y-31681904D01*
X200213857Y-31681904D02*
X200194809Y-31672380D01*
X200194809Y-31672380D02*
X200185285Y-31653333D01*
X200185285Y-31653333D02*
X200185285Y-31605714D01*
X200185285Y-31605714D02*
X200175761Y-31586666D01*
X200251952Y-31405714D02*
X200261476Y-31424762D01*
X200261476Y-31424762D02*
X200261476Y-31462857D01*
X200261476Y-31462857D02*
X200251952Y-31481905D01*
X200251952Y-31481905D02*
X200242428Y-31491428D01*
X200242428Y-31491428D02*
X200223380Y-31500952D01*
X200223380Y-31500952D02*
X200166238Y-31500952D01*
X200166238Y-31500952D02*
X200147190Y-31491428D01*
X200147190Y-31491428D02*
X200137666Y-31481905D01*
X200137666Y-31481905D02*
X200128142Y-31462857D01*
X200128142Y-31462857D02*
X200128142Y-31424762D01*
X200128142Y-31424762D02*
X200137666Y-31405714D01*
X200261476Y-31319999D02*
X200061476Y-31319999D01*
X200185285Y-31300952D02*
X200261476Y-31243809D01*
X200128142Y-31243809D02*
X200204333Y-31319999D01*
X200251952Y-31167618D02*
X200261476Y-31148571D01*
X200261476Y-31148571D02*
X200261476Y-31110475D01*
X200261476Y-31110475D02*
X200251952Y-31091428D01*
X200251952Y-31091428D02*
X200232904Y-31081904D01*
X200232904Y-31081904D02*
X200223380Y-31081904D01*
X200223380Y-31081904D02*
X200204333Y-31091428D01*
X200204333Y-31091428D02*
X200194809Y-31110475D01*
X200194809Y-31110475D02*
X200194809Y-31139047D01*
X200194809Y-31139047D02*
X200185285Y-31158094D01*
X200185285Y-31158094D02*
X200166238Y-31167618D01*
X200166238Y-31167618D02*
X200156714Y-31167618D01*
X200156714Y-31167618D02*
X200137666Y-31158094D01*
X200137666Y-31158094D02*
X200128142Y-31139047D01*
X200128142Y-31139047D02*
X200128142Y-31110475D01*
X200128142Y-31110475D02*
X200137666Y-31091428D01*
D11*
%TO.C,J2*%
X217301952Y-66148095D02*
X216901952Y-66148095D01*
X217301952Y-65919524D02*
X217073380Y-66090953D01*
X216901952Y-65919524D02*
X217130523Y-66148095D01*
X217092428Y-65748095D02*
X217092428Y-65614762D01*
X217301952Y-65557619D02*
X217301952Y-65748095D01*
X217301952Y-65748095D02*
X216901952Y-65748095D01*
X216901952Y-65748095D02*
X216901952Y-65557619D01*
X217092428Y-65386190D02*
X217092428Y-65252857D01*
X217301952Y-65195714D02*
X217301952Y-65386190D01*
X217301952Y-65386190D02*
X216901952Y-65386190D01*
X216901952Y-65386190D02*
X216901952Y-65195714D01*
X217301952Y-65024285D02*
X216901952Y-65024285D01*
X216901952Y-65024285D02*
X216901952Y-64871904D01*
X216901952Y-64871904D02*
X216921000Y-64833809D01*
X216921000Y-64833809D02*
X216940047Y-64814762D01*
X216940047Y-64814762D02*
X216978142Y-64795714D01*
X216978142Y-64795714D02*
X217035285Y-64795714D01*
X217035285Y-64795714D02*
X217073380Y-64814762D01*
X217073380Y-64814762D02*
X217092428Y-64833809D01*
X217092428Y-64833809D02*
X217111476Y-64871904D01*
X217111476Y-64871904D02*
X217111476Y-65024285D01*
X216901952Y-64548095D02*
X216901952Y-64471904D01*
X216901952Y-64471904D02*
X216921000Y-64433809D01*
X216921000Y-64433809D02*
X216959095Y-64395714D01*
X216959095Y-64395714D02*
X217035285Y-64376666D01*
X217035285Y-64376666D02*
X217168619Y-64376666D01*
X217168619Y-64376666D02*
X217244809Y-64395714D01*
X217244809Y-64395714D02*
X217282904Y-64433809D01*
X217282904Y-64433809D02*
X217301952Y-64471904D01*
X217301952Y-64471904D02*
X217301952Y-64548095D01*
X217301952Y-64548095D02*
X217282904Y-64586190D01*
X217282904Y-64586190D02*
X217244809Y-64624285D01*
X217244809Y-64624285D02*
X217168619Y-64643333D01*
X217168619Y-64643333D02*
X217035285Y-64643333D01*
X217035285Y-64643333D02*
X216959095Y-64624285D01*
X216959095Y-64624285D02*
X216921000Y-64586190D01*
X216921000Y-64586190D02*
X216901952Y-64548095D01*
X216901952Y-64205237D02*
X217225761Y-64205237D01*
X217225761Y-64205237D02*
X217263857Y-64186190D01*
X217263857Y-64186190D02*
X217282904Y-64167142D01*
X217282904Y-64167142D02*
X217301952Y-64129047D01*
X217301952Y-64129047D02*
X217301952Y-64052856D01*
X217301952Y-64052856D02*
X217282904Y-64014761D01*
X217282904Y-64014761D02*
X217263857Y-63995714D01*
X217263857Y-63995714D02*
X217225761Y-63976666D01*
X217225761Y-63976666D02*
X216901952Y-63976666D01*
X216901952Y-63843332D02*
X216901952Y-63614761D01*
X217301952Y-63729047D02*
X216901952Y-63729047D01*
%TD*%
M02*
