%TF.GenerationSoftware,KiCad,Pcbnew,(7.0.0)*%
%TF.CreationDate,2023-03-14T06:51:47-04:00*%
%TF.ProjectId,ICOF1,49434f46-312e-46b6-9963-61645f706362,rev?*%
%TF.SameCoordinates,Original*%
%TF.FileFunction,Paste,Bot*%
%TF.FilePolarity,Positive*%
%FSLAX46Y46*%
G04 Gerber Fmt 4.6, Leading zero omitted, Abs format (unit mm)*
G04 Created by KiCad (PCBNEW (7.0.0)) date 2023-03-14 06:51:47*
%MOMM*%
%LPD*%
G01*
G04 APERTURE LIST*
%ADD10R,2.550000X2.500000*%
G04 APERTURE END LIST*
D10*
%TO.C,U$15*%
X354626099Y-71647599D03*
X339386099Y-74187599D03*
%TD*%
%TO.C,U$19*%
X315395099Y-132777599D03*
X300155099Y-135317599D03*
%TD*%
%TO.C,SW8*%
X114387099Y-69278599D03*
X99147099Y-71818599D03*
%TD*%
%TO.C,U$14*%
X326271099Y-68672599D03*
X311031099Y-71212599D03*
%TD*%
%TO.C,U$16*%
X380849099Y-87683599D03*
X365609099Y-90223599D03*
%TD*%
%TO.C,U$8*%
X220691099Y-81041599D03*
X205451099Y-83581599D03*
%TD*%
%TO.C,U$17*%
X292738099Y-117007599D03*
X277498099Y-119547599D03*
%TD*%
%TO.C,U$12*%
X380849099Y-60073599D03*
X365609099Y-62613599D03*
%TD*%
%TO.C,U$9*%
X299753099Y-53058599D03*
X284513099Y-55598599D03*
%TD*%
%TO.C,U$20*%
X292738099Y-148192599D03*
X277498099Y-150732599D03*
%TD*%
%TO.C,U$18*%
X270051099Y-132777599D03*
X254811099Y-135317599D03*
%TD*%
%TO.C,U$21*%
X270051099Y-163962599D03*
X254811099Y-166502599D03*
%TD*%
%TO.C,SW10*%
X140959099Y-81041599D03*
X125719099Y-83581599D03*
%TD*%
%TO.C,U$7*%
X170606099Y-163961599D03*
X155366099Y-166501599D03*
%TD*%
%TO.C,U$11*%
X354626099Y-44037599D03*
X339386099Y-46577599D03*
%TD*%
%TO.C,U$13*%
X299753099Y-80667599D03*
X284513099Y-83207599D03*
%TD*%
%TO.C,SW6*%
X86031099Y-72004599D03*
X70791099Y-74544599D03*
%TD*%
%TO.C,SW4*%
X60751099Y-88307599D03*
X45511099Y-90847599D03*
%TD*%
%TO.C,U$6*%
X147918099Y-148192599D03*
X132678099Y-150732599D03*
%TD*%
%TO.C,U$10*%
X326271099Y-41062599D03*
X311031099Y-43602599D03*
%TD*%
M02*
