M48
; DRILL file {KiCad 7.0.2-6a45011f42~172~ubuntu22.04.1} date Wed 17 May 2023 04:17:18 AM EDT
; FORMAT={-:-/ absolute / inch / decimal}
; #@! TF.CreationDate,2023-05-17T04:17:18-04:00
; #@! TF.GenerationSoftware,Kicad,Pcbnew,7.0.2-6a45011f42~172~ubuntu22.04.1
; #@! TF.FileFunction,NonPlated,1,2,NPTH
FMAT,2
INCH
; #@! TA.AperFunction,NonPlated,NPTH,ComponentDrill
T1C0.0256
; #@! TA.AperFunction,NonPlated,NPTH,ComponentDrill
T2C0.0390
; #@! TA.AperFunction,NonPlated,NPTH,ComponentDrill
T3C0.0689
; #@! TA.AperFunction,NonPlated,NPTH,ComponentDrill
T4C0.1181
; #@! TA.AperFunction,NonPlated,NPTH,ComponentDrill
T5C0.1570
; #@! TA.AperFunction,NonPlated,NPTH,ComponentDrill
T6C0.3150
; #@! TA.AperFunction,NonPlated,NPTH,ComponentDrill
T7C0.3346
; #@! TA.AperFunction,NonPlated,NPTH,ComponentDrill
T8C0.3543
%
G90
G05
T1
X8.1617Y-1.2069
X8.451Y-1.2069
T2
X8.5094Y-2.6555
X8.5494Y-2.4555
X8.5894Y-2.6555
T3
X1.8668Y-3.3767
X2.2668Y-3.3767
X2.8621Y-2.7348
X3.2621Y-2.7348
X3.9784Y-2.6275
X4.3784Y-2.6275
X5.0246Y-3.0906
X5.2984Y-5.7335
X5.4246Y-3.0906
X5.6984Y-5.7335
X6.1918Y-6.3552
X6.5918Y-6.3552
X8.1636Y-3.0906
X8.5636Y-3.0906
X10.1069Y-5.1275
X10.1069Y-6.3552
X10.5069Y-5.1275
X10.5069Y-6.3552
X11.0001Y-4.5066
X11.0001Y-5.7344
X11.2763Y-1.9889
X11.2763Y-3.0759
X11.4001Y-4.5066
X11.4001Y-5.7344
X11.6763Y-1.9889
X11.6763Y-3.0759
X11.8921Y-5.1275
X12.2921Y-5.1275
X12.3203Y-1.5166
X12.3203Y-2.6036
X12.7203Y-1.5166
X12.7203Y-2.6036
X13.4367Y-1.6338
X13.4367Y-2.7208
X13.8367Y-1.6338
X13.8367Y-2.7208
X14.4691Y-2.2651
X14.4691Y-3.3521
X14.8691Y-2.2651
X14.8691Y-3.3521
T4
X1.7335Y-5.949
X1.9668Y-3.5767
X2.2168Y-3.4767
X2.9621Y-2.9348
X3.2121Y-2.8348
X4.0784Y-2.8275
X4.3284Y-2.7275
X5.1246Y-3.2906
X5.1981Y-6.4214
X5.3746Y-3.1906
X5.3984Y-5.9335
X5.6484Y-5.8335
X6.2918Y-6.5552
X6.5418Y-6.4552
X7.202Y-2.2067
X8.2636Y-3.2906
X8.5136Y-3.1906
X9.6863Y-4.8466
X10.2069Y-5.3275
X10.2069Y-6.5552
X10.4569Y-5.2275
X10.4569Y-6.4552
X11.1001Y-4.7066
X11.1001Y-5.9344
X11.3501Y-4.6066
X11.3501Y-5.8344
X11.3763Y-2.1889
X11.3763Y-3.2759
X11.6263Y-2.0889
X11.6263Y-3.1759
X11.9921Y-5.3275
X12.2421Y-5.2275
X12.4203Y-1.7166
X12.4203Y-2.8036
X12.6703Y-1.6166
X12.6703Y-2.7036
X13.5367Y-1.8338
X13.5367Y-2.9208
X13.702Y-5.6734
X13.7867Y-1.7338
X13.7867Y-2.8208
X14.5691Y-2.4651
X14.5691Y-3.5521
X14.8191Y-2.3651
X14.8191Y-3.4521
T5
X2.0668Y-3.3767
X3.0621Y-2.7348
X4.1784Y-2.6275
X5.2246Y-3.0906
X5.4984Y-5.7335
X6.3918Y-6.3552
X8.3636Y-3.0906
X10.3069Y-5.1275
X10.3069Y-6.3552
X11.2001Y-4.5066
X11.2001Y-5.7344
X11.4763Y-1.9889
X11.4763Y-3.0759
X12.0921Y-5.1275
X12.5203Y-1.5166
X12.5203Y-2.6036
X13.6367Y-1.6338
X13.6367Y-2.7208
X14.6691Y-2.2651
X14.6691Y-3.3521
T6
X1.9697Y-5.5159
X5.08Y-1.8151
X7.8752Y-6.1852
X9.765Y-2.6812
X13.0721Y-2.012
X13.3871Y-6.1064
T7
X7.3241Y-5.0356
T8
X2.0642Y-4.1458
X3.6941Y-1.5671
X9.3713Y-1.6379
X12.5996Y-6.2246
T0
M30
