%TF.GenerationSoftware,KiCad,Pcbnew,(7.0.0)*%
%TF.CreationDate,2023-03-14T06:51:47-04:00*%
%TF.ProjectId,ICOF1,49434f46-312e-46b6-9963-61645f706362,rev?*%
%TF.SameCoordinates,Original*%
%TF.FileFunction,Soldermask,Top*%
%TF.FilePolarity,Negative*%
%FSLAX46Y46*%
G04 Gerber Fmt 4.6, Leading zero omitted, Abs format (unit mm)*
G04 Created by KiCad (PCBNEW (7.0.0)) date 2023-03-14 06:51:47*
%MOMM*%
%LPD*%
G01*
G04 APERTURE LIST*
G04 Aperture macros list*
%AMRoundRect*
0 Rectangle with rounded corners*
0 $1 Rounding radius*
0 $2 $3 $4 $5 $6 $7 $8 $9 X,Y pos of 4 corners*
0 Add a 4 corners polygon primitive as box body*
4,1,4,$2,$3,$4,$5,$6,$7,$8,$9,$2,$3,0*
0 Add four circle primitives for the rounded corners*
1,1,$1+$1,$2,$3*
1,1,$1+$1,$4,$5*
1,1,$1+$1,$6,$7*
1,1,$1+$1,$8,$9*
0 Add four rect primitives between the rounded corners*
20,1,$1+$1,$2,$3,$4,$5,0*
20,1,$1+$1,$4,$5,$6,$7,0*
20,1,$1+$1,$6,$7,$8,$9,0*
20,1,$1+$1,$8,$9,$2,$3,0*%
%AMFreePoly0*
4,1,17,0.425901,0.806901,0.806901,0.425901,0.825500,0.381000,0.825500,-0.381000,0.806901,-0.425901,0.425901,-0.806901,0.381000,-0.825500,-0.381000,-0.825500,-0.425901,-0.806901,-0.806901,-0.425901,-0.825500,-0.381000,-0.825500,0.381000,-0.806901,0.425901,-0.425901,0.806901,-0.381000,0.825500,0.381000,0.825500,0.425901,0.806901,0.425901,0.806901,$1*%
G04 Aperture macros list end*
%ADD10R,0.750000X1.000000*%
%ADD11C,1.701800*%
%ADD12C,3.000000*%
%ADD13C,3.987800*%
%ADD14C,2.374900*%
%ADD15FreePoly0,0.000000*%
%ADD16C,9.000000*%
%ADD17C,8.000000*%
%ADD18RoundRect,0.140000X0.170000X-0.140000X0.170000X0.140000X-0.170000X0.140000X-0.170000X-0.140000X0*%
%ADD19RoundRect,0.200000X-0.275000X0.200000X-0.275000X-0.200000X0.275000X-0.200000X0.275000X0.200000X0*%
%ADD20RoundRect,0.150000X0.587500X0.150000X-0.587500X0.150000X-0.587500X-0.150000X0.587500X-0.150000X0*%
%ADD21RoundRect,0.140000X0.140000X0.170000X-0.140000X0.170000X-0.140000X-0.170000X0.140000X-0.170000X0*%
%ADD22RoundRect,0.243750X-0.243750X-0.456250X0.243750X-0.456250X0.243750X0.456250X-0.243750X0.456250X0*%
%ADD23RoundRect,0.200000X0.275000X-0.200000X0.275000X0.200000X-0.275000X0.200000X-0.275000X-0.200000X0*%
%ADD24RoundRect,0.140000X-0.219203X-0.021213X-0.021213X-0.219203X0.219203X0.021213X0.021213X0.219203X0*%
%ADD25RoundRect,0.135000X0.135000X0.185000X-0.135000X0.185000X-0.135000X-0.185000X0.135000X-0.185000X0*%
%ADD26R,1.400000X1.200000*%
%ADD27RoundRect,0.140000X-0.021213X0.219203X-0.219203X0.021213X0.021213X-0.219203X0.219203X-0.021213X0*%
%ADD28RoundRect,0.250000X-0.375000X-0.625000X0.375000X-0.625000X0.375000X0.625000X-0.375000X0.625000X0*%
%ADD29RoundRect,0.225000X0.375000X-0.225000X0.375000X0.225000X-0.375000X0.225000X-0.375000X-0.225000X0*%
%ADD30RoundRect,0.200000X0.200000X0.275000X-0.200000X0.275000X-0.200000X-0.275000X0.200000X-0.275000X0*%
%ADD31RoundRect,0.200000X-0.200000X-0.275000X0.200000X-0.275000X0.200000X0.275000X-0.200000X0.275000X0*%
%ADD32RoundRect,0.140000X-0.140000X-0.170000X0.140000X-0.170000X0.140000X0.170000X-0.140000X0.170000X0*%
%ADD33RoundRect,0.135000X0.185000X-0.135000X0.185000X0.135000X-0.185000X0.135000X-0.185000X-0.135000X0*%
%ADD34RoundRect,0.140000X-0.170000X0.140000X-0.170000X-0.140000X0.170000X-0.140000X0.170000X0.140000X0*%
%ADD35RoundRect,0.135000X-0.185000X0.135000X-0.185000X-0.135000X0.185000X-0.135000X0.185000X0.135000X0*%
%ADD36RoundRect,0.050000X-0.387500X-0.050000X0.387500X-0.050000X0.387500X0.050000X-0.387500X0.050000X0*%
%ADD37RoundRect,0.050000X-0.050000X-0.387500X0.050000X-0.387500X0.050000X0.387500X-0.050000X0.387500X0*%
%ADD38RoundRect,0.144000X-1.456000X-1.456000X1.456000X-1.456000X1.456000X1.456000X-1.456000X1.456000X0*%
%ADD39C,8.500000*%
%ADD40RoundRect,0.150000X-0.150000X0.512500X-0.150000X-0.512500X0.150000X-0.512500X0.150000X0.512500X0*%
%ADD41RoundRect,0.135000X-0.135000X-0.185000X0.135000X-0.185000X0.135000X0.185000X-0.135000X0.185000X0*%
%ADD42C,0.650000*%
%ADD43R,0.300000X0.900000*%
%ADD44R,0.300000X0.700000*%
%ADD45O,0.800000X1.400000*%
%ADD46RoundRect,0.150000X-0.650000X-0.150000X0.650000X-0.150000X0.650000X0.150000X-0.650000X0.150000X0*%
G04 APERTURE END LIST*
D10*
%TO.C,SW1*%
X201608999Y-30407106D03*
X201608999Y-36407106D03*
X197858999Y-30407106D03*
X197858999Y-36407106D03*
%TD*%
D11*
%TO.C,U$15*%
X351451100Y-69107600D03*
D12*
X350181100Y-71647600D03*
D13*
X346371100Y-69107600D03*
D12*
X343831100Y-74187600D03*
D11*
X341291100Y-69107600D03*
D14*
X342561100Y-66567600D03*
X348911100Y-64027600D03*
%TD*%
D11*
%TO.C,U$19*%
X312220100Y-130237600D03*
D12*
X310950100Y-132777600D03*
D13*
X307140100Y-130237600D03*
D12*
X304600100Y-135317600D03*
D11*
X302060100Y-130237600D03*
D14*
X303330100Y-127697600D03*
X309680100Y-125157600D03*
%TD*%
D11*
%TO.C,SW8*%
X111212100Y-66738600D03*
D12*
X109942100Y-69278600D03*
D13*
X106132100Y-66738600D03*
D12*
X103592100Y-71818600D03*
D11*
X101052100Y-66738600D03*
D14*
X102322100Y-64198600D03*
X108672100Y-61658600D03*
%TD*%
D15*
%TO.C,JP18*%
X275031100Y-130103600D03*
%TD*%
D16*
%TO.C,@HOLE15*%
X320031100Y-158103600D03*
%TD*%
D12*
%TO.C,@HOLE1*%
X348031100Y-144103600D03*
%TD*%
D17*
%TO.C,@HOLE6*%
X50031100Y-140103600D03*
%TD*%
D18*
%TO.C,C13*%
X205468750Y-50583125D03*
X205468750Y-49623125D03*
%TD*%
D19*
%TO.C,R5*%
X221154000Y-47687107D03*
X221154000Y-49337107D03*
%TD*%
D15*
%TO.C,JP13*%
X358031100Y-51103600D03*
%TD*%
D20*
%TO.C,U1*%
X216414000Y-40677107D03*
X216414000Y-38777107D03*
X214539000Y-39727107D03*
%TD*%
D11*
%TO.C,U$14*%
X323096100Y-66132600D03*
D12*
X321826100Y-68672600D03*
D13*
X318016100Y-66132600D03*
D12*
X315476100Y-71212600D03*
D11*
X312936100Y-66132600D03*
D14*
X314206100Y-63592600D03*
X320556100Y-61052600D03*
%TD*%
D16*
%TO.C,@HOLE11*%
X238031100Y-41603600D03*
%TD*%
D17*
%TO.C,@HOLE8*%
X248031100Y-68103600D03*
%TD*%
D21*
%TO.C,C2*%
X215504000Y-37487107D03*
X214544000Y-37487107D03*
%TD*%
D12*
%TO.C,@HOLE0*%
X132031100Y-163103600D03*
%TD*%
D22*
%TO.C,D3*%
X222492500Y-52075000D03*
X224367500Y-52075000D03*
%TD*%
D11*
%TO.C,U$16*%
X377674100Y-85143600D03*
D12*
X376404100Y-87683600D03*
D13*
X372594100Y-85143600D03*
D12*
X370054100Y-90223600D03*
D11*
X367514100Y-85143600D03*
D14*
X368784100Y-82603600D03*
X375134100Y-80063600D03*
%TD*%
D11*
%TO.C,U$8*%
X217516100Y-78501600D03*
D12*
X216246100Y-81041600D03*
D13*
X212436100Y-78501600D03*
D12*
X209896100Y-83581600D03*
D11*
X207356100Y-78501600D03*
D14*
X208626100Y-75961600D03*
X214976100Y-73421600D03*
%TD*%
D23*
%TO.C,R6*%
X222694000Y-49337107D03*
X222694000Y-47687107D03*
%TD*%
D24*
%TO.C,C11*%
X217670589Y-56383589D03*
X218349411Y-57062411D03*
%TD*%
D25*
%TO.C,R2*%
X207064000Y-34137107D03*
X206044000Y-34137107D03*
%TD*%
D15*
%TO.C,JP20*%
X299031100Y-147103600D03*
%TD*%
D11*
%TO.C,U$17*%
X289563100Y-114467600D03*
D12*
X288293100Y-117007600D03*
D13*
X284483100Y-114467600D03*
D12*
X281943100Y-119547600D03*
D11*
X279403100Y-114467600D03*
D14*
X280673100Y-111927600D03*
X287023100Y-109387600D03*
%TD*%
D26*
%TO.C,Y1*%
X209517999Y-64096356D03*
X207317999Y-64096356D03*
X207317999Y-65796356D03*
X209517999Y-65796356D03*
%TD*%
D11*
%TO.C,U$12*%
X377674100Y-57533600D03*
D12*
X376404100Y-60073600D03*
D13*
X372594100Y-57533600D03*
D12*
X370054100Y-62613600D03*
D11*
X367514100Y-57533600D03*
D14*
X368784100Y-54993600D03*
X375134100Y-52453600D03*
%TD*%
D11*
%TO.C,U$9*%
X296578100Y-50518600D03*
D12*
X295308100Y-53058600D03*
D13*
X291498100Y-50518600D03*
D12*
X288958100Y-55598600D03*
D11*
X286418100Y-50518600D03*
D14*
X287688100Y-47978600D03*
X294038100Y-45438600D03*
%TD*%
D11*
%TO.C,U$20*%
X289563100Y-145652600D03*
D12*
X288293100Y-148192600D03*
D13*
X284483100Y-145652600D03*
D12*
X281943100Y-150732600D03*
D11*
X279403100Y-145652600D03*
D14*
X280673100Y-143112600D03*
X287023100Y-140572600D03*
%TD*%
D27*
%TO.C,C15*%
X204792161Y-55605714D03*
X204113339Y-56284536D03*
%TD*%
D15*
%TO.C,JP10*%
X302031100Y-84103600D03*
%TD*%
%TO.C,JP12*%
X332031100Y-36103600D03*
%TD*%
%TO.C,JP7*%
X176031100Y-158103600D03*
%TD*%
D18*
%TO.C,C8*%
X211691750Y-65442125D03*
X211691750Y-64482125D03*
%TD*%
D15*
%TO.C,JP16*%
X355031100Y-80103600D03*
%TD*%
D28*
%TO.C,F1*%
X214434000Y-34367107D03*
X217234000Y-34367107D03*
%TD*%
D15*
%TO.C,JP6*%
X150031100Y-155103600D03*
%TD*%
D11*
%TO.C,U$18*%
X266876100Y-130237600D03*
D12*
X265606100Y-132777600D03*
D13*
X261796100Y-130237600D03*
D12*
X259256100Y-135317600D03*
D11*
X256716100Y-130237600D03*
D14*
X257986100Y-127697600D03*
X264336100Y-125157600D03*
%TD*%
D17*
%TO.C,@HOLE4*%
X332031100Y-51103600D03*
%TD*%
D29*
%TO.C,D2*%
X220954000Y-38037107D03*
X220954000Y-34737107D03*
%TD*%
D15*
%TO.C,JP19*%
X321031100Y-138103600D03*
%TD*%
D11*
%TO.C,U$21*%
X266876100Y-161422600D03*
D12*
X265606100Y-163962600D03*
D13*
X261796100Y-161422600D03*
D12*
X259256100Y-166502600D03*
D11*
X256716100Y-161422600D03*
D14*
X257986100Y-158882600D03*
X264336100Y-156342600D03*
%TD*%
D30*
%TO.C,R1*%
X221205000Y-26850000D03*
X219555000Y-26850000D03*
%TD*%
D21*
%TO.C,C9*%
X218524000Y-44332107D03*
X217564000Y-44332107D03*
%TD*%
D31*
%TO.C,R4*%
X219155000Y-52325000D03*
X220805000Y-52325000D03*
%TD*%
D15*
%TO.C,JP2*%
X66031100Y-93103600D03*
%TD*%
D12*
%TO.C,@HOLE3*%
X246031100Y-123103600D03*
%TD*%
D32*
%TO.C,C1*%
X217564000Y-45532107D03*
X218524000Y-45532107D03*
%TD*%
D17*
%TO.C,@HOLE5*%
X340031100Y-155103600D03*
%TD*%
D18*
%TO.C,C4*%
X213469750Y-48043125D03*
X213469750Y-47083125D03*
%TD*%
D15*
%TO.C,JP3*%
X81031100Y-82103600D03*
%TD*%
D33*
%TO.C,R11*%
X210130000Y-61910000D03*
X210130000Y-60890000D03*
%TD*%
D34*
%TO.C,C6*%
X213117000Y-60910357D03*
X213117000Y-61870357D03*
%TD*%
D32*
%TO.C,C16*%
X216701000Y-48817357D03*
X217661000Y-48817357D03*
%TD*%
D12*
%TO.C,@HOLE10*%
X182930000Y-56050000D03*
%TD*%
D15*
%TO.C,JP17*%
X300031100Y-122103600D03*
%TD*%
D11*
%TO.C,SW10*%
X137784100Y-78501600D03*
D12*
X136514100Y-81041600D03*
D13*
X132704100Y-78501600D03*
D12*
X130164100Y-83581600D03*
D11*
X127624100Y-78501600D03*
D14*
X128894100Y-75961600D03*
X135244100Y-73421600D03*
%TD*%
D15*
%TO.C,JP14*%
X375031100Y-69103600D03*
%TD*%
D18*
%TO.C,C12*%
X214485750Y-48043125D03*
X214485750Y-47083125D03*
%TD*%
D32*
%TO.C,C3*%
X206744000Y-40547107D03*
X207704000Y-40547107D03*
%TD*%
D34*
%TO.C,C7*%
X204989000Y-64736125D03*
X204989000Y-65696125D03*
%TD*%
D15*
%TO.C,JP11*%
X328031100Y-76103600D03*
%TD*%
%TO.C,JP8*%
X220031100Y-91103600D03*
%TD*%
D16*
%TO.C,@HOLE12*%
X52431100Y-105303600D03*
%TD*%
D19*
%TO.C,R9*%
X212664000Y-41222107D03*
X212664000Y-42872107D03*
%TD*%
D15*
%TO.C,JP15*%
X377031100Y-97103600D03*
%TD*%
D35*
%TO.C,R10*%
X197974000Y-38117107D03*
X197974000Y-39137107D03*
%TD*%
D11*
%TO.C,U$7*%
X167431100Y-161421600D03*
D12*
X166161100Y-163961600D03*
D13*
X162351100Y-161421600D03*
D12*
X159811100Y-166501600D03*
D11*
X157271100Y-161421600D03*
D14*
X158541100Y-158881600D03*
X164891100Y-156341600D03*
%TD*%
D15*
%TO.C,JP5*%
X145031100Y-85103600D03*
%TD*%
D17*
%TO.C,@HOLE7*%
X129031100Y-46103600D03*
%TD*%
D19*
%TO.C,R8*%
X211134000Y-41222107D03*
X211134000Y-42872107D03*
%TD*%
D11*
%TO.C,U$11*%
X351451100Y-41497600D03*
D12*
X350181100Y-44037600D03*
D13*
X346371100Y-41497600D03*
D12*
X343831100Y-46577600D03*
D11*
X341291100Y-41497600D03*
D14*
X342561100Y-38957600D03*
X348911100Y-36417600D03*
%TD*%
D18*
%TO.C,C10*%
X210704000Y-46249357D03*
X210704000Y-45289357D03*
%TD*%
D11*
%TO.C,U$13*%
X296578100Y-78127600D03*
D12*
X295308100Y-80667600D03*
D13*
X291498100Y-78127600D03*
D12*
X288958100Y-83207600D03*
D11*
X286418100Y-78127600D03*
D14*
X287688100Y-75587600D03*
X294038100Y-73047600D03*
%TD*%
D29*
%TO.C,D1*%
X218574000Y-42967107D03*
X218574000Y-39667107D03*
%TD*%
D12*
%TO.C,@HOLE2*%
X44031100Y-151103600D03*
%TD*%
D34*
%TO.C,C14*%
X211593000Y-60910357D03*
X211593000Y-61870357D03*
%TD*%
D36*
%TO.C,U3*%
X207266500Y-51202107D03*
X207266500Y-51602107D03*
X207266500Y-52002107D03*
X207266500Y-52402107D03*
X207266500Y-52802107D03*
X207266500Y-53202107D03*
X207266500Y-53602107D03*
X207266500Y-54002107D03*
X207266500Y-54402107D03*
X207266500Y-54802107D03*
X207266500Y-55202107D03*
X207266500Y-55602107D03*
X207266500Y-56002107D03*
X207266500Y-56402107D03*
D37*
X208104000Y-57239607D03*
X208504000Y-57239607D03*
X208904000Y-57239607D03*
X209304000Y-57239607D03*
X209704000Y-57239607D03*
X210104000Y-57239607D03*
X210504000Y-57239607D03*
X210904000Y-57239607D03*
X211304000Y-57239607D03*
X211704000Y-57239607D03*
X212104000Y-57239607D03*
X212504000Y-57239607D03*
X212904000Y-57239607D03*
X213304000Y-57239607D03*
D36*
X214141500Y-56402107D03*
X214141500Y-56002107D03*
X214141500Y-55602107D03*
X214141500Y-55202107D03*
X214141500Y-54802107D03*
X214141500Y-54402107D03*
X214141500Y-54002107D03*
X214141500Y-53602107D03*
X214141500Y-53202107D03*
X214141500Y-52802107D03*
X214141500Y-52402107D03*
X214141500Y-52002107D03*
X214141500Y-51602107D03*
X214141500Y-51202107D03*
D37*
X213304000Y-50364607D03*
X212904000Y-50364607D03*
X212504000Y-50364607D03*
X212104000Y-50364607D03*
X211704000Y-50364607D03*
X211304000Y-50364607D03*
X210904000Y-50364607D03*
X210504000Y-50364607D03*
X210104000Y-50364607D03*
X209704000Y-50364607D03*
X209304000Y-50364607D03*
X208904000Y-50364607D03*
X208504000Y-50364607D03*
X208104000Y-50364607D03*
D38*
X210704000Y-53802107D03*
%TD*%
D15*
%TO.C,JP4*%
X118031100Y-75103600D03*
%TD*%
D18*
%TO.C,C5*%
X209180000Y-46249357D03*
X209180000Y-45289357D03*
%TD*%
D39*
%TO.C,@HOLE14*%
X186031100Y-127903600D03*
%TD*%
D16*
%TO.C,@HOLE13*%
X93831100Y-39803600D03*
%TD*%
D11*
%TO.C,SW6*%
X82856100Y-69464600D03*
D12*
X81586100Y-72004600D03*
D13*
X77776100Y-69464600D03*
D12*
X75236100Y-74544600D03*
D11*
X72696100Y-69464600D03*
D14*
X73966100Y-66924600D03*
X80316100Y-64384600D03*
%TD*%
D11*
%TO.C,SW4*%
X57576100Y-85767600D03*
D12*
X56306100Y-88307600D03*
D13*
X52496100Y-85767600D03*
D12*
X49956100Y-90847600D03*
D11*
X47416100Y-85767600D03*
D14*
X48686100Y-83227600D03*
X55036100Y-80687600D03*
%TD*%
D40*
%TO.C,U2*%
X211654000Y-35119607D03*
X210704000Y-35119607D03*
X209754000Y-35119607D03*
X209754000Y-37394607D03*
X210704000Y-37394607D03*
X211654000Y-37394607D03*
%TD*%
D11*
%TO.C,U$6*%
X144743100Y-145652600D03*
D12*
X143473100Y-148192600D03*
D13*
X139663100Y-145652600D03*
D12*
X137123100Y-150732600D03*
D11*
X134583100Y-145652600D03*
D14*
X135853100Y-143112600D03*
X142203100Y-140572600D03*
%TD*%
D17*
%TO.C,@HOLE9*%
X200031100Y-157103600D03*
%TD*%
D15*
%TO.C,JP21*%
X247031100Y-168103600D03*
%TD*%
D11*
%TO.C,U$10*%
X323096100Y-38522600D03*
D12*
X321826100Y-41062600D03*
D13*
X318016100Y-38522600D03*
D12*
X315476100Y-43602600D03*
D11*
X312936100Y-38522600D03*
D14*
X314206100Y-35982600D03*
X320556100Y-33442600D03*
%TD*%
D32*
%TO.C,C17*%
X216701000Y-50341357D03*
X217661000Y-50341357D03*
%TD*%
D41*
%TO.C,R3*%
X216874000Y-31477107D03*
X217894000Y-31477107D03*
%TD*%
D42*
%TO.C,J1*%
X214324000Y-29717107D03*
X206974000Y-29717107D03*
D43*
X213473999Y-30277106D03*
X212973999Y-30277106D03*
X212473999Y-30277106D03*
X211973999Y-30277106D03*
X211473999Y-30277106D03*
D44*
X210973999Y-30277106D03*
X210473999Y-30277106D03*
D43*
X209973999Y-30277106D03*
X209473999Y-30277106D03*
X208973999Y-30277106D03*
X208473999Y-30277106D03*
X207973999Y-30277106D03*
D42*
X207924000Y-29067107D03*
X208324000Y-28367107D03*
X209124000Y-28367107D03*
X209524000Y-29067107D03*
X209924000Y-28367107D03*
X210324000Y-29067107D03*
X211124000Y-29067107D03*
X211524000Y-28367107D03*
X211924000Y-29067107D03*
X212324000Y-28367107D03*
X213124000Y-28367107D03*
X213524000Y-29067107D03*
D45*
X215213999Y-24077106D03*
X214778999Y-28467106D03*
X206518999Y-28467106D03*
X206233999Y-24077106D03*
%TD*%
D46*
%TO.C,U4*%
X197630000Y-40545000D03*
X197630000Y-41815000D03*
X197630000Y-43085000D03*
X197630000Y-44355000D03*
X204830000Y-44355000D03*
X204830000Y-43085000D03*
X204830000Y-41815000D03*
X204830000Y-40545000D03*
%TD*%
D15*
%TO.C,JP9*%
X305031100Y-57103600D03*
%TD*%
M02*
