%TF.GenerationSoftware,KiCad,Pcbnew,(7.0.0)*%
%TF.CreationDate,2023-03-14T06:51:47-04:00*%
%TF.ProjectId,ICOF1,49434f46-312e-46b6-9963-61645f706362,rev?*%
%TF.SameCoordinates,Original*%
%TF.FileFunction,Legend,Top*%
%TF.FilePolarity,Positive*%
%FSLAX46Y46*%
G04 Gerber Fmt 4.6, Leading zero omitted, Abs format (unit mm)*
G04 Created by KiCad (PCBNEW (7.0.0)) date 2023-03-14 06:51:47*
%MOMM*%
%LPD*%
G01*
G04 APERTURE LIST*
G04 Aperture macros list*
%AMRoundRect*
0 Rectangle with rounded corners*
0 $1 Rounding radius*
0 $2 $3 $4 $5 $6 $7 $8 $9 X,Y pos of 4 corners*
0 Add a 4 corners polygon primitive as box body*
4,1,4,$2,$3,$4,$5,$6,$7,$8,$9,$2,$3,0*
0 Add four circle primitives for the rounded corners*
1,1,$1+$1,$2,$3*
1,1,$1+$1,$4,$5*
1,1,$1+$1,$6,$7*
1,1,$1+$1,$8,$9*
0 Add four rect primitives between the rounded corners*
20,1,$1+$1,$2,$3,$4,$5,0*
20,1,$1+$1,$4,$5,$6,$7,0*
20,1,$1+$1,$6,$7,$8,$9,0*
20,1,$1+$1,$8,$9,$2,$3,0*%
%AMFreePoly0*
4,1,17,0.425901,0.806901,0.806901,0.425901,0.825500,0.381000,0.825500,-0.381000,0.806901,-0.425901,0.425901,-0.806901,0.381000,-0.825500,-0.381000,-0.825500,-0.425901,-0.806901,-0.806901,-0.425901,-0.825500,-0.381000,-0.825500,0.381000,-0.806901,0.425901,-0.425901,0.806901,-0.381000,0.825500,0.381000,0.825500,0.425901,0.806901,0.425901,0.806901,$1*%
G04 Aperture macros list end*
%ADD10C,0.150000*%
%ADD11C,0.127000*%
%ADD12C,0.200000*%
%ADD13C,0.152400*%
%ADD14C,0.120000*%
%ADD15R,0.750000X1.000000*%
%ADD16C,1.701800*%
%ADD17C,3.000000*%
%ADD18C,3.987800*%
%ADD19C,2.374900*%
%ADD20FreePoly0,0.000000*%
%ADD21C,9.000000*%
%ADD22C,8.000000*%
%ADD23RoundRect,0.140000X0.170000X-0.140000X0.170000X0.140000X-0.170000X0.140000X-0.170000X-0.140000X0*%
%ADD24RoundRect,0.200000X-0.275000X0.200000X-0.275000X-0.200000X0.275000X-0.200000X0.275000X0.200000X0*%
%ADD25RoundRect,0.150000X0.587500X0.150000X-0.587500X0.150000X-0.587500X-0.150000X0.587500X-0.150000X0*%
%ADD26RoundRect,0.140000X0.140000X0.170000X-0.140000X0.170000X-0.140000X-0.170000X0.140000X-0.170000X0*%
%ADD27RoundRect,0.243750X-0.243750X-0.456250X0.243750X-0.456250X0.243750X0.456250X-0.243750X0.456250X0*%
%ADD28RoundRect,0.200000X0.275000X-0.200000X0.275000X0.200000X-0.275000X0.200000X-0.275000X-0.200000X0*%
%ADD29RoundRect,0.140000X-0.219203X-0.021213X-0.021213X-0.219203X0.219203X0.021213X0.021213X0.219203X0*%
%ADD30RoundRect,0.135000X0.135000X0.185000X-0.135000X0.185000X-0.135000X-0.185000X0.135000X-0.185000X0*%
%ADD31R,1.400000X1.200000*%
%ADD32RoundRect,0.140000X-0.021213X0.219203X-0.219203X0.021213X0.021213X-0.219203X0.219203X-0.021213X0*%
%ADD33RoundRect,0.250000X-0.375000X-0.625000X0.375000X-0.625000X0.375000X0.625000X-0.375000X0.625000X0*%
%ADD34RoundRect,0.225000X0.375000X-0.225000X0.375000X0.225000X-0.375000X0.225000X-0.375000X-0.225000X0*%
%ADD35RoundRect,0.200000X0.200000X0.275000X-0.200000X0.275000X-0.200000X-0.275000X0.200000X-0.275000X0*%
%ADD36RoundRect,0.200000X-0.200000X-0.275000X0.200000X-0.275000X0.200000X0.275000X-0.200000X0.275000X0*%
%ADD37RoundRect,0.140000X-0.140000X-0.170000X0.140000X-0.170000X0.140000X0.170000X-0.140000X0.170000X0*%
%ADD38RoundRect,0.135000X0.185000X-0.135000X0.185000X0.135000X-0.185000X0.135000X-0.185000X-0.135000X0*%
%ADD39RoundRect,0.140000X-0.170000X0.140000X-0.170000X-0.140000X0.170000X-0.140000X0.170000X0.140000X0*%
%ADD40RoundRect,0.135000X-0.185000X0.135000X-0.185000X-0.135000X0.185000X-0.135000X0.185000X0.135000X0*%
%ADD41RoundRect,0.050000X-0.387500X-0.050000X0.387500X-0.050000X0.387500X0.050000X-0.387500X0.050000X0*%
%ADD42RoundRect,0.050000X-0.050000X-0.387500X0.050000X-0.387500X0.050000X0.387500X-0.050000X0.387500X0*%
%ADD43RoundRect,0.144000X-1.456000X-1.456000X1.456000X-1.456000X1.456000X1.456000X-1.456000X1.456000X0*%
%ADD44C,8.500000*%
%ADD45RoundRect,0.150000X-0.150000X0.512500X-0.150000X-0.512500X0.150000X-0.512500X0.150000X0.512500X0*%
%ADD46RoundRect,0.135000X-0.135000X-0.185000X0.135000X-0.185000X0.135000X0.185000X-0.135000X0.185000X0*%
%ADD47C,0.650000*%
%ADD48R,0.300000X0.900000*%
%ADD49R,0.300000X0.700000*%
%ADD50O,0.800000X1.400000*%
%ADD51RoundRect,0.150000X-0.650000X-0.150000X0.650000X-0.150000X0.650000X0.150000X-0.650000X0.150000X0*%
G04 APERTURE END LIST*
D10*
%TO.C,SW1*%
X203688761Y-33915439D02*
X203736380Y-33772582D01*
X203736380Y-33772582D02*
X203736380Y-33534487D01*
X203736380Y-33534487D02*
X203688761Y-33439249D01*
X203688761Y-33439249D02*
X203641142Y-33391630D01*
X203641142Y-33391630D02*
X203545904Y-33344011D01*
X203545904Y-33344011D02*
X203450666Y-33344011D01*
X203450666Y-33344011D02*
X203355428Y-33391630D01*
X203355428Y-33391630D02*
X203307809Y-33439249D01*
X203307809Y-33439249D02*
X203260190Y-33534487D01*
X203260190Y-33534487D02*
X203212571Y-33724963D01*
X203212571Y-33724963D02*
X203164952Y-33820201D01*
X203164952Y-33820201D02*
X203117333Y-33867820D01*
X203117333Y-33867820D02*
X203022095Y-33915439D01*
X203022095Y-33915439D02*
X202926857Y-33915439D01*
X202926857Y-33915439D02*
X202831619Y-33867820D01*
X202831619Y-33867820D02*
X202784000Y-33820201D01*
X202784000Y-33820201D02*
X202736380Y-33724963D01*
X202736380Y-33724963D02*
X202736380Y-33486868D01*
X202736380Y-33486868D02*
X202784000Y-33344011D01*
X202736380Y-33010677D02*
X203736380Y-32772582D01*
X203736380Y-32772582D02*
X203022095Y-32582106D01*
X203022095Y-32582106D02*
X203736380Y-32391630D01*
X203736380Y-32391630D02*
X202736380Y-32153535D01*
X203736380Y-31248773D02*
X203736380Y-31820201D01*
X203736380Y-31534487D02*
X202736380Y-31534487D01*
X202736380Y-31534487D02*
X202879238Y-31629725D01*
X202879238Y-31629725D02*
X202974476Y-31724963D01*
X202974476Y-31724963D02*
X203022095Y-31820201D01*
%TO.C,@HOLE15*%
%TO.C,@HOLE1*%
%TO.C,@HOLE6*%
%TO.C,C13*%
X204472035Y-50488839D02*
X204500607Y-50517411D01*
X204500607Y-50517411D02*
X204529178Y-50603125D01*
X204529178Y-50603125D02*
X204529178Y-50660268D01*
X204529178Y-50660268D02*
X204500607Y-50745982D01*
X204500607Y-50745982D02*
X204443464Y-50803125D01*
X204443464Y-50803125D02*
X204386321Y-50831696D01*
X204386321Y-50831696D02*
X204272035Y-50860268D01*
X204272035Y-50860268D02*
X204186321Y-50860268D01*
X204186321Y-50860268D02*
X204072035Y-50831696D01*
X204072035Y-50831696D02*
X204014892Y-50803125D01*
X204014892Y-50803125D02*
X203957750Y-50745982D01*
X203957750Y-50745982D02*
X203929178Y-50660268D01*
X203929178Y-50660268D02*
X203929178Y-50603125D01*
X203929178Y-50603125D02*
X203957750Y-50517411D01*
X203957750Y-50517411D02*
X203986321Y-50488839D01*
X204529178Y-49917411D02*
X204529178Y-50260268D01*
X204529178Y-50088839D02*
X203929178Y-50088839D01*
X203929178Y-50088839D02*
X204014892Y-50145982D01*
X204014892Y-50145982D02*
X204072035Y-50203125D01*
X204072035Y-50203125D02*
X204100607Y-50260268D01*
X203929178Y-49717410D02*
X203929178Y-49345982D01*
X203929178Y-49345982D02*
X204157750Y-49545982D01*
X204157750Y-49545982D02*
X204157750Y-49460267D01*
X204157750Y-49460267D02*
X204186321Y-49403125D01*
X204186321Y-49403125D02*
X204214892Y-49374553D01*
X204214892Y-49374553D02*
X204272035Y-49345982D01*
X204272035Y-49345982D02*
X204414892Y-49345982D01*
X204414892Y-49345982D02*
X204472035Y-49374553D01*
X204472035Y-49374553D02*
X204500607Y-49403125D01*
X204500607Y-49403125D02*
X204529178Y-49460267D01*
X204529178Y-49460267D02*
X204529178Y-49631696D01*
X204529178Y-49631696D02*
X204500607Y-49688839D01*
X204500607Y-49688839D02*
X204472035Y-49717410D01*
%TO.C,R5*%
X221064000Y-46907535D02*
X220864000Y-46621821D01*
X220721143Y-46907535D02*
X220721143Y-46307535D01*
X220721143Y-46307535D02*
X220949714Y-46307535D01*
X220949714Y-46307535D02*
X221006857Y-46336107D01*
X221006857Y-46336107D02*
X221035428Y-46364678D01*
X221035428Y-46364678D02*
X221064000Y-46421821D01*
X221064000Y-46421821D02*
X221064000Y-46507535D01*
X221064000Y-46507535D02*
X221035428Y-46564678D01*
X221035428Y-46564678D02*
X221006857Y-46593249D01*
X221006857Y-46593249D02*
X220949714Y-46621821D01*
X220949714Y-46621821D02*
X220721143Y-46621821D01*
X221606857Y-46307535D02*
X221321143Y-46307535D01*
X221321143Y-46307535D02*
X221292571Y-46593249D01*
X221292571Y-46593249D02*
X221321143Y-46564678D01*
X221321143Y-46564678D02*
X221378286Y-46536107D01*
X221378286Y-46536107D02*
X221521143Y-46536107D01*
X221521143Y-46536107D02*
X221578286Y-46564678D01*
X221578286Y-46564678D02*
X221606857Y-46593249D01*
X221606857Y-46593249D02*
X221635428Y-46650392D01*
X221635428Y-46650392D02*
X221635428Y-46793249D01*
X221635428Y-46793249D02*
X221606857Y-46850392D01*
X221606857Y-46850392D02*
X221578286Y-46878964D01*
X221578286Y-46878964D02*
X221521143Y-46907535D01*
X221521143Y-46907535D02*
X221378286Y-46907535D01*
X221378286Y-46907535D02*
X221321143Y-46878964D01*
X221321143Y-46878964D02*
X221292571Y-46850392D01*
%TO.C,U1*%
X216519357Y-41447535D02*
X216519357Y-41933249D01*
X216519357Y-41933249D02*
X216547928Y-41990392D01*
X216547928Y-41990392D02*
X216576500Y-42018964D01*
X216576500Y-42018964D02*
X216633642Y-42047535D01*
X216633642Y-42047535D02*
X216747928Y-42047535D01*
X216747928Y-42047535D02*
X216805071Y-42018964D01*
X216805071Y-42018964D02*
X216833642Y-41990392D01*
X216833642Y-41990392D02*
X216862214Y-41933249D01*
X216862214Y-41933249D02*
X216862214Y-41447535D01*
X217462213Y-42047535D02*
X217119356Y-42047535D01*
X217290785Y-42047535D02*
X217290785Y-41447535D01*
X217290785Y-41447535D02*
X217233642Y-41533249D01*
X217233642Y-41533249D02*
X217176499Y-41590392D01*
X217176499Y-41590392D02*
X217119356Y-41618964D01*
%TO.C,@HOLE11*%
%TO.C,@HOLE8*%
%TO.C,C2*%
X214364000Y-36720392D02*
X214335428Y-36748964D01*
X214335428Y-36748964D02*
X214249714Y-36777535D01*
X214249714Y-36777535D02*
X214192571Y-36777535D01*
X214192571Y-36777535D02*
X214106857Y-36748964D01*
X214106857Y-36748964D02*
X214049714Y-36691821D01*
X214049714Y-36691821D02*
X214021143Y-36634678D01*
X214021143Y-36634678D02*
X213992571Y-36520392D01*
X213992571Y-36520392D02*
X213992571Y-36434678D01*
X213992571Y-36434678D02*
X214021143Y-36320392D01*
X214021143Y-36320392D02*
X214049714Y-36263249D01*
X214049714Y-36263249D02*
X214106857Y-36206107D01*
X214106857Y-36206107D02*
X214192571Y-36177535D01*
X214192571Y-36177535D02*
X214249714Y-36177535D01*
X214249714Y-36177535D02*
X214335428Y-36206107D01*
X214335428Y-36206107D02*
X214364000Y-36234678D01*
X214592571Y-36234678D02*
X214621143Y-36206107D01*
X214621143Y-36206107D02*
X214678286Y-36177535D01*
X214678286Y-36177535D02*
X214821143Y-36177535D01*
X214821143Y-36177535D02*
X214878286Y-36206107D01*
X214878286Y-36206107D02*
X214906857Y-36234678D01*
X214906857Y-36234678D02*
X214935428Y-36291821D01*
X214935428Y-36291821D02*
X214935428Y-36348964D01*
X214935428Y-36348964D02*
X214906857Y-36434678D01*
X214906857Y-36434678D02*
X214564000Y-36777535D01*
X214564000Y-36777535D02*
X214935428Y-36777535D01*
%TO.C,@HOLE0*%
%TO.C,D3*%
X222691905Y-50792380D02*
X222691905Y-49792380D01*
X222691905Y-49792380D02*
X222930000Y-49792380D01*
X222930000Y-49792380D02*
X223072857Y-49840000D01*
X223072857Y-49840000D02*
X223168095Y-49935238D01*
X223168095Y-49935238D02*
X223215714Y-50030476D01*
X223215714Y-50030476D02*
X223263333Y-50220952D01*
X223263333Y-50220952D02*
X223263333Y-50363809D01*
X223263333Y-50363809D02*
X223215714Y-50554285D01*
X223215714Y-50554285D02*
X223168095Y-50649523D01*
X223168095Y-50649523D02*
X223072857Y-50744761D01*
X223072857Y-50744761D02*
X222930000Y-50792380D01*
X222930000Y-50792380D02*
X222691905Y-50792380D01*
X223596667Y-49792380D02*
X224215714Y-49792380D01*
X224215714Y-49792380D02*
X223882381Y-50173333D01*
X223882381Y-50173333D02*
X224025238Y-50173333D01*
X224025238Y-50173333D02*
X224120476Y-50220952D01*
X224120476Y-50220952D02*
X224168095Y-50268571D01*
X224168095Y-50268571D02*
X224215714Y-50363809D01*
X224215714Y-50363809D02*
X224215714Y-50601904D01*
X224215714Y-50601904D02*
X224168095Y-50697142D01*
X224168095Y-50697142D02*
X224120476Y-50744761D01*
X224120476Y-50744761D02*
X224025238Y-50792380D01*
X224025238Y-50792380D02*
X223739524Y-50792380D01*
X223739524Y-50792380D02*
X223644286Y-50744761D01*
X223644286Y-50744761D02*
X223596667Y-50697142D01*
%TO.C,R6*%
X222604000Y-46907535D02*
X222404000Y-46621821D01*
X222261143Y-46907535D02*
X222261143Y-46307535D01*
X222261143Y-46307535D02*
X222489714Y-46307535D01*
X222489714Y-46307535D02*
X222546857Y-46336107D01*
X222546857Y-46336107D02*
X222575428Y-46364678D01*
X222575428Y-46364678D02*
X222604000Y-46421821D01*
X222604000Y-46421821D02*
X222604000Y-46507535D01*
X222604000Y-46507535D02*
X222575428Y-46564678D01*
X222575428Y-46564678D02*
X222546857Y-46593249D01*
X222546857Y-46593249D02*
X222489714Y-46621821D01*
X222489714Y-46621821D02*
X222261143Y-46621821D01*
X223118286Y-46307535D02*
X223004000Y-46307535D01*
X223004000Y-46307535D02*
X222946857Y-46336107D01*
X222946857Y-46336107D02*
X222918286Y-46364678D01*
X222918286Y-46364678D02*
X222861143Y-46450392D01*
X222861143Y-46450392D02*
X222832571Y-46564678D01*
X222832571Y-46564678D02*
X222832571Y-46793249D01*
X222832571Y-46793249D02*
X222861143Y-46850392D01*
X222861143Y-46850392D02*
X222889714Y-46878964D01*
X222889714Y-46878964D02*
X222946857Y-46907535D01*
X222946857Y-46907535D02*
X223061143Y-46907535D01*
X223061143Y-46907535D02*
X223118286Y-46878964D01*
X223118286Y-46878964D02*
X223146857Y-46850392D01*
X223146857Y-46850392D02*
X223175428Y-46793249D01*
X223175428Y-46793249D02*
X223175428Y-46650392D01*
X223175428Y-46650392D02*
X223146857Y-46593249D01*
X223146857Y-46593249D02*
X223118286Y-46564678D01*
X223118286Y-46564678D02*
X223061143Y-46536107D01*
X223061143Y-46536107D02*
X222946857Y-46536107D01*
X222946857Y-46536107D02*
X222889714Y-46564678D01*
X222889714Y-46564678D02*
X222861143Y-46593249D01*
X222861143Y-46593249D02*
X222832571Y-46650392D01*
%TO.C,C11*%
X218442042Y-55745474D02*
X218401635Y-55745474D01*
X218401635Y-55745474D02*
X218320823Y-55705068D01*
X218320823Y-55705068D02*
X218280417Y-55664662D01*
X218280417Y-55664662D02*
X218240011Y-55583850D01*
X218240011Y-55583850D02*
X218240011Y-55503038D01*
X218240011Y-55503038D02*
X218260214Y-55442429D01*
X218260214Y-55442429D02*
X218320823Y-55341413D01*
X218320823Y-55341413D02*
X218381432Y-55280804D01*
X218381432Y-55280804D02*
X218482448Y-55220195D01*
X218482448Y-55220195D02*
X218543057Y-55199992D01*
X218543057Y-55199992D02*
X218623869Y-55199992D01*
X218623869Y-55199992D02*
X218704681Y-55240398D01*
X218704681Y-55240398D02*
X218745087Y-55280804D01*
X218745087Y-55280804D02*
X218785493Y-55361616D01*
X218785493Y-55361616D02*
X218785493Y-55402023D01*
X218805696Y-56189942D02*
X218563260Y-55947505D01*
X218684478Y-56068723D02*
X219108742Y-55644459D01*
X219108742Y-55644459D02*
X219007727Y-55664662D01*
X219007727Y-55664662D02*
X218926915Y-55664662D01*
X218926915Y-55664662D02*
X218866306Y-55644459D01*
X219209758Y-56594003D02*
X218967321Y-56351566D01*
X219088540Y-56472785D02*
X219512804Y-56048521D01*
X219512804Y-56048521D02*
X219411788Y-56068724D01*
X219411788Y-56068724D02*
X219330976Y-56068724D01*
X219330976Y-56068724D02*
X219270367Y-56048521D01*
%TO.C,R2*%
X206454000Y-35527535D02*
X206254000Y-35241821D01*
X206111143Y-35527535D02*
X206111143Y-34927535D01*
X206111143Y-34927535D02*
X206339714Y-34927535D01*
X206339714Y-34927535D02*
X206396857Y-34956107D01*
X206396857Y-34956107D02*
X206425428Y-34984678D01*
X206425428Y-34984678D02*
X206454000Y-35041821D01*
X206454000Y-35041821D02*
X206454000Y-35127535D01*
X206454000Y-35127535D02*
X206425428Y-35184678D01*
X206425428Y-35184678D02*
X206396857Y-35213249D01*
X206396857Y-35213249D02*
X206339714Y-35241821D01*
X206339714Y-35241821D02*
X206111143Y-35241821D01*
X206682571Y-34984678D02*
X206711143Y-34956107D01*
X206711143Y-34956107D02*
X206768286Y-34927535D01*
X206768286Y-34927535D02*
X206911143Y-34927535D01*
X206911143Y-34927535D02*
X206968286Y-34956107D01*
X206968286Y-34956107D02*
X206996857Y-34984678D01*
X206996857Y-34984678D02*
X207025428Y-35041821D01*
X207025428Y-35041821D02*
X207025428Y-35098964D01*
X207025428Y-35098964D02*
X206996857Y-35184678D01*
X206996857Y-35184678D02*
X206654000Y-35527535D01*
X206654000Y-35527535D02*
X207025428Y-35527535D01*
%TO.C,Y1*%
X208132285Y-67331071D02*
X208132285Y-67616785D01*
X207932285Y-67016785D02*
X208132285Y-67331071D01*
X208132285Y-67331071D02*
X208332285Y-67016785D01*
X208846571Y-67616785D02*
X208503714Y-67616785D01*
X208675143Y-67616785D02*
X208675143Y-67016785D01*
X208675143Y-67016785D02*
X208618000Y-67102499D01*
X208618000Y-67102499D02*
X208560857Y-67159642D01*
X208560857Y-67159642D02*
X208503714Y-67188214D01*
%TO.C,C15*%
X205115712Y-57153570D02*
X205115712Y-57193977D01*
X205115712Y-57193977D02*
X205075306Y-57274789D01*
X205075306Y-57274789D02*
X205034900Y-57315195D01*
X205034900Y-57315195D02*
X204954088Y-57355601D01*
X204954088Y-57355601D02*
X204873276Y-57355601D01*
X204873276Y-57355601D02*
X204812667Y-57335398D01*
X204812667Y-57335398D02*
X204711651Y-57274789D01*
X204711651Y-57274789D02*
X204651042Y-57214180D01*
X204651042Y-57214180D02*
X204590433Y-57113164D01*
X204590433Y-57113164D02*
X204570230Y-57052555D01*
X204570230Y-57052555D02*
X204570230Y-56971743D01*
X204570230Y-56971743D02*
X204610636Y-56890931D01*
X204610636Y-56890931D02*
X204651042Y-56850525D01*
X204651042Y-56850525D02*
X204731854Y-56810119D01*
X204731854Y-56810119D02*
X204772261Y-56810119D01*
X205560180Y-56789916D02*
X205317743Y-57032352D01*
X205438961Y-56911134D02*
X205014697Y-56486870D01*
X205014697Y-56486870D02*
X205034900Y-56587885D01*
X205034900Y-56587885D02*
X205034900Y-56668697D01*
X205034900Y-56668697D02*
X205014697Y-56729306D01*
X205519774Y-55981793D02*
X205317743Y-56183824D01*
X205317743Y-56183824D02*
X205499571Y-56406057D01*
X205499571Y-56406057D02*
X205499571Y-56365651D01*
X205499571Y-56365651D02*
X205519774Y-56305042D01*
X205519774Y-56305042D02*
X205620789Y-56204027D01*
X205620789Y-56204027D02*
X205681398Y-56183824D01*
X205681398Y-56183824D02*
X205721804Y-56183824D01*
X205721804Y-56183824D02*
X205782413Y-56204027D01*
X205782413Y-56204027D02*
X205883429Y-56305042D01*
X205883429Y-56305042D02*
X205903632Y-56365651D01*
X205903632Y-56365651D02*
X205903632Y-56406057D01*
X205903632Y-56406057D02*
X205883429Y-56466666D01*
X205883429Y-56466666D02*
X205782413Y-56567682D01*
X205782413Y-56567682D02*
X205721804Y-56587885D01*
X205721804Y-56587885D02*
X205681398Y-56587885D01*
%TO.C,C8*%
X211847285Y-67247106D02*
X211875857Y-67275678D01*
X211875857Y-67275678D02*
X211904428Y-67361392D01*
X211904428Y-67361392D02*
X211904428Y-67418535D01*
X211904428Y-67418535D02*
X211875857Y-67504249D01*
X211875857Y-67504249D02*
X211818714Y-67561392D01*
X211818714Y-67561392D02*
X211761571Y-67589963D01*
X211761571Y-67589963D02*
X211647285Y-67618535D01*
X211647285Y-67618535D02*
X211561571Y-67618535D01*
X211561571Y-67618535D02*
X211447285Y-67589963D01*
X211447285Y-67589963D02*
X211390142Y-67561392D01*
X211390142Y-67561392D02*
X211333000Y-67504249D01*
X211333000Y-67504249D02*
X211304428Y-67418535D01*
X211304428Y-67418535D02*
X211304428Y-67361392D01*
X211304428Y-67361392D02*
X211333000Y-67275678D01*
X211333000Y-67275678D02*
X211361571Y-67247106D01*
X211561571Y-66904249D02*
X211533000Y-66961392D01*
X211533000Y-66961392D02*
X211504428Y-66989963D01*
X211504428Y-66989963D02*
X211447285Y-67018535D01*
X211447285Y-67018535D02*
X211418714Y-67018535D01*
X211418714Y-67018535D02*
X211361571Y-66989963D01*
X211361571Y-66989963D02*
X211333000Y-66961392D01*
X211333000Y-66961392D02*
X211304428Y-66904249D01*
X211304428Y-66904249D02*
X211304428Y-66789963D01*
X211304428Y-66789963D02*
X211333000Y-66732821D01*
X211333000Y-66732821D02*
X211361571Y-66704249D01*
X211361571Y-66704249D02*
X211418714Y-66675678D01*
X211418714Y-66675678D02*
X211447285Y-66675678D01*
X211447285Y-66675678D02*
X211504428Y-66704249D01*
X211504428Y-66704249D02*
X211533000Y-66732821D01*
X211533000Y-66732821D02*
X211561571Y-66789963D01*
X211561571Y-66789963D02*
X211561571Y-66904249D01*
X211561571Y-66904249D02*
X211590142Y-66961392D01*
X211590142Y-66961392D02*
X211618714Y-66989963D01*
X211618714Y-66989963D02*
X211675857Y-67018535D01*
X211675857Y-67018535D02*
X211790142Y-67018535D01*
X211790142Y-67018535D02*
X211847285Y-66989963D01*
X211847285Y-66989963D02*
X211875857Y-66961392D01*
X211875857Y-66961392D02*
X211904428Y-66904249D01*
X211904428Y-66904249D02*
X211904428Y-66789963D01*
X211904428Y-66789963D02*
X211875857Y-66732821D01*
X211875857Y-66732821D02*
X211847285Y-66704249D01*
X211847285Y-66704249D02*
X211790142Y-66675678D01*
X211790142Y-66675678D02*
X211675857Y-66675678D01*
X211675857Y-66675678D02*
X211618714Y-66704249D01*
X211618714Y-66704249D02*
X211590142Y-66732821D01*
X211590142Y-66732821D02*
X211561571Y-66789963D01*
%TO.C,F1*%
X215634000Y-35783249D02*
X215434000Y-35783249D01*
X215434000Y-36097535D02*
X215434000Y-35497535D01*
X215434000Y-35497535D02*
X215719714Y-35497535D01*
X216262571Y-36097535D02*
X215919714Y-36097535D01*
X216091143Y-36097535D02*
X216091143Y-35497535D01*
X216091143Y-35497535D02*
X216034000Y-35583249D01*
X216034000Y-35583249D02*
X215976857Y-35640392D01*
X215976857Y-35640392D02*
X215919714Y-35668964D01*
%TO.C,@HOLE4*%
%TO.C,D2*%
X222974428Y-37229963D02*
X222374428Y-37229963D01*
X222374428Y-37229963D02*
X222374428Y-37087106D01*
X222374428Y-37087106D02*
X222403000Y-37001392D01*
X222403000Y-37001392D02*
X222460142Y-36944249D01*
X222460142Y-36944249D02*
X222517285Y-36915678D01*
X222517285Y-36915678D02*
X222631571Y-36887106D01*
X222631571Y-36887106D02*
X222717285Y-36887106D01*
X222717285Y-36887106D02*
X222831571Y-36915678D01*
X222831571Y-36915678D02*
X222888714Y-36944249D01*
X222888714Y-36944249D02*
X222945857Y-37001392D01*
X222945857Y-37001392D02*
X222974428Y-37087106D01*
X222974428Y-37087106D02*
X222974428Y-37229963D01*
X222431571Y-36658535D02*
X222403000Y-36629963D01*
X222403000Y-36629963D02*
X222374428Y-36572821D01*
X222374428Y-36572821D02*
X222374428Y-36429963D01*
X222374428Y-36429963D02*
X222403000Y-36372821D01*
X222403000Y-36372821D02*
X222431571Y-36344249D01*
X222431571Y-36344249D02*
X222488714Y-36315678D01*
X222488714Y-36315678D02*
X222545857Y-36315678D01*
X222545857Y-36315678D02*
X222631571Y-36344249D01*
X222631571Y-36344249D02*
X222974428Y-36687106D01*
X222974428Y-36687106D02*
X222974428Y-36315678D01*
%TO.C,R1*%
X220280000Y-28500428D02*
X220080000Y-28214714D01*
X219937143Y-28500428D02*
X219937143Y-27900428D01*
X219937143Y-27900428D02*
X220165714Y-27900428D01*
X220165714Y-27900428D02*
X220222857Y-27929000D01*
X220222857Y-27929000D02*
X220251428Y-27957571D01*
X220251428Y-27957571D02*
X220280000Y-28014714D01*
X220280000Y-28014714D02*
X220280000Y-28100428D01*
X220280000Y-28100428D02*
X220251428Y-28157571D01*
X220251428Y-28157571D02*
X220222857Y-28186142D01*
X220222857Y-28186142D02*
X220165714Y-28214714D01*
X220165714Y-28214714D02*
X219937143Y-28214714D01*
X220851428Y-28500428D02*
X220508571Y-28500428D01*
X220680000Y-28500428D02*
X220680000Y-27900428D01*
X220680000Y-27900428D02*
X220622857Y-27986142D01*
X220622857Y-27986142D02*
X220565714Y-28043285D01*
X220565714Y-28043285D02*
X220508571Y-28071857D01*
%TO.C,C9*%
X216314000Y-44495392D02*
X216285428Y-44523964D01*
X216285428Y-44523964D02*
X216199714Y-44552535D01*
X216199714Y-44552535D02*
X216142571Y-44552535D01*
X216142571Y-44552535D02*
X216056857Y-44523964D01*
X216056857Y-44523964D02*
X215999714Y-44466821D01*
X215999714Y-44466821D02*
X215971143Y-44409678D01*
X215971143Y-44409678D02*
X215942571Y-44295392D01*
X215942571Y-44295392D02*
X215942571Y-44209678D01*
X215942571Y-44209678D02*
X215971143Y-44095392D01*
X215971143Y-44095392D02*
X215999714Y-44038249D01*
X215999714Y-44038249D02*
X216056857Y-43981107D01*
X216056857Y-43981107D02*
X216142571Y-43952535D01*
X216142571Y-43952535D02*
X216199714Y-43952535D01*
X216199714Y-43952535D02*
X216285428Y-43981107D01*
X216285428Y-43981107D02*
X216314000Y-44009678D01*
X216599714Y-44552535D02*
X216714000Y-44552535D01*
X216714000Y-44552535D02*
X216771143Y-44523964D01*
X216771143Y-44523964D02*
X216799714Y-44495392D01*
X216799714Y-44495392D02*
X216856857Y-44409678D01*
X216856857Y-44409678D02*
X216885428Y-44295392D01*
X216885428Y-44295392D02*
X216885428Y-44066821D01*
X216885428Y-44066821D02*
X216856857Y-44009678D01*
X216856857Y-44009678D02*
X216828286Y-43981107D01*
X216828286Y-43981107D02*
X216771143Y-43952535D01*
X216771143Y-43952535D02*
X216656857Y-43952535D01*
X216656857Y-43952535D02*
X216599714Y-43981107D01*
X216599714Y-43981107D02*
X216571143Y-44009678D01*
X216571143Y-44009678D02*
X216542571Y-44066821D01*
X216542571Y-44066821D02*
X216542571Y-44209678D01*
X216542571Y-44209678D02*
X216571143Y-44266821D01*
X216571143Y-44266821D02*
X216599714Y-44295392D01*
X216599714Y-44295392D02*
X216656857Y-44323964D01*
X216656857Y-44323964D02*
X216771143Y-44323964D01*
X216771143Y-44323964D02*
X216828286Y-44295392D01*
X216828286Y-44295392D02*
X216856857Y-44266821D01*
X216856857Y-44266821D02*
X216885428Y-44209678D01*
%TO.C,R4*%
X219813333Y-51262380D02*
X219480000Y-50786190D01*
X219241905Y-51262380D02*
X219241905Y-50262380D01*
X219241905Y-50262380D02*
X219622857Y-50262380D01*
X219622857Y-50262380D02*
X219718095Y-50310000D01*
X219718095Y-50310000D02*
X219765714Y-50357619D01*
X219765714Y-50357619D02*
X219813333Y-50452857D01*
X219813333Y-50452857D02*
X219813333Y-50595714D01*
X219813333Y-50595714D02*
X219765714Y-50690952D01*
X219765714Y-50690952D02*
X219718095Y-50738571D01*
X219718095Y-50738571D02*
X219622857Y-50786190D01*
X219622857Y-50786190D02*
X219241905Y-50786190D01*
X220670476Y-50595714D02*
X220670476Y-51262380D01*
X220432381Y-50214761D02*
X220194286Y-50929047D01*
X220194286Y-50929047D02*
X220813333Y-50929047D01*
%TO.C,@HOLE3*%
%TO.C,C1*%
X219554000Y-45695392D02*
X219525428Y-45723964D01*
X219525428Y-45723964D02*
X219439714Y-45752535D01*
X219439714Y-45752535D02*
X219382571Y-45752535D01*
X219382571Y-45752535D02*
X219296857Y-45723964D01*
X219296857Y-45723964D02*
X219239714Y-45666821D01*
X219239714Y-45666821D02*
X219211143Y-45609678D01*
X219211143Y-45609678D02*
X219182571Y-45495392D01*
X219182571Y-45495392D02*
X219182571Y-45409678D01*
X219182571Y-45409678D02*
X219211143Y-45295392D01*
X219211143Y-45295392D02*
X219239714Y-45238249D01*
X219239714Y-45238249D02*
X219296857Y-45181107D01*
X219296857Y-45181107D02*
X219382571Y-45152535D01*
X219382571Y-45152535D02*
X219439714Y-45152535D01*
X219439714Y-45152535D02*
X219525428Y-45181107D01*
X219525428Y-45181107D02*
X219554000Y-45209678D01*
X220125428Y-45752535D02*
X219782571Y-45752535D01*
X219954000Y-45752535D02*
X219954000Y-45152535D01*
X219954000Y-45152535D02*
X219896857Y-45238249D01*
X219896857Y-45238249D02*
X219839714Y-45295392D01*
X219839714Y-45295392D02*
X219782571Y-45323964D01*
%TO.C,@HOLE5*%
%TO.C,C4*%
X213637285Y-45987106D02*
X213665857Y-46015678D01*
X213665857Y-46015678D02*
X213694428Y-46101392D01*
X213694428Y-46101392D02*
X213694428Y-46158535D01*
X213694428Y-46158535D02*
X213665857Y-46244249D01*
X213665857Y-46244249D02*
X213608714Y-46301392D01*
X213608714Y-46301392D02*
X213551571Y-46329963D01*
X213551571Y-46329963D02*
X213437285Y-46358535D01*
X213437285Y-46358535D02*
X213351571Y-46358535D01*
X213351571Y-46358535D02*
X213237285Y-46329963D01*
X213237285Y-46329963D02*
X213180142Y-46301392D01*
X213180142Y-46301392D02*
X213123000Y-46244249D01*
X213123000Y-46244249D02*
X213094428Y-46158535D01*
X213094428Y-46158535D02*
X213094428Y-46101392D01*
X213094428Y-46101392D02*
X213123000Y-46015678D01*
X213123000Y-46015678D02*
X213151571Y-45987106D01*
X213294428Y-45472821D02*
X213694428Y-45472821D01*
X213065857Y-45615678D02*
X213494428Y-45758535D01*
X213494428Y-45758535D02*
X213494428Y-45387106D01*
%TO.C,R11*%
X210353428Y-60102464D02*
X210067714Y-60302464D01*
X210353428Y-60445321D02*
X209753428Y-60445321D01*
X209753428Y-60445321D02*
X209753428Y-60216750D01*
X209753428Y-60216750D02*
X209782000Y-60159607D01*
X209782000Y-60159607D02*
X209810571Y-60131036D01*
X209810571Y-60131036D02*
X209867714Y-60102464D01*
X209867714Y-60102464D02*
X209953428Y-60102464D01*
X209953428Y-60102464D02*
X210010571Y-60131036D01*
X210010571Y-60131036D02*
X210039142Y-60159607D01*
X210039142Y-60159607D02*
X210067714Y-60216750D01*
X210067714Y-60216750D02*
X210067714Y-60445321D01*
X210353428Y-59531036D02*
X210353428Y-59873893D01*
X210353428Y-59702464D02*
X209753428Y-59702464D01*
X209753428Y-59702464D02*
X209839142Y-59759607D01*
X209839142Y-59759607D02*
X209896285Y-59816750D01*
X209896285Y-59816750D02*
X209924857Y-59873893D01*
X210353428Y-58959607D02*
X210353428Y-59302464D01*
X210353428Y-59131035D02*
X209753428Y-59131035D01*
X209753428Y-59131035D02*
X209839142Y-59188178D01*
X209839142Y-59188178D02*
X209896285Y-59245321D01*
X209896285Y-59245321D02*
X209924857Y-59302464D01*
%TO.C,C6*%
X213267285Y-59807106D02*
X213295857Y-59835678D01*
X213295857Y-59835678D02*
X213324428Y-59921392D01*
X213324428Y-59921392D02*
X213324428Y-59978535D01*
X213324428Y-59978535D02*
X213295857Y-60064249D01*
X213295857Y-60064249D02*
X213238714Y-60121392D01*
X213238714Y-60121392D02*
X213181571Y-60149963D01*
X213181571Y-60149963D02*
X213067285Y-60178535D01*
X213067285Y-60178535D02*
X212981571Y-60178535D01*
X212981571Y-60178535D02*
X212867285Y-60149963D01*
X212867285Y-60149963D02*
X212810142Y-60121392D01*
X212810142Y-60121392D02*
X212753000Y-60064249D01*
X212753000Y-60064249D02*
X212724428Y-59978535D01*
X212724428Y-59978535D02*
X212724428Y-59921392D01*
X212724428Y-59921392D02*
X212753000Y-59835678D01*
X212753000Y-59835678D02*
X212781571Y-59807106D01*
X212724428Y-59292821D02*
X212724428Y-59407106D01*
X212724428Y-59407106D02*
X212753000Y-59464249D01*
X212753000Y-59464249D02*
X212781571Y-59492821D01*
X212781571Y-59492821D02*
X212867285Y-59549963D01*
X212867285Y-59549963D02*
X212981571Y-59578535D01*
X212981571Y-59578535D02*
X213210142Y-59578535D01*
X213210142Y-59578535D02*
X213267285Y-59549963D01*
X213267285Y-59549963D02*
X213295857Y-59521392D01*
X213295857Y-59521392D02*
X213324428Y-59464249D01*
X213324428Y-59464249D02*
X213324428Y-59349963D01*
X213324428Y-59349963D02*
X213295857Y-59292821D01*
X213295857Y-59292821D02*
X213267285Y-59264249D01*
X213267285Y-59264249D02*
X213210142Y-59235678D01*
X213210142Y-59235678D02*
X213067285Y-59235678D01*
X213067285Y-59235678D02*
X213010142Y-59264249D01*
X213010142Y-59264249D02*
X212981571Y-59292821D01*
X212981571Y-59292821D02*
X212953000Y-59349963D01*
X212953000Y-59349963D02*
X212953000Y-59464249D01*
X212953000Y-59464249D02*
X212981571Y-59521392D01*
X212981571Y-59521392D02*
X213010142Y-59549963D01*
X213010142Y-59549963D02*
X213067285Y-59578535D01*
%TO.C,C16*%
X218678285Y-48990392D02*
X218649713Y-49018964D01*
X218649713Y-49018964D02*
X218563999Y-49047535D01*
X218563999Y-49047535D02*
X218506856Y-49047535D01*
X218506856Y-49047535D02*
X218421142Y-49018964D01*
X218421142Y-49018964D02*
X218363999Y-48961821D01*
X218363999Y-48961821D02*
X218335428Y-48904678D01*
X218335428Y-48904678D02*
X218306856Y-48790392D01*
X218306856Y-48790392D02*
X218306856Y-48704678D01*
X218306856Y-48704678D02*
X218335428Y-48590392D01*
X218335428Y-48590392D02*
X218363999Y-48533249D01*
X218363999Y-48533249D02*
X218421142Y-48476107D01*
X218421142Y-48476107D02*
X218506856Y-48447535D01*
X218506856Y-48447535D02*
X218563999Y-48447535D01*
X218563999Y-48447535D02*
X218649713Y-48476107D01*
X218649713Y-48476107D02*
X218678285Y-48504678D01*
X219249713Y-49047535D02*
X218906856Y-49047535D01*
X219078285Y-49047535D02*
X219078285Y-48447535D01*
X219078285Y-48447535D02*
X219021142Y-48533249D01*
X219021142Y-48533249D02*
X218963999Y-48590392D01*
X218963999Y-48590392D02*
X218906856Y-48618964D01*
X219764000Y-48447535D02*
X219649714Y-48447535D01*
X219649714Y-48447535D02*
X219592571Y-48476107D01*
X219592571Y-48476107D02*
X219564000Y-48504678D01*
X219564000Y-48504678D02*
X219506857Y-48590392D01*
X219506857Y-48590392D02*
X219478285Y-48704678D01*
X219478285Y-48704678D02*
X219478285Y-48933249D01*
X219478285Y-48933249D02*
X219506857Y-48990392D01*
X219506857Y-48990392D02*
X219535428Y-49018964D01*
X219535428Y-49018964D02*
X219592571Y-49047535D01*
X219592571Y-49047535D02*
X219706857Y-49047535D01*
X219706857Y-49047535D02*
X219764000Y-49018964D01*
X219764000Y-49018964D02*
X219792571Y-48990392D01*
X219792571Y-48990392D02*
X219821142Y-48933249D01*
X219821142Y-48933249D02*
X219821142Y-48790392D01*
X219821142Y-48790392D02*
X219792571Y-48733249D01*
X219792571Y-48733249D02*
X219764000Y-48704678D01*
X219764000Y-48704678D02*
X219706857Y-48676107D01*
X219706857Y-48676107D02*
X219592571Y-48676107D01*
X219592571Y-48676107D02*
X219535428Y-48704678D01*
X219535428Y-48704678D02*
X219506857Y-48733249D01*
X219506857Y-48733249D02*
X219478285Y-48790392D01*
%TO.C,@HOLE10*%
%TO.C,C12*%
X214637285Y-46272821D02*
X214665857Y-46301393D01*
X214665857Y-46301393D02*
X214694428Y-46387107D01*
X214694428Y-46387107D02*
X214694428Y-46444250D01*
X214694428Y-46444250D02*
X214665857Y-46529964D01*
X214665857Y-46529964D02*
X214608714Y-46587107D01*
X214608714Y-46587107D02*
X214551571Y-46615678D01*
X214551571Y-46615678D02*
X214437285Y-46644250D01*
X214437285Y-46644250D02*
X214351571Y-46644250D01*
X214351571Y-46644250D02*
X214237285Y-46615678D01*
X214237285Y-46615678D02*
X214180142Y-46587107D01*
X214180142Y-46587107D02*
X214123000Y-46529964D01*
X214123000Y-46529964D02*
X214094428Y-46444250D01*
X214094428Y-46444250D02*
X214094428Y-46387107D01*
X214094428Y-46387107D02*
X214123000Y-46301393D01*
X214123000Y-46301393D02*
X214151571Y-46272821D01*
X214694428Y-45701393D02*
X214694428Y-46044250D01*
X214694428Y-45872821D02*
X214094428Y-45872821D01*
X214094428Y-45872821D02*
X214180142Y-45929964D01*
X214180142Y-45929964D02*
X214237285Y-45987107D01*
X214237285Y-45987107D02*
X214265857Y-46044250D01*
X214151571Y-45472821D02*
X214123000Y-45444249D01*
X214123000Y-45444249D02*
X214094428Y-45387107D01*
X214094428Y-45387107D02*
X214094428Y-45244249D01*
X214094428Y-45244249D02*
X214123000Y-45187107D01*
X214123000Y-45187107D02*
X214151571Y-45158535D01*
X214151571Y-45158535D02*
X214208714Y-45129964D01*
X214208714Y-45129964D02*
X214265857Y-45129964D01*
X214265857Y-45129964D02*
X214351571Y-45158535D01*
X214351571Y-45158535D02*
X214694428Y-45501392D01*
X214694428Y-45501392D02*
X214694428Y-45129964D01*
%TO.C,C3*%
X207124000Y-39750392D02*
X207095428Y-39778964D01*
X207095428Y-39778964D02*
X207009714Y-39807535D01*
X207009714Y-39807535D02*
X206952571Y-39807535D01*
X206952571Y-39807535D02*
X206866857Y-39778964D01*
X206866857Y-39778964D02*
X206809714Y-39721821D01*
X206809714Y-39721821D02*
X206781143Y-39664678D01*
X206781143Y-39664678D02*
X206752571Y-39550392D01*
X206752571Y-39550392D02*
X206752571Y-39464678D01*
X206752571Y-39464678D02*
X206781143Y-39350392D01*
X206781143Y-39350392D02*
X206809714Y-39293249D01*
X206809714Y-39293249D02*
X206866857Y-39236107D01*
X206866857Y-39236107D02*
X206952571Y-39207535D01*
X206952571Y-39207535D02*
X207009714Y-39207535D01*
X207009714Y-39207535D02*
X207095428Y-39236107D01*
X207095428Y-39236107D02*
X207124000Y-39264678D01*
X207324000Y-39207535D02*
X207695428Y-39207535D01*
X207695428Y-39207535D02*
X207495428Y-39436107D01*
X207495428Y-39436107D02*
X207581143Y-39436107D01*
X207581143Y-39436107D02*
X207638286Y-39464678D01*
X207638286Y-39464678D02*
X207666857Y-39493249D01*
X207666857Y-39493249D02*
X207695428Y-39550392D01*
X207695428Y-39550392D02*
X207695428Y-39693249D01*
X207695428Y-39693249D02*
X207666857Y-39750392D01*
X207666857Y-39750392D02*
X207638286Y-39778964D01*
X207638286Y-39778964D02*
X207581143Y-39807535D01*
X207581143Y-39807535D02*
X207409714Y-39807535D01*
X207409714Y-39807535D02*
X207352571Y-39778964D01*
X207352571Y-39778964D02*
X207324000Y-39750392D01*
%TO.C,C7*%
X205157285Y-67257106D02*
X205185857Y-67285678D01*
X205185857Y-67285678D02*
X205214428Y-67371392D01*
X205214428Y-67371392D02*
X205214428Y-67428535D01*
X205214428Y-67428535D02*
X205185857Y-67514249D01*
X205185857Y-67514249D02*
X205128714Y-67571392D01*
X205128714Y-67571392D02*
X205071571Y-67599963D01*
X205071571Y-67599963D02*
X204957285Y-67628535D01*
X204957285Y-67628535D02*
X204871571Y-67628535D01*
X204871571Y-67628535D02*
X204757285Y-67599963D01*
X204757285Y-67599963D02*
X204700142Y-67571392D01*
X204700142Y-67571392D02*
X204643000Y-67514249D01*
X204643000Y-67514249D02*
X204614428Y-67428535D01*
X204614428Y-67428535D02*
X204614428Y-67371392D01*
X204614428Y-67371392D02*
X204643000Y-67285678D01*
X204643000Y-67285678D02*
X204671571Y-67257106D01*
X204614428Y-67057106D02*
X204614428Y-66657106D01*
X204614428Y-66657106D02*
X205214428Y-66914249D01*
%TO.C,@HOLE12*%
%TO.C,R9*%
X214114428Y-42147106D02*
X213828714Y-42347106D01*
X214114428Y-42489963D02*
X213514428Y-42489963D01*
X213514428Y-42489963D02*
X213514428Y-42261392D01*
X213514428Y-42261392D02*
X213543000Y-42204249D01*
X213543000Y-42204249D02*
X213571571Y-42175678D01*
X213571571Y-42175678D02*
X213628714Y-42147106D01*
X213628714Y-42147106D02*
X213714428Y-42147106D01*
X213714428Y-42147106D02*
X213771571Y-42175678D01*
X213771571Y-42175678D02*
X213800142Y-42204249D01*
X213800142Y-42204249D02*
X213828714Y-42261392D01*
X213828714Y-42261392D02*
X213828714Y-42489963D01*
X214114428Y-41861392D02*
X214114428Y-41747106D01*
X214114428Y-41747106D02*
X214085857Y-41689963D01*
X214085857Y-41689963D02*
X214057285Y-41661392D01*
X214057285Y-41661392D02*
X213971571Y-41604249D01*
X213971571Y-41604249D02*
X213857285Y-41575678D01*
X213857285Y-41575678D02*
X213628714Y-41575678D01*
X213628714Y-41575678D02*
X213571571Y-41604249D01*
X213571571Y-41604249D02*
X213543000Y-41632821D01*
X213543000Y-41632821D02*
X213514428Y-41689963D01*
X213514428Y-41689963D02*
X213514428Y-41804249D01*
X213514428Y-41804249D02*
X213543000Y-41861392D01*
X213543000Y-41861392D02*
X213571571Y-41889963D01*
X213571571Y-41889963D02*
X213628714Y-41918535D01*
X213628714Y-41918535D02*
X213771571Y-41918535D01*
X213771571Y-41918535D02*
X213828714Y-41889963D01*
X213828714Y-41889963D02*
X213857285Y-41861392D01*
X213857285Y-41861392D02*
X213885857Y-41804249D01*
X213885857Y-41804249D02*
X213885857Y-41689963D01*
X213885857Y-41689963D02*
X213857285Y-41632821D01*
X213857285Y-41632821D02*
X213828714Y-41604249D01*
X213828714Y-41604249D02*
X213771571Y-41575678D01*
%TO.C,R10*%
X199364428Y-39012821D02*
X199078714Y-39212821D01*
X199364428Y-39355678D02*
X198764428Y-39355678D01*
X198764428Y-39355678D02*
X198764428Y-39127107D01*
X198764428Y-39127107D02*
X198793000Y-39069964D01*
X198793000Y-39069964D02*
X198821571Y-39041393D01*
X198821571Y-39041393D02*
X198878714Y-39012821D01*
X198878714Y-39012821D02*
X198964428Y-39012821D01*
X198964428Y-39012821D02*
X199021571Y-39041393D01*
X199021571Y-39041393D02*
X199050142Y-39069964D01*
X199050142Y-39069964D02*
X199078714Y-39127107D01*
X199078714Y-39127107D02*
X199078714Y-39355678D01*
X199364428Y-38441393D02*
X199364428Y-38784250D01*
X199364428Y-38612821D02*
X198764428Y-38612821D01*
X198764428Y-38612821D02*
X198850142Y-38669964D01*
X198850142Y-38669964D02*
X198907285Y-38727107D01*
X198907285Y-38727107D02*
X198935857Y-38784250D01*
X198764428Y-38069964D02*
X198764428Y-38012821D01*
X198764428Y-38012821D02*
X198793000Y-37955678D01*
X198793000Y-37955678D02*
X198821571Y-37927107D01*
X198821571Y-37927107D02*
X198878714Y-37898535D01*
X198878714Y-37898535D02*
X198993000Y-37869964D01*
X198993000Y-37869964D02*
X199135857Y-37869964D01*
X199135857Y-37869964D02*
X199250142Y-37898535D01*
X199250142Y-37898535D02*
X199307285Y-37927107D01*
X199307285Y-37927107D02*
X199335857Y-37955678D01*
X199335857Y-37955678D02*
X199364428Y-38012821D01*
X199364428Y-38012821D02*
X199364428Y-38069964D01*
X199364428Y-38069964D02*
X199335857Y-38127107D01*
X199335857Y-38127107D02*
X199307285Y-38155678D01*
X199307285Y-38155678D02*
X199250142Y-38184249D01*
X199250142Y-38184249D02*
X199135857Y-38212821D01*
X199135857Y-38212821D02*
X198993000Y-38212821D01*
X198993000Y-38212821D02*
X198878714Y-38184249D01*
X198878714Y-38184249D02*
X198821571Y-38155678D01*
X198821571Y-38155678D02*
X198793000Y-38127107D01*
X198793000Y-38127107D02*
X198764428Y-38069964D01*
%TO.C,@HOLE7*%
%TO.C,R8*%
X210214428Y-42147106D02*
X209928714Y-42347106D01*
X210214428Y-42489963D02*
X209614428Y-42489963D01*
X209614428Y-42489963D02*
X209614428Y-42261392D01*
X209614428Y-42261392D02*
X209643000Y-42204249D01*
X209643000Y-42204249D02*
X209671571Y-42175678D01*
X209671571Y-42175678D02*
X209728714Y-42147106D01*
X209728714Y-42147106D02*
X209814428Y-42147106D01*
X209814428Y-42147106D02*
X209871571Y-42175678D01*
X209871571Y-42175678D02*
X209900142Y-42204249D01*
X209900142Y-42204249D02*
X209928714Y-42261392D01*
X209928714Y-42261392D02*
X209928714Y-42489963D01*
X209871571Y-41804249D02*
X209843000Y-41861392D01*
X209843000Y-41861392D02*
X209814428Y-41889963D01*
X209814428Y-41889963D02*
X209757285Y-41918535D01*
X209757285Y-41918535D02*
X209728714Y-41918535D01*
X209728714Y-41918535D02*
X209671571Y-41889963D01*
X209671571Y-41889963D02*
X209643000Y-41861392D01*
X209643000Y-41861392D02*
X209614428Y-41804249D01*
X209614428Y-41804249D02*
X209614428Y-41689963D01*
X209614428Y-41689963D02*
X209643000Y-41632821D01*
X209643000Y-41632821D02*
X209671571Y-41604249D01*
X209671571Y-41604249D02*
X209728714Y-41575678D01*
X209728714Y-41575678D02*
X209757285Y-41575678D01*
X209757285Y-41575678D02*
X209814428Y-41604249D01*
X209814428Y-41604249D02*
X209843000Y-41632821D01*
X209843000Y-41632821D02*
X209871571Y-41689963D01*
X209871571Y-41689963D02*
X209871571Y-41804249D01*
X209871571Y-41804249D02*
X209900142Y-41861392D01*
X209900142Y-41861392D02*
X209928714Y-41889963D01*
X209928714Y-41889963D02*
X209985857Y-41918535D01*
X209985857Y-41918535D02*
X210100142Y-41918535D01*
X210100142Y-41918535D02*
X210157285Y-41889963D01*
X210157285Y-41889963D02*
X210185857Y-41861392D01*
X210185857Y-41861392D02*
X210214428Y-41804249D01*
X210214428Y-41804249D02*
X210214428Y-41689963D01*
X210214428Y-41689963D02*
X210185857Y-41632821D01*
X210185857Y-41632821D02*
X210157285Y-41604249D01*
X210157285Y-41604249D02*
X210100142Y-41575678D01*
X210100142Y-41575678D02*
X209985857Y-41575678D01*
X209985857Y-41575678D02*
X209928714Y-41604249D01*
X209928714Y-41604249D02*
X209900142Y-41632821D01*
X209900142Y-41632821D02*
X209871571Y-41689963D01*
%TO.C,C10*%
X210867285Y-44592821D02*
X210895857Y-44621393D01*
X210895857Y-44621393D02*
X210924428Y-44707107D01*
X210924428Y-44707107D02*
X210924428Y-44764250D01*
X210924428Y-44764250D02*
X210895857Y-44849964D01*
X210895857Y-44849964D02*
X210838714Y-44907107D01*
X210838714Y-44907107D02*
X210781571Y-44935678D01*
X210781571Y-44935678D02*
X210667285Y-44964250D01*
X210667285Y-44964250D02*
X210581571Y-44964250D01*
X210581571Y-44964250D02*
X210467285Y-44935678D01*
X210467285Y-44935678D02*
X210410142Y-44907107D01*
X210410142Y-44907107D02*
X210353000Y-44849964D01*
X210353000Y-44849964D02*
X210324428Y-44764250D01*
X210324428Y-44764250D02*
X210324428Y-44707107D01*
X210324428Y-44707107D02*
X210353000Y-44621393D01*
X210353000Y-44621393D02*
X210381571Y-44592821D01*
X210924428Y-44021393D02*
X210924428Y-44364250D01*
X210924428Y-44192821D02*
X210324428Y-44192821D01*
X210324428Y-44192821D02*
X210410142Y-44249964D01*
X210410142Y-44249964D02*
X210467285Y-44307107D01*
X210467285Y-44307107D02*
X210495857Y-44364250D01*
X210324428Y-43649964D02*
X210324428Y-43592821D01*
X210324428Y-43592821D02*
X210353000Y-43535678D01*
X210353000Y-43535678D02*
X210381571Y-43507107D01*
X210381571Y-43507107D02*
X210438714Y-43478535D01*
X210438714Y-43478535D02*
X210553000Y-43449964D01*
X210553000Y-43449964D02*
X210695857Y-43449964D01*
X210695857Y-43449964D02*
X210810142Y-43478535D01*
X210810142Y-43478535D02*
X210867285Y-43507107D01*
X210867285Y-43507107D02*
X210895857Y-43535678D01*
X210895857Y-43535678D02*
X210924428Y-43592821D01*
X210924428Y-43592821D02*
X210924428Y-43649964D01*
X210924428Y-43649964D02*
X210895857Y-43707107D01*
X210895857Y-43707107D02*
X210867285Y-43735678D01*
X210867285Y-43735678D02*
X210810142Y-43764249D01*
X210810142Y-43764249D02*
X210695857Y-43792821D01*
X210695857Y-43792821D02*
X210553000Y-43792821D01*
X210553000Y-43792821D02*
X210438714Y-43764249D01*
X210438714Y-43764249D02*
X210381571Y-43735678D01*
X210381571Y-43735678D02*
X210353000Y-43707107D01*
X210353000Y-43707107D02*
X210324428Y-43649964D01*
%TO.C,D1*%
X220667904Y-42307582D02*
X219867904Y-42307582D01*
X219867904Y-42307582D02*
X219867904Y-42117106D01*
X219867904Y-42117106D02*
X219906000Y-42002820D01*
X219906000Y-42002820D02*
X219982190Y-41926630D01*
X219982190Y-41926630D02*
X220058380Y-41888535D01*
X220058380Y-41888535D02*
X220210761Y-41850439D01*
X220210761Y-41850439D02*
X220325047Y-41850439D01*
X220325047Y-41850439D02*
X220477428Y-41888535D01*
X220477428Y-41888535D02*
X220553619Y-41926630D01*
X220553619Y-41926630D02*
X220629809Y-42002820D01*
X220629809Y-42002820D02*
X220667904Y-42117106D01*
X220667904Y-42117106D02*
X220667904Y-42307582D01*
X220667904Y-41088535D02*
X220667904Y-41545678D01*
X220667904Y-41317106D02*
X219867904Y-41317106D01*
X219867904Y-41317106D02*
X219982190Y-41393297D01*
X219982190Y-41393297D02*
X220058380Y-41469487D01*
X220058380Y-41469487D02*
X220096476Y-41545678D01*
%TO.C,@HOLE2*%
%TO.C,C14*%
X211767285Y-59807107D02*
X211795857Y-59835679D01*
X211795857Y-59835679D02*
X211824428Y-59921393D01*
X211824428Y-59921393D02*
X211824428Y-59978536D01*
X211824428Y-59978536D02*
X211795857Y-60064250D01*
X211795857Y-60064250D02*
X211738714Y-60121393D01*
X211738714Y-60121393D02*
X211681571Y-60149964D01*
X211681571Y-60149964D02*
X211567285Y-60178536D01*
X211567285Y-60178536D02*
X211481571Y-60178536D01*
X211481571Y-60178536D02*
X211367285Y-60149964D01*
X211367285Y-60149964D02*
X211310142Y-60121393D01*
X211310142Y-60121393D02*
X211253000Y-60064250D01*
X211253000Y-60064250D02*
X211224428Y-59978536D01*
X211224428Y-59978536D02*
X211224428Y-59921393D01*
X211224428Y-59921393D02*
X211253000Y-59835679D01*
X211253000Y-59835679D02*
X211281571Y-59807107D01*
X211824428Y-59235679D02*
X211824428Y-59578536D01*
X211824428Y-59407107D02*
X211224428Y-59407107D01*
X211224428Y-59407107D02*
X211310142Y-59464250D01*
X211310142Y-59464250D02*
X211367285Y-59521393D01*
X211367285Y-59521393D02*
X211395857Y-59578536D01*
X211424428Y-58721393D02*
X211824428Y-58721393D01*
X211195857Y-58864250D02*
X211624428Y-59007107D01*
X211624428Y-59007107D02*
X211624428Y-58635678D01*
%TO.C,U3*%
X209942095Y-48349487D02*
X209942095Y-49159011D01*
X209942095Y-49159011D02*
X209989714Y-49254249D01*
X209989714Y-49254249D02*
X210037333Y-49301868D01*
X210037333Y-49301868D02*
X210132571Y-49349487D01*
X210132571Y-49349487D02*
X210323047Y-49349487D01*
X210323047Y-49349487D02*
X210418285Y-49301868D01*
X210418285Y-49301868D02*
X210465904Y-49254249D01*
X210465904Y-49254249D02*
X210513523Y-49159011D01*
X210513523Y-49159011D02*
X210513523Y-48349487D01*
X210894476Y-48349487D02*
X211513523Y-48349487D01*
X211513523Y-48349487D02*
X211180190Y-48730440D01*
X211180190Y-48730440D02*
X211323047Y-48730440D01*
X211323047Y-48730440D02*
X211418285Y-48778059D01*
X211418285Y-48778059D02*
X211465904Y-48825678D01*
X211465904Y-48825678D02*
X211513523Y-48920916D01*
X211513523Y-48920916D02*
X211513523Y-49159011D01*
X211513523Y-49159011D02*
X211465904Y-49254249D01*
X211465904Y-49254249D02*
X211418285Y-49301868D01*
X211418285Y-49301868D02*
X211323047Y-49349487D01*
X211323047Y-49349487D02*
X211037333Y-49349487D01*
X211037333Y-49349487D02*
X210942095Y-49301868D01*
X210942095Y-49301868D02*
X210894476Y-49254249D01*
%TO.C,C5*%
X209347285Y-44297106D02*
X209375857Y-44325678D01*
X209375857Y-44325678D02*
X209404428Y-44411392D01*
X209404428Y-44411392D02*
X209404428Y-44468535D01*
X209404428Y-44468535D02*
X209375857Y-44554249D01*
X209375857Y-44554249D02*
X209318714Y-44611392D01*
X209318714Y-44611392D02*
X209261571Y-44639963D01*
X209261571Y-44639963D02*
X209147285Y-44668535D01*
X209147285Y-44668535D02*
X209061571Y-44668535D01*
X209061571Y-44668535D02*
X208947285Y-44639963D01*
X208947285Y-44639963D02*
X208890142Y-44611392D01*
X208890142Y-44611392D02*
X208833000Y-44554249D01*
X208833000Y-44554249D02*
X208804428Y-44468535D01*
X208804428Y-44468535D02*
X208804428Y-44411392D01*
X208804428Y-44411392D02*
X208833000Y-44325678D01*
X208833000Y-44325678D02*
X208861571Y-44297106D01*
X208804428Y-43754249D02*
X208804428Y-44039963D01*
X208804428Y-44039963D02*
X209090142Y-44068535D01*
X209090142Y-44068535D02*
X209061571Y-44039963D01*
X209061571Y-44039963D02*
X209033000Y-43982821D01*
X209033000Y-43982821D02*
X209033000Y-43839963D01*
X209033000Y-43839963D02*
X209061571Y-43782821D01*
X209061571Y-43782821D02*
X209090142Y-43754249D01*
X209090142Y-43754249D02*
X209147285Y-43725678D01*
X209147285Y-43725678D02*
X209290142Y-43725678D01*
X209290142Y-43725678D02*
X209347285Y-43754249D01*
X209347285Y-43754249D02*
X209375857Y-43782821D01*
X209375857Y-43782821D02*
X209404428Y-43839963D01*
X209404428Y-43839963D02*
X209404428Y-43982821D01*
X209404428Y-43982821D02*
X209375857Y-44039963D01*
X209375857Y-44039963D02*
X209347285Y-44068535D01*
%TO.C,@HOLE14*%
%TO.C,@HOLE13*%
%TO.C,U2*%
X208174428Y-35224249D02*
X208660142Y-35224249D01*
X208660142Y-35224249D02*
X208717285Y-35195678D01*
X208717285Y-35195678D02*
X208745857Y-35167107D01*
X208745857Y-35167107D02*
X208774428Y-35109964D01*
X208774428Y-35109964D02*
X208774428Y-34995678D01*
X208774428Y-34995678D02*
X208745857Y-34938535D01*
X208745857Y-34938535D02*
X208717285Y-34909964D01*
X208717285Y-34909964D02*
X208660142Y-34881392D01*
X208660142Y-34881392D02*
X208174428Y-34881392D01*
X208231571Y-34624250D02*
X208203000Y-34595678D01*
X208203000Y-34595678D02*
X208174428Y-34538536D01*
X208174428Y-34538536D02*
X208174428Y-34395678D01*
X208174428Y-34395678D02*
X208203000Y-34338536D01*
X208203000Y-34338536D02*
X208231571Y-34309964D01*
X208231571Y-34309964D02*
X208288714Y-34281393D01*
X208288714Y-34281393D02*
X208345857Y-34281393D01*
X208345857Y-34281393D02*
X208431571Y-34309964D01*
X208431571Y-34309964D02*
X208774428Y-34652821D01*
X208774428Y-34652821D02*
X208774428Y-34281393D01*
%TO.C,@HOLE9*%
%TO.C,C17*%
X218678285Y-50500392D02*
X218649713Y-50528964D01*
X218649713Y-50528964D02*
X218563999Y-50557535D01*
X218563999Y-50557535D02*
X218506856Y-50557535D01*
X218506856Y-50557535D02*
X218421142Y-50528964D01*
X218421142Y-50528964D02*
X218363999Y-50471821D01*
X218363999Y-50471821D02*
X218335428Y-50414678D01*
X218335428Y-50414678D02*
X218306856Y-50300392D01*
X218306856Y-50300392D02*
X218306856Y-50214678D01*
X218306856Y-50214678D02*
X218335428Y-50100392D01*
X218335428Y-50100392D02*
X218363999Y-50043249D01*
X218363999Y-50043249D02*
X218421142Y-49986107D01*
X218421142Y-49986107D02*
X218506856Y-49957535D01*
X218506856Y-49957535D02*
X218563999Y-49957535D01*
X218563999Y-49957535D02*
X218649713Y-49986107D01*
X218649713Y-49986107D02*
X218678285Y-50014678D01*
X219249713Y-50557535D02*
X218906856Y-50557535D01*
X219078285Y-50557535D02*
X219078285Y-49957535D01*
X219078285Y-49957535D02*
X219021142Y-50043249D01*
X219021142Y-50043249D02*
X218963999Y-50100392D01*
X218963999Y-50100392D02*
X218906856Y-50128964D01*
X219449714Y-49957535D02*
X219849714Y-49957535D01*
X219849714Y-49957535D02*
X219592571Y-50557535D01*
%TO.C,R3*%
X217217333Y-30674487D02*
X216884000Y-30198297D01*
X216645905Y-30674487D02*
X216645905Y-29674487D01*
X216645905Y-29674487D02*
X217026857Y-29674487D01*
X217026857Y-29674487D02*
X217122095Y-29722107D01*
X217122095Y-29722107D02*
X217169714Y-29769726D01*
X217169714Y-29769726D02*
X217217333Y-29864964D01*
X217217333Y-29864964D02*
X217217333Y-30007821D01*
X217217333Y-30007821D02*
X217169714Y-30103059D01*
X217169714Y-30103059D02*
X217122095Y-30150678D01*
X217122095Y-30150678D02*
X217026857Y-30198297D01*
X217026857Y-30198297D02*
X216645905Y-30198297D01*
X217550667Y-29674487D02*
X218169714Y-29674487D01*
X218169714Y-29674487D02*
X217836381Y-30055440D01*
X217836381Y-30055440D02*
X217979238Y-30055440D01*
X217979238Y-30055440D02*
X218074476Y-30103059D01*
X218074476Y-30103059D02*
X218122095Y-30150678D01*
X218122095Y-30150678D02*
X218169714Y-30245916D01*
X218169714Y-30245916D02*
X218169714Y-30484011D01*
X218169714Y-30484011D02*
X218122095Y-30579249D01*
X218122095Y-30579249D02*
X218074476Y-30626868D01*
X218074476Y-30626868D02*
X217979238Y-30674487D01*
X217979238Y-30674487D02*
X217693524Y-30674487D01*
X217693524Y-30674487D02*
X217598286Y-30626868D01*
X217598286Y-30626868D02*
X217550667Y-30579249D01*
%TO.C,U4*%
X200772857Y-38510428D02*
X200772857Y-38996142D01*
X200772857Y-38996142D02*
X200801428Y-39053285D01*
X200801428Y-39053285D02*
X200830000Y-39081857D01*
X200830000Y-39081857D02*
X200887142Y-39110428D01*
X200887142Y-39110428D02*
X201001428Y-39110428D01*
X201001428Y-39110428D02*
X201058571Y-39081857D01*
X201058571Y-39081857D02*
X201087142Y-39053285D01*
X201087142Y-39053285D02*
X201115714Y-38996142D01*
X201115714Y-38996142D02*
X201115714Y-38510428D01*
X201658571Y-38710428D02*
X201658571Y-39110428D01*
X201515713Y-38481857D02*
X201372856Y-38910428D01*
X201372856Y-38910428D02*
X201744285Y-38910428D01*
D11*
%TO.C,SW1*%
X198554000Y-35957107D02*
X200914000Y-35957107D01*
X197184000Y-35657107D02*
X197184000Y-31157107D01*
X202284000Y-35657107D02*
X202284000Y-31157107D01*
X200914000Y-30857107D02*
X198554000Y-30857107D01*
D12*
X201709000Y-29157107D02*
G75*
G03*
X201709000Y-29157107I-100000J0D01*
G01*
D11*
%TO.C,U$15*%
X348530100Y-70123600D02*
X348530100Y-70504600D01*
%TO.C,U$19*%
X309299100Y-131253600D02*
X309299100Y-131634600D01*
%TO.C,SW8*%
X108291100Y-67754600D02*
X108291100Y-68135600D01*
D13*
%TO.C,JP18*%
X273761100Y-129468600D02*
X273761100Y-130738600D01*
X273761100Y-130738600D02*
X274396100Y-131373600D01*
X274396100Y-128833600D02*
X273761100Y-129468600D01*
X274396100Y-128833600D02*
X275666100Y-128833600D01*
X275666100Y-128833600D02*
X276301100Y-129468600D01*
X275666100Y-131373600D02*
X274396100Y-131373600D01*
X276301100Y-129468600D02*
X276301100Y-130738600D01*
X276301100Y-130738600D02*
X275666100Y-131373600D01*
D14*
%TO.C,C13*%
X205108750Y-50210961D02*
X205108750Y-49995289D01*
X205828750Y-50210961D02*
X205828750Y-49995289D01*
%TO.C,R5*%
X221676500Y-48274849D02*
X221676500Y-48749365D01*
X220631500Y-48274849D02*
X220631500Y-48749365D01*
D13*
%TO.C,JP13*%
X356761100Y-50468600D02*
X356761100Y-51738600D01*
X356761100Y-51738600D02*
X357396100Y-52373600D01*
X357396100Y-49833600D02*
X356761100Y-50468600D01*
X357396100Y-49833600D02*
X358666100Y-49833600D01*
X358666100Y-49833600D02*
X359301100Y-50468600D01*
X358666100Y-52373600D02*
X357396100Y-52373600D01*
X359301100Y-50468600D02*
X359301100Y-51738600D01*
X359301100Y-51738600D02*
X358666100Y-52373600D01*
D14*
%TO.C,U1*%
X215476500Y-41287107D02*
X217151500Y-41287107D01*
X215476500Y-41287107D02*
X214826500Y-41287107D01*
X215476500Y-38167107D02*
X216126500Y-38167107D01*
X215476500Y-38167107D02*
X214826500Y-38167107D01*
D11*
%TO.C,U$14*%
X320175100Y-67148600D02*
X320175100Y-67529600D01*
D14*
%TO.C,C2*%
X215131836Y-37847107D02*
X214916164Y-37847107D01*
X215131836Y-37127107D02*
X214916164Y-37127107D01*
%TO.C,D3*%
X221745000Y-51115000D02*
X221745000Y-53035000D01*
X221745000Y-53035000D02*
X224430000Y-53035000D01*
X224430000Y-51115000D02*
X221745000Y-51115000D01*
D11*
%TO.C,U$16*%
X374753100Y-86159600D02*
X374753100Y-86540600D01*
%TO.C,U$8*%
X214595100Y-79517600D02*
X214595100Y-79898600D01*
D14*
%TO.C,R6*%
X222171500Y-48749365D02*
X222171500Y-48274849D01*
X223216500Y-48749365D02*
X223216500Y-48274849D01*
%TO.C,C11*%
X218188307Y-56392190D02*
X218340810Y-56544693D01*
X217679190Y-56901307D02*
X217831693Y-57053810D01*
%TO.C,R2*%
X206707641Y-34517107D02*
X206400359Y-34517107D01*
X206707641Y-33757107D02*
X206400359Y-33757107D01*
D13*
%TO.C,JP20*%
X297761100Y-146468600D02*
X297761100Y-147738600D01*
X297761100Y-147738600D02*
X298396100Y-148373600D01*
X298396100Y-145833600D02*
X297761100Y-146468600D01*
X298396100Y-145833600D02*
X299666100Y-145833600D01*
X299666100Y-145833600D02*
X300301100Y-146468600D01*
X299666100Y-148373600D02*
X298396100Y-148373600D01*
X300301100Y-146468600D02*
X300301100Y-147738600D01*
X300301100Y-147738600D02*
X299666100Y-148373600D01*
D11*
%TO.C,U$17*%
X286642100Y-115483600D02*
X286642100Y-115864600D01*
D14*
%TO.C,Y1*%
X210418000Y-66596357D02*
X210418000Y-63296357D01*
X210418000Y-63296357D02*
X206418000Y-63296357D01*
D11*
%TO.C,U$12*%
X374753100Y-58549600D02*
X374753100Y-58930600D01*
%TO.C,U$9*%
X293657100Y-51534600D02*
X293657100Y-51915600D01*
%TO.C,U$20*%
X286642100Y-146668600D02*
X286642100Y-147049600D01*
D14*
%TO.C,C15*%
X204783560Y-56123432D02*
X204631057Y-56275935D01*
X204274443Y-55614315D02*
X204121940Y-55766818D01*
D13*
%TO.C,JP10*%
X300761100Y-83468600D02*
X300761100Y-84738600D01*
X300761100Y-84738600D02*
X301396100Y-85373600D01*
X301396100Y-82833600D02*
X300761100Y-83468600D01*
X301396100Y-82833600D02*
X302666100Y-82833600D01*
X302666100Y-82833600D02*
X303301100Y-83468600D01*
X302666100Y-85373600D02*
X301396100Y-85373600D01*
X303301100Y-83468600D02*
X303301100Y-84738600D01*
X303301100Y-84738600D02*
X302666100Y-85373600D01*
%TO.C,JP12*%
X330761100Y-35468600D02*
X330761100Y-36738600D01*
X330761100Y-36738600D02*
X331396100Y-37373600D01*
X331396100Y-34833600D02*
X330761100Y-35468600D01*
X331396100Y-34833600D02*
X332666100Y-34833600D01*
X332666100Y-34833600D02*
X333301100Y-35468600D01*
X332666100Y-37373600D02*
X331396100Y-37373600D01*
X333301100Y-35468600D02*
X333301100Y-36738600D01*
X333301100Y-36738600D02*
X332666100Y-37373600D01*
%TO.C,JP7*%
X174761100Y-157468600D02*
X174761100Y-158738600D01*
X174761100Y-158738600D02*
X175396100Y-159373600D01*
X175396100Y-156833600D02*
X174761100Y-157468600D01*
X175396100Y-156833600D02*
X176666100Y-156833600D01*
X176666100Y-156833600D02*
X177301100Y-157468600D01*
X176666100Y-159373600D02*
X175396100Y-159373600D01*
X177301100Y-157468600D02*
X177301100Y-158738600D01*
X177301100Y-158738600D02*
X176666100Y-159373600D01*
D14*
%TO.C,C8*%
X211331750Y-65069961D02*
X211331750Y-64854289D01*
X212051750Y-65069961D02*
X212051750Y-64854289D01*
D13*
%TO.C,JP16*%
X353761100Y-79468600D02*
X353761100Y-80738600D01*
X353761100Y-80738600D02*
X354396100Y-81373600D01*
X354396100Y-78833600D02*
X353761100Y-79468600D01*
X354396100Y-78833600D02*
X355666100Y-78833600D01*
X355666100Y-78833600D02*
X356301100Y-79468600D01*
X355666100Y-81373600D02*
X354396100Y-81373600D01*
X356301100Y-79468600D02*
X356301100Y-80738600D01*
X356301100Y-80738600D02*
X355666100Y-81373600D01*
D14*
%TO.C,F1*%
X215231936Y-33457107D02*
X216436064Y-33457107D01*
X215231936Y-35277107D02*
X216436064Y-35277107D01*
D13*
%TO.C,JP6*%
X148761100Y-154468600D02*
X148761100Y-155738600D01*
X148761100Y-155738600D02*
X149396100Y-156373600D01*
X149396100Y-153833600D02*
X148761100Y-154468600D01*
X149396100Y-153833600D02*
X150666100Y-153833600D01*
X150666100Y-153833600D02*
X151301100Y-154468600D01*
X150666100Y-156373600D02*
X149396100Y-156373600D01*
X151301100Y-154468600D02*
X151301100Y-155738600D01*
X151301100Y-155738600D02*
X150666100Y-156373600D01*
D11*
%TO.C,U$18*%
X263955100Y-131253600D02*
X263955100Y-131634600D01*
D14*
%TO.C,D2*%
X220254000Y-38637107D02*
X221654000Y-38637107D01*
X219954000Y-38387107D02*
X219954000Y-34737107D01*
X221954000Y-38387107D02*
X221954000Y-34737107D01*
X219954000Y-38387107D02*
G75*
G03*
X220254000Y-38637107I289561J42473D01*
G01*
X221654000Y-38637107D02*
G75*
G03*
X221953999Y-38387107I10462J292445D01*
G01*
D13*
%TO.C,JP19*%
X319761100Y-137468600D02*
X319761100Y-138738600D01*
X319761100Y-138738600D02*
X320396100Y-139373600D01*
X320396100Y-136833600D02*
X319761100Y-137468600D01*
X320396100Y-136833600D02*
X321666100Y-136833600D01*
X321666100Y-136833600D02*
X322301100Y-137468600D01*
X321666100Y-139373600D02*
X320396100Y-139373600D01*
X322301100Y-137468600D02*
X322301100Y-138738600D01*
X322301100Y-138738600D02*
X321666100Y-139373600D01*
D11*
%TO.C,U$21*%
X263955100Y-162438600D02*
X263955100Y-162819600D01*
D14*
%TO.C,R1*%
X220617258Y-27372500D02*
X220142742Y-27372500D01*
X220617258Y-26327500D02*
X220142742Y-26327500D01*
%TO.C,C9*%
X218151836Y-44692107D02*
X217936164Y-44692107D01*
X218151836Y-43972107D02*
X217936164Y-43972107D01*
%TO.C,R4*%
X219742742Y-51802500D02*
X220217258Y-51802500D01*
X219742742Y-52847500D02*
X220217258Y-52847500D01*
D13*
%TO.C,JP2*%
X64761100Y-92468600D02*
X64761100Y-93738600D01*
X64761100Y-93738600D02*
X65396100Y-94373600D01*
X65396100Y-91833600D02*
X64761100Y-92468600D01*
X65396100Y-91833600D02*
X66666100Y-91833600D01*
X66666100Y-91833600D02*
X67301100Y-92468600D01*
X66666100Y-94373600D02*
X65396100Y-94373600D01*
X67301100Y-92468600D02*
X67301100Y-93738600D01*
X67301100Y-93738600D02*
X66666100Y-94373600D01*
D14*
%TO.C,C1*%
X217936164Y-45172107D02*
X218151836Y-45172107D01*
X217936164Y-45892107D02*
X218151836Y-45892107D01*
%TO.C,C4*%
X213109750Y-47670961D02*
X213109750Y-47455289D01*
X213829750Y-47670961D02*
X213829750Y-47455289D01*
D13*
%TO.C,JP3*%
X79761100Y-81468600D02*
X79761100Y-82738600D01*
X79761100Y-82738600D02*
X80396100Y-83373600D01*
X80396100Y-80833600D02*
X79761100Y-81468600D01*
X80396100Y-80833600D02*
X81666100Y-80833600D01*
X81666100Y-80833600D02*
X82301100Y-81468600D01*
X81666100Y-83373600D02*
X80396100Y-83373600D01*
X82301100Y-81468600D02*
X82301100Y-82738600D01*
X82301100Y-82738600D02*
X81666100Y-83373600D01*
D14*
%TO.C,R11*%
X209750000Y-61553641D02*
X209750000Y-61246359D01*
X210510000Y-61553641D02*
X210510000Y-61246359D01*
%TO.C,C6*%
X213477000Y-61282521D02*
X213477000Y-61498193D01*
X212757000Y-61282521D02*
X212757000Y-61498193D01*
%TO.C,C16*%
X217073164Y-48457357D02*
X217288836Y-48457357D01*
X217073164Y-49177357D02*
X217288836Y-49177357D01*
D13*
%TO.C,JP17*%
X298761100Y-121468600D02*
X298761100Y-122738600D01*
X298761100Y-122738600D02*
X299396100Y-123373600D01*
X299396100Y-120833600D02*
X298761100Y-121468600D01*
X299396100Y-120833600D02*
X300666100Y-120833600D01*
X300666100Y-120833600D02*
X301301100Y-121468600D01*
X300666100Y-123373600D02*
X299396100Y-123373600D01*
X301301100Y-121468600D02*
X301301100Y-122738600D01*
X301301100Y-122738600D02*
X300666100Y-123373600D01*
D11*
%TO.C,SW10*%
X134863100Y-79517600D02*
X134863100Y-79898600D01*
D13*
%TO.C,JP14*%
X373761100Y-68468600D02*
X373761100Y-69738600D01*
X373761100Y-69738600D02*
X374396100Y-70373600D01*
X374396100Y-67833600D02*
X373761100Y-68468600D01*
X374396100Y-67833600D02*
X375666100Y-67833600D01*
X375666100Y-67833600D02*
X376301100Y-68468600D01*
X375666100Y-70373600D02*
X374396100Y-70373600D01*
X376301100Y-68468600D02*
X376301100Y-69738600D01*
X376301100Y-69738600D02*
X375666100Y-70373600D01*
D14*
%TO.C,C12*%
X214125750Y-47670961D02*
X214125750Y-47455289D01*
X214845750Y-47670961D02*
X214845750Y-47455289D01*
%TO.C,C3*%
X207116164Y-40187107D02*
X207331836Y-40187107D01*
X207116164Y-40907107D02*
X207331836Y-40907107D01*
%TO.C,C7*%
X205349000Y-65108289D02*
X205349000Y-65323961D01*
X204629000Y-65108289D02*
X204629000Y-65323961D01*
D13*
%TO.C,JP11*%
X326761100Y-75468600D02*
X326761100Y-76738600D01*
X326761100Y-76738600D02*
X327396100Y-77373600D01*
X327396100Y-74833600D02*
X326761100Y-75468600D01*
X327396100Y-74833600D02*
X328666100Y-74833600D01*
X328666100Y-74833600D02*
X329301100Y-75468600D01*
X328666100Y-77373600D02*
X327396100Y-77373600D01*
X329301100Y-75468600D02*
X329301100Y-76738600D01*
X329301100Y-76738600D02*
X328666100Y-77373600D01*
%TO.C,JP8*%
X218761100Y-90468600D02*
X218761100Y-91738600D01*
X218761100Y-91738600D02*
X219396100Y-92373600D01*
X219396100Y-89833600D02*
X218761100Y-90468600D01*
X219396100Y-89833600D02*
X220666100Y-89833600D01*
X220666100Y-89833600D02*
X221301100Y-90468600D01*
X220666100Y-92373600D02*
X219396100Y-92373600D01*
X221301100Y-90468600D02*
X221301100Y-91738600D01*
X221301100Y-91738600D02*
X220666100Y-92373600D01*
D14*
%TO.C,R9*%
X213186500Y-41809849D02*
X213186500Y-42284365D01*
X212141500Y-41809849D02*
X212141500Y-42284365D01*
D13*
%TO.C,JP15*%
X375761100Y-96468600D02*
X375761100Y-97738600D01*
X375761100Y-97738600D02*
X376396100Y-98373600D01*
X376396100Y-95833600D02*
X375761100Y-96468600D01*
X376396100Y-95833600D02*
X377666100Y-95833600D01*
X377666100Y-95833600D02*
X378301100Y-96468600D01*
X377666100Y-98373600D02*
X376396100Y-98373600D01*
X378301100Y-96468600D02*
X378301100Y-97738600D01*
X378301100Y-97738600D02*
X377666100Y-98373600D01*
D14*
%TO.C,R10*%
X198354000Y-38473466D02*
X198354000Y-38780748D01*
X197594000Y-38473466D02*
X197594000Y-38780748D01*
D11*
%TO.C,U$7*%
X164510100Y-162437600D02*
X164510100Y-162818600D01*
D13*
%TO.C,JP5*%
X143761100Y-84468600D02*
X143761100Y-85738600D01*
X143761100Y-85738600D02*
X144396100Y-86373600D01*
X144396100Y-83833600D02*
X143761100Y-84468600D01*
X144396100Y-83833600D02*
X145666100Y-83833600D01*
X145666100Y-83833600D02*
X146301100Y-84468600D01*
X145666100Y-86373600D02*
X144396100Y-86373600D01*
X146301100Y-84468600D02*
X146301100Y-85738600D01*
X146301100Y-85738600D02*
X145666100Y-86373600D01*
D14*
%TO.C,R8*%
X211656500Y-41809849D02*
X211656500Y-42284365D01*
X210611500Y-41809849D02*
X210611500Y-42284365D01*
D11*
%TO.C,U$11*%
X348530100Y-42513600D02*
X348530100Y-42894600D01*
D14*
%TO.C,C10*%
X210344000Y-45877193D02*
X210344000Y-45661521D01*
X211064000Y-45877193D02*
X211064000Y-45661521D01*
D11*
%TO.C,U$13*%
X293657100Y-79143600D02*
X293657100Y-79524600D01*
D14*
%TO.C,D1*%
X217874000Y-43567107D02*
X219274000Y-43567107D01*
X217574000Y-43317107D02*
X217574000Y-39667107D01*
X219574000Y-43317107D02*
X219574000Y-39667107D01*
X217574000Y-43317107D02*
G75*
G03*
X217874000Y-43567107I289561J42473D01*
G01*
X219274000Y-43567107D02*
G75*
G03*
X219573999Y-43317107I10462J292445D01*
G01*
%TO.C,C14*%
X211953000Y-61282521D02*
X211953000Y-61498193D01*
X211233000Y-61282521D02*
X211233000Y-61498193D01*
%TO.C,U3*%
X207094000Y-57412107D02*
X207094000Y-56762107D01*
X207744000Y-50192107D02*
X207094000Y-50192107D01*
X207744000Y-57412107D02*
X207094000Y-57412107D01*
X213664000Y-50192107D02*
X214314000Y-50192107D01*
X213664000Y-57412107D02*
X214314000Y-57412107D01*
X214314000Y-50192107D02*
X214314000Y-50842107D01*
X214314000Y-57412107D02*
X214314000Y-56762107D01*
D13*
%TO.C,JP4*%
X116761100Y-74468600D02*
X116761100Y-75738600D01*
X116761100Y-75738600D02*
X117396100Y-76373600D01*
X117396100Y-73833600D02*
X116761100Y-74468600D01*
X117396100Y-73833600D02*
X118666100Y-73833600D01*
X118666100Y-73833600D02*
X119301100Y-74468600D01*
X118666100Y-76373600D02*
X117396100Y-76373600D01*
X119301100Y-74468600D02*
X119301100Y-75738600D01*
X119301100Y-75738600D02*
X118666100Y-76373600D01*
D14*
%TO.C,C5*%
X208820000Y-45877193D02*
X208820000Y-45661521D01*
X209540000Y-45877193D02*
X209540000Y-45661521D01*
D11*
%TO.C,SW6*%
X79935100Y-70480600D02*
X79935100Y-70861600D01*
%TO.C,SW4*%
X54655100Y-86783600D02*
X54655100Y-87164600D01*
D14*
%TO.C,U2*%
X212264000Y-36257107D02*
X212264000Y-34457107D01*
X212264000Y-36257107D02*
X212264000Y-37057107D01*
X209144000Y-36257107D02*
X209144000Y-35457107D01*
X209144000Y-36257107D02*
X209144000Y-37057107D01*
D11*
%TO.C,U$6*%
X141822100Y-146668600D02*
X141822100Y-147049600D01*
D13*
%TO.C,JP21*%
X245761100Y-167468600D02*
X245761100Y-168738600D01*
X245761100Y-168738600D02*
X246396100Y-169373600D01*
X246396100Y-166833600D02*
X245761100Y-167468600D01*
X246396100Y-166833600D02*
X247666100Y-166833600D01*
X247666100Y-166833600D02*
X248301100Y-167468600D01*
X247666100Y-169373600D02*
X246396100Y-169373600D01*
X248301100Y-167468600D02*
X248301100Y-168738600D01*
X248301100Y-168738600D02*
X247666100Y-169373600D01*
D11*
%TO.C,U$10*%
X320175100Y-39538600D02*
X320175100Y-39919600D01*
D14*
%TO.C,C17*%
X217073164Y-49981357D02*
X217288836Y-49981357D01*
X217073164Y-50701357D02*
X217288836Y-50701357D01*
%TO.C,R3*%
X217230359Y-31097107D02*
X217537641Y-31097107D01*
X217230359Y-31857107D02*
X217537641Y-31857107D01*
%TO.C,J1*%
X215414000Y-30777107D02*
X215414000Y-24877107D01*
X215414000Y-30777107D02*
X213774000Y-30777107D01*
X207474000Y-30777107D02*
X206034000Y-30777107D01*
X206034000Y-30777107D02*
X206034000Y-24877107D01*
%TO.C,U4*%
X198505000Y-39725000D02*
X198505000Y-39985000D01*
X198505000Y-39985000D02*
X196830000Y-39985000D01*
X198505000Y-45175000D02*
X198505000Y-44915000D01*
X201230000Y-39725000D02*
X198505000Y-39725000D01*
X201230000Y-39725000D02*
X203955000Y-39725000D01*
X201230000Y-45175000D02*
X198505000Y-45175000D01*
X201230000Y-45175000D02*
X203955000Y-45175000D01*
X203955000Y-39725000D02*
X203955000Y-39985000D01*
X203955000Y-45175000D02*
X203955000Y-44915000D01*
D13*
%TO.C,JP9*%
X303761100Y-56468600D02*
X303761100Y-57738600D01*
X303761100Y-57738600D02*
X304396100Y-58373600D01*
X304396100Y-55833600D02*
X303761100Y-56468600D01*
X304396100Y-55833600D02*
X305666100Y-55833600D01*
X305666100Y-55833600D02*
X306301100Y-56468600D01*
X305666100Y-58373600D02*
X304396100Y-58373600D01*
X306301100Y-56468600D02*
X306301100Y-57738600D01*
X306301100Y-57738600D02*
X305666100Y-58373600D01*
%TD*%
D15*
%TO.C,SW1*%
X201608999Y-30407106D03*
%TD*%
%LPC*%
%TO.C,SW1*%
X201608999Y-30407106D03*
X201608999Y-36407106D03*
X197858999Y-30407106D03*
X197858999Y-36407106D03*
%TD*%
D16*
%TO.C,U$15*%
X351451100Y-69107600D03*
D17*
X350181100Y-71647600D03*
D18*
X346371100Y-69107600D03*
D17*
X343831100Y-74187600D03*
D16*
X341291100Y-69107600D03*
D19*
X342561100Y-66567600D03*
X348911100Y-64027600D03*
%TD*%
D16*
%TO.C,U$19*%
X312220100Y-130237600D03*
D17*
X310950100Y-132777600D03*
D18*
X307140100Y-130237600D03*
D17*
X304600100Y-135317600D03*
D16*
X302060100Y-130237600D03*
D19*
X303330100Y-127697600D03*
X309680100Y-125157600D03*
%TD*%
D16*
%TO.C,SW8*%
X111212100Y-66738600D03*
D17*
X109942100Y-69278600D03*
D18*
X106132100Y-66738600D03*
D17*
X103592100Y-71818600D03*
D16*
X101052100Y-66738600D03*
D19*
X102322100Y-64198600D03*
X108672100Y-61658600D03*
%TD*%
D20*
%TO.C,JP18*%
X275031100Y-130103600D03*
%TD*%
D21*
%TO.C,@HOLE15*%
X320031100Y-158103600D03*
%TD*%
D17*
%TO.C,@HOLE1*%
X348031100Y-144103600D03*
%TD*%
D22*
%TO.C,@HOLE6*%
X50031100Y-140103600D03*
%TD*%
D23*
%TO.C,C13*%
X205468750Y-50583125D03*
X205468750Y-49623125D03*
%TD*%
D24*
%TO.C,R5*%
X221154000Y-47687107D03*
X221154000Y-49337107D03*
%TD*%
D20*
%TO.C,JP13*%
X358031100Y-51103600D03*
%TD*%
D25*
%TO.C,U1*%
X216414000Y-40677107D03*
X216414000Y-38777107D03*
X214539000Y-39727107D03*
%TD*%
D16*
%TO.C,U$14*%
X323096100Y-66132600D03*
D17*
X321826100Y-68672600D03*
D18*
X318016100Y-66132600D03*
D17*
X315476100Y-71212600D03*
D16*
X312936100Y-66132600D03*
D19*
X314206100Y-63592600D03*
X320556100Y-61052600D03*
%TD*%
D21*
%TO.C,@HOLE11*%
X238031100Y-41603600D03*
%TD*%
D22*
%TO.C,@HOLE8*%
X248031100Y-68103600D03*
%TD*%
D26*
%TO.C,C2*%
X215504000Y-37487107D03*
X214544000Y-37487107D03*
%TD*%
D17*
%TO.C,@HOLE0*%
X132031100Y-163103600D03*
%TD*%
D27*
%TO.C,D3*%
X222492500Y-52075000D03*
X224367500Y-52075000D03*
%TD*%
D16*
%TO.C,U$16*%
X377674100Y-85143600D03*
D17*
X376404100Y-87683600D03*
D18*
X372594100Y-85143600D03*
D17*
X370054100Y-90223600D03*
D16*
X367514100Y-85143600D03*
D19*
X368784100Y-82603600D03*
X375134100Y-80063600D03*
%TD*%
D16*
%TO.C,U$8*%
X217516100Y-78501600D03*
D17*
X216246100Y-81041600D03*
D18*
X212436100Y-78501600D03*
D17*
X209896100Y-83581600D03*
D16*
X207356100Y-78501600D03*
D19*
X208626100Y-75961600D03*
X214976100Y-73421600D03*
%TD*%
D28*
%TO.C,R6*%
X222694000Y-49337107D03*
X222694000Y-47687107D03*
%TD*%
D29*
%TO.C,C11*%
X217670589Y-56383589D03*
X218349411Y-57062411D03*
%TD*%
D30*
%TO.C,R2*%
X207064000Y-34137107D03*
X206044000Y-34137107D03*
%TD*%
D20*
%TO.C,JP20*%
X299031100Y-147103600D03*
%TD*%
D16*
%TO.C,U$17*%
X289563100Y-114467600D03*
D17*
X288293100Y-117007600D03*
D18*
X284483100Y-114467600D03*
D17*
X281943100Y-119547600D03*
D16*
X279403100Y-114467600D03*
D19*
X280673100Y-111927600D03*
X287023100Y-109387600D03*
%TD*%
D31*
%TO.C,Y1*%
X209517999Y-64096356D03*
X207317999Y-64096356D03*
X207317999Y-65796356D03*
X209517999Y-65796356D03*
%TD*%
D16*
%TO.C,U$12*%
X377674100Y-57533600D03*
D17*
X376404100Y-60073600D03*
D18*
X372594100Y-57533600D03*
D17*
X370054100Y-62613600D03*
D16*
X367514100Y-57533600D03*
D19*
X368784100Y-54993600D03*
X375134100Y-52453600D03*
%TD*%
D16*
%TO.C,U$9*%
X296578100Y-50518600D03*
D17*
X295308100Y-53058600D03*
D18*
X291498100Y-50518600D03*
D17*
X288958100Y-55598600D03*
D16*
X286418100Y-50518600D03*
D19*
X287688100Y-47978600D03*
X294038100Y-45438600D03*
%TD*%
D16*
%TO.C,U$20*%
X289563100Y-145652600D03*
D17*
X288293100Y-148192600D03*
D18*
X284483100Y-145652600D03*
D17*
X281943100Y-150732600D03*
D16*
X279403100Y-145652600D03*
D19*
X280673100Y-143112600D03*
X287023100Y-140572600D03*
%TD*%
D32*
%TO.C,C15*%
X204792161Y-55605714D03*
X204113339Y-56284536D03*
%TD*%
D20*
%TO.C,JP10*%
X302031100Y-84103600D03*
%TD*%
%TO.C,JP12*%
X332031100Y-36103600D03*
%TD*%
%TO.C,JP7*%
X176031100Y-158103600D03*
%TD*%
D23*
%TO.C,C8*%
X211691750Y-65442125D03*
X211691750Y-64482125D03*
%TD*%
D20*
%TO.C,JP16*%
X355031100Y-80103600D03*
%TD*%
D33*
%TO.C,F1*%
X214434000Y-34367107D03*
X217234000Y-34367107D03*
%TD*%
D20*
%TO.C,JP6*%
X150031100Y-155103600D03*
%TD*%
D16*
%TO.C,U$18*%
X266876100Y-130237600D03*
D17*
X265606100Y-132777600D03*
D18*
X261796100Y-130237600D03*
D17*
X259256100Y-135317600D03*
D16*
X256716100Y-130237600D03*
D19*
X257986100Y-127697600D03*
X264336100Y-125157600D03*
%TD*%
D22*
%TO.C,@HOLE4*%
X332031100Y-51103600D03*
%TD*%
D34*
%TO.C,D2*%
X220954000Y-38037107D03*
X220954000Y-34737107D03*
%TD*%
D20*
%TO.C,JP19*%
X321031100Y-138103600D03*
%TD*%
D16*
%TO.C,U$21*%
X266876100Y-161422600D03*
D17*
X265606100Y-163962600D03*
D18*
X261796100Y-161422600D03*
D17*
X259256100Y-166502600D03*
D16*
X256716100Y-161422600D03*
D19*
X257986100Y-158882600D03*
X264336100Y-156342600D03*
%TD*%
D35*
%TO.C,R1*%
X221205000Y-26850000D03*
X219555000Y-26850000D03*
%TD*%
D26*
%TO.C,C9*%
X218524000Y-44332107D03*
X217564000Y-44332107D03*
%TD*%
D36*
%TO.C,R4*%
X219155000Y-52325000D03*
X220805000Y-52325000D03*
%TD*%
D20*
%TO.C,JP2*%
X66031100Y-93103600D03*
%TD*%
D17*
%TO.C,@HOLE3*%
X246031100Y-123103600D03*
%TD*%
D37*
%TO.C,C1*%
X217564000Y-45532107D03*
X218524000Y-45532107D03*
%TD*%
D22*
%TO.C,@HOLE5*%
X340031100Y-155103600D03*
%TD*%
D23*
%TO.C,C4*%
X213469750Y-48043125D03*
X213469750Y-47083125D03*
%TD*%
D20*
%TO.C,JP3*%
X81031100Y-82103600D03*
%TD*%
D38*
%TO.C,R11*%
X210130000Y-61910000D03*
X210130000Y-60890000D03*
%TD*%
D39*
%TO.C,C6*%
X213117000Y-60910357D03*
X213117000Y-61870357D03*
%TD*%
D37*
%TO.C,C16*%
X216701000Y-48817357D03*
X217661000Y-48817357D03*
%TD*%
D17*
%TO.C,@HOLE10*%
X182930000Y-56050000D03*
%TD*%
D20*
%TO.C,JP17*%
X300031100Y-122103600D03*
%TD*%
D16*
%TO.C,SW10*%
X137784100Y-78501600D03*
D17*
X136514100Y-81041600D03*
D18*
X132704100Y-78501600D03*
D17*
X130164100Y-83581600D03*
D16*
X127624100Y-78501600D03*
D19*
X128894100Y-75961600D03*
X135244100Y-73421600D03*
%TD*%
D20*
%TO.C,JP14*%
X375031100Y-69103600D03*
%TD*%
D23*
%TO.C,C12*%
X214485750Y-48043125D03*
X214485750Y-47083125D03*
%TD*%
D37*
%TO.C,C3*%
X206744000Y-40547107D03*
X207704000Y-40547107D03*
%TD*%
D39*
%TO.C,C7*%
X204989000Y-64736125D03*
X204989000Y-65696125D03*
%TD*%
D20*
%TO.C,JP11*%
X328031100Y-76103600D03*
%TD*%
%TO.C,JP8*%
X220031100Y-91103600D03*
%TD*%
D21*
%TO.C,@HOLE12*%
X52431100Y-105303600D03*
%TD*%
D24*
%TO.C,R9*%
X212664000Y-41222107D03*
X212664000Y-42872107D03*
%TD*%
D20*
%TO.C,JP15*%
X377031100Y-97103600D03*
%TD*%
D40*
%TO.C,R10*%
X197974000Y-38117107D03*
X197974000Y-39137107D03*
%TD*%
D16*
%TO.C,U$7*%
X167431100Y-161421600D03*
D17*
X166161100Y-163961600D03*
D18*
X162351100Y-161421600D03*
D17*
X159811100Y-166501600D03*
D16*
X157271100Y-161421600D03*
D19*
X158541100Y-158881600D03*
X164891100Y-156341600D03*
%TD*%
D20*
%TO.C,JP5*%
X145031100Y-85103600D03*
%TD*%
D22*
%TO.C,@HOLE7*%
X129031100Y-46103600D03*
%TD*%
D24*
%TO.C,R8*%
X211134000Y-41222107D03*
X211134000Y-42872107D03*
%TD*%
D16*
%TO.C,U$11*%
X351451100Y-41497600D03*
D17*
X350181100Y-44037600D03*
D18*
X346371100Y-41497600D03*
D17*
X343831100Y-46577600D03*
D16*
X341291100Y-41497600D03*
D19*
X342561100Y-38957600D03*
X348911100Y-36417600D03*
%TD*%
D23*
%TO.C,C10*%
X210704000Y-46249357D03*
X210704000Y-45289357D03*
%TD*%
D16*
%TO.C,U$13*%
X296578100Y-78127600D03*
D17*
X295308100Y-80667600D03*
D18*
X291498100Y-78127600D03*
D17*
X288958100Y-83207600D03*
D16*
X286418100Y-78127600D03*
D19*
X287688100Y-75587600D03*
X294038100Y-73047600D03*
%TD*%
D34*
%TO.C,D1*%
X218574000Y-42967107D03*
X218574000Y-39667107D03*
%TD*%
D17*
%TO.C,@HOLE2*%
X44031100Y-151103600D03*
%TD*%
D39*
%TO.C,C14*%
X211593000Y-60910357D03*
X211593000Y-61870357D03*
%TD*%
D41*
%TO.C,U3*%
X207266500Y-51202107D03*
X207266500Y-51602107D03*
X207266500Y-52002107D03*
X207266500Y-52402107D03*
X207266500Y-52802107D03*
X207266500Y-53202107D03*
X207266500Y-53602107D03*
X207266500Y-54002107D03*
X207266500Y-54402107D03*
X207266500Y-54802107D03*
X207266500Y-55202107D03*
X207266500Y-55602107D03*
X207266500Y-56002107D03*
X207266500Y-56402107D03*
D42*
X208104000Y-57239607D03*
X208504000Y-57239607D03*
X208904000Y-57239607D03*
X209304000Y-57239607D03*
X209704000Y-57239607D03*
X210104000Y-57239607D03*
X210504000Y-57239607D03*
X210904000Y-57239607D03*
X211304000Y-57239607D03*
X211704000Y-57239607D03*
X212104000Y-57239607D03*
X212504000Y-57239607D03*
X212904000Y-57239607D03*
X213304000Y-57239607D03*
D41*
X214141500Y-56402107D03*
X214141500Y-56002107D03*
X214141500Y-55602107D03*
X214141500Y-55202107D03*
X214141500Y-54802107D03*
X214141500Y-54402107D03*
X214141500Y-54002107D03*
X214141500Y-53602107D03*
X214141500Y-53202107D03*
X214141500Y-52802107D03*
X214141500Y-52402107D03*
X214141500Y-52002107D03*
X214141500Y-51602107D03*
X214141500Y-51202107D03*
D42*
X213304000Y-50364607D03*
X212904000Y-50364607D03*
X212504000Y-50364607D03*
X212104000Y-50364607D03*
X211704000Y-50364607D03*
X211304000Y-50364607D03*
X210904000Y-50364607D03*
X210504000Y-50364607D03*
X210104000Y-50364607D03*
X209704000Y-50364607D03*
X209304000Y-50364607D03*
X208904000Y-50364607D03*
X208504000Y-50364607D03*
X208104000Y-50364607D03*
D43*
X210704000Y-53802107D03*
%TD*%
D20*
%TO.C,JP4*%
X118031100Y-75103600D03*
%TD*%
D23*
%TO.C,C5*%
X209180000Y-46249357D03*
X209180000Y-45289357D03*
%TD*%
D44*
%TO.C,@HOLE14*%
X186031100Y-127903600D03*
%TD*%
D21*
%TO.C,@HOLE13*%
X93831100Y-39803600D03*
%TD*%
D16*
%TO.C,SW6*%
X82856100Y-69464600D03*
D17*
X81586100Y-72004600D03*
D18*
X77776100Y-69464600D03*
D17*
X75236100Y-74544600D03*
D16*
X72696100Y-69464600D03*
D19*
X73966100Y-66924600D03*
X80316100Y-64384600D03*
%TD*%
D16*
%TO.C,SW4*%
X57576100Y-85767600D03*
D17*
X56306100Y-88307600D03*
D18*
X52496100Y-85767600D03*
D17*
X49956100Y-90847600D03*
D16*
X47416100Y-85767600D03*
D19*
X48686100Y-83227600D03*
X55036100Y-80687600D03*
%TD*%
D45*
%TO.C,U2*%
X211654000Y-35119607D03*
X210704000Y-35119607D03*
X209754000Y-35119607D03*
X209754000Y-37394607D03*
X210704000Y-37394607D03*
X211654000Y-37394607D03*
%TD*%
D16*
%TO.C,U$6*%
X144743100Y-145652600D03*
D17*
X143473100Y-148192600D03*
D18*
X139663100Y-145652600D03*
D17*
X137123100Y-150732600D03*
D16*
X134583100Y-145652600D03*
D19*
X135853100Y-143112600D03*
X142203100Y-140572600D03*
%TD*%
D22*
%TO.C,@HOLE9*%
X200031100Y-157103600D03*
%TD*%
D20*
%TO.C,JP21*%
X247031100Y-168103600D03*
%TD*%
D16*
%TO.C,U$10*%
X323096100Y-38522600D03*
D17*
X321826100Y-41062600D03*
D18*
X318016100Y-38522600D03*
D17*
X315476100Y-43602600D03*
D16*
X312936100Y-38522600D03*
D19*
X314206100Y-35982600D03*
X320556100Y-33442600D03*
%TD*%
D37*
%TO.C,C17*%
X216701000Y-50341357D03*
X217661000Y-50341357D03*
%TD*%
D46*
%TO.C,R3*%
X216874000Y-31477107D03*
X217894000Y-31477107D03*
%TD*%
D47*
%TO.C,J1*%
X214324000Y-29717107D03*
X206974000Y-29717107D03*
D48*
X213473999Y-30277106D03*
X212973999Y-30277106D03*
X212473999Y-30277106D03*
X211973999Y-30277106D03*
X211473999Y-30277106D03*
D49*
X210973999Y-30277106D03*
X210473999Y-30277106D03*
D48*
X209973999Y-30277106D03*
X209473999Y-30277106D03*
X208973999Y-30277106D03*
X208473999Y-30277106D03*
X207973999Y-30277106D03*
D47*
X207924000Y-29067107D03*
X208324000Y-28367107D03*
X209124000Y-28367107D03*
X209524000Y-29067107D03*
X209924000Y-28367107D03*
X210324000Y-29067107D03*
X211124000Y-29067107D03*
X211524000Y-28367107D03*
X211924000Y-29067107D03*
X212324000Y-28367107D03*
X213124000Y-28367107D03*
X213524000Y-29067107D03*
D50*
X215213999Y-24077106D03*
X214778999Y-28467106D03*
X206518999Y-28467106D03*
X206233999Y-24077106D03*
%TD*%
D51*
%TO.C,U4*%
X197630000Y-40545000D03*
X197630000Y-41815000D03*
X197630000Y-43085000D03*
X197630000Y-44355000D03*
X204830000Y-44355000D03*
X204830000Y-43085000D03*
X204830000Y-41815000D03*
X204830000Y-40545000D03*
%TD*%
D20*
%TO.C,JP9*%
X305031100Y-57103600D03*
%TD*%
M02*
