M48
; DRILL file {KiCad 7.0.2} date Sat May 20 09:49:11 2023
; FORMAT={-:-/ absolute / inch / decimal}
; #@! TF.CreationDate,2023-05-20T09:49:11-05:00
; #@! TF.GenerationSoftware,Kicad,Pcbnew,7.0.2
; #@! TF.FileFunction,Plated,1,2,PTH
FMAT,2
INCH
; #@! TA.AperFunction,Plated,PTH,ViaDrill
T1C0.0118
; #@! TA.AperFunction,Plated,PTH,ViaDrill
T2C0.0138
; #@! TA.AperFunction,Plated,PTH,ComponentDrill
T3C0.0138
; #@! TA.AperFunction,Plated,PTH,ViaDrill
T4C0.0157
; #@! TA.AperFunction,Plated,PTH,ComponentDrill
T5C0.0157
; #@! TA.AperFunction,Plated,PTH,ComponentDrill
T6C0.0197
; #@! TA.AperFunction,Plated,PTH,ComponentDrill
T7C0.0590
%
G90
G05
T1
X7.5878Y-2.372
X7.9047Y-2.3774
X7.9898Y-2.5201
X8.0827Y-2.2299
X8.0893Y-1.9226
X8.1939Y-1.4274
X8.2286Y-1.3152
X8.2357Y-1.6294
X8.2643Y-1.7576
X8.2704Y-1.8769
X8.2813Y-2.6234
X8.2981Y-1.3417
X8.3043Y-1.8576
X8.3081Y-1.7382
X8.3118Y-1.2957
X8.3142Y-2.4815
X8.3524Y-2.474
X8.3704Y-1.3146
X8.3823Y-2.3988
X8.3831Y-1.7382
X8.3859Y-1.3667
X8.4443Y-1.8176
X8.5155Y-1.4755
X8.5344Y-1.793
X8.5493Y-1.2759
X8.5693Y-1.8889
X8.5702Y-2.0192
X8.6093Y-2.2596
X8.6654Y-1.7469
X8.7162Y-1.2142
T2
X7.8359Y-4.256
X8.3201Y-2.2009
X8.3243Y-2.034
X11.3004Y-6.7757
X11.891Y-6.3427
X12.2847Y-5.7521
X12.954Y-6.6576
X12.9934Y-4.6497
X13.1115Y-5.5553
X13.9382Y-6.5789
T3
X8.2452Y-2.068
X8.2452Y-2.1182
X8.2452Y-2.1684
X8.2954Y-2.068
X8.2954Y-2.1182
X8.2954Y-2.1684
X8.3456Y-2.068
X8.3456Y-2.1182
X8.3456Y-2.1684
T4
X1.6154Y-4.9253
X1.7335Y-4.4135
X1.7729Y-3.7836
X1.8122Y-1.8545
X1.8122Y-2.8387
X1.891Y-6.3427
X2.0091Y-4.6891
X2.0485Y-6.7757
X2.1272Y-1.5395
X2.1272Y-2.2875
X2.4028Y-6.0671
X2.4028Y-6.4214
X2.5209Y-2.8387
X2.6784Y-6.697
X2.7965Y-1.382
X2.8359Y-2.2088
X2.8359Y-3.2324
X2.8752Y-1.8545
X2.9934Y-5.5553
X3.3083Y-4.2167
X3.6626Y-2.2482
X3.7808Y-4.1773
X3.8595Y-3.0356
X4.3319Y-2.0513
X4.5682Y-3.2324
X4.6075Y-1.382
X5.6311Y-2.5238
X5.7099Y-1.5001
X5.8674Y-6.5789
X6.1036Y-3.2324
X6.143Y-5.7521
X6.2611Y-2.8387
X6.3004Y-4.8072
X6.4579Y-1.5001
X6.7335Y-4.8072
X6.8122Y-3.2718
X6.9304Y-5.8309
X7.2847Y-6.4608
X7.4422Y-2.9175
X7.4422Y-3.4293
X7.8693Y-1.7638
X8.0893Y-1.0538
X8.0893Y-1.1009
X8.1626Y-1.6638
X8.1858Y-1.3437
X8.2906Y-2.3591
X8.3477Y-4.9647
X8.3871Y-3.7836
X8.3871Y-5.8309
X8.4772Y-2.6055
X8.4846Y-2.5075
X8.6472Y-2.5661
X8.6478Y-2.7104
X8.6693Y-1.2888
X8.7808Y-4.0986
X9.0563Y-6.4608
X9.0957Y-3.508
X9.2385Y-1.2442
X9.6863Y-5.8702
X9.765Y-2.0907
X9.8831Y-1.5001
X9.9619Y-6.7364
X10.3556Y-5.634
X10.3949Y-2.7206
X10.4737Y-1.9726
X10.513Y-6.0277
X10.7099Y-1.4608
X10.9855Y-6.2246
X11.0248Y-3.5474
X11.6154Y-3.7836
X11.6154Y-5.634
X11.6548Y-5.3584
X11.7729Y-2.7206
X11.7729Y-4.6497
X11.8516Y-3.5474
X12.0091Y-4.2954
X12.1666Y-3.7836
X12.2059Y-1.9332
X12.2847Y-3.0356
X12.5996Y-5.1616
X12.639Y-3.3112
X12.8752Y-2.3269
X13.2689Y-3.2718
X13.2689Y-3.9017
X13.4264Y-2.0513
X13.5445Y-1.2246
X13.7808Y-3.3899
X13.9776Y-2.3269
X14.0957Y-3.823
X14.3319Y-1.382
X14.3713Y-2.6812
X14.45Y-1.8151
X14.765Y-1.5395
X14.8044Y-1.2639
X15.0012Y-3.7049
T5
X8.1991Y-1.1813
X8.2148Y-1.1538
X8.2463Y-1.1538
X8.262Y-1.1813
X8.2778Y-1.1538
X8.2935Y-1.1813
X8.325Y-1.1813
X8.3408Y-1.1538
X8.3565Y-1.1813
X8.3723Y-1.1538
X8.4038Y-1.1538
X8.4195Y-1.1813
T7
X1.9195Y-3.2755
X2.166Y-3.1747
X2.9148Y-2.6336
X3.1613Y-2.5329
X4.0312Y-2.5263
X4.2776Y-2.4255
X5.0773Y-2.9894
X5.3238Y-2.8886
X5.3512Y-5.6323
X5.5976Y-5.5315
X6.2445Y-6.254
X6.491Y-6.1532
X8.2164Y-2.9894
X8.4628Y-2.8886
X10.1597Y-5.0263
X10.1597Y-6.254
X10.4061Y-4.9255
X10.4061Y-6.1533
X11.0529Y-4.4054
X11.0529Y-5.6332
X11.2993Y-4.3046
X11.2993Y-5.5324
X11.3291Y-1.8877
X11.3291Y-2.9747
X11.5755Y-1.787
X11.5755Y-2.8739
X11.9449Y-5.0263
X12.1913Y-4.9255
X12.3731Y-1.4155
X12.3731Y-2.5025
X12.6195Y-1.3147
X12.6195Y-2.4017
X13.4894Y-1.5326
X13.4894Y-2.6196
X13.7359Y-1.4318
X13.7359Y-2.5188
X14.5218Y-2.1639
X14.5218Y-3.2509
X14.7683Y-2.0631
X14.7683Y-3.1501
T6
G00X8.1325Y-0.9967
M15
G01X8.1325Y-0.9731
M16
G05
G00X8.1437Y-1.1695
M15
G01X8.1437Y-1.1459
M16
G05
G00X8.4689Y-1.1695
M15
G01X8.4689Y-1.1459
M16
G05
G00X8.4861Y-0.9967
M15
G01X8.4861Y-0.9731
M16
G05
T0
M30
