%TF.GenerationSoftware,KiCad,Pcbnew,(7.0.0)*%
%TF.CreationDate,2023-06-16T05:12:17-04:00*%
%TF.ProjectId,ICOF1,49434f46-312e-46b6-9963-61645f706362,rev?*%
%TF.SameCoordinates,Original*%
%TF.FileFunction,Paste,Bot*%
%TF.FilePolarity,Positive*%
%FSLAX46Y46*%
G04 Gerber Fmt 4.6, Leading zero omitted, Abs format (unit mm)*
G04 Created by KiCad (PCBNEW (7.0.0)) date 2023-06-16 05:12:17*
%MOMM*%
%LPD*%
G01*
G04 APERTURE LIST*
G04 Aperture macros list*
%AMRoundRect*
0 Rectangle with rounded corners*
0 $1 Rounding radius*
0 $2 $3 $4 $5 $6 $7 $8 $9 X,Y pos of 4 corners*
0 Add a 4 corners polygon primitive as box body*
4,1,4,$2,$3,$4,$5,$6,$7,$8,$9,$2,$3,0*
0 Add four circle primitives for the rounded corners*
1,1,$1+$1,$2,$3*
1,1,$1+$1,$4,$5*
1,1,$1+$1,$6,$7*
1,1,$1+$1,$8,$9*
0 Add four rect primitives between the rounded corners*
20,1,$1+$1,$2,$3,$4,$5,0*
20,1,$1+$1,$4,$5,$6,$7,0*
20,1,$1+$1,$6,$7,$8,$9,0*
20,1,$1+$1,$8,$9,$2,$3,0*%
G04 Aperture macros list end*
%ADD10RoundRect,0.253000X-1.697000X-1.012000X1.697000X-1.012000X1.697000X1.012000X-1.697000X1.012000X0*%
G04 APERTURE END LIST*
D10*
%TO.C,SW25*%
X353481100Y-71657600D03*
X340521100Y-74192600D03*
%TD*%
%TO.C,SW40*%
X314250100Y-132787600D03*
X301290100Y-135322600D03*
%TD*%
%TO.C,SW8*%
X113242100Y-69288600D03*
X100282100Y-71823600D03*
%TD*%
%TO.C,SW22*%
X325126100Y-68682600D03*
X312166100Y-71217600D03*
%TD*%
%TO.C,SW26*%
X379704100Y-87693600D03*
X366744100Y-90228600D03*
%TD*%
%TO.C,SW3*%
X219546100Y-81051600D03*
X206586100Y-83586600D03*
%TD*%
%TO.C,SW35*%
X291593100Y-117017600D03*
X278633100Y-119552600D03*
%TD*%
%TO.C,SW19*%
X379704100Y-60083600D03*
X366744100Y-62618600D03*
%TD*%
%TO.C,SW12*%
X298608100Y-53068600D03*
X285648100Y-55603600D03*
%TD*%
%TO.C,SW38*%
X291593100Y-148202600D03*
X278633100Y-150737600D03*
%TD*%
%TO.C,SW28*%
X146770000Y-148180000D03*
X133810000Y-150715000D03*
%TD*%
%TO.C,SW32*%
X268906100Y-132787600D03*
X255946100Y-135322600D03*
%TD*%
%TO.C,SW36*%
X268906100Y-163972600D03*
X255946100Y-166507600D03*
%TD*%
%TO.C,SW10*%
X139814100Y-81051600D03*
X126854100Y-83586600D03*
%TD*%
%TO.C,SW30*%
X169461100Y-163971600D03*
X156501100Y-166506600D03*
%TD*%
%TO.C,SW17*%
X353481100Y-44047600D03*
X340521100Y-46582600D03*
%TD*%
%TO.C,SW21*%
X298608100Y-80677600D03*
X285648100Y-83212600D03*
%TD*%
%TO.C,SW6*%
X84886100Y-72014600D03*
X71926100Y-74549600D03*
%TD*%
%TO.C,SW4*%
X59606100Y-88317600D03*
X46646100Y-90852600D03*
%TD*%
%TO.C,SW14*%
X325126100Y-41072600D03*
X312166100Y-43607600D03*
%TD*%
M02*
