%TF.GenerationSoftware,KiCad,Pcbnew,(7.0.0)*%
%TF.CreationDate,2023-03-22T04:15:03-04:00*%
%TF.ProjectId,ICOF1,49434f46-312e-46b6-9963-61645f706362,rev?*%
%TF.SameCoordinates,Original*%
%TF.FileFunction,Paste,Top*%
%TF.FilePolarity,Positive*%
%FSLAX46Y46*%
G04 Gerber Fmt 4.6, Leading zero omitted, Abs format (unit mm)*
G04 Created by KiCad (PCBNEW (7.0.0)) date 2023-03-22 04:15:03*
%MOMM*%
%LPD*%
G01*
G04 APERTURE LIST*
G04 Aperture macros list*
%AMRoundRect*
0 Rectangle with rounded corners*
0 $1 Rounding radius*
0 $2 $3 $4 $5 $6 $7 $8 $9 X,Y pos of 4 corners*
0 Add a 4 corners polygon primitive as box body*
4,1,4,$2,$3,$4,$5,$6,$7,$8,$9,$2,$3,0*
0 Add four circle primitives for the rounded corners*
1,1,$1+$1,$2,$3*
1,1,$1+$1,$4,$5*
1,1,$1+$1,$6,$7*
1,1,$1+$1,$8,$9*
0 Add four rect primitives between the rounded corners*
20,1,$1+$1,$2,$3,$4,$5,0*
20,1,$1+$1,$4,$5,$6,$7,0*
20,1,$1+$1,$6,$7,$8,$9,0*
20,1,$1+$1,$8,$9,$2,$3,0*%
G04 Aperture macros list end*
%ADD10R,1.100000X1.800000*%
%ADD11RoundRect,0.140000X0.170000X-0.140000X0.170000X0.140000X-0.170000X0.140000X-0.170000X-0.140000X0*%
%ADD12RoundRect,0.200000X-0.275000X0.200000X-0.275000X-0.200000X0.275000X-0.200000X0.275000X0.200000X0*%
%ADD13RoundRect,0.150000X0.587500X0.150000X-0.587500X0.150000X-0.587500X-0.150000X0.587500X-0.150000X0*%
%ADD14RoundRect,0.140000X0.140000X0.170000X-0.140000X0.170000X-0.140000X-0.170000X0.140000X-0.170000X0*%
%ADD15RoundRect,0.243750X-0.243750X-0.456250X0.243750X-0.456250X0.243750X0.456250X-0.243750X0.456250X0*%
%ADD16RoundRect,0.200000X0.275000X-0.200000X0.275000X0.200000X-0.275000X0.200000X-0.275000X-0.200000X0*%
%ADD17RoundRect,0.140000X-0.219203X-0.021213X-0.021213X-0.219203X0.219203X0.021213X0.021213X0.219203X0*%
%ADD18RoundRect,0.135000X0.135000X0.185000X-0.135000X0.185000X-0.135000X-0.185000X0.135000X-0.185000X0*%
%ADD19R,1.400000X1.200000*%
%ADD20RoundRect,0.140000X-0.021213X0.219203X-0.219203X0.021213X0.021213X-0.219203X0.219203X-0.021213X0*%
%ADD21RoundRect,0.250000X-0.375000X-0.625000X0.375000X-0.625000X0.375000X0.625000X-0.375000X0.625000X0*%
%ADD22RoundRect,0.225000X0.375000X-0.225000X0.375000X0.225000X-0.375000X0.225000X-0.375000X-0.225000X0*%
%ADD23RoundRect,0.200000X0.200000X0.275000X-0.200000X0.275000X-0.200000X-0.275000X0.200000X-0.275000X0*%
%ADD24RoundRect,0.200000X-0.200000X-0.275000X0.200000X-0.275000X0.200000X0.275000X-0.200000X0.275000X0*%
%ADD25RoundRect,0.140000X-0.140000X-0.170000X0.140000X-0.170000X0.140000X0.170000X-0.140000X0.170000X0*%
%ADD26RoundRect,0.135000X0.185000X-0.135000X0.185000X0.135000X-0.185000X0.135000X-0.185000X-0.135000X0*%
%ADD27RoundRect,0.140000X-0.170000X0.140000X-0.170000X-0.140000X0.170000X-0.140000X0.170000X0.140000X0*%
%ADD28RoundRect,0.135000X-0.185000X0.135000X-0.185000X-0.135000X0.185000X-0.135000X0.185000X0.135000X0*%
%ADD29RoundRect,0.250000X-0.292217X-0.292217X0.292217X-0.292217X0.292217X0.292217X-0.292217X0.292217X0*%
%ADD30RoundRect,0.050000X-0.387500X-0.050000X0.387500X-0.050000X0.387500X0.050000X-0.387500X0.050000X0*%
%ADD31RoundRect,0.050000X-0.050000X-0.387500X0.050000X-0.387500X0.050000X0.387500X-0.050000X0.387500X0*%
%ADD32RoundRect,0.150000X-0.150000X0.512500X-0.150000X-0.512500X0.150000X-0.512500X0.150000X0.512500X0*%
%ADD33R,0.300000X0.900000*%
%ADD34R,0.300000X0.700000*%
%ADD35RoundRect,0.150000X-0.650000X-0.150000X0.650000X-0.150000X0.650000X0.150000X-0.650000X0.150000X0*%
G04 APERTURE END LIST*
D10*
%TO.C,SW1*%
X202129999Y-30349999D03*
X202129999Y-36549999D03*
X198429999Y-30349999D03*
X198429999Y-36549999D03*
%TD*%
D11*
%TO.C,C13*%
X205468750Y-50583125D03*
X205468750Y-49623125D03*
%TD*%
D12*
%TO.C,R5*%
X221154000Y-47687107D03*
X221154000Y-49337107D03*
%TD*%
D13*
%TO.C,U1*%
X216414000Y-40677107D03*
X216414000Y-38777107D03*
X214539000Y-39727107D03*
%TD*%
D14*
%TO.C,C2*%
X215504000Y-37487107D03*
X214544000Y-37487107D03*
%TD*%
D15*
%TO.C,D3*%
X223542500Y-52050000D03*
X225417500Y-52050000D03*
%TD*%
D16*
%TO.C,R6*%
X222694000Y-49337107D03*
X222694000Y-47687107D03*
%TD*%
D17*
%TO.C,C11*%
X217670589Y-56383589D03*
X218349411Y-57062411D03*
%TD*%
D18*
%TO.C,R2*%
X207250000Y-33500000D03*
X206230000Y-33500000D03*
%TD*%
D19*
%TO.C,Y1*%
X209517999Y-64096356D03*
X207317999Y-64096356D03*
X207317999Y-65796356D03*
X209517999Y-65796356D03*
%TD*%
D20*
%TO.C,C15*%
X204792161Y-55605714D03*
X204113339Y-56284536D03*
%TD*%
D11*
%TO.C,C8*%
X211691750Y-65442125D03*
X211691750Y-64482125D03*
%TD*%
D21*
%TO.C,F1*%
X214434000Y-34367107D03*
X217234000Y-34367107D03*
%TD*%
D22*
%TO.C,D2*%
X220954000Y-38037107D03*
X220954000Y-34737107D03*
%TD*%
D23*
%TO.C,R1*%
X218905000Y-30800000D03*
X217255000Y-30800000D03*
%TD*%
D14*
%TO.C,C9*%
X218524000Y-44332107D03*
X217564000Y-44332107D03*
%TD*%
D24*
%TO.C,R4*%
X219955000Y-52150000D03*
X221605000Y-52150000D03*
%TD*%
D25*
%TO.C,C1*%
X217564000Y-45532107D03*
X218524000Y-45532107D03*
%TD*%
D11*
%TO.C,C4*%
X213469750Y-48043125D03*
X213469750Y-47083125D03*
%TD*%
D26*
%TO.C,R11*%
X210130000Y-61910000D03*
X210130000Y-60890000D03*
%TD*%
D27*
%TO.C,C6*%
X213117000Y-60910357D03*
X213117000Y-61870357D03*
%TD*%
D25*
%TO.C,C16*%
X216701000Y-48817357D03*
X217661000Y-48817357D03*
%TD*%
D11*
%TO.C,C12*%
X214485750Y-48043125D03*
X214485750Y-47083125D03*
%TD*%
D25*
%TO.C,C3*%
X207370000Y-41300000D03*
X208330000Y-41300000D03*
%TD*%
D27*
%TO.C,C7*%
X204989000Y-64736125D03*
X204989000Y-65696125D03*
%TD*%
D12*
%TO.C,R9*%
X212664000Y-41222107D03*
X212664000Y-42872107D03*
%TD*%
D28*
%TO.C,R10*%
X198430000Y-38590000D03*
X198430000Y-39610000D03*
%TD*%
D12*
%TO.C,R8*%
X211134000Y-41222107D03*
X211134000Y-42872107D03*
%TD*%
D11*
%TO.C,C10*%
X210704000Y-46249357D03*
X210704000Y-45289357D03*
%TD*%
D22*
%TO.C,D1*%
X218574000Y-42967107D03*
X218574000Y-39667107D03*
%TD*%
D27*
%TO.C,C14*%
X211630000Y-60920000D03*
X211630000Y-61880000D03*
%TD*%
D29*
%TO.C,U3*%
X210066500Y-53164607D03*
X210066500Y-54439607D03*
X211341500Y-53164607D03*
X211341500Y-54439607D03*
D30*
X207266500Y-51202107D03*
X207266500Y-51602107D03*
X207266500Y-52002107D03*
X207266500Y-52402107D03*
X207266500Y-52802107D03*
X207266500Y-53202107D03*
X207266500Y-53602107D03*
X207266500Y-54002107D03*
X207266500Y-54402107D03*
X207266500Y-54802107D03*
X207266500Y-55202107D03*
X207266500Y-55602107D03*
X207266500Y-56002107D03*
X207266500Y-56402107D03*
D31*
X208104000Y-57239607D03*
X208504000Y-57239607D03*
X208904000Y-57239607D03*
X209304000Y-57239607D03*
X209704000Y-57239607D03*
X210104000Y-57239607D03*
X210504000Y-57239607D03*
X210904000Y-57239607D03*
X211304000Y-57239607D03*
X211704000Y-57239607D03*
X212104000Y-57239607D03*
X212504000Y-57239607D03*
X212904000Y-57239607D03*
X213304000Y-57239607D03*
D30*
X214141500Y-56402107D03*
X214141500Y-56002107D03*
X214141500Y-55602107D03*
X214141500Y-55202107D03*
X214141500Y-54802107D03*
X214141500Y-54402107D03*
X214141500Y-54002107D03*
X214141500Y-53602107D03*
X214141500Y-53202107D03*
X214141500Y-52802107D03*
X214141500Y-52402107D03*
X214141500Y-52002107D03*
X214141500Y-51602107D03*
X214141500Y-51202107D03*
D31*
X213304000Y-50364607D03*
X212904000Y-50364607D03*
X212504000Y-50364607D03*
X212104000Y-50364607D03*
X211704000Y-50364607D03*
X211304000Y-50364607D03*
X210904000Y-50364607D03*
X210504000Y-50364607D03*
X210104000Y-50364607D03*
X209704000Y-50364607D03*
X209304000Y-50364607D03*
X208904000Y-50364607D03*
X208504000Y-50364607D03*
X208104000Y-50364607D03*
%TD*%
D11*
%TO.C,C5*%
X209180000Y-46249357D03*
X209180000Y-45289357D03*
%TD*%
D32*
%TO.C,U2*%
X211654000Y-35119607D03*
X210704000Y-35119607D03*
X209754000Y-35119607D03*
X209754000Y-37394607D03*
X210704000Y-37394607D03*
X211654000Y-37394607D03*
%TD*%
D25*
%TO.C,C17*%
X216701000Y-50341357D03*
X217661000Y-50341357D03*
%TD*%
D18*
%TO.C,R3*%
X215340000Y-32250000D03*
X214320000Y-32250000D03*
%TD*%
D33*
%TO.C,J1*%
X213473999Y-30277106D03*
X212973999Y-30277106D03*
X212473999Y-30277106D03*
X211973999Y-30277106D03*
X211473999Y-30277106D03*
D34*
X210973999Y-30277106D03*
X210473999Y-30277106D03*
D33*
X209973999Y-30277106D03*
X209473999Y-30277106D03*
X208973999Y-30277106D03*
X208473999Y-30277106D03*
X207973999Y-30277106D03*
%TD*%
D35*
%TO.C,U4*%
X198380000Y-41195000D03*
X198380000Y-42465000D03*
X198380000Y-43735000D03*
X198380000Y-45005000D03*
X205580000Y-45005000D03*
X205580000Y-43735000D03*
X205580000Y-42465000D03*
X205580000Y-41195000D03*
%TD*%
M02*
