%TF.GenerationSoftware,KiCad,Pcbnew,(7.0.0)*%
%TF.CreationDate,2023-03-22T04:15:03-04:00*%
%TF.ProjectId,ICOF1,49434f46-312e-46b6-9963-61645f706362,rev?*%
%TF.SameCoordinates,Original*%
%TF.FileFunction,Legend,Bot*%
%TF.FilePolarity,Positive*%
%FSLAX46Y46*%
G04 Gerber Fmt 4.6, Leading zero omitted, Abs format (unit mm)*
G04 Created by KiCad (PCBNEW (7.0.0)) date 2023-03-22 04:15:03*
%MOMM*%
%LPD*%
G01*
G04 APERTURE LIST*
G04 Aperture macros list*
%AMRoundRect*
0 Rectangle with rounded corners*
0 $1 Rounding radius*
0 $2 $3 $4 $5 $6 $7 $8 $9 X,Y pos of 4 corners*
0 Add a 4 corners polygon primitive as box body*
4,1,4,$2,$3,$4,$5,$6,$7,$8,$9,$2,$3,0*
0 Add four circle primitives for the rounded corners*
1,1,$1+$1,$2,$3*
1,1,$1+$1,$4,$5*
1,1,$1+$1,$6,$7*
1,1,$1+$1,$8,$9*
0 Add four rect primitives between the rounded corners*
20,1,$1+$1,$2,$3,$4,$5,0*
20,1,$1+$1,$4,$5,$6,$7,0*
20,1,$1+$1,$6,$7,$8,$9,0*
20,1,$1+$1,$8,$9,$2,$3,0*%
G04 Aperture macros list end*
%ADD10C,0.500000*%
%ADD11C,0.150000*%
%ADD12C,0.120000*%
%ADD13C,9.000000*%
%ADD14C,3.000000*%
%ADD15C,8.000000*%
%ADD16C,8.500000*%
%ADD17C,0.650000*%
%ADD18O,0.800000X1.400000*%
%ADD19C,1.750000*%
%ADD20C,3.987800*%
%ADD21RoundRect,0.253000X-1.697000X-1.012000X1.697000X-1.012000X1.697000X1.012000X-1.697000X1.012000X0*%
%ADD22C,2.286000*%
G04 APERTURE END LIST*
D10*
G36*
X370988949Y-178625000D02*
G01*
X370988949Y-178531577D01*
X370963225Y-178524194D01*
X370936377Y-178517001D01*
X370912585Y-178510854D01*
X370885659Y-178504064D01*
X370875987Y-178501657D01*
X370848939Y-178494463D01*
X370823666Y-178487231D01*
X370800167Y-178479961D01*
X370773289Y-178470820D01*
X370749183Y-178461619D01*
X370723917Y-178450499D01*
X370709291Y-178443039D01*
X370698708Y-178420470D01*
X370690315Y-178394896D01*
X370684111Y-178366317D01*
X370680614Y-178340205D01*
X370678637Y-178312006D01*
X370678150Y-178287944D01*
X370679982Y-178074842D01*
X370676318Y-177663293D01*
X370678150Y-177565596D01*
X370676745Y-177522298D01*
X370675431Y-177481704D01*
X370674208Y-177443816D01*
X370673075Y-177408632D01*
X370672032Y-177376153D01*
X370671081Y-177346379D01*
X370670219Y-177319309D01*
X370669098Y-177283777D01*
X370668180Y-177254330D01*
X370667274Y-177224534D01*
X370666560Y-177198425D01*
X370666549Y-177197400D01*
X370669602Y-176957431D01*
X370664717Y-176860345D01*
X370673265Y-176654570D01*
X370675097Y-176577023D01*
X370679284Y-176551529D01*
X370684937Y-176526269D01*
X370686699Y-176519016D01*
X370710789Y-176508941D01*
X370739173Y-176500089D01*
X370764971Y-176493888D01*
X370793517Y-176488468D01*
X370824810Y-176483832D01*
X370850084Y-176480868D01*
X370876903Y-176478343D01*
X370905267Y-176476259D01*
X370915066Y-176475662D01*
X370941312Y-176475662D01*
X370966507Y-176475662D01*
X370975516Y-176475662D01*
X370980401Y-176358426D01*
X370489473Y-176358426D01*
X370462711Y-176358426D01*
X370435005Y-176358426D01*
X370408758Y-176358426D01*
X370382616Y-176358426D01*
X370375900Y-176358426D01*
X370348661Y-176358426D01*
X370317625Y-176358426D01*
X370291856Y-176358426D01*
X370263951Y-176358426D01*
X370233910Y-176358426D01*
X370201734Y-176358426D01*
X370167421Y-176358426D01*
X370130972Y-176358426D01*
X370105487Y-176358426D01*
X370079052Y-176358426D01*
X370051667Y-176358426D01*
X370021681Y-176358426D01*
X369994614Y-176358426D01*
X369964885Y-176358426D01*
X369939719Y-176358426D01*
X369912149Y-176358426D01*
X369893520Y-176358426D01*
X369892039Y-176383585D01*
X369891688Y-176399947D01*
X369892604Y-176425135D01*
X369894697Y-176450320D01*
X369895352Y-176456734D01*
X369921706Y-176465349D01*
X369949477Y-176473792D01*
X369973701Y-176480698D01*
X369998909Y-176487483D01*
X370025102Y-176494150D01*
X370052278Y-176500697D01*
X370079171Y-176507024D01*
X370104513Y-176513410D01*
X370128306Y-176519856D01*
X370154810Y-176527670D01*
X370179081Y-176535570D01*
X370197602Y-176542219D01*
X370202144Y-176568322D01*
X370205053Y-176595420D01*
X370206756Y-176621810D01*
X370207729Y-176651119D01*
X370207983Y-176677773D01*
X370207790Y-176705845D01*
X370207210Y-176731898D01*
X370206045Y-176759743D01*
X370204355Y-176784842D01*
X370202487Y-176804169D01*
X370203153Y-176841707D01*
X370203775Y-176878148D01*
X370204355Y-176913492D01*
X370204892Y-176947738D01*
X370205385Y-176980887D01*
X370205836Y-177012939D01*
X370206244Y-177043894D01*
X370206609Y-177073752D01*
X370206931Y-177102513D01*
X370207210Y-177130176D01*
X370207446Y-177156742D01*
X370207639Y-177182211D01*
X370207849Y-177218357D01*
X370207961Y-177252035D01*
X370207983Y-177273115D01*
X370206151Y-177750000D01*
X370211036Y-177991800D01*
X370207983Y-178353279D01*
X370209204Y-178421667D01*
X370206311Y-178446161D01*
X370202487Y-178463189D01*
X370176536Y-178468770D01*
X370151196Y-178473912D01*
X370126467Y-178478616D01*
X370102348Y-178482881D01*
X370073058Y-178487594D01*
X370044722Y-178491622D01*
X370017340Y-178494965D01*
X370011978Y-178495551D01*
X369986986Y-178498652D01*
X369959585Y-178502163D01*
X369933024Y-178505597D01*
X369906953Y-178508984D01*
X369903129Y-178535031D01*
X369900768Y-178559660D01*
X369900237Y-178575540D01*
X369900952Y-178600060D01*
X369902069Y-178620725D01*
X369926988Y-178621514D01*
X369936263Y-178622557D01*
X369960840Y-178623626D01*
X369986828Y-178624656D01*
X369999766Y-178625000D01*
X370024472Y-178625000D01*
X370044340Y-178625000D01*
X370072279Y-178625000D01*
X370100072Y-178625000D01*
X370128618Y-178625000D01*
X370153709Y-178625000D01*
X370181956Y-178625000D01*
X370213358Y-178625000D01*
X370247916Y-178625000D01*
X370272707Y-178625000D01*
X370576789Y-178625000D01*
X370607233Y-178625000D01*
X370634486Y-178625000D01*
X370664316Y-178625000D01*
X370696721Y-178625000D01*
X370722715Y-178625000D01*
X370750158Y-178625000D01*
X370779051Y-178625000D01*
X370809392Y-178625000D01*
X370841182Y-178625000D01*
X370868335Y-178625000D01*
X370893008Y-178625000D01*
X370920360Y-178625000D01*
X370948066Y-178625000D01*
X370973336Y-178625000D01*
X370988949Y-178625000D01*
G37*
G36*
X367634274Y-176395673D02*
G01*
X367626257Y-176418797D01*
X367618190Y-176444767D01*
X367611176Y-176468602D01*
X367603335Y-176496173D01*
X367594668Y-176527478D01*
X367585174Y-176562519D01*
X367578386Y-176587955D01*
X367571230Y-176615050D01*
X367563707Y-176643806D01*
X367555817Y-176674222D01*
X367547560Y-176706298D01*
X367543293Y-176722958D01*
X367536109Y-176753880D01*
X367529822Y-176785278D01*
X367524431Y-176817154D01*
X367520977Y-176841374D01*
X367518027Y-176865862D01*
X367515582Y-176890618D01*
X367513641Y-176915643D01*
X367512204Y-176940936D01*
X367511272Y-176966498D01*
X367510931Y-176983688D01*
X367667247Y-176983688D01*
X367687895Y-176950395D01*
X367708625Y-176918295D01*
X367729435Y-176887388D01*
X367750327Y-176857674D01*
X367771300Y-176829151D01*
X367792354Y-176801822D01*
X367813489Y-176775685D01*
X367834706Y-176750741D01*
X367856003Y-176726989D01*
X367877381Y-176704430D01*
X367898841Y-176683064D01*
X367920381Y-176662890D01*
X367942003Y-176643909D01*
X367963706Y-176626120D01*
X367985490Y-176609524D01*
X368007355Y-176594120D01*
X368029420Y-176579776D01*
X368051805Y-176566357D01*
X368074510Y-176553863D01*
X368097534Y-176542295D01*
X368120878Y-176531652D01*
X368144541Y-176521935D01*
X368168524Y-176513143D01*
X368192827Y-176505277D01*
X368217449Y-176498336D01*
X368242391Y-176492321D01*
X368267652Y-176487231D01*
X368293233Y-176483066D01*
X368319134Y-176479827D01*
X368345354Y-176477513D01*
X368371894Y-176476125D01*
X368398754Y-176475662D01*
X368431629Y-176476502D01*
X368463698Y-176479021D01*
X368494960Y-176483219D01*
X368525417Y-176489096D01*
X368555067Y-176496652D01*
X368583911Y-176505887D01*
X368611949Y-176516802D01*
X368639180Y-176529396D01*
X368665606Y-176543669D01*
X368691225Y-176559621D01*
X368716038Y-176577252D01*
X368740045Y-176596563D01*
X368763246Y-176617552D01*
X368785640Y-176640221D01*
X368807229Y-176664569D01*
X368828011Y-176690596D01*
X368854851Y-176727824D01*
X368879960Y-176766846D01*
X368903337Y-176807661D01*
X368924983Y-176850270D01*
X368944897Y-176894672D01*
X368954204Y-176917546D01*
X368963079Y-176940869D01*
X368971521Y-176964639D01*
X368979529Y-176988859D01*
X368987105Y-177013526D01*
X368994248Y-177038642D01*
X369000959Y-177064207D01*
X369007236Y-177090219D01*
X369013080Y-177116681D01*
X369018491Y-177143590D01*
X369023470Y-177170948D01*
X369028016Y-177198755D01*
X369032128Y-177227010D01*
X369035808Y-177255713D01*
X369039055Y-177284865D01*
X369041869Y-177314465D01*
X369044250Y-177344513D01*
X369046198Y-177375010D01*
X369047713Y-177405956D01*
X369048795Y-177437350D01*
X369049445Y-177469192D01*
X369049661Y-177501482D01*
X369049513Y-177538508D01*
X369049070Y-177574173D01*
X369048330Y-177608479D01*
X369047295Y-177641426D01*
X369045964Y-177673013D01*
X369044337Y-177703240D01*
X369042415Y-177732108D01*
X369040197Y-177759617D01*
X369037683Y-177785765D01*
X369034873Y-177810555D01*
X369030104Y-177845189D01*
X369024669Y-177876765D01*
X369018569Y-177905282D01*
X369011803Y-177930739D01*
X369003966Y-177956394D01*
X368995870Y-177981458D01*
X368987517Y-178005930D01*
X368978907Y-178029810D01*
X368970039Y-178053099D01*
X368960913Y-178075797D01*
X368946742Y-178108734D01*
X368931990Y-178140340D01*
X368916660Y-178170615D01*
X368900749Y-178199559D01*
X368884259Y-178227172D01*
X368867190Y-178253455D01*
X368855488Y-178270237D01*
X368836779Y-178294337D01*
X368816676Y-178317177D01*
X368795181Y-178338758D01*
X368772293Y-178359080D01*
X368748012Y-178378142D01*
X368722337Y-178395946D01*
X368695270Y-178412489D01*
X368666810Y-178427773D01*
X368638240Y-178442068D01*
X368609316Y-178454957D01*
X368580037Y-178466440D01*
X368550404Y-178476517D01*
X368520417Y-178485188D01*
X368490075Y-178492452D01*
X368459380Y-178498311D01*
X368428330Y-178502764D01*
X368396926Y-178505810D01*
X368365168Y-178507450D01*
X368343799Y-178507763D01*
X368308535Y-178506679D01*
X368273496Y-178503427D01*
X368238682Y-178498006D01*
X368204094Y-178490418D01*
X368169731Y-178480661D01*
X368135594Y-178468737D01*
X368101682Y-178454644D01*
X368079199Y-178444044D01*
X368056817Y-178432481D01*
X368034534Y-178419954D01*
X368012352Y-178406463D01*
X367990270Y-178392009D01*
X367979267Y-178384420D01*
X367957268Y-178368449D01*
X367935389Y-178351524D01*
X367913629Y-178333644D01*
X367891988Y-178314811D01*
X367870467Y-178295024D01*
X367849064Y-178274282D01*
X367827781Y-178252586D01*
X367806618Y-178229937D01*
X367785573Y-178206333D01*
X367764648Y-178181775D01*
X367743842Y-178156263D01*
X367723155Y-178129797D01*
X367702588Y-178102377D01*
X367682140Y-178074003D01*
X367661811Y-178044675D01*
X367641601Y-178014392D01*
X367616392Y-178009970D01*
X367588392Y-178006321D01*
X367562928Y-178003870D01*
X367535525Y-178001956D01*
X367506184Y-178000579D01*
X367481316Y-177999863D01*
X367474905Y-177999738D01*
X367477746Y-178025598D01*
X367481231Y-178051887D01*
X367485360Y-178078606D01*
X367490132Y-178105754D01*
X367495549Y-178133332D01*
X367497498Y-178142620D01*
X367501772Y-178167693D01*
X367506304Y-178194255D01*
X367510960Y-178221537D01*
X367516532Y-178254180D01*
X367521311Y-178282182D01*
X367526607Y-178313199D01*
X367532417Y-178347233D01*
X367536577Y-178371598D01*
X367552452Y-178425942D01*
X367576266Y-178510816D01*
X367596704Y-178524898D01*
X367618634Y-178538293D01*
X367642056Y-178551002D01*
X367666970Y-178563023D01*
X367693376Y-178574357D01*
X367721273Y-178585005D01*
X367750663Y-178594965D01*
X367781545Y-178604239D01*
X367813918Y-178612826D01*
X367847784Y-178620725D01*
X367871189Y-178625610D01*
X367895191Y-178630268D01*
X367919876Y-178634626D01*
X367945242Y-178638683D01*
X367971291Y-178642440D01*
X367998021Y-178645896D01*
X368025434Y-178649052D01*
X368053529Y-178651907D01*
X368082307Y-178654461D01*
X368111766Y-178656715D01*
X368141908Y-178658669D01*
X368172731Y-178660322D01*
X368204237Y-178661674D01*
X368236425Y-178662726D01*
X368269296Y-178663477D01*
X368302848Y-178663928D01*
X368337083Y-178664078D01*
X368363401Y-178663921D01*
X368389538Y-178663449D01*
X368415493Y-178662662D01*
X368441267Y-178661560D01*
X368466860Y-178660143D01*
X368492272Y-178658411D01*
X368517503Y-178656365D01*
X368542552Y-178654003D01*
X368567420Y-178651327D01*
X368592106Y-178648336D01*
X368616612Y-178645030D01*
X368640936Y-178641410D01*
X368665079Y-178637474D01*
X368700953Y-178630980D01*
X368736420Y-178623778D01*
X368771101Y-178615814D01*
X368804848Y-178607034D01*
X368837662Y-178597439D01*
X368869541Y-178587027D01*
X368900487Y-178575800D01*
X368930500Y-178563758D01*
X368959578Y-178550899D01*
X368987723Y-178537225D01*
X369014933Y-178522735D01*
X369041210Y-178507429D01*
X369058210Y-178496772D01*
X369082307Y-178480968D01*
X369105751Y-178465001D01*
X369128541Y-178448873D01*
X369150678Y-178432582D01*
X369172162Y-178416129D01*
X369192992Y-178399514D01*
X369213168Y-178382736D01*
X369232691Y-178365797D01*
X369251560Y-178348695D01*
X369269775Y-178331431D01*
X369287337Y-178314005D01*
X369312455Y-178287562D01*
X369336103Y-178260753D01*
X369358279Y-178233580D01*
X369365345Y-178224441D01*
X369385792Y-178196624D01*
X369405230Y-178168356D01*
X369423659Y-178139637D01*
X369441079Y-178110468D01*
X369457491Y-178080847D01*
X369472893Y-178050776D01*
X369487286Y-178020254D01*
X369500671Y-177989281D01*
X369513046Y-177957858D01*
X369524413Y-177925983D01*
X369531430Y-177904483D01*
X369541033Y-177871712D01*
X369549691Y-177838201D01*
X369557405Y-177803949D01*
X369564174Y-177768957D01*
X369569998Y-177733224D01*
X369573357Y-177708990D01*
X369576295Y-177684428D01*
X369578814Y-177659536D01*
X369580913Y-177634315D01*
X369582592Y-177608765D01*
X369583852Y-177582886D01*
X369584691Y-177556677D01*
X369585111Y-177530140D01*
X369585163Y-177516748D01*
X369584834Y-177484410D01*
X369583847Y-177452429D01*
X369582201Y-177420802D01*
X369579897Y-177389531D01*
X369576935Y-177358616D01*
X369573314Y-177328056D01*
X369569035Y-177297851D01*
X369564098Y-177268002D01*
X369558502Y-177238508D01*
X369552248Y-177209369D01*
X369545336Y-177180586D01*
X369537765Y-177152158D01*
X369529536Y-177124085D01*
X369520649Y-177096368D01*
X369511104Y-177069007D01*
X369500900Y-177042001D01*
X369490038Y-177015350D01*
X369478517Y-176989054D01*
X369466338Y-176963114D01*
X369453501Y-176937529D01*
X369440006Y-176912300D01*
X369425852Y-176887426D01*
X369411040Y-176862908D01*
X369395570Y-176838745D01*
X369379441Y-176814937D01*
X369362654Y-176791485D01*
X369345209Y-176768388D01*
X369327106Y-176745646D01*
X369308344Y-176723260D01*
X369288924Y-176701229D01*
X369268845Y-176679554D01*
X369248108Y-176658234D01*
X369226822Y-176637384D01*
X369205173Y-176617197D01*
X369183159Y-176597671D01*
X369160782Y-176578807D01*
X369138041Y-176560605D01*
X369114936Y-176543065D01*
X369091468Y-176526187D01*
X369067636Y-176509971D01*
X369043440Y-176494417D01*
X369018880Y-176479524D01*
X368993957Y-176465293D01*
X368968670Y-176451725D01*
X368943019Y-176438818D01*
X368917004Y-176426573D01*
X368890626Y-176414990D01*
X368863884Y-176404069D01*
X368836778Y-176393809D01*
X368809308Y-176384212D01*
X368781475Y-176375277D01*
X368753278Y-176367003D01*
X368724717Y-176359391D01*
X368695793Y-176352441D01*
X368666504Y-176346154D01*
X368636852Y-176340527D01*
X368606837Y-176335563D01*
X368576457Y-176331261D01*
X368545714Y-176327621D01*
X368514607Y-176324642D01*
X368483136Y-176322326D01*
X368451302Y-176320671D01*
X368419104Y-176319678D01*
X368386542Y-176319347D01*
X368360002Y-176319421D01*
X368333657Y-176319643D01*
X368307509Y-176320012D01*
X368281555Y-176320530D01*
X368255798Y-176321196D01*
X368230236Y-176322009D01*
X368204869Y-176322970D01*
X368179699Y-176324079D01*
X368154723Y-176325336D01*
X368129944Y-176326741D01*
X368105360Y-176328294D01*
X368080971Y-176329994D01*
X368044755Y-176332823D01*
X368008979Y-176335984D01*
X367985373Y-176338276D01*
X367950330Y-176341997D01*
X367915728Y-176346061D01*
X367881565Y-176350469D01*
X367847843Y-176355220D01*
X367814561Y-176360315D01*
X367781719Y-176365753D01*
X367749317Y-176371535D01*
X367717354Y-176377660D01*
X367685832Y-176384129D01*
X367654751Y-176390941D01*
X367634274Y-176395673D01*
G37*
G36*
X365999907Y-176319391D02*
G01*
X366025782Y-176319739D01*
X366051351Y-176320435D01*
X366076615Y-176321480D01*
X366101574Y-176322873D01*
X366126227Y-176324614D01*
X366162634Y-176327879D01*
X366198355Y-176331927D01*
X366233388Y-176336759D01*
X366267735Y-176342374D01*
X366301395Y-176348773D01*
X366334368Y-176355955D01*
X366366653Y-176363921D01*
X366387846Y-176369720D01*
X366419536Y-176379267D01*
X366451108Y-176389834D01*
X366482562Y-176401421D01*
X366513898Y-176414027D01*
X366545116Y-176427653D01*
X366576216Y-176442298D01*
X366607197Y-176457964D01*
X366638061Y-176474649D01*
X366668807Y-176492353D01*
X366699434Y-176511078D01*
X366719601Y-176524013D01*
X366749055Y-176543835D01*
X366777554Y-176564162D01*
X366805097Y-176584994D01*
X366831686Y-176606330D01*
X366857319Y-176628171D01*
X366881996Y-176650516D01*
X366905719Y-176673365D01*
X366928486Y-176696719D01*
X366950298Y-176720577D01*
X366971154Y-176744940D01*
X366984476Y-176761453D01*
X367003751Y-176786606D01*
X367022178Y-176812221D01*
X367039758Y-176838298D01*
X367056489Y-176864836D01*
X367072373Y-176891836D01*
X367087408Y-176919297D01*
X367101596Y-176947220D01*
X367114936Y-176975604D01*
X367127428Y-177004450D01*
X367139071Y-177033757D01*
X367149053Y-177061149D01*
X367158391Y-177088521D01*
X367167085Y-177115874D01*
X367175135Y-177143209D01*
X367182541Y-177170524D01*
X367189303Y-177197820D01*
X367195421Y-177225097D01*
X367200895Y-177252355D01*
X367205725Y-177279594D01*
X367209911Y-177306813D01*
X367213453Y-177334014D01*
X367216351Y-177361195D01*
X367218605Y-177388358D01*
X367220215Y-177415501D01*
X367221181Y-177442626D01*
X367221503Y-177469731D01*
X367221363Y-177492142D01*
X367220624Y-177525079D01*
X367219252Y-177557200D01*
X367217246Y-177588506D01*
X367214608Y-177618996D01*
X367211336Y-177648670D01*
X367207431Y-177677528D01*
X367202892Y-177705571D01*
X367197721Y-177732798D01*
X367191916Y-177759209D01*
X367185478Y-177784804D01*
X367182055Y-177797806D01*
X367175281Y-177823051D01*
X367168602Y-177847284D01*
X367158763Y-177881738D01*
X367149139Y-177913917D01*
X367139730Y-177943820D01*
X367130535Y-177971447D01*
X367121555Y-177996799D01*
X367109915Y-178027062D01*
X367098657Y-178053280D01*
X367087780Y-178075453D01*
X367077727Y-178093347D01*
X367062155Y-178119740D01*
X367045992Y-178145597D01*
X367029239Y-178170917D01*
X367011896Y-178195700D01*
X366993962Y-178219946D01*
X366975438Y-178243656D01*
X366956324Y-178266830D01*
X366936619Y-178289466D01*
X366916324Y-178311566D01*
X366895439Y-178333129D01*
X366880954Y-178347307D01*
X366858144Y-178368502D01*
X366834035Y-178389610D01*
X366808627Y-178410633D01*
X366781921Y-178431571D01*
X366753916Y-178452422D01*
X366724612Y-178473187D01*
X366704355Y-178486983D01*
X366683520Y-178500741D01*
X366662109Y-178514461D01*
X366640119Y-178528142D01*
X366617553Y-178541785D01*
X366594410Y-178555390D01*
X366573599Y-178563488D01*
X366550293Y-178571724D01*
X366524674Y-178580522D01*
X366500121Y-178588828D01*
X366471961Y-178598259D01*
X366448475Y-178606071D01*
X366439375Y-178609155D01*
X366415813Y-178616468D01*
X366391087Y-178623215D01*
X366365199Y-178629396D01*
X366338148Y-178635010D01*
X366309934Y-178640058D01*
X366280558Y-178644539D01*
X366272601Y-178645741D01*
X366240406Y-178650168D01*
X366215872Y-178653087D01*
X366191004Y-178655663D01*
X366165804Y-178657896D01*
X366140271Y-178659785D01*
X366114406Y-178661331D01*
X366088208Y-178662533D01*
X366061677Y-178663391D01*
X366034813Y-178663907D01*
X366007616Y-178664078D01*
X365971042Y-178663733D01*
X365934973Y-178662697D01*
X365899410Y-178660971D01*
X365864353Y-178658554D01*
X365829801Y-178655447D01*
X365795755Y-178651649D01*
X365762214Y-178647161D01*
X365729180Y-178641982D01*
X365696650Y-178636113D01*
X365664627Y-178629553D01*
X365633109Y-178622302D01*
X365602097Y-178614362D01*
X365571590Y-178605730D01*
X365541590Y-178596408D01*
X365512094Y-178586396D01*
X365483105Y-178575693D01*
X365454621Y-178564300D01*
X365426643Y-178552216D01*
X365399170Y-178539441D01*
X365372203Y-178525976D01*
X365345742Y-178511821D01*
X365319787Y-178496975D01*
X365294337Y-178481438D01*
X365269392Y-178465211D01*
X365244954Y-178448294D01*
X365221021Y-178430686D01*
X365197594Y-178412387D01*
X365174672Y-178393398D01*
X365152256Y-178373719D01*
X365130346Y-178353349D01*
X365108941Y-178332288D01*
X365088042Y-178310537D01*
X365067681Y-178288265D01*
X365047966Y-178265717D01*
X365028898Y-178242894D01*
X365010476Y-178219795D01*
X364992700Y-178196421D01*
X364975571Y-178172771D01*
X364959088Y-178148846D01*
X364943252Y-178124645D01*
X364928062Y-178100169D01*
X364913518Y-178075417D01*
X364899621Y-178050390D01*
X364886370Y-178025088D01*
X364873765Y-177999509D01*
X364861807Y-177973656D01*
X364850496Y-177947527D01*
X364839830Y-177921122D01*
X364829811Y-177894442D01*
X364820439Y-177867487D01*
X364811713Y-177840255D01*
X364803633Y-177812749D01*
X364796199Y-177784967D01*
X364789412Y-177756909D01*
X364783272Y-177728576D01*
X364777777Y-177699968D01*
X364772929Y-177671084D01*
X364768728Y-177641924D01*
X364765173Y-177612489D01*
X364762264Y-177582779D01*
X364760461Y-177558879D01*
X365313356Y-177558879D01*
X365313733Y-177601197D01*
X365314864Y-177642514D01*
X365316748Y-177682828D01*
X365319386Y-177722141D01*
X365322778Y-177760451D01*
X365326923Y-177797760D01*
X365331822Y-177834068D01*
X365337475Y-177869373D01*
X365343882Y-177903677D01*
X365351042Y-177936979D01*
X365358956Y-177969279D01*
X365367624Y-178000577D01*
X365377045Y-178030874D01*
X365387220Y-178060169D01*
X365398149Y-178088462D01*
X365409832Y-178115753D01*
X365415885Y-178128989D01*
X365428360Y-178154729D01*
X365441325Y-178179497D01*
X365454783Y-178203292D01*
X365468731Y-178226113D01*
X365483171Y-178247962D01*
X365498102Y-178268837D01*
X365513525Y-178288739D01*
X365529439Y-178307667D01*
X365554231Y-178334236D01*
X365580129Y-178358615D01*
X365607132Y-178380804D01*
X365635241Y-178400804D01*
X365664455Y-178418614D01*
X365684405Y-178429410D01*
X365714723Y-178444297D01*
X365745513Y-178457617D01*
X365776776Y-178469370D01*
X365808511Y-178479556D01*
X365840718Y-178488175D01*
X365873397Y-178495226D01*
X365906549Y-178500711D01*
X365940173Y-178504629D01*
X365974269Y-178506979D01*
X366008838Y-178507763D01*
X366033271Y-178507171D01*
X366057724Y-178505397D01*
X366082196Y-178502439D01*
X366106687Y-178498299D01*
X366131198Y-178492975D01*
X366155727Y-178486468D01*
X366180275Y-178478778D01*
X366204842Y-178469905D01*
X366210903Y-178467531D01*
X366234240Y-178457866D01*
X366261371Y-178445409D01*
X366286237Y-178432535D01*
X366308837Y-178419244D01*
X366332965Y-178402743D01*
X366353831Y-178385642D01*
X366360117Y-178380144D01*
X366378398Y-178363621D01*
X366401420Y-178341525D01*
X366422896Y-178319352D01*
X366442827Y-178297103D01*
X366461212Y-178274778D01*
X366478051Y-178252377D01*
X366493345Y-178229899D01*
X366507093Y-178207344D01*
X366513198Y-178195881D01*
X366525068Y-178170097D01*
X366536087Y-178143459D01*
X366545241Y-178119975D01*
X366555157Y-178093485D01*
X366565835Y-178063990D01*
X366577275Y-178031489D01*
X366585325Y-178008153D01*
X366593713Y-177983480D01*
X366602441Y-177957472D01*
X366611507Y-177930129D01*
X366619099Y-177904991D01*
X366625130Y-177880272D01*
X366630894Y-177852124D01*
X366635311Y-177827136D01*
X366639557Y-177799955D01*
X366643630Y-177770579D01*
X366647533Y-177739009D01*
X366650534Y-177718030D01*
X366654112Y-177693128D01*
X366657913Y-177666957D01*
X366662063Y-177639222D01*
X366664866Y-177611518D01*
X366666679Y-177586350D01*
X366668110Y-177558510D01*
X366669159Y-177527998D01*
X366669696Y-177503362D01*
X366670018Y-177477223D01*
X366670125Y-177449581D01*
X366670085Y-177434084D01*
X366669766Y-177403529D01*
X366669126Y-177373562D01*
X366668167Y-177344181D01*
X366666889Y-177315387D01*
X366665291Y-177287180D01*
X366663373Y-177259560D01*
X366661136Y-177232526D01*
X366658579Y-177206079D01*
X366655702Y-177180219D01*
X366652506Y-177154946D01*
X366648991Y-177130259D01*
X366643118Y-177094329D01*
X366636526Y-177059719D01*
X366629214Y-177026430D01*
X366623805Y-177004711D01*
X366614868Y-176972543D01*
X366604943Y-176940869D01*
X366594031Y-176909688D01*
X366582131Y-176879002D01*
X366569244Y-176848809D01*
X366555369Y-176819110D01*
X366540507Y-176789904D01*
X366524658Y-176761193D01*
X366507820Y-176732975D01*
X366489996Y-176705251D01*
X366486278Y-176699846D01*
X366470306Y-176678528D01*
X366452580Y-176657686D01*
X366433097Y-176637321D01*
X366411860Y-176617434D01*
X366388867Y-176598023D01*
X366364118Y-176579089D01*
X366337614Y-176560633D01*
X366316584Y-176547103D01*
X366302024Y-176538452D01*
X366279685Y-176526522D01*
X366256744Y-176515848D01*
X366233202Y-176506430D01*
X366209059Y-176498267D01*
X366184316Y-176491360D01*
X366158971Y-176485709D01*
X366133025Y-176481314D01*
X366106477Y-176478174D01*
X366079329Y-176476290D01*
X366051580Y-176475662D01*
X366018049Y-176476256D01*
X365985234Y-176478038D01*
X365953134Y-176481008D01*
X365921750Y-176485165D01*
X365891081Y-176490510D01*
X365861128Y-176497043D01*
X365831890Y-176504764D01*
X365803368Y-176513673D01*
X365775562Y-176523769D01*
X365748471Y-176535054D01*
X365722096Y-176547526D01*
X365696436Y-176561186D01*
X365671491Y-176576033D01*
X365647263Y-176592069D01*
X365623750Y-176609292D01*
X365600952Y-176627704D01*
X365578965Y-176647245D01*
X365557885Y-176667861D01*
X365537711Y-176689549D01*
X365518444Y-176712311D01*
X365500083Y-176736146D01*
X365482628Y-176761054D01*
X365466079Y-176787036D01*
X365450437Y-176814091D01*
X365435702Y-176842220D01*
X365421872Y-176871422D01*
X365408950Y-176901697D01*
X365396933Y-176933045D01*
X365385823Y-176965467D01*
X365375619Y-176998962D01*
X365366321Y-177033531D01*
X365357930Y-177069173D01*
X365352938Y-177092685D01*
X365347550Y-177116647D01*
X365340833Y-177141835D01*
X365332285Y-177175418D01*
X365329993Y-177205252D01*
X365327848Y-177234304D01*
X365325852Y-177262573D01*
X365324004Y-177290060D01*
X365322303Y-177316764D01*
X365320750Y-177342686D01*
X365319345Y-177367826D01*
X365317515Y-177404069D01*
X365316018Y-177438552D01*
X365314853Y-177471274D01*
X365314022Y-177502236D01*
X365313522Y-177531438D01*
X365313356Y-177558879D01*
X364760461Y-177558879D01*
X364760002Y-177552793D01*
X364758386Y-177522532D01*
X364757416Y-177491995D01*
X364757093Y-177461182D01*
X364757859Y-177419702D01*
X364760156Y-177378455D01*
X364763984Y-177337441D01*
X364769343Y-177296662D01*
X364776234Y-177256116D01*
X364784656Y-177215804D01*
X364794610Y-177175726D01*
X364806094Y-177135881D01*
X364819110Y-177096271D01*
X364833657Y-177056894D01*
X364849736Y-177017750D01*
X364867346Y-176978841D01*
X364886487Y-176940165D01*
X364907159Y-176901723D01*
X364929363Y-176863515D01*
X364953098Y-176825540D01*
X364972389Y-176796763D01*
X364992558Y-176768744D01*
X365013605Y-176741484D01*
X365035530Y-176714982D01*
X365058332Y-176689239D01*
X365082012Y-176664254D01*
X365106570Y-176640028D01*
X365132006Y-176616560D01*
X365158319Y-176593851D01*
X365185510Y-176571900D01*
X365213579Y-176550707D01*
X365242526Y-176530274D01*
X365272350Y-176510598D01*
X365303052Y-176491681D01*
X365334632Y-176473523D01*
X365367090Y-176456123D01*
X365400279Y-176439560D01*
X365434209Y-176424066D01*
X365468877Y-176409641D01*
X365504285Y-176396284D01*
X365540433Y-176383995D01*
X365577320Y-176372775D01*
X365614946Y-176362624D01*
X365653312Y-176353541D01*
X365692417Y-176345527D01*
X365732261Y-176338581D01*
X365772845Y-176332704D01*
X365814168Y-176327896D01*
X365856231Y-176324156D01*
X365899033Y-176321484D01*
X365942575Y-176319881D01*
X365986856Y-176319347D01*
X365999907Y-176319391D01*
G37*
G36*
X364503080Y-178625000D02*
G01*
X364500027Y-178515090D01*
X364474820Y-178510148D01*
X364449805Y-178505168D01*
X364424596Y-178500109D01*
X364395909Y-178494320D01*
X364374853Y-178490055D01*
X364347376Y-178484388D01*
X364319898Y-178478451D01*
X364292421Y-178472247D01*
X364264944Y-178465774D01*
X364237466Y-178459033D01*
X364209989Y-178452024D01*
X364198998Y-178449145D01*
X364166636Y-178427773D01*
X364160826Y-178401083D01*
X364156217Y-178374135D01*
X364152811Y-178346930D01*
X364150607Y-178319467D01*
X364149606Y-178291746D01*
X364149539Y-178282449D01*
X364149539Y-178272069D01*
X364156256Y-177861741D01*
X364154424Y-177690160D01*
X364161751Y-177436147D01*
X364158087Y-177134508D01*
X364178848Y-176540387D01*
X364202402Y-176528757D01*
X364228248Y-176521058D01*
X364255985Y-176514675D01*
X364282231Y-176509589D01*
X364312084Y-176504523D01*
X364336841Y-176500736D01*
X364345544Y-176499476D01*
X364369956Y-176494527D01*
X364393865Y-176488936D01*
X364417979Y-176482854D01*
X364445073Y-176475662D01*
X364485983Y-176451238D01*
X364485983Y-176358426D01*
X364259448Y-176358426D01*
X364232894Y-176358426D01*
X364204827Y-176358426D01*
X364175249Y-176358426D01*
X364144158Y-176358426D01*
X364111555Y-176358426D01*
X364077440Y-176358426D01*
X364041812Y-176358426D01*
X364004672Y-176358426D01*
X363966020Y-176358426D01*
X363925856Y-176358426D01*
X363884180Y-176358426D01*
X363840992Y-176358426D01*
X363796291Y-176358426D01*
X363750078Y-176358426D01*
X363702353Y-176358426D01*
X363677923Y-176358426D01*
X363653115Y-176358426D01*
X363627937Y-176358426D01*
X363602626Y-176358426D01*
X363577181Y-176358426D01*
X363551602Y-176358426D01*
X363525890Y-176358426D01*
X363500044Y-176358426D01*
X363474064Y-176358426D01*
X363447951Y-176358426D01*
X363421705Y-176358426D01*
X363395325Y-176358426D01*
X363368811Y-176358426D01*
X363342164Y-176358426D01*
X363315383Y-176358426D01*
X363288468Y-176358426D01*
X363261420Y-176358426D01*
X363234239Y-176358426D01*
X363201266Y-176358426D01*
X363117613Y-176358426D01*
X363082808Y-176358426D01*
X363010757Y-176358426D01*
X362703621Y-176358426D01*
X362677944Y-176358426D01*
X362653425Y-176358426D01*
X362649277Y-176358426D01*
X362624691Y-176358426D01*
X362599412Y-176358426D01*
X362586385Y-176358426D01*
X362581881Y-176383804D01*
X362578142Y-176409259D01*
X362575165Y-176434790D01*
X362572951Y-176460397D01*
X362547306Y-176779134D01*
X362548127Y-176806053D01*
X362550965Y-176831432D01*
X362557048Y-176855589D01*
X362557686Y-176857292D01*
X362583119Y-176860861D01*
X362608392Y-176863866D01*
X362634295Y-176866013D01*
X362648667Y-176866451D01*
X362674232Y-176863730D01*
X362698221Y-176853829D01*
X362703621Y-176849965D01*
X362716327Y-176828777D01*
X362726841Y-176806280D01*
X362737982Y-176780397D01*
X362743311Y-176767533D01*
X362756633Y-176734173D01*
X362769579Y-176703476D01*
X362782149Y-176675441D01*
X362794344Y-176650067D01*
X362806163Y-176627355D01*
X362821338Y-176601214D01*
X362835845Y-176579804D01*
X362853039Y-176559697D01*
X362866043Y-176548935D01*
X362891402Y-176537315D01*
X362915368Y-176530903D01*
X362944983Y-176525560D01*
X362970900Y-176522255D01*
X362999995Y-176519550D01*
X363032266Y-176517446D01*
X363067715Y-176515943D01*
X363093112Y-176515276D01*
X363119922Y-176514875D01*
X363148143Y-176514741D01*
X363385059Y-176522069D01*
X363412889Y-176522541D01*
X363439591Y-176523271D01*
X363465167Y-176524258D01*
X363489616Y-176525503D01*
X363520461Y-176527564D01*
X363549303Y-176530083D01*
X363576141Y-176533060D01*
X363600975Y-176536494D01*
X363623806Y-176540387D01*
X363648743Y-176547381D01*
X363672156Y-176556054D01*
X363678761Y-176558705D01*
X363689682Y-176583944D01*
X363696389Y-176609542D01*
X363699941Y-176634382D01*
X363701331Y-176661501D01*
X363701353Y-176665561D01*
X363695858Y-176881716D01*
X363701353Y-177128401D01*
X363701246Y-177162610D01*
X363700924Y-177194254D01*
X363700387Y-177223332D01*
X363699636Y-177249845D01*
X363698300Y-177281206D01*
X363696583Y-177308006D01*
X363693900Y-177335093D01*
X363689141Y-177361043D01*
X363666859Y-177371878D01*
X363663496Y-177372644D01*
X363541374Y-177374476D01*
X363335600Y-177374476D01*
X363307149Y-177373875D01*
X363279505Y-177372456D01*
X363254813Y-177370719D01*
X363227832Y-177368449D01*
X363198561Y-177365644D01*
X363167001Y-177362305D01*
X363141827Y-177359449D01*
X363124330Y-177357379D01*
X363095472Y-177353664D01*
X363070341Y-177349770D01*
X363045103Y-177344862D01*
X363019801Y-177337916D01*
X363004040Y-177330512D01*
X362982568Y-177314289D01*
X362964863Y-177295844D01*
X362950926Y-177275177D01*
X362944811Y-177262735D01*
X362937264Y-177239139D01*
X362931540Y-177209844D01*
X362927294Y-177179037D01*
X362924241Y-177150204D01*
X362921494Y-177117651D01*
X362919633Y-177090795D01*
X362917944Y-177061845D01*
X362892337Y-177061845D01*
X362871538Y-177061845D01*
X362846857Y-177061845D01*
X362839176Y-177061845D01*
X362813112Y-177062248D01*
X362786493Y-177062963D01*
X362763461Y-177063677D01*
X362773841Y-177339672D01*
X362774488Y-177366553D01*
X362775284Y-177392241D01*
X362776229Y-177416737D01*
X362777560Y-177444558D01*
X362779106Y-177470661D01*
X362780558Y-177491102D01*
X362777505Y-177528960D01*
X362776619Y-177556308D01*
X362776253Y-177586529D01*
X362776024Y-177618433D01*
X362775889Y-177646869D01*
X362775787Y-177679169D01*
X362775718Y-177715333D01*
X362775689Y-177741589D01*
X362775675Y-177769563D01*
X362775673Y-177784193D01*
X362776319Y-177810150D01*
X362777505Y-177836095D01*
X362801582Y-177840839D01*
X362826377Y-177843394D01*
X362828796Y-177843422D01*
X362854747Y-177840493D01*
X362880316Y-177836032D01*
X362895963Y-177833042D01*
X362905861Y-177809131D01*
X362914295Y-177785794D01*
X362922050Y-177762306D01*
X362930157Y-177735956D01*
X362937657Y-177710763D01*
X362947842Y-177680361D01*
X362958237Y-177653604D01*
X362968841Y-177630492D01*
X362982392Y-177606726D01*
X362999086Y-177585725D01*
X363016252Y-177572923D01*
X363042384Y-177563049D01*
X363069234Y-177556507D01*
X363102298Y-177550705D01*
X363127793Y-177547249D01*
X363156050Y-177544122D01*
X363187069Y-177541325D01*
X363220851Y-177538856D01*
X363257394Y-177536716D01*
X363296700Y-177534906D01*
X363338767Y-177533425D01*
X363383597Y-177532273D01*
X363431188Y-177531450D01*
X363456020Y-177531162D01*
X363481542Y-177530956D01*
X363507754Y-177530833D01*
X363534658Y-177530792D01*
X363559201Y-177531221D01*
X363585204Y-177532509D01*
X363612667Y-177534656D01*
X363641590Y-177537661D01*
X363666807Y-177540821D01*
X363682424Y-177543004D01*
X363685943Y-177567231D01*
X363688864Y-177592592D01*
X363691190Y-177619085D01*
X363692919Y-177646711D01*
X363694052Y-177675471D01*
X363694589Y-177705363D01*
X363694637Y-177717637D01*
X363686088Y-178257414D01*
X363685503Y-178284340D01*
X363684435Y-178309249D01*
X363682260Y-178339321D01*
X363679226Y-178365806D01*
X363674226Y-178393868D01*
X363666455Y-178420143D01*
X363654947Y-178440596D01*
X363634232Y-178453572D01*
X363609158Y-178462654D01*
X363580736Y-178470440D01*
X363552165Y-178476927D01*
X363526109Y-178482117D01*
X363491915Y-178485170D01*
X363463708Y-178487639D01*
X363436789Y-178490924D01*
X363411158Y-178495024D01*
X363386814Y-178499940D01*
X363360042Y-178506706D01*
X363356360Y-178507763D01*
X363309954Y-178516311D01*
X363305489Y-178541012D01*
X363302806Y-178565368D01*
X363302627Y-178571877D01*
X363304178Y-178597209D01*
X363307784Y-178622988D01*
X363308122Y-178625000D01*
X363340484Y-178623778D01*
X363394218Y-178625000D01*
X363637850Y-178625000D01*
X363663839Y-178625000D01*
X363692996Y-178625000D01*
X363721074Y-178625000D01*
X363754476Y-178625000D01*
X363779702Y-178625000D01*
X363807294Y-178625000D01*
X363837252Y-178625000D01*
X363869576Y-178625000D01*
X363904266Y-178625000D01*
X363941322Y-178625000D01*
X363980744Y-178625000D01*
X364022533Y-178625000D01*
X364051724Y-178625000D01*
X364080528Y-178625000D01*
X364108945Y-178625000D01*
X364136974Y-178625000D01*
X364164615Y-178625000D01*
X364191869Y-178625000D01*
X364202662Y-178625000D01*
X364234623Y-178625429D01*
X364262730Y-178625801D01*
X364292444Y-178626186D01*
X364320150Y-178626529D01*
X364345448Y-178626803D01*
X364350429Y-178626831D01*
X364377257Y-178626803D01*
X364401872Y-178626717D01*
X364429529Y-178626529D01*
X364458151Y-178626186D01*
X364485249Y-178625622D01*
X364503080Y-178625000D01*
G37*
G36*
X361748632Y-176358426D02*
G01*
X361722101Y-176358426D01*
X361694548Y-176358426D01*
X361669036Y-176358426D01*
X361638663Y-176358426D01*
X361632006Y-176358426D01*
X361577051Y-176358426D01*
X361468974Y-176358426D01*
X361465768Y-176384339D01*
X361463256Y-176409020D01*
X361461711Y-176434565D01*
X361461646Y-176439637D01*
X361462362Y-176464633D01*
X361463366Y-176490582D01*
X361463478Y-176493370D01*
X361464563Y-176521611D01*
X361465157Y-176551378D01*
X361465529Y-176576565D01*
X361465882Y-176606027D01*
X361466135Y-176630928D01*
X361466376Y-176658234D01*
X361466531Y-176677773D01*
X361470195Y-176939113D01*
X361468974Y-177103367D01*
X361480575Y-178269626D01*
X361480575Y-178367934D01*
X361478692Y-178394810D01*
X361472180Y-178419234D01*
X361458227Y-178440987D01*
X361456762Y-178442428D01*
X361433685Y-178455570D01*
X361408236Y-178464060D01*
X361380329Y-178470872D01*
X361352777Y-178476221D01*
X361327923Y-178480286D01*
X361302049Y-178483835D01*
X361275931Y-178487949D01*
X361249772Y-178492329D01*
X361219617Y-178497573D01*
X361192617Y-178502391D01*
X361163060Y-178507763D01*
X361159686Y-178531956D01*
X361159396Y-178540736D01*
X361160097Y-178566481D01*
X361161289Y-178592166D01*
X361162616Y-178617085D01*
X361163060Y-178625000D01*
X361236943Y-178625000D01*
X361262274Y-178625000D01*
X361290944Y-178625000D01*
X361316284Y-178625000D01*
X361343761Y-178625000D01*
X361373376Y-178625000D01*
X361405127Y-178625000D01*
X361430343Y-178625000D01*
X361456762Y-178625000D01*
X361482721Y-178625000D01*
X361510370Y-178625000D01*
X361537798Y-178625000D01*
X361562776Y-178625000D01*
X361577051Y-178625000D01*
X361605556Y-178625000D01*
X361631368Y-178625000D01*
X361664107Y-178625000D01*
X361693207Y-178625000D01*
X361726203Y-178625000D01*
X361763095Y-178625000D01*
X361789855Y-178625000D01*
X361818346Y-178625000D01*
X361848569Y-178625000D01*
X361880523Y-178625000D01*
X361905719Y-178625000D01*
X361928761Y-178625000D01*
X361959902Y-178625000D01*
X362009361Y-178625000D01*
X362055767Y-178625000D01*
X362141863Y-178625000D01*
X362167966Y-178625000D01*
X362193428Y-178625000D01*
X362212083Y-178625000D01*
X362214168Y-178600645D01*
X362215571Y-178575701D01*
X362215746Y-178565771D01*
X362214712Y-178539668D01*
X362212737Y-178514809D01*
X362212083Y-178507763D01*
X362185643Y-178500665D01*
X362157614Y-178493566D01*
X362133044Y-178487651D01*
X362107371Y-178481736D01*
X362080594Y-178475821D01*
X362052714Y-178469905D01*
X362022937Y-178463360D01*
X361996195Y-178456854D01*
X361972486Y-178450385D01*
X361947117Y-178442353D01*
X361922931Y-178432793D01*
X361901302Y-178420180D01*
X361899452Y-178418614D01*
X361883113Y-178399527D01*
X361873556Y-178376688D01*
X361870753Y-178352669D01*
X361872585Y-178235432D01*
X361865258Y-178107205D01*
X361867090Y-177845254D01*
X361868921Y-177778087D01*
X361868220Y-177751307D01*
X361867190Y-177722990D01*
X361866116Y-177695541D01*
X361865258Y-177674284D01*
X361863782Y-177649002D01*
X361862709Y-177622836D01*
X361862217Y-177596396D01*
X361862205Y-177591852D01*
X361862782Y-177565136D01*
X361863750Y-177536490D01*
X361864728Y-177510482D01*
X361865945Y-177479854D01*
X361867090Y-177452023D01*
X361860373Y-177353715D01*
X361861947Y-177327059D01*
X361863620Y-177297763D01*
X361864964Y-177272939D01*
X361866296Y-177245699D01*
X361867090Y-177220603D01*
X361866632Y-177194805D01*
X361865370Y-177170342D01*
X361865258Y-177168702D01*
X361862205Y-177125959D01*
X361867090Y-177008112D01*
X361862205Y-176954989D01*
X361861239Y-176929825D01*
X361860675Y-176903303D01*
X361860418Y-176876646D01*
X361860373Y-176858513D01*
X361860460Y-176831403D01*
X361860675Y-176806258D01*
X361861019Y-176779353D01*
X361861491Y-176750688D01*
X361861983Y-176725456D01*
X361862205Y-176715020D01*
X361885403Y-176732199D01*
X361909202Y-176749389D01*
X361933603Y-176766589D01*
X361958604Y-176783800D01*
X361984207Y-176801021D01*
X362010410Y-176818254D01*
X362037215Y-176835497D01*
X362064621Y-176852751D01*
X362092628Y-176870015D01*
X362121236Y-176887290D01*
X362140642Y-176898813D01*
X362163074Y-176912349D01*
X362187811Y-176926138D01*
X362214886Y-176940875D01*
X362240775Y-176954790D01*
X362262658Y-176966467D01*
X362286656Y-176979205D01*
X362295125Y-176983688D01*
X362311329Y-176960217D01*
X362325596Y-176938655D01*
X362340157Y-176915300D01*
X362353619Y-176891524D01*
X362364352Y-176868932D01*
X362365345Y-176866451D01*
X362343055Y-176854213D01*
X362321677Y-176842380D01*
X362291318Y-176825391D01*
X362263009Y-176809314D01*
X362236750Y-176794150D01*
X362212540Y-176779897D01*
X362190382Y-176766558D01*
X362164025Y-176750191D01*
X362141314Y-176735445D01*
X362118049Y-176719295D01*
X362097629Y-176704052D01*
X362076897Y-176688089D01*
X362055855Y-176671408D01*
X362034501Y-176654007D01*
X362012836Y-176635888D01*
X361990859Y-176617049D01*
X361968571Y-176597491D01*
X361945972Y-176577214D01*
X361923062Y-176556218D01*
X361899840Y-176534503D01*
X361884187Y-176519626D01*
X361866870Y-176501845D01*
X361848123Y-176481320D01*
X361827944Y-176458053D01*
X361810771Y-176437464D01*
X361792681Y-176415119D01*
X361773676Y-176391019D01*
X361753755Y-176365164D01*
X361748632Y-176358426D01*
G37*
G36*
X360210512Y-177218161D02*
G01*
X360170823Y-177216329D01*
X359813618Y-177218161D01*
X359707372Y-177219993D01*
X359480837Y-177218161D01*
X359441147Y-177218161D01*
X359434052Y-177242187D01*
X359430767Y-177265177D01*
X359432599Y-177289907D01*
X359436377Y-177315266D01*
X359438094Y-177325017D01*
X359463912Y-177329053D01*
X359490293Y-177332601D01*
X359513810Y-177335397D01*
X359538416Y-177339303D01*
X359563890Y-177344226D01*
X359588020Y-177350295D01*
X359612051Y-177359573D01*
X359618224Y-177363485D01*
X359633250Y-177383053D01*
X359633489Y-177386078D01*
X359629861Y-177412209D01*
X359622133Y-177435465D01*
X359611507Y-177458740D01*
X359599858Y-177482926D01*
X359589493Y-177507106D01*
X359578517Y-177533739D01*
X359567894Y-177560098D01*
X359563269Y-177571702D01*
X359553995Y-177595363D01*
X359543189Y-177620324D01*
X359531926Y-177644882D01*
X359521130Y-177667577D01*
X359509052Y-177692300D01*
X359506482Y-177697487D01*
X359490666Y-177730753D01*
X359475427Y-177763080D01*
X359460766Y-177794466D01*
X359446681Y-177824913D01*
X359433174Y-177854420D01*
X359420244Y-177882988D01*
X359407891Y-177910615D01*
X359396115Y-177937303D01*
X359384917Y-177963051D01*
X359374296Y-177987860D01*
X359364251Y-178011728D01*
X359354785Y-178034657D01*
X359341667Y-178067288D01*
X359329848Y-178097805D01*
X359322690Y-178116974D01*
X359312860Y-178143671D01*
X359303596Y-178168041D01*
X359293228Y-178194216D01*
X359283675Y-178217042D01*
X359273561Y-178239440D01*
X359269567Y-178247644D01*
X359254457Y-178212012D01*
X359239199Y-178175182D01*
X359223793Y-178137155D01*
X359208239Y-178097931D01*
X359192537Y-178057509D01*
X359176688Y-178015890D01*
X359160690Y-177973074D01*
X359144545Y-177929060D01*
X359128252Y-177883849D01*
X359120050Y-177860794D01*
X359111811Y-177837440D01*
X359103535Y-177813787D01*
X359095222Y-177789834D01*
X359086872Y-177765583D01*
X359078485Y-177741031D01*
X359070061Y-177716181D01*
X359061600Y-177691031D01*
X359053102Y-177665581D01*
X359044568Y-177639833D01*
X359035996Y-177613785D01*
X359027387Y-177587437D01*
X359018741Y-177560791D01*
X359010059Y-177533845D01*
X359001539Y-177506281D01*
X358993992Y-177480073D01*
X358987419Y-177455219D01*
X358980570Y-177426058D01*
X358975242Y-177399013D01*
X358971435Y-177374084D01*
X358969148Y-177351273D01*
X358994269Y-177347552D01*
X359018951Y-177344327D01*
X359049186Y-177340994D01*
X359078735Y-177338436D01*
X359107599Y-177336653D01*
X359135777Y-177335645D01*
X359157826Y-177335397D01*
X359178586Y-177335397D01*
X359206064Y-177331734D01*
X359208693Y-177306072D01*
X359209724Y-177280178D01*
X359209727Y-177278611D01*
X359207752Y-177253337D01*
X359199729Y-177229232D01*
X359195683Y-177223046D01*
X359135844Y-177218161D01*
X358986245Y-177218161D01*
X358901981Y-177218161D01*
X358872873Y-177218161D01*
X358848222Y-177218161D01*
X358823213Y-177218161D01*
X358797847Y-177218161D01*
X358772122Y-177218161D01*
X358746040Y-177218161D01*
X358740781Y-177218161D01*
X358603394Y-177218161D01*
X358578141Y-177218806D01*
X358555157Y-177219993D01*
X358553783Y-177244875D01*
X358553325Y-177264567D01*
X358554040Y-177289516D01*
X358555157Y-177307920D01*
X358587065Y-177315662D01*
X358617074Y-177323319D01*
X358645182Y-177330889D01*
X358671391Y-177338374D01*
X358695701Y-177345773D01*
X358725158Y-177355504D01*
X358751237Y-177365083D01*
X358773939Y-177374510D01*
X358797568Y-177386078D01*
X358808108Y-177408532D01*
X358812833Y-177419050D01*
X358819549Y-177434926D01*
X358828487Y-177461554D01*
X358838049Y-177489232D01*
X358848236Y-177517959D01*
X358859048Y-177547736D01*
X358870485Y-177578562D01*
X358882547Y-177610438D01*
X358895234Y-177643363D01*
X358908545Y-177677337D01*
X358922482Y-177712361D01*
X358937044Y-177748435D01*
X358952230Y-177785558D01*
X358968041Y-177823730D01*
X358984478Y-177862952D01*
X359001539Y-177903224D01*
X359019225Y-177944545D01*
X359037536Y-177986915D01*
X359223161Y-178441207D01*
X359233957Y-178467167D01*
X359243828Y-178490473D01*
X359254454Y-178514938D01*
X359265169Y-178538650D01*
X359276284Y-178561496D01*
X359288697Y-178586649D01*
X359300293Y-178610283D01*
X359311070Y-178632397D01*
X359322386Y-178655810D01*
X359326353Y-178664078D01*
X359465572Y-178664078D01*
X359478208Y-178641766D01*
X359490931Y-178618562D01*
X359503739Y-178594467D01*
X359516634Y-178569482D01*
X359529614Y-178543606D01*
X359542680Y-178516839D01*
X359555832Y-178489181D01*
X359569070Y-178460632D01*
X359582393Y-178431192D01*
X359595803Y-178400861D01*
X359604790Y-178380146D01*
X359838042Y-177850750D01*
X359848897Y-177824329D01*
X359859938Y-177797732D01*
X359871165Y-177770958D01*
X359882578Y-177744008D01*
X359894177Y-177716881D01*
X359905963Y-177689578D01*
X359917934Y-177662098D01*
X359930091Y-177634442D01*
X359942434Y-177606609D01*
X359954964Y-177578600D01*
X359967679Y-177550414D01*
X359980581Y-177522052D01*
X359993668Y-177493514D01*
X360006942Y-177464798D01*
X360020401Y-177435907D01*
X360034047Y-177406838D01*
X360045567Y-177383887D01*
X360056029Y-177370202D01*
X360081091Y-177363145D01*
X360111268Y-177354219D01*
X360137744Y-177345847D01*
X360165633Y-177336161D01*
X360191464Y-177325678D01*
X360212950Y-177313637D01*
X360216008Y-177310973D01*
X360218557Y-177286558D01*
X360219061Y-177267620D01*
X360217425Y-177243126D01*
X360211038Y-177219355D01*
X360210512Y-177218161D01*
G37*
G36*
X357884710Y-176358426D02*
G01*
X357858179Y-176358426D01*
X357830626Y-176358426D01*
X357805114Y-176358426D01*
X357774742Y-176358426D01*
X357768084Y-176358426D01*
X357713129Y-176358426D01*
X357605052Y-176358426D01*
X357601846Y-176384339D01*
X357599335Y-176409020D01*
X357597789Y-176434565D01*
X357597725Y-176439637D01*
X357598440Y-176464633D01*
X357599444Y-176490582D01*
X357599556Y-176493370D01*
X357600642Y-176521611D01*
X357601236Y-176551378D01*
X357601608Y-176576565D01*
X357601961Y-176606027D01*
X357602213Y-176630928D01*
X357602454Y-176658234D01*
X357602609Y-176677773D01*
X357606273Y-176939113D01*
X357605052Y-177103367D01*
X357616653Y-178269626D01*
X357616653Y-178367934D01*
X357614770Y-178394810D01*
X357608258Y-178419234D01*
X357594305Y-178440987D01*
X357592840Y-178442428D01*
X357569763Y-178455570D01*
X357544314Y-178464060D01*
X357516407Y-178470872D01*
X357488855Y-178476221D01*
X357464002Y-178480286D01*
X357438127Y-178483835D01*
X357412009Y-178487949D01*
X357385850Y-178492329D01*
X357355695Y-178497573D01*
X357328695Y-178502391D01*
X357299138Y-178507763D01*
X357295764Y-178531956D01*
X357295474Y-178540736D01*
X357296175Y-178566481D01*
X357297367Y-178592166D01*
X357298694Y-178617085D01*
X357299138Y-178625000D01*
X357373021Y-178625000D01*
X357398352Y-178625000D01*
X357427022Y-178625000D01*
X357452362Y-178625000D01*
X357479839Y-178625000D01*
X357509454Y-178625000D01*
X357541205Y-178625000D01*
X357566421Y-178625000D01*
X357592840Y-178625000D01*
X357618799Y-178625000D01*
X357646448Y-178625000D01*
X357673876Y-178625000D01*
X357698854Y-178625000D01*
X357713129Y-178625000D01*
X357741634Y-178625000D01*
X357767446Y-178625000D01*
X357800186Y-178625000D01*
X357829285Y-178625000D01*
X357862281Y-178625000D01*
X357899174Y-178625000D01*
X357925933Y-178625000D01*
X357954424Y-178625000D01*
X357984647Y-178625000D01*
X358016601Y-178625000D01*
X358041798Y-178625000D01*
X358064839Y-178625000D01*
X358095980Y-178625000D01*
X358145439Y-178625000D01*
X358191845Y-178625000D01*
X358277941Y-178625000D01*
X358304044Y-178625000D01*
X358329506Y-178625000D01*
X358348161Y-178625000D01*
X358350247Y-178600645D01*
X358351649Y-178575701D01*
X358351824Y-178565771D01*
X358350790Y-178539668D01*
X358348815Y-178514809D01*
X358348161Y-178507763D01*
X358321721Y-178500665D01*
X358293693Y-178493566D01*
X358269122Y-178487651D01*
X358243449Y-178481736D01*
X358216672Y-178475821D01*
X358188792Y-178469905D01*
X358159016Y-178463360D01*
X358132273Y-178456854D01*
X358108564Y-178450385D01*
X358083195Y-178442353D01*
X358059009Y-178432793D01*
X358037380Y-178420180D01*
X358035530Y-178418614D01*
X358019191Y-178399527D01*
X358009634Y-178376688D01*
X358006831Y-178352669D01*
X358008663Y-178235432D01*
X358001336Y-178107205D01*
X358003168Y-177845254D01*
X358005000Y-177778087D01*
X358004298Y-177751307D01*
X358003268Y-177722990D01*
X358002195Y-177695541D01*
X358001336Y-177674284D01*
X357999860Y-177649002D01*
X357998787Y-177622836D01*
X357998295Y-177596396D01*
X357998283Y-177591852D01*
X357998860Y-177565136D01*
X357999828Y-177536490D01*
X358000806Y-177510482D01*
X358002023Y-177479854D01*
X358003168Y-177452023D01*
X357996451Y-177353715D01*
X357998025Y-177327059D01*
X357999698Y-177297763D01*
X358001042Y-177272939D01*
X358002374Y-177245699D01*
X358003168Y-177220603D01*
X358002710Y-177194805D01*
X358001449Y-177170342D01*
X358001336Y-177168702D01*
X357998283Y-177125959D01*
X358003168Y-177008112D01*
X357998283Y-176954989D01*
X357997317Y-176929825D01*
X357996753Y-176903303D01*
X357996496Y-176876646D01*
X357996451Y-176858513D01*
X357996539Y-176831403D01*
X357996753Y-176806258D01*
X357997097Y-176779353D01*
X357997569Y-176750688D01*
X357998061Y-176725456D01*
X357998283Y-176715020D01*
X358021481Y-176732199D01*
X358045280Y-176749389D01*
X358069681Y-176766589D01*
X358094682Y-176783800D01*
X358120285Y-176801021D01*
X358146489Y-176818254D01*
X358173293Y-176835497D01*
X358200699Y-176852751D01*
X358228706Y-176870015D01*
X358257314Y-176887290D01*
X358276720Y-176898813D01*
X358299152Y-176912349D01*
X358323889Y-176926138D01*
X358350964Y-176940875D01*
X358376853Y-176954790D01*
X358398736Y-176966467D01*
X358422734Y-176979205D01*
X358431203Y-176983688D01*
X358447408Y-176960217D01*
X358461674Y-176938655D01*
X358476236Y-176915300D01*
X358489697Y-176891524D01*
X358500430Y-176868932D01*
X358501423Y-176866451D01*
X358479134Y-176854213D01*
X358457755Y-176842380D01*
X358427396Y-176825391D01*
X358399087Y-176809314D01*
X358372828Y-176794150D01*
X358348619Y-176779897D01*
X358326460Y-176766558D01*
X358300103Y-176750191D01*
X358277392Y-176735445D01*
X358254127Y-176719295D01*
X358233707Y-176704052D01*
X358212976Y-176688089D01*
X358191933Y-176671408D01*
X358170579Y-176654007D01*
X358148914Y-176635888D01*
X358126937Y-176617049D01*
X358104650Y-176597491D01*
X358082050Y-176577214D01*
X358059140Y-176556218D01*
X358035919Y-176534503D01*
X358020265Y-176519626D01*
X358002948Y-176501845D01*
X357984201Y-176481320D01*
X357964022Y-176458053D01*
X357946849Y-176437464D01*
X357928759Y-176415119D01*
X357909754Y-176391019D01*
X357889833Y-176365164D01*
X357884710Y-176358426D01*
G37*
G36*
X356750812Y-178156053D02*
G01*
X356724318Y-178157160D01*
X356698873Y-178160480D01*
X356674477Y-178166014D01*
X356651131Y-178173761D01*
X356623424Y-178186557D01*
X356602439Y-178199285D01*
X356582504Y-178214225D01*
X356568241Y-178226884D01*
X356550638Y-178244744D01*
X356531935Y-178267928D01*
X356516900Y-178292066D01*
X356505531Y-178317158D01*
X356497830Y-178343204D01*
X356493796Y-178370205D01*
X356493136Y-178386863D01*
X356493861Y-178415533D01*
X356496037Y-178442313D01*
X356499662Y-178467205D01*
X356506233Y-178495663D01*
X356515070Y-178521170D01*
X356526173Y-178543725D01*
X356539542Y-178563328D01*
X356560685Y-178586942D01*
X356582896Y-178607406D01*
X356606175Y-178624723D01*
X356630523Y-178638891D01*
X356655939Y-178649910D01*
X356682424Y-178657781D01*
X356709978Y-178662504D01*
X356738600Y-178664078D01*
X356765467Y-178662953D01*
X356791113Y-178659575D01*
X356815537Y-178653946D01*
X356838740Y-178646065D01*
X356866026Y-178633048D01*
X356891405Y-178616513D01*
X356910334Y-178600752D01*
X356919340Y-178592027D01*
X356935798Y-178573260D01*
X356950061Y-178553291D01*
X356964805Y-178526640D01*
X356974131Y-178503966D01*
X356981262Y-178480091D01*
X356986200Y-178455013D01*
X356988943Y-178428733D01*
X356989560Y-178408234D01*
X356988358Y-178381687D01*
X356984751Y-178356084D01*
X356978741Y-178331426D01*
X356970326Y-178307713D01*
X356959507Y-178284944D01*
X356955366Y-178277564D01*
X356941662Y-178257207D01*
X356922992Y-178236207D01*
X356903035Y-178217696D01*
X356883617Y-178201909D01*
X356861664Y-178185794D01*
X356852173Y-178179256D01*
X356828894Y-178167020D01*
X356804775Y-178160494D01*
X356779664Y-178157164D01*
X356755163Y-178156076D01*
X356750812Y-178156053D01*
G37*
G36*
X355588827Y-176358426D02*
G01*
X355562297Y-176358426D01*
X355534744Y-176358426D01*
X355509231Y-176358426D01*
X355478859Y-176358426D01*
X355472201Y-176358426D01*
X355417247Y-176358426D01*
X355309169Y-176358426D01*
X355305963Y-176384339D01*
X355303452Y-176409020D01*
X355301906Y-176434565D01*
X355301842Y-176439637D01*
X355302557Y-176464633D01*
X355303561Y-176490582D01*
X355303674Y-176493370D01*
X355304759Y-176521611D01*
X355305353Y-176551378D01*
X355305725Y-176576565D01*
X355306078Y-176606027D01*
X355306330Y-176630928D01*
X355306572Y-176658234D01*
X355306727Y-176677773D01*
X355310390Y-176939113D01*
X355309169Y-177103367D01*
X355320771Y-178269626D01*
X355320771Y-178367934D01*
X355318887Y-178394810D01*
X355312375Y-178419234D01*
X355298422Y-178440987D01*
X355296957Y-178442428D01*
X355273880Y-178455570D01*
X355248431Y-178464060D01*
X355220524Y-178470872D01*
X355192972Y-178476221D01*
X355168119Y-178480286D01*
X355142244Y-178483835D01*
X355116127Y-178487949D01*
X355089967Y-178492329D01*
X355059812Y-178497573D01*
X355032812Y-178502391D01*
X355003255Y-178507763D01*
X354999881Y-178531956D01*
X354999591Y-178540736D01*
X355000293Y-178566481D01*
X355001484Y-178592166D01*
X355002811Y-178617085D01*
X355003255Y-178625000D01*
X355077138Y-178625000D01*
X355102469Y-178625000D01*
X355131139Y-178625000D01*
X355156479Y-178625000D01*
X355183956Y-178625000D01*
X355213571Y-178625000D01*
X355245322Y-178625000D01*
X355270539Y-178625000D01*
X355296957Y-178625000D01*
X355322917Y-178625000D01*
X355350566Y-178625000D01*
X355377994Y-178625000D01*
X355402971Y-178625000D01*
X355417247Y-178625000D01*
X355445751Y-178625000D01*
X355471564Y-178625000D01*
X355504303Y-178625000D01*
X355533403Y-178625000D01*
X355566399Y-178625000D01*
X355603291Y-178625000D01*
X355630050Y-178625000D01*
X355658541Y-178625000D01*
X355688764Y-178625000D01*
X355720718Y-178625000D01*
X355745915Y-178625000D01*
X355768956Y-178625000D01*
X355800097Y-178625000D01*
X355849556Y-178625000D01*
X355895963Y-178625000D01*
X355982058Y-178625000D01*
X356008162Y-178625000D01*
X356033623Y-178625000D01*
X356052278Y-178625000D01*
X356054364Y-178600645D01*
X356055766Y-178575701D01*
X356055942Y-178565771D01*
X356054908Y-178539668D01*
X356052933Y-178514809D01*
X356052278Y-178507763D01*
X356025838Y-178500665D01*
X355997810Y-178493566D01*
X355973239Y-178487651D01*
X355947566Y-178481736D01*
X355920789Y-178475821D01*
X355892909Y-178469905D01*
X355863133Y-178463360D01*
X355836390Y-178456854D01*
X355812681Y-178450385D01*
X355787312Y-178442353D01*
X355763126Y-178432793D01*
X355741497Y-178420180D01*
X355739647Y-178418614D01*
X355723308Y-178399527D01*
X355713751Y-178376688D01*
X355710949Y-178352669D01*
X355712780Y-178235432D01*
X355705453Y-178107205D01*
X355707285Y-177845254D01*
X355709117Y-177778087D01*
X355708415Y-177751307D01*
X355707385Y-177722990D01*
X355706312Y-177695541D01*
X355705453Y-177674284D01*
X355703977Y-177649002D01*
X355702904Y-177622836D01*
X355702412Y-177596396D01*
X355702400Y-177591852D01*
X355702977Y-177565136D01*
X355703946Y-177536490D01*
X355704924Y-177510482D01*
X355706140Y-177479854D01*
X355707285Y-177452023D01*
X355700568Y-177353715D01*
X355702142Y-177327059D01*
X355703815Y-177297763D01*
X355705160Y-177272939D01*
X355706491Y-177245699D01*
X355707285Y-177220603D01*
X355706827Y-177194805D01*
X355705566Y-177170342D01*
X355705453Y-177168702D01*
X355702400Y-177125959D01*
X355707285Y-177008112D01*
X355702400Y-176954989D01*
X355701434Y-176929825D01*
X355700871Y-176903303D01*
X355700613Y-176876646D01*
X355700568Y-176858513D01*
X355700656Y-176831403D01*
X355700871Y-176806258D01*
X355701214Y-176779353D01*
X355701686Y-176750688D01*
X355702178Y-176725456D01*
X355702400Y-176715020D01*
X355725598Y-176732199D01*
X355749398Y-176749389D01*
X355773798Y-176766589D01*
X355798800Y-176783800D01*
X355824402Y-176801021D01*
X355850606Y-176818254D01*
X355877411Y-176835497D01*
X355904816Y-176852751D01*
X355932823Y-176870015D01*
X355961431Y-176887290D01*
X355980837Y-176898813D01*
X356003270Y-176912349D01*
X356028006Y-176926138D01*
X356055081Y-176940875D01*
X356080970Y-176954790D01*
X356102853Y-176966467D01*
X356126851Y-176979205D01*
X356135321Y-176983688D01*
X356151525Y-176960217D01*
X356165791Y-176938655D01*
X356180353Y-176915300D01*
X356193814Y-176891524D01*
X356204547Y-176868932D01*
X356205540Y-176866451D01*
X356183251Y-176854213D01*
X356161872Y-176842380D01*
X356131513Y-176825391D01*
X356103204Y-176809314D01*
X356076945Y-176794150D01*
X356052736Y-176779897D01*
X356030577Y-176766558D01*
X356004221Y-176750191D01*
X355981509Y-176735445D01*
X355958244Y-176719295D01*
X355937824Y-176704052D01*
X355917093Y-176688089D01*
X355896050Y-176671408D01*
X355874696Y-176654007D01*
X355853031Y-176635888D01*
X355831055Y-176617049D01*
X355808767Y-176597491D01*
X355786168Y-176577214D01*
X355763257Y-176556218D01*
X355740036Y-176534503D01*
X355724382Y-176519626D01*
X355707065Y-176501845D01*
X355688318Y-176481320D01*
X355668139Y-176458053D01*
X355650966Y-176437464D01*
X355632877Y-176415119D01*
X355613872Y-176391019D01*
X355593951Y-176365164D01*
X355588827Y-176358426D01*
G37*
D11*
%TO.C,SW25*%
X343930623Y-71177361D02*
X343787766Y-71224980D01*
X343787766Y-71224980D02*
X343549671Y-71224980D01*
X343549671Y-71224980D02*
X343454433Y-71177361D01*
X343454433Y-71177361D02*
X343406814Y-71129742D01*
X343406814Y-71129742D02*
X343359195Y-71034504D01*
X343359195Y-71034504D02*
X343359195Y-70939266D01*
X343359195Y-70939266D02*
X343406814Y-70844028D01*
X343406814Y-70844028D02*
X343454433Y-70796409D01*
X343454433Y-70796409D02*
X343549671Y-70748790D01*
X343549671Y-70748790D02*
X343740147Y-70701171D01*
X343740147Y-70701171D02*
X343835385Y-70653552D01*
X343835385Y-70653552D02*
X343883004Y-70605933D01*
X343883004Y-70605933D02*
X343930623Y-70510695D01*
X343930623Y-70510695D02*
X343930623Y-70415457D01*
X343930623Y-70415457D02*
X343883004Y-70320219D01*
X343883004Y-70320219D02*
X343835385Y-70272600D01*
X343835385Y-70272600D02*
X343740147Y-70224980D01*
X343740147Y-70224980D02*
X343502052Y-70224980D01*
X343502052Y-70224980D02*
X343359195Y-70272600D01*
X343025861Y-70224980D02*
X342787766Y-71224980D01*
X342787766Y-71224980D02*
X342597290Y-70510695D01*
X342597290Y-70510695D02*
X342406814Y-71224980D01*
X342406814Y-71224980D02*
X342168719Y-70224980D01*
X341835385Y-70320219D02*
X341787766Y-70272600D01*
X341787766Y-70272600D02*
X341692528Y-70224980D01*
X341692528Y-70224980D02*
X341454433Y-70224980D01*
X341454433Y-70224980D02*
X341359195Y-70272600D01*
X341359195Y-70272600D02*
X341311576Y-70320219D01*
X341311576Y-70320219D02*
X341263957Y-70415457D01*
X341263957Y-70415457D02*
X341263957Y-70510695D01*
X341263957Y-70510695D02*
X341311576Y-70653552D01*
X341311576Y-70653552D02*
X341883004Y-71224980D01*
X341883004Y-71224980D02*
X341263957Y-71224980D01*
X340359195Y-70224980D02*
X340835385Y-70224980D01*
X340835385Y-70224980D02*
X340883004Y-70701171D01*
X340883004Y-70701171D02*
X340835385Y-70653552D01*
X340835385Y-70653552D02*
X340740147Y-70605933D01*
X340740147Y-70605933D02*
X340502052Y-70605933D01*
X340502052Y-70605933D02*
X340406814Y-70653552D01*
X340406814Y-70653552D02*
X340359195Y-70701171D01*
X340359195Y-70701171D02*
X340311576Y-70796409D01*
X340311576Y-70796409D02*
X340311576Y-71034504D01*
X340311576Y-71034504D02*
X340359195Y-71129742D01*
X340359195Y-71129742D02*
X340406814Y-71177361D01*
X340406814Y-71177361D02*
X340502052Y-71224980D01*
X340502052Y-71224980D02*
X340740147Y-71224980D01*
X340740147Y-71224980D02*
X340835385Y-71177361D01*
X340835385Y-71177361D02*
X340883004Y-71129742D01*
%TO.C,SW40*%
X304699623Y-132307361D02*
X304556766Y-132354980D01*
X304556766Y-132354980D02*
X304318671Y-132354980D01*
X304318671Y-132354980D02*
X304223433Y-132307361D01*
X304223433Y-132307361D02*
X304175814Y-132259742D01*
X304175814Y-132259742D02*
X304128195Y-132164504D01*
X304128195Y-132164504D02*
X304128195Y-132069266D01*
X304128195Y-132069266D02*
X304175814Y-131974028D01*
X304175814Y-131974028D02*
X304223433Y-131926409D01*
X304223433Y-131926409D02*
X304318671Y-131878790D01*
X304318671Y-131878790D02*
X304509147Y-131831171D01*
X304509147Y-131831171D02*
X304604385Y-131783552D01*
X304604385Y-131783552D02*
X304652004Y-131735933D01*
X304652004Y-131735933D02*
X304699623Y-131640695D01*
X304699623Y-131640695D02*
X304699623Y-131545457D01*
X304699623Y-131545457D02*
X304652004Y-131450219D01*
X304652004Y-131450219D02*
X304604385Y-131402600D01*
X304604385Y-131402600D02*
X304509147Y-131354980D01*
X304509147Y-131354980D02*
X304271052Y-131354980D01*
X304271052Y-131354980D02*
X304128195Y-131402600D01*
X303794861Y-131354980D02*
X303556766Y-132354980D01*
X303556766Y-132354980D02*
X303366290Y-131640695D01*
X303366290Y-131640695D02*
X303175814Y-132354980D01*
X303175814Y-132354980D02*
X302937719Y-131354980D01*
X302128195Y-131688314D02*
X302128195Y-132354980D01*
X302366290Y-131307361D02*
X302604385Y-132021647D01*
X302604385Y-132021647D02*
X301985338Y-132021647D01*
X301413909Y-131354980D02*
X301318671Y-131354980D01*
X301318671Y-131354980D02*
X301223433Y-131402600D01*
X301223433Y-131402600D02*
X301175814Y-131450219D01*
X301175814Y-131450219D02*
X301128195Y-131545457D01*
X301128195Y-131545457D02*
X301080576Y-131735933D01*
X301080576Y-131735933D02*
X301080576Y-131974028D01*
X301080576Y-131974028D02*
X301128195Y-132164504D01*
X301128195Y-132164504D02*
X301175814Y-132259742D01*
X301175814Y-132259742D02*
X301223433Y-132307361D01*
X301223433Y-132307361D02*
X301318671Y-132354980D01*
X301318671Y-132354980D02*
X301413909Y-132354980D01*
X301413909Y-132354980D02*
X301509147Y-132307361D01*
X301509147Y-132307361D02*
X301556766Y-132259742D01*
X301556766Y-132259742D02*
X301604385Y-132164504D01*
X301604385Y-132164504D02*
X301652004Y-131974028D01*
X301652004Y-131974028D02*
X301652004Y-131735933D01*
X301652004Y-131735933D02*
X301604385Y-131545457D01*
X301604385Y-131545457D02*
X301556766Y-131450219D01*
X301556766Y-131450219D02*
X301509147Y-131402600D01*
X301509147Y-131402600D02*
X301413909Y-131354980D01*
%TO.C,SW8*%
X103215432Y-68808361D02*
X103072575Y-68855980D01*
X103072575Y-68855980D02*
X102834480Y-68855980D01*
X102834480Y-68855980D02*
X102739242Y-68808361D01*
X102739242Y-68808361D02*
X102691623Y-68760742D01*
X102691623Y-68760742D02*
X102644004Y-68665504D01*
X102644004Y-68665504D02*
X102644004Y-68570266D01*
X102644004Y-68570266D02*
X102691623Y-68475028D01*
X102691623Y-68475028D02*
X102739242Y-68427409D01*
X102739242Y-68427409D02*
X102834480Y-68379790D01*
X102834480Y-68379790D02*
X103024956Y-68332171D01*
X103024956Y-68332171D02*
X103120194Y-68284552D01*
X103120194Y-68284552D02*
X103167813Y-68236933D01*
X103167813Y-68236933D02*
X103215432Y-68141695D01*
X103215432Y-68141695D02*
X103215432Y-68046457D01*
X103215432Y-68046457D02*
X103167813Y-67951219D01*
X103167813Y-67951219D02*
X103120194Y-67903600D01*
X103120194Y-67903600D02*
X103024956Y-67855980D01*
X103024956Y-67855980D02*
X102786861Y-67855980D01*
X102786861Y-67855980D02*
X102644004Y-67903600D01*
X102310670Y-67855980D02*
X102072575Y-68855980D01*
X102072575Y-68855980D02*
X101882099Y-68141695D01*
X101882099Y-68141695D02*
X101691623Y-68855980D01*
X101691623Y-68855980D02*
X101453528Y-67855980D01*
X100929718Y-68284552D02*
X101024956Y-68236933D01*
X101024956Y-68236933D02*
X101072575Y-68189314D01*
X101072575Y-68189314D02*
X101120194Y-68094076D01*
X101120194Y-68094076D02*
X101120194Y-68046457D01*
X101120194Y-68046457D02*
X101072575Y-67951219D01*
X101072575Y-67951219D02*
X101024956Y-67903600D01*
X101024956Y-67903600D02*
X100929718Y-67855980D01*
X100929718Y-67855980D02*
X100739242Y-67855980D01*
X100739242Y-67855980D02*
X100644004Y-67903600D01*
X100644004Y-67903600D02*
X100596385Y-67951219D01*
X100596385Y-67951219D02*
X100548766Y-68046457D01*
X100548766Y-68046457D02*
X100548766Y-68094076D01*
X100548766Y-68094076D02*
X100596385Y-68189314D01*
X100596385Y-68189314D02*
X100644004Y-68236933D01*
X100644004Y-68236933D02*
X100739242Y-68284552D01*
X100739242Y-68284552D02*
X100929718Y-68284552D01*
X100929718Y-68284552D02*
X101024956Y-68332171D01*
X101024956Y-68332171D02*
X101072575Y-68379790D01*
X101072575Y-68379790D02*
X101120194Y-68475028D01*
X101120194Y-68475028D02*
X101120194Y-68665504D01*
X101120194Y-68665504D02*
X101072575Y-68760742D01*
X101072575Y-68760742D02*
X101024956Y-68808361D01*
X101024956Y-68808361D02*
X100929718Y-68855980D01*
X100929718Y-68855980D02*
X100739242Y-68855980D01*
X100739242Y-68855980D02*
X100644004Y-68808361D01*
X100644004Y-68808361D02*
X100596385Y-68760742D01*
X100596385Y-68760742D02*
X100548766Y-68665504D01*
X100548766Y-68665504D02*
X100548766Y-68475028D01*
X100548766Y-68475028D02*
X100596385Y-68379790D01*
X100596385Y-68379790D02*
X100644004Y-68332171D01*
X100644004Y-68332171D02*
X100739242Y-68284552D01*
%TO.C,SW22*%
X315575623Y-68202361D02*
X315432766Y-68249980D01*
X315432766Y-68249980D02*
X315194671Y-68249980D01*
X315194671Y-68249980D02*
X315099433Y-68202361D01*
X315099433Y-68202361D02*
X315051814Y-68154742D01*
X315051814Y-68154742D02*
X315004195Y-68059504D01*
X315004195Y-68059504D02*
X315004195Y-67964266D01*
X315004195Y-67964266D02*
X315051814Y-67869028D01*
X315051814Y-67869028D02*
X315099433Y-67821409D01*
X315099433Y-67821409D02*
X315194671Y-67773790D01*
X315194671Y-67773790D02*
X315385147Y-67726171D01*
X315385147Y-67726171D02*
X315480385Y-67678552D01*
X315480385Y-67678552D02*
X315528004Y-67630933D01*
X315528004Y-67630933D02*
X315575623Y-67535695D01*
X315575623Y-67535695D02*
X315575623Y-67440457D01*
X315575623Y-67440457D02*
X315528004Y-67345219D01*
X315528004Y-67345219D02*
X315480385Y-67297600D01*
X315480385Y-67297600D02*
X315385147Y-67249980D01*
X315385147Y-67249980D02*
X315147052Y-67249980D01*
X315147052Y-67249980D02*
X315004195Y-67297600D01*
X314670861Y-67249980D02*
X314432766Y-68249980D01*
X314432766Y-68249980D02*
X314242290Y-67535695D01*
X314242290Y-67535695D02*
X314051814Y-68249980D01*
X314051814Y-68249980D02*
X313813719Y-67249980D01*
X313480385Y-67345219D02*
X313432766Y-67297600D01*
X313432766Y-67297600D02*
X313337528Y-67249980D01*
X313337528Y-67249980D02*
X313099433Y-67249980D01*
X313099433Y-67249980D02*
X313004195Y-67297600D01*
X313004195Y-67297600D02*
X312956576Y-67345219D01*
X312956576Y-67345219D02*
X312908957Y-67440457D01*
X312908957Y-67440457D02*
X312908957Y-67535695D01*
X312908957Y-67535695D02*
X312956576Y-67678552D01*
X312956576Y-67678552D02*
X313528004Y-68249980D01*
X313528004Y-68249980D02*
X312908957Y-68249980D01*
X312528004Y-67345219D02*
X312480385Y-67297600D01*
X312480385Y-67297600D02*
X312385147Y-67249980D01*
X312385147Y-67249980D02*
X312147052Y-67249980D01*
X312147052Y-67249980D02*
X312051814Y-67297600D01*
X312051814Y-67297600D02*
X312004195Y-67345219D01*
X312004195Y-67345219D02*
X311956576Y-67440457D01*
X311956576Y-67440457D02*
X311956576Y-67535695D01*
X311956576Y-67535695D02*
X312004195Y-67678552D01*
X312004195Y-67678552D02*
X312575623Y-68249980D01*
X312575623Y-68249980D02*
X311956576Y-68249980D01*
%TO.C,SW26*%
X370153623Y-87213361D02*
X370010766Y-87260980D01*
X370010766Y-87260980D02*
X369772671Y-87260980D01*
X369772671Y-87260980D02*
X369677433Y-87213361D01*
X369677433Y-87213361D02*
X369629814Y-87165742D01*
X369629814Y-87165742D02*
X369582195Y-87070504D01*
X369582195Y-87070504D02*
X369582195Y-86975266D01*
X369582195Y-86975266D02*
X369629814Y-86880028D01*
X369629814Y-86880028D02*
X369677433Y-86832409D01*
X369677433Y-86832409D02*
X369772671Y-86784790D01*
X369772671Y-86784790D02*
X369963147Y-86737171D01*
X369963147Y-86737171D02*
X370058385Y-86689552D01*
X370058385Y-86689552D02*
X370106004Y-86641933D01*
X370106004Y-86641933D02*
X370153623Y-86546695D01*
X370153623Y-86546695D02*
X370153623Y-86451457D01*
X370153623Y-86451457D02*
X370106004Y-86356219D01*
X370106004Y-86356219D02*
X370058385Y-86308600D01*
X370058385Y-86308600D02*
X369963147Y-86260980D01*
X369963147Y-86260980D02*
X369725052Y-86260980D01*
X369725052Y-86260980D02*
X369582195Y-86308600D01*
X369248861Y-86260980D02*
X369010766Y-87260980D01*
X369010766Y-87260980D02*
X368820290Y-86546695D01*
X368820290Y-86546695D02*
X368629814Y-87260980D01*
X368629814Y-87260980D02*
X368391719Y-86260980D01*
X368058385Y-86356219D02*
X368010766Y-86308600D01*
X368010766Y-86308600D02*
X367915528Y-86260980D01*
X367915528Y-86260980D02*
X367677433Y-86260980D01*
X367677433Y-86260980D02*
X367582195Y-86308600D01*
X367582195Y-86308600D02*
X367534576Y-86356219D01*
X367534576Y-86356219D02*
X367486957Y-86451457D01*
X367486957Y-86451457D02*
X367486957Y-86546695D01*
X367486957Y-86546695D02*
X367534576Y-86689552D01*
X367534576Y-86689552D02*
X368106004Y-87260980D01*
X368106004Y-87260980D02*
X367486957Y-87260980D01*
X366629814Y-86260980D02*
X366820290Y-86260980D01*
X366820290Y-86260980D02*
X366915528Y-86308600D01*
X366915528Y-86308600D02*
X366963147Y-86356219D01*
X366963147Y-86356219D02*
X367058385Y-86499076D01*
X367058385Y-86499076D02*
X367106004Y-86689552D01*
X367106004Y-86689552D02*
X367106004Y-87070504D01*
X367106004Y-87070504D02*
X367058385Y-87165742D01*
X367058385Y-87165742D02*
X367010766Y-87213361D01*
X367010766Y-87213361D02*
X366915528Y-87260980D01*
X366915528Y-87260980D02*
X366725052Y-87260980D01*
X366725052Y-87260980D02*
X366629814Y-87213361D01*
X366629814Y-87213361D02*
X366582195Y-87165742D01*
X366582195Y-87165742D02*
X366534576Y-87070504D01*
X366534576Y-87070504D02*
X366534576Y-86832409D01*
X366534576Y-86832409D02*
X366582195Y-86737171D01*
X366582195Y-86737171D02*
X366629814Y-86689552D01*
X366629814Y-86689552D02*
X366725052Y-86641933D01*
X366725052Y-86641933D02*
X366915528Y-86641933D01*
X366915528Y-86641933D02*
X367010766Y-86689552D01*
X367010766Y-86689552D02*
X367058385Y-86737171D01*
X367058385Y-86737171D02*
X367106004Y-86832409D01*
%TO.C,SW3*%
X209519432Y-80571361D02*
X209376575Y-80618980D01*
X209376575Y-80618980D02*
X209138480Y-80618980D01*
X209138480Y-80618980D02*
X209043242Y-80571361D01*
X209043242Y-80571361D02*
X208995623Y-80523742D01*
X208995623Y-80523742D02*
X208948004Y-80428504D01*
X208948004Y-80428504D02*
X208948004Y-80333266D01*
X208948004Y-80333266D02*
X208995623Y-80238028D01*
X208995623Y-80238028D02*
X209043242Y-80190409D01*
X209043242Y-80190409D02*
X209138480Y-80142790D01*
X209138480Y-80142790D02*
X209328956Y-80095171D01*
X209328956Y-80095171D02*
X209424194Y-80047552D01*
X209424194Y-80047552D02*
X209471813Y-79999933D01*
X209471813Y-79999933D02*
X209519432Y-79904695D01*
X209519432Y-79904695D02*
X209519432Y-79809457D01*
X209519432Y-79809457D02*
X209471813Y-79714219D01*
X209471813Y-79714219D02*
X209424194Y-79666600D01*
X209424194Y-79666600D02*
X209328956Y-79618980D01*
X209328956Y-79618980D02*
X209090861Y-79618980D01*
X209090861Y-79618980D02*
X208948004Y-79666600D01*
X208614670Y-79618980D02*
X208376575Y-80618980D01*
X208376575Y-80618980D02*
X208186099Y-79904695D01*
X208186099Y-79904695D02*
X207995623Y-80618980D01*
X207995623Y-80618980D02*
X207757528Y-79618980D01*
X207471813Y-79618980D02*
X206852766Y-79618980D01*
X206852766Y-79618980D02*
X207186099Y-79999933D01*
X207186099Y-79999933D02*
X207043242Y-79999933D01*
X207043242Y-79999933D02*
X206948004Y-80047552D01*
X206948004Y-80047552D02*
X206900385Y-80095171D01*
X206900385Y-80095171D02*
X206852766Y-80190409D01*
X206852766Y-80190409D02*
X206852766Y-80428504D01*
X206852766Y-80428504D02*
X206900385Y-80523742D01*
X206900385Y-80523742D02*
X206948004Y-80571361D01*
X206948004Y-80571361D02*
X207043242Y-80618980D01*
X207043242Y-80618980D02*
X207328956Y-80618980D01*
X207328956Y-80618980D02*
X207424194Y-80571361D01*
X207424194Y-80571361D02*
X207471813Y-80523742D01*
%TO.C,SW35*%
X282042623Y-116537361D02*
X281899766Y-116584980D01*
X281899766Y-116584980D02*
X281661671Y-116584980D01*
X281661671Y-116584980D02*
X281566433Y-116537361D01*
X281566433Y-116537361D02*
X281518814Y-116489742D01*
X281518814Y-116489742D02*
X281471195Y-116394504D01*
X281471195Y-116394504D02*
X281471195Y-116299266D01*
X281471195Y-116299266D02*
X281518814Y-116204028D01*
X281518814Y-116204028D02*
X281566433Y-116156409D01*
X281566433Y-116156409D02*
X281661671Y-116108790D01*
X281661671Y-116108790D02*
X281852147Y-116061171D01*
X281852147Y-116061171D02*
X281947385Y-116013552D01*
X281947385Y-116013552D02*
X281995004Y-115965933D01*
X281995004Y-115965933D02*
X282042623Y-115870695D01*
X282042623Y-115870695D02*
X282042623Y-115775457D01*
X282042623Y-115775457D02*
X281995004Y-115680219D01*
X281995004Y-115680219D02*
X281947385Y-115632600D01*
X281947385Y-115632600D02*
X281852147Y-115584980D01*
X281852147Y-115584980D02*
X281614052Y-115584980D01*
X281614052Y-115584980D02*
X281471195Y-115632600D01*
X281137861Y-115584980D02*
X280899766Y-116584980D01*
X280899766Y-116584980D02*
X280709290Y-115870695D01*
X280709290Y-115870695D02*
X280518814Y-116584980D01*
X280518814Y-116584980D02*
X280280719Y-115584980D01*
X279995004Y-115584980D02*
X279375957Y-115584980D01*
X279375957Y-115584980D02*
X279709290Y-115965933D01*
X279709290Y-115965933D02*
X279566433Y-115965933D01*
X279566433Y-115965933D02*
X279471195Y-116013552D01*
X279471195Y-116013552D02*
X279423576Y-116061171D01*
X279423576Y-116061171D02*
X279375957Y-116156409D01*
X279375957Y-116156409D02*
X279375957Y-116394504D01*
X279375957Y-116394504D02*
X279423576Y-116489742D01*
X279423576Y-116489742D02*
X279471195Y-116537361D01*
X279471195Y-116537361D02*
X279566433Y-116584980D01*
X279566433Y-116584980D02*
X279852147Y-116584980D01*
X279852147Y-116584980D02*
X279947385Y-116537361D01*
X279947385Y-116537361D02*
X279995004Y-116489742D01*
X278471195Y-115584980D02*
X278947385Y-115584980D01*
X278947385Y-115584980D02*
X278995004Y-116061171D01*
X278995004Y-116061171D02*
X278947385Y-116013552D01*
X278947385Y-116013552D02*
X278852147Y-115965933D01*
X278852147Y-115965933D02*
X278614052Y-115965933D01*
X278614052Y-115965933D02*
X278518814Y-116013552D01*
X278518814Y-116013552D02*
X278471195Y-116061171D01*
X278471195Y-116061171D02*
X278423576Y-116156409D01*
X278423576Y-116156409D02*
X278423576Y-116394504D01*
X278423576Y-116394504D02*
X278471195Y-116489742D01*
X278471195Y-116489742D02*
X278518814Y-116537361D01*
X278518814Y-116537361D02*
X278614052Y-116584980D01*
X278614052Y-116584980D02*
X278852147Y-116584980D01*
X278852147Y-116584980D02*
X278947385Y-116537361D01*
X278947385Y-116537361D02*
X278995004Y-116489742D01*
%TO.C,SW19*%
X370153623Y-59603361D02*
X370010766Y-59650980D01*
X370010766Y-59650980D02*
X369772671Y-59650980D01*
X369772671Y-59650980D02*
X369677433Y-59603361D01*
X369677433Y-59603361D02*
X369629814Y-59555742D01*
X369629814Y-59555742D02*
X369582195Y-59460504D01*
X369582195Y-59460504D02*
X369582195Y-59365266D01*
X369582195Y-59365266D02*
X369629814Y-59270028D01*
X369629814Y-59270028D02*
X369677433Y-59222409D01*
X369677433Y-59222409D02*
X369772671Y-59174790D01*
X369772671Y-59174790D02*
X369963147Y-59127171D01*
X369963147Y-59127171D02*
X370058385Y-59079552D01*
X370058385Y-59079552D02*
X370106004Y-59031933D01*
X370106004Y-59031933D02*
X370153623Y-58936695D01*
X370153623Y-58936695D02*
X370153623Y-58841457D01*
X370153623Y-58841457D02*
X370106004Y-58746219D01*
X370106004Y-58746219D02*
X370058385Y-58698600D01*
X370058385Y-58698600D02*
X369963147Y-58650980D01*
X369963147Y-58650980D02*
X369725052Y-58650980D01*
X369725052Y-58650980D02*
X369582195Y-58698600D01*
X369248861Y-58650980D02*
X369010766Y-59650980D01*
X369010766Y-59650980D02*
X368820290Y-58936695D01*
X368820290Y-58936695D02*
X368629814Y-59650980D01*
X368629814Y-59650980D02*
X368391719Y-58650980D01*
X367486957Y-59650980D02*
X368058385Y-59650980D01*
X367772671Y-59650980D02*
X367772671Y-58650980D01*
X367772671Y-58650980D02*
X367867909Y-58793838D01*
X367867909Y-58793838D02*
X367963147Y-58889076D01*
X367963147Y-58889076D02*
X368058385Y-58936695D01*
X367010766Y-59650980D02*
X366820290Y-59650980D01*
X366820290Y-59650980D02*
X366725052Y-59603361D01*
X366725052Y-59603361D02*
X366677433Y-59555742D01*
X366677433Y-59555742D02*
X366582195Y-59412885D01*
X366582195Y-59412885D02*
X366534576Y-59222409D01*
X366534576Y-59222409D02*
X366534576Y-58841457D01*
X366534576Y-58841457D02*
X366582195Y-58746219D01*
X366582195Y-58746219D02*
X366629814Y-58698600D01*
X366629814Y-58698600D02*
X366725052Y-58650980D01*
X366725052Y-58650980D02*
X366915528Y-58650980D01*
X366915528Y-58650980D02*
X367010766Y-58698600D01*
X367010766Y-58698600D02*
X367058385Y-58746219D01*
X367058385Y-58746219D02*
X367106004Y-58841457D01*
X367106004Y-58841457D02*
X367106004Y-59079552D01*
X367106004Y-59079552D02*
X367058385Y-59174790D01*
X367058385Y-59174790D02*
X367010766Y-59222409D01*
X367010766Y-59222409D02*
X366915528Y-59270028D01*
X366915528Y-59270028D02*
X366725052Y-59270028D01*
X366725052Y-59270028D02*
X366629814Y-59222409D01*
X366629814Y-59222409D02*
X366582195Y-59174790D01*
X366582195Y-59174790D02*
X366534576Y-59079552D01*
%TO.C,SW12*%
X289057623Y-52588361D02*
X288914766Y-52635980D01*
X288914766Y-52635980D02*
X288676671Y-52635980D01*
X288676671Y-52635980D02*
X288581433Y-52588361D01*
X288581433Y-52588361D02*
X288533814Y-52540742D01*
X288533814Y-52540742D02*
X288486195Y-52445504D01*
X288486195Y-52445504D02*
X288486195Y-52350266D01*
X288486195Y-52350266D02*
X288533814Y-52255028D01*
X288533814Y-52255028D02*
X288581433Y-52207409D01*
X288581433Y-52207409D02*
X288676671Y-52159790D01*
X288676671Y-52159790D02*
X288867147Y-52112171D01*
X288867147Y-52112171D02*
X288962385Y-52064552D01*
X288962385Y-52064552D02*
X289010004Y-52016933D01*
X289010004Y-52016933D02*
X289057623Y-51921695D01*
X289057623Y-51921695D02*
X289057623Y-51826457D01*
X289057623Y-51826457D02*
X289010004Y-51731219D01*
X289010004Y-51731219D02*
X288962385Y-51683600D01*
X288962385Y-51683600D02*
X288867147Y-51635980D01*
X288867147Y-51635980D02*
X288629052Y-51635980D01*
X288629052Y-51635980D02*
X288486195Y-51683600D01*
X288152861Y-51635980D02*
X287914766Y-52635980D01*
X287914766Y-52635980D02*
X287724290Y-51921695D01*
X287724290Y-51921695D02*
X287533814Y-52635980D01*
X287533814Y-52635980D02*
X287295719Y-51635980D01*
X286390957Y-52635980D02*
X286962385Y-52635980D01*
X286676671Y-52635980D02*
X286676671Y-51635980D01*
X286676671Y-51635980D02*
X286771909Y-51778838D01*
X286771909Y-51778838D02*
X286867147Y-51874076D01*
X286867147Y-51874076D02*
X286962385Y-51921695D01*
X286010004Y-51731219D02*
X285962385Y-51683600D01*
X285962385Y-51683600D02*
X285867147Y-51635980D01*
X285867147Y-51635980D02*
X285629052Y-51635980D01*
X285629052Y-51635980D02*
X285533814Y-51683600D01*
X285533814Y-51683600D02*
X285486195Y-51731219D01*
X285486195Y-51731219D02*
X285438576Y-51826457D01*
X285438576Y-51826457D02*
X285438576Y-51921695D01*
X285438576Y-51921695D02*
X285486195Y-52064552D01*
X285486195Y-52064552D02*
X286057623Y-52635980D01*
X286057623Y-52635980D02*
X285438576Y-52635980D01*
%TO.C,SW38*%
X282042623Y-147722361D02*
X281899766Y-147769980D01*
X281899766Y-147769980D02*
X281661671Y-147769980D01*
X281661671Y-147769980D02*
X281566433Y-147722361D01*
X281566433Y-147722361D02*
X281518814Y-147674742D01*
X281518814Y-147674742D02*
X281471195Y-147579504D01*
X281471195Y-147579504D02*
X281471195Y-147484266D01*
X281471195Y-147484266D02*
X281518814Y-147389028D01*
X281518814Y-147389028D02*
X281566433Y-147341409D01*
X281566433Y-147341409D02*
X281661671Y-147293790D01*
X281661671Y-147293790D02*
X281852147Y-147246171D01*
X281852147Y-147246171D02*
X281947385Y-147198552D01*
X281947385Y-147198552D02*
X281995004Y-147150933D01*
X281995004Y-147150933D02*
X282042623Y-147055695D01*
X282042623Y-147055695D02*
X282042623Y-146960457D01*
X282042623Y-146960457D02*
X281995004Y-146865219D01*
X281995004Y-146865219D02*
X281947385Y-146817600D01*
X281947385Y-146817600D02*
X281852147Y-146769980D01*
X281852147Y-146769980D02*
X281614052Y-146769980D01*
X281614052Y-146769980D02*
X281471195Y-146817600D01*
X281137861Y-146769980D02*
X280899766Y-147769980D01*
X280899766Y-147769980D02*
X280709290Y-147055695D01*
X280709290Y-147055695D02*
X280518814Y-147769980D01*
X280518814Y-147769980D02*
X280280719Y-146769980D01*
X279995004Y-146769980D02*
X279375957Y-146769980D01*
X279375957Y-146769980D02*
X279709290Y-147150933D01*
X279709290Y-147150933D02*
X279566433Y-147150933D01*
X279566433Y-147150933D02*
X279471195Y-147198552D01*
X279471195Y-147198552D02*
X279423576Y-147246171D01*
X279423576Y-147246171D02*
X279375957Y-147341409D01*
X279375957Y-147341409D02*
X279375957Y-147579504D01*
X279375957Y-147579504D02*
X279423576Y-147674742D01*
X279423576Y-147674742D02*
X279471195Y-147722361D01*
X279471195Y-147722361D02*
X279566433Y-147769980D01*
X279566433Y-147769980D02*
X279852147Y-147769980D01*
X279852147Y-147769980D02*
X279947385Y-147722361D01*
X279947385Y-147722361D02*
X279995004Y-147674742D01*
X278804528Y-147198552D02*
X278899766Y-147150933D01*
X278899766Y-147150933D02*
X278947385Y-147103314D01*
X278947385Y-147103314D02*
X278995004Y-147008076D01*
X278995004Y-147008076D02*
X278995004Y-146960457D01*
X278995004Y-146960457D02*
X278947385Y-146865219D01*
X278947385Y-146865219D02*
X278899766Y-146817600D01*
X278899766Y-146817600D02*
X278804528Y-146769980D01*
X278804528Y-146769980D02*
X278614052Y-146769980D01*
X278614052Y-146769980D02*
X278518814Y-146817600D01*
X278518814Y-146817600D02*
X278471195Y-146865219D01*
X278471195Y-146865219D02*
X278423576Y-146960457D01*
X278423576Y-146960457D02*
X278423576Y-147008076D01*
X278423576Y-147008076D02*
X278471195Y-147103314D01*
X278471195Y-147103314D02*
X278518814Y-147150933D01*
X278518814Y-147150933D02*
X278614052Y-147198552D01*
X278614052Y-147198552D02*
X278804528Y-147198552D01*
X278804528Y-147198552D02*
X278899766Y-147246171D01*
X278899766Y-147246171D02*
X278947385Y-147293790D01*
X278947385Y-147293790D02*
X278995004Y-147389028D01*
X278995004Y-147389028D02*
X278995004Y-147579504D01*
X278995004Y-147579504D02*
X278947385Y-147674742D01*
X278947385Y-147674742D02*
X278899766Y-147722361D01*
X278899766Y-147722361D02*
X278804528Y-147769980D01*
X278804528Y-147769980D02*
X278614052Y-147769980D01*
X278614052Y-147769980D02*
X278518814Y-147722361D01*
X278518814Y-147722361D02*
X278471195Y-147674742D01*
X278471195Y-147674742D02*
X278423576Y-147579504D01*
X278423576Y-147579504D02*
X278423576Y-147389028D01*
X278423576Y-147389028D02*
X278471195Y-147293790D01*
X278471195Y-147293790D02*
X278518814Y-147246171D01*
X278518814Y-147246171D02*
X278614052Y-147198552D01*
%TO.C,SW32*%
X259355623Y-132307361D02*
X259212766Y-132354980D01*
X259212766Y-132354980D02*
X258974671Y-132354980D01*
X258974671Y-132354980D02*
X258879433Y-132307361D01*
X258879433Y-132307361D02*
X258831814Y-132259742D01*
X258831814Y-132259742D02*
X258784195Y-132164504D01*
X258784195Y-132164504D02*
X258784195Y-132069266D01*
X258784195Y-132069266D02*
X258831814Y-131974028D01*
X258831814Y-131974028D02*
X258879433Y-131926409D01*
X258879433Y-131926409D02*
X258974671Y-131878790D01*
X258974671Y-131878790D02*
X259165147Y-131831171D01*
X259165147Y-131831171D02*
X259260385Y-131783552D01*
X259260385Y-131783552D02*
X259308004Y-131735933D01*
X259308004Y-131735933D02*
X259355623Y-131640695D01*
X259355623Y-131640695D02*
X259355623Y-131545457D01*
X259355623Y-131545457D02*
X259308004Y-131450219D01*
X259308004Y-131450219D02*
X259260385Y-131402600D01*
X259260385Y-131402600D02*
X259165147Y-131354980D01*
X259165147Y-131354980D02*
X258927052Y-131354980D01*
X258927052Y-131354980D02*
X258784195Y-131402600D01*
X258450861Y-131354980D02*
X258212766Y-132354980D01*
X258212766Y-132354980D02*
X258022290Y-131640695D01*
X258022290Y-131640695D02*
X257831814Y-132354980D01*
X257831814Y-132354980D02*
X257593719Y-131354980D01*
X257308004Y-131354980D02*
X256688957Y-131354980D01*
X256688957Y-131354980D02*
X257022290Y-131735933D01*
X257022290Y-131735933D02*
X256879433Y-131735933D01*
X256879433Y-131735933D02*
X256784195Y-131783552D01*
X256784195Y-131783552D02*
X256736576Y-131831171D01*
X256736576Y-131831171D02*
X256688957Y-131926409D01*
X256688957Y-131926409D02*
X256688957Y-132164504D01*
X256688957Y-132164504D02*
X256736576Y-132259742D01*
X256736576Y-132259742D02*
X256784195Y-132307361D01*
X256784195Y-132307361D02*
X256879433Y-132354980D01*
X256879433Y-132354980D02*
X257165147Y-132354980D01*
X257165147Y-132354980D02*
X257260385Y-132307361D01*
X257260385Y-132307361D02*
X257308004Y-132259742D01*
X256308004Y-131450219D02*
X256260385Y-131402600D01*
X256260385Y-131402600D02*
X256165147Y-131354980D01*
X256165147Y-131354980D02*
X255927052Y-131354980D01*
X255927052Y-131354980D02*
X255831814Y-131402600D01*
X255831814Y-131402600D02*
X255784195Y-131450219D01*
X255784195Y-131450219D02*
X255736576Y-131545457D01*
X255736576Y-131545457D02*
X255736576Y-131640695D01*
X255736576Y-131640695D02*
X255784195Y-131783552D01*
X255784195Y-131783552D02*
X256355623Y-132354980D01*
X256355623Y-132354980D02*
X255736576Y-132354980D01*
%TO.C,SW36*%
X259355623Y-163492361D02*
X259212766Y-163539980D01*
X259212766Y-163539980D02*
X258974671Y-163539980D01*
X258974671Y-163539980D02*
X258879433Y-163492361D01*
X258879433Y-163492361D02*
X258831814Y-163444742D01*
X258831814Y-163444742D02*
X258784195Y-163349504D01*
X258784195Y-163349504D02*
X258784195Y-163254266D01*
X258784195Y-163254266D02*
X258831814Y-163159028D01*
X258831814Y-163159028D02*
X258879433Y-163111409D01*
X258879433Y-163111409D02*
X258974671Y-163063790D01*
X258974671Y-163063790D02*
X259165147Y-163016171D01*
X259165147Y-163016171D02*
X259260385Y-162968552D01*
X259260385Y-162968552D02*
X259308004Y-162920933D01*
X259308004Y-162920933D02*
X259355623Y-162825695D01*
X259355623Y-162825695D02*
X259355623Y-162730457D01*
X259355623Y-162730457D02*
X259308004Y-162635219D01*
X259308004Y-162635219D02*
X259260385Y-162587600D01*
X259260385Y-162587600D02*
X259165147Y-162539980D01*
X259165147Y-162539980D02*
X258927052Y-162539980D01*
X258927052Y-162539980D02*
X258784195Y-162587600D01*
X258450861Y-162539980D02*
X258212766Y-163539980D01*
X258212766Y-163539980D02*
X258022290Y-162825695D01*
X258022290Y-162825695D02*
X257831814Y-163539980D01*
X257831814Y-163539980D02*
X257593719Y-162539980D01*
X257308004Y-162539980D02*
X256688957Y-162539980D01*
X256688957Y-162539980D02*
X257022290Y-162920933D01*
X257022290Y-162920933D02*
X256879433Y-162920933D01*
X256879433Y-162920933D02*
X256784195Y-162968552D01*
X256784195Y-162968552D02*
X256736576Y-163016171D01*
X256736576Y-163016171D02*
X256688957Y-163111409D01*
X256688957Y-163111409D02*
X256688957Y-163349504D01*
X256688957Y-163349504D02*
X256736576Y-163444742D01*
X256736576Y-163444742D02*
X256784195Y-163492361D01*
X256784195Y-163492361D02*
X256879433Y-163539980D01*
X256879433Y-163539980D02*
X257165147Y-163539980D01*
X257165147Y-163539980D02*
X257260385Y-163492361D01*
X257260385Y-163492361D02*
X257308004Y-163444742D01*
X255831814Y-162539980D02*
X256022290Y-162539980D01*
X256022290Y-162539980D02*
X256117528Y-162587600D01*
X256117528Y-162587600D02*
X256165147Y-162635219D01*
X256165147Y-162635219D02*
X256260385Y-162778076D01*
X256260385Y-162778076D02*
X256308004Y-162968552D01*
X256308004Y-162968552D02*
X256308004Y-163349504D01*
X256308004Y-163349504D02*
X256260385Y-163444742D01*
X256260385Y-163444742D02*
X256212766Y-163492361D01*
X256212766Y-163492361D02*
X256117528Y-163539980D01*
X256117528Y-163539980D02*
X255927052Y-163539980D01*
X255927052Y-163539980D02*
X255831814Y-163492361D01*
X255831814Y-163492361D02*
X255784195Y-163444742D01*
X255784195Y-163444742D02*
X255736576Y-163349504D01*
X255736576Y-163349504D02*
X255736576Y-163111409D01*
X255736576Y-163111409D02*
X255784195Y-163016171D01*
X255784195Y-163016171D02*
X255831814Y-162968552D01*
X255831814Y-162968552D02*
X255927052Y-162920933D01*
X255927052Y-162920933D02*
X256117528Y-162920933D01*
X256117528Y-162920933D02*
X256212766Y-162968552D01*
X256212766Y-162968552D02*
X256260385Y-163016171D01*
X256260385Y-163016171D02*
X256308004Y-163111409D01*
%TO.C,SW10*%
X130263623Y-80571361D02*
X130120766Y-80618980D01*
X130120766Y-80618980D02*
X129882671Y-80618980D01*
X129882671Y-80618980D02*
X129787433Y-80571361D01*
X129787433Y-80571361D02*
X129739814Y-80523742D01*
X129739814Y-80523742D02*
X129692195Y-80428504D01*
X129692195Y-80428504D02*
X129692195Y-80333266D01*
X129692195Y-80333266D02*
X129739814Y-80238028D01*
X129739814Y-80238028D02*
X129787433Y-80190409D01*
X129787433Y-80190409D02*
X129882671Y-80142790D01*
X129882671Y-80142790D02*
X130073147Y-80095171D01*
X130073147Y-80095171D02*
X130168385Y-80047552D01*
X130168385Y-80047552D02*
X130216004Y-79999933D01*
X130216004Y-79999933D02*
X130263623Y-79904695D01*
X130263623Y-79904695D02*
X130263623Y-79809457D01*
X130263623Y-79809457D02*
X130216004Y-79714219D01*
X130216004Y-79714219D02*
X130168385Y-79666600D01*
X130168385Y-79666600D02*
X130073147Y-79618980D01*
X130073147Y-79618980D02*
X129835052Y-79618980D01*
X129835052Y-79618980D02*
X129692195Y-79666600D01*
X129358861Y-79618980D02*
X129120766Y-80618980D01*
X129120766Y-80618980D02*
X128930290Y-79904695D01*
X128930290Y-79904695D02*
X128739814Y-80618980D01*
X128739814Y-80618980D02*
X128501719Y-79618980D01*
X127596957Y-80618980D02*
X128168385Y-80618980D01*
X127882671Y-80618980D02*
X127882671Y-79618980D01*
X127882671Y-79618980D02*
X127977909Y-79761838D01*
X127977909Y-79761838D02*
X128073147Y-79857076D01*
X128073147Y-79857076D02*
X128168385Y-79904695D01*
X126977909Y-79618980D02*
X126882671Y-79618980D01*
X126882671Y-79618980D02*
X126787433Y-79666600D01*
X126787433Y-79666600D02*
X126739814Y-79714219D01*
X126739814Y-79714219D02*
X126692195Y-79809457D01*
X126692195Y-79809457D02*
X126644576Y-79999933D01*
X126644576Y-79999933D02*
X126644576Y-80238028D01*
X126644576Y-80238028D02*
X126692195Y-80428504D01*
X126692195Y-80428504D02*
X126739814Y-80523742D01*
X126739814Y-80523742D02*
X126787433Y-80571361D01*
X126787433Y-80571361D02*
X126882671Y-80618980D01*
X126882671Y-80618980D02*
X126977909Y-80618980D01*
X126977909Y-80618980D02*
X127073147Y-80571361D01*
X127073147Y-80571361D02*
X127120766Y-80523742D01*
X127120766Y-80523742D02*
X127168385Y-80428504D01*
X127168385Y-80428504D02*
X127216004Y-80238028D01*
X127216004Y-80238028D02*
X127216004Y-79999933D01*
X127216004Y-79999933D02*
X127168385Y-79809457D01*
X127168385Y-79809457D02*
X127120766Y-79714219D01*
X127120766Y-79714219D02*
X127073147Y-79666600D01*
X127073147Y-79666600D02*
X126977909Y-79618980D01*
%TO.C,SW30*%
X159910623Y-163491361D02*
X159767766Y-163538980D01*
X159767766Y-163538980D02*
X159529671Y-163538980D01*
X159529671Y-163538980D02*
X159434433Y-163491361D01*
X159434433Y-163491361D02*
X159386814Y-163443742D01*
X159386814Y-163443742D02*
X159339195Y-163348504D01*
X159339195Y-163348504D02*
X159339195Y-163253266D01*
X159339195Y-163253266D02*
X159386814Y-163158028D01*
X159386814Y-163158028D02*
X159434433Y-163110409D01*
X159434433Y-163110409D02*
X159529671Y-163062790D01*
X159529671Y-163062790D02*
X159720147Y-163015171D01*
X159720147Y-163015171D02*
X159815385Y-162967552D01*
X159815385Y-162967552D02*
X159863004Y-162919933D01*
X159863004Y-162919933D02*
X159910623Y-162824695D01*
X159910623Y-162824695D02*
X159910623Y-162729457D01*
X159910623Y-162729457D02*
X159863004Y-162634219D01*
X159863004Y-162634219D02*
X159815385Y-162586600D01*
X159815385Y-162586600D02*
X159720147Y-162538980D01*
X159720147Y-162538980D02*
X159482052Y-162538980D01*
X159482052Y-162538980D02*
X159339195Y-162586600D01*
X159005861Y-162538980D02*
X158767766Y-163538980D01*
X158767766Y-163538980D02*
X158577290Y-162824695D01*
X158577290Y-162824695D02*
X158386814Y-163538980D01*
X158386814Y-163538980D02*
X158148719Y-162538980D01*
X157863004Y-162538980D02*
X157243957Y-162538980D01*
X157243957Y-162538980D02*
X157577290Y-162919933D01*
X157577290Y-162919933D02*
X157434433Y-162919933D01*
X157434433Y-162919933D02*
X157339195Y-162967552D01*
X157339195Y-162967552D02*
X157291576Y-163015171D01*
X157291576Y-163015171D02*
X157243957Y-163110409D01*
X157243957Y-163110409D02*
X157243957Y-163348504D01*
X157243957Y-163348504D02*
X157291576Y-163443742D01*
X157291576Y-163443742D02*
X157339195Y-163491361D01*
X157339195Y-163491361D02*
X157434433Y-163538980D01*
X157434433Y-163538980D02*
X157720147Y-163538980D01*
X157720147Y-163538980D02*
X157815385Y-163491361D01*
X157815385Y-163491361D02*
X157863004Y-163443742D01*
X156624909Y-162538980D02*
X156529671Y-162538980D01*
X156529671Y-162538980D02*
X156434433Y-162586600D01*
X156434433Y-162586600D02*
X156386814Y-162634219D01*
X156386814Y-162634219D02*
X156339195Y-162729457D01*
X156339195Y-162729457D02*
X156291576Y-162919933D01*
X156291576Y-162919933D02*
X156291576Y-163158028D01*
X156291576Y-163158028D02*
X156339195Y-163348504D01*
X156339195Y-163348504D02*
X156386814Y-163443742D01*
X156386814Y-163443742D02*
X156434433Y-163491361D01*
X156434433Y-163491361D02*
X156529671Y-163538980D01*
X156529671Y-163538980D02*
X156624909Y-163538980D01*
X156624909Y-163538980D02*
X156720147Y-163491361D01*
X156720147Y-163491361D02*
X156767766Y-163443742D01*
X156767766Y-163443742D02*
X156815385Y-163348504D01*
X156815385Y-163348504D02*
X156863004Y-163158028D01*
X156863004Y-163158028D02*
X156863004Y-162919933D01*
X156863004Y-162919933D02*
X156815385Y-162729457D01*
X156815385Y-162729457D02*
X156767766Y-162634219D01*
X156767766Y-162634219D02*
X156720147Y-162586600D01*
X156720147Y-162586600D02*
X156624909Y-162538980D01*
%TO.C,SW17*%
X343930623Y-43567361D02*
X343787766Y-43614980D01*
X343787766Y-43614980D02*
X343549671Y-43614980D01*
X343549671Y-43614980D02*
X343454433Y-43567361D01*
X343454433Y-43567361D02*
X343406814Y-43519742D01*
X343406814Y-43519742D02*
X343359195Y-43424504D01*
X343359195Y-43424504D02*
X343359195Y-43329266D01*
X343359195Y-43329266D02*
X343406814Y-43234028D01*
X343406814Y-43234028D02*
X343454433Y-43186409D01*
X343454433Y-43186409D02*
X343549671Y-43138790D01*
X343549671Y-43138790D02*
X343740147Y-43091171D01*
X343740147Y-43091171D02*
X343835385Y-43043552D01*
X343835385Y-43043552D02*
X343883004Y-42995933D01*
X343883004Y-42995933D02*
X343930623Y-42900695D01*
X343930623Y-42900695D02*
X343930623Y-42805457D01*
X343930623Y-42805457D02*
X343883004Y-42710219D01*
X343883004Y-42710219D02*
X343835385Y-42662600D01*
X343835385Y-42662600D02*
X343740147Y-42614980D01*
X343740147Y-42614980D02*
X343502052Y-42614980D01*
X343502052Y-42614980D02*
X343359195Y-42662600D01*
X343025861Y-42614980D02*
X342787766Y-43614980D01*
X342787766Y-43614980D02*
X342597290Y-42900695D01*
X342597290Y-42900695D02*
X342406814Y-43614980D01*
X342406814Y-43614980D02*
X342168719Y-42614980D01*
X341263957Y-43614980D02*
X341835385Y-43614980D01*
X341549671Y-43614980D02*
X341549671Y-42614980D01*
X341549671Y-42614980D02*
X341644909Y-42757838D01*
X341644909Y-42757838D02*
X341740147Y-42853076D01*
X341740147Y-42853076D02*
X341835385Y-42900695D01*
X340930623Y-42614980D02*
X340263957Y-42614980D01*
X340263957Y-42614980D02*
X340692528Y-43614980D01*
%TO.C,SW21*%
X289057623Y-80197361D02*
X288914766Y-80244980D01*
X288914766Y-80244980D02*
X288676671Y-80244980D01*
X288676671Y-80244980D02*
X288581433Y-80197361D01*
X288581433Y-80197361D02*
X288533814Y-80149742D01*
X288533814Y-80149742D02*
X288486195Y-80054504D01*
X288486195Y-80054504D02*
X288486195Y-79959266D01*
X288486195Y-79959266D02*
X288533814Y-79864028D01*
X288533814Y-79864028D02*
X288581433Y-79816409D01*
X288581433Y-79816409D02*
X288676671Y-79768790D01*
X288676671Y-79768790D02*
X288867147Y-79721171D01*
X288867147Y-79721171D02*
X288962385Y-79673552D01*
X288962385Y-79673552D02*
X289010004Y-79625933D01*
X289010004Y-79625933D02*
X289057623Y-79530695D01*
X289057623Y-79530695D02*
X289057623Y-79435457D01*
X289057623Y-79435457D02*
X289010004Y-79340219D01*
X289010004Y-79340219D02*
X288962385Y-79292600D01*
X288962385Y-79292600D02*
X288867147Y-79244980D01*
X288867147Y-79244980D02*
X288629052Y-79244980D01*
X288629052Y-79244980D02*
X288486195Y-79292600D01*
X288152861Y-79244980D02*
X287914766Y-80244980D01*
X287914766Y-80244980D02*
X287724290Y-79530695D01*
X287724290Y-79530695D02*
X287533814Y-80244980D01*
X287533814Y-80244980D02*
X287295719Y-79244980D01*
X286962385Y-79340219D02*
X286914766Y-79292600D01*
X286914766Y-79292600D02*
X286819528Y-79244980D01*
X286819528Y-79244980D02*
X286581433Y-79244980D01*
X286581433Y-79244980D02*
X286486195Y-79292600D01*
X286486195Y-79292600D02*
X286438576Y-79340219D01*
X286438576Y-79340219D02*
X286390957Y-79435457D01*
X286390957Y-79435457D02*
X286390957Y-79530695D01*
X286390957Y-79530695D02*
X286438576Y-79673552D01*
X286438576Y-79673552D02*
X287010004Y-80244980D01*
X287010004Y-80244980D02*
X286390957Y-80244980D01*
X285438576Y-80244980D02*
X286010004Y-80244980D01*
X285724290Y-80244980D02*
X285724290Y-79244980D01*
X285724290Y-79244980D02*
X285819528Y-79387838D01*
X285819528Y-79387838D02*
X285914766Y-79483076D01*
X285914766Y-79483076D02*
X286010004Y-79530695D01*
%TO.C,SW6*%
X74859432Y-71534361D02*
X74716575Y-71581980D01*
X74716575Y-71581980D02*
X74478480Y-71581980D01*
X74478480Y-71581980D02*
X74383242Y-71534361D01*
X74383242Y-71534361D02*
X74335623Y-71486742D01*
X74335623Y-71486742D02*
X74288004Y-71391504D01*
X74288004Y-71391504D02*
X74288004Y-71296266D01*
X74288004Y-71296266D02*
X74335623Y-71201028D01*
X74335623Y-71201028D02*
X74383242Y-71153409D01*
X74383242Y-71153409D02*
X74478480Y-71105790D01*
X74478480Y-71105790D02*
X74668956Y-71058171D01*
X74668956Y-71058171D02*
X74764194Y-71010552D01*
X74764194Y-71010552D02*
X74811813Y-70962933D01*
X74811813Y-70962933D02*
X74859432Y-70867695D01*
X74859432Y-70867695D02*
X74859432Y-70772457D01*
X74859432Y-70772457D02*
X74811813Y-70677219D01*
X74811813Y-70677219D02*
X74764194Y-70629600D01*
X74764194Y-70629600D02*
X74668956Y-70581980D01*
X74668956Y-70581980D02*
X74430861Y-70581980D01*
X74430861Y-70581980D02*
X74288004Y-70629600D01*
X73954670Y-70581980D02*
X73716575Y-71581980D01*
X73716575Y-71581980D02*
X73526099Y-70867695D01*
X73526099Y-70867695D02*
X73335623Y-71581980D01*
X73335623Y-71581980D02*
X73097528Y-70581980D01*
X72288004Y-70581980D02*
X72478480Y-70581980D01*
X72478480Y-70581980D02*
X72573718Y-70629600D01*
X72573718Y-70629600D02*
X72621337Y-70677219D01*
X72621337Y-70677219D02*
X72716575Y-70820076D01*
X72716575Y-70820076D02*
X72764194Y-71010552D01*
X72764194Y-71010552D02*
X72764194Y-71391504D01*
X72764194Y-71391504D02*
X72716575Y-71486742D01*
X72716575Y-71486742D02*
X72668956Y-71534361D01*
X72668956Y-71534361D02*
X72573718Y-71581980D01*
X72573718Y-71581980D02*
X72383242Y-71581980D01*
X72383242Y-71581980D02*
X72288004Y-71534361D01*
X72288004Y-71534361D02*
X72240385Y-71486742D01*
X72240385Y-71486742D02*
X72192766Y-71391504D01*
X72192766Y-71391504D02*
X72192766Y-71153409D01*
X72192766Y-71153409D02*
X72240385Y-71058171D01*
X72240385Y-71058171D02*
X72288004Y-71010552D01*
X72288004Y-71010552D02*
X72383242Y-70962933D01*
X72383242Y-70962933D02*
X72573718Y-70962933D01*
X72573718Y-70962933D02*
X72668956Y-71010552D01*
X72668956Y-71010552D02*
X72716575Y-71058171D01*
X72716575Y-71058171D02*
X72764194Y-71153409D01*
%TO.C,SW4*%
X49579432Y-87837361D02*
X49436575Y-87884980D01*
X49436575Y-87884980D02*
X49198480Y-87884980D01*
X49198480Y-87884980D02*
X49103242Y-87837361D01*
X49103242Y-87837361D02*
X49055623Y-87789742D01*
X49055623Y-87789742D02*
X49008004Y-87694504D01*
X49008004Y-87694504D02*
X49008004Y-87599266D01*
X49008004Y-87599266D02*
X49055623Y-87504028D01*
X49055623Y-87504028D02*
X49103242Y-87456409D01*
X49103242Y-87456409D02*
X49198480Y-87408790D01*
X49198480Y-87408790D02*
X49388956Y-87361171D01*
X49388956Y-87361171D02*
X49484194Y-87313552D01*
X49484194Y-87313552D02*
X49531813Y-87265933D01*
X49531813Y-87265933D02*
X49579432Y-87170695D01*
X49579432Y-87170695D02*
X49579432Y-87075457D01*
X49579432Y-87075457D02*
X49531813Y-86980219D01*
X49531813Y-86980219D02*
X49484194Y-86932600D01*
X49484194Y-86932600D02*
X49388956Y-86884980D01*
X49388956Y-86884980D02*
X49150861Y-86884980D01*
X49150861Y-86884980D02*
X49008004Y-86932600D01*
X48674670Y-86884980D02*
X48436575Y-87884980D01*
X48436575Y-87884980D02*
X48246099Y-87170695D01*
X48246099Y-87170695D02*
X48055623Y-87884980D01*
X48055623Y-87884980D02*
X47817528Y-86884980D01*
X47008004Y-87218314D02*
X47008004Y-87884980D01*
X47246099Y-86837361D02*
X47484194Y-87551647D01*
X47484194Y-87551647D02*
X46865147Y-87551647D01*
%TO.C,SW14*%
X315575623Y-40592361D02*
X315432766Y-40639980D01*
X315432766Y-40639980D02*
X315194671Y-40639980D01*
X315194671Y-40639980D02*
X315099433Y-40592361D01*
X315099433Y-40592361D02*
X315051814Y-40544742D01*
X315051814Y-40544742D02*
X315004195Y-40449504D01*
X315004195Y-40449504D02*
X315004195Y-40354266D01*
X315004195Y-40354266D02*
X315051814Y-40259028D01*
X315051814Y-40259028D02*
X315099433Y-40211409D01*
X315099433Y-40211409D02*
X315194671Y-40163790D01*
X315194671Y-40163790D02*
X315385147Y-40116171D01*
X315385147Y-40116171D02*
X315480385Y-40068552D01*
X315480385Y-40068552D02*
X315528004Y-40020933D01*
X315528004Y-40020933D02*
X315575623Y-39925695D01*
X315575623Y-39925695D02*
X315575623Y-39830457D01*
X315575623Y-39830457D02*
X315528004Y-39735219D01*
X315528004Y-39735219D02*
X315480385Y-39687600D01*
X315480385Y-39687600D02*
X315385147Y-39639980D01*
X315385147Y-39639980D02*
X315147052Y-39639980D01*
X315147052Y-39639980D02*
X315004195Y-39687600D01*
X314670861Y-39639980D02*
X314432766Y-40639980D01*
X314432766Y-40639980D02*
X314242290Y-39925695D01*
X314242290Y-39925695D02*
X314051814Y-40639980D01*
X314051814Y-40639980D02*
X313813719Y-39639980D01*
X312908957Y-40639980D02*
X313480385Y-40639980D01*
X313194671Y-40639980D02*
X313194671Y-39639980D01*
X313194671Y-39639980D02*
X313289909Y-39782838D01*
X313289909Y-39782838D02*
X313385147Y-39878076D01*
X313385147Y-39878076D02*
X313480385Y-39925695D01*
X312051814Y-39973314D02*
X312051814Y-40639980D01*
X312289909Y-39592361D02*
X312528004Y-40306647D01*
X312528004Y-40306647D02*
X311908957Y-40306647D01*
%TO.C,SW25*%
X352456276Y-73057820D02*
X352456276Y-73857820D01*
X352456276Y-73057820D02*
X352456276Y-69967820D01*
D12*
X352456276Y-69967820D02*
X348865422Y-69967820D01*
D11*
X350456276Y-75857820D02*
X343056276Y-75857820D01*
X343056276Y-75857820D02*
X341506276Y-75857820D01*
X342006276Y-71807820D02*
X346571100Y-71807820D01*
X341511100Y-72887600D02*
X341506276Y-72307820D01*
X341506276Y-75857820D02*
X341511100Y-72887600D01*
X350456276Y-75857820D02*
G75*
G03*
X352456276Y-73857820I8J1999992D01*
G01*
X346571100Y-71807819D02*
G75*
G03*
X348865421Y-69967820I866J2349331D01*
G01*
X342006275Y-71807776D02*
G75*
G03*
X341506276Y-72307820I25J-500024D01*
G01*
%TO.C,SW40*%
X313225276Y-134187820D02*
X313225276Y-134987820D01*
X313225276Y-134187820D02*
X313225276Y-131097820D01*
D12*
X313225276Y-131097820D02*
X309634422Y-131097820D01*
D11*
X311225276Y-136987820D02*
X303825276Y-136987820D01*
X303825276Y-136987820D02*
X302275276Y-136987820D01*
X302775276Y-132937820D02*
X307340100Y-132937820D01*
X302280100Y-134017600D02*
X302275276Y-133437820D01*
X302275276Y-136987820D02*
X302280100Y-134017600D01*
X311225276Y-136987820D02*
G75*
G03*
X313225276Y-134987820I8J1999992D01*
G01*
X307340100Y-132937819D02*
G75*
G03*
X309634421Y-131097820I866J2349331D01*
G01*
X302775275Y-132937776D02*
G75*
G03*
X302275276Y-133437820I25J-500024D01*
G01*
%TO.C,SW8*%
X112217276Y-70688820D02*
X112217276Y-71488820D01*
X112217276Y-70688820D02*
X112217276Y-67598820D01*
D12*
X112217276Y-67598820D02*
X108626422Y-67598820D01*
D11*
X110217276Y-73488820D02*
X102817276Y-73488820D01*
X102817276Y-73488820D02*
X101267276Y-73488820D01*
X101767276Y-69438820D02*
X106332100Y-69438820D01*
X101272100Y-70518600D02*
X101267276Y-69938820D01*
X101267276Y-73488820D02*
X101272100Y-70518600D01*
X110217276Y-73488820D02*
G75*
G03*
X112217276Y-71488820I8J1999992D01*
G01*
X106332100Y-69438819D02*
G75*
G03*
X108626421Y-67598820I866J2349331D01*
G01*
X101767275Y-69438776D02*
G75*
G03*
X101267276Y-69938820I25J-500024D01*
G01*
%TO.C,SW22*%
X324101276Y-70082820D02*
X324101276Y-70882820D01*
X324101276Y-70082820D02*
X324101276Y-66992820D01*
D12*
X324101276Y-66992820D02*
X320510422Y-66992820D01*
D11*
X322101276Y-72882820D02*
X314701276Y-72882820D01*
X314701276Y-72882820D02*
X313151276Y-72882820D01*
X313651276Y-68832820D02*
X318216100Y-68832820D01*
X313156100Y-69912600D02*
X313151276Y-69332820D01*
X313151276Y-72882820D02*
X313156100Y-69912600D01*
X322101276Y-72882820D02*
G75*
G03*
X324101276Y-70882820I8J1999992D01*
G01*
X318216100Y-68832819D02*
G75*
G03*
X320510421Y-66992820I866J2349331D01*
G01*
X313651275Y-68832776D02*
G75*
G03*
X313151276Y-69332820I25J-500024D01*
G01*
%TO.C,SW26*%
X378679276Y-89093820D02*
X378679276Y-89893820D01*
X378679276Y-89093820D02*
X378679276Y-86003820D01*
D12*
X378679276Y-86003820D02*
X375088422Y-86003820D01*
D11*
X376679276Y-91893820D02*
X369279276Y-91893820D01*
X369279276Y-91893820D02*
X367729276Y-91893820D01*
X368229276Y-87843820D02*
X372794100Y-87843820D01*
X367734100Y-88923600D02*
X367729276Y-88343820D01*
X367729276Y-91893820D02*
X367734100Y-88923600D01*
X376679276Y-91893820D02*
G75*
G03*
X378679276Y-89893820I8J1999992D01*
G01*
X372794100Y-87843819D02*
G75*
G03*
X375088421Y-86003820I866J2349331D01*
G01*
X368229275Y-87843776D02*
G75*
G03*
X367729276Y-88343820I25J-500024D01*
G01*
%TO.C,SW3*%
X218521276Y-82451820D02*
X218521276Y-83251820D01*
X218521276Y-82451820D02*
X218521276Y-79361820D01*
D12*
X218521276Y-79361820D02*
X214930422Y-79361820D01*
D11*
X216521276Y-85251820D02*
X209121276Y-85251820D01*
X209121276Y-85251820D02*
X207571276Y-85251820D01*
X208071276Y-81201820D02*
X212636100Y-81201820D01*
X207576100Y-82281600D02*
X207571276Y-81701820D01*
X207571276Y-85251820D02*
X207576100Y-82281600D01*
X216521276Y-85251820D02*
G75*
G03*
X218521276Y-83251820I8J1999992D01*
G01*
X212636100Y-81201819D02*
G75*
G03*
X214930421Y-79361820I866J2349331D01*
G01*
X208071275Y-81201776D02*
G75*
G03*
X207571276Y-81701820I25J-500024D01*
G01*
%TO.C,SW35*%
X290568276Y-118417820D02*
X290568276Y-119217820D01*
X290568276Y-118417820D02*
X290568276Y-115327820D01*
D12*
X290568276Y-115327820D02*
X286977422Y-115327820D01*
D11*
X288568276Y-121217820D02*
X281168276Y-121217820D01*
X281168276Y-121217820D02*
X279618276Y-121217820D01*
X280118276Y-117167820D02*
X284683100Y-117167820D01*
X279623100Y-118247600D02*
X279618276Y-117667820D01*
X279618276Y-121217820D02*
X279623100Y-118247600D01*
X288568276Y-121217820D02*
G75*
G03*
X290568276Y-119217820I8J1999992D01*
G01*
X284683100Y-117167819D02*
G75*
G03*
X286977421Y-115327820I866J2349331D01*
G01*
X280118275Y-117167776D02*
G75*
G03*
X279618276Y-117667820I25J-500024D01*
G01*
%TO.C,SW19*%
X378679276Y-61483820D02*
X378679276Y-62283820D01*
X378679276Y-61483820D02*
X378679276Y-58393820D01*
D12*
X378679276Y-58393820D02*
X375088422Y-58393820D01*
D11*
X376679276Y-64283820D02*
X369279276Y-64283820D01*
X369279276Y-64283820D02*
X367729276Y-64283820D01*
X368229276Y-60233820D02*
X372794100Y-60233820D01*
X367734100Y-61313600D02*
X367729276Y-60733820D01*
X367729276Y-64283820D02*
X367734100Y-61313600D01*
X376679276Y-64283820D02*
G75*
G03*
X378679276Y-62283820I8J1999992D01*
G01*
X372794100Y-60233819D02*
G75*
G03*
X375088421Y-58393820I866J2349331D01*
G01*
X368229275Y-60233776D02*
G75*
G03*
X367729276Y-60733820I25J-500024D01*
G01*
%TO.C,SW12*%
X297583276Y-54468820D02*
X297583276Y-55268820D01*
X297583276Y-54468820D02*
X297583276Y-51378820D01*
D12*
X297583276Y-51378820D02*
X293992422Y-51378820D01*
D11*
X295583276Y-57268820D02*
X288183276Y-57268820D01*
X288183276Y-57268820D02*
X286633276Y-57268820D01*
X287133276Y-53218820D02*
X291698100Y-53218820D01*
X286638100Y-54298600D02*
X286633276Y-53718820D01*
X286633276Y-57268820D02*
X286638100Y-54298600D01*
X295583276Y-57268820D02*
G75*
G03*
X297583276Y-55268820I8J1999992D01*
G01*
X291698100Y-53218819D02*
G75*
G03*
X293992421Y-51378820I866J2349331D01*
G01*
X287133275Y-53218776D02*
G75*
G03*
X286633276Y-53718820I25J-500024D01*
G01*
%TO.C,SW38*%
X290568276Y-149602820D02*
X290568276Y-150402820D01*
X290568276Y-149602820D02*
X290568276Y-146512820D01*
D12*
X290568276Y-146512820D02*
X286977422Y-146512820D01*
D11*
X288568276Y-152402820D02*
X281168276Y-152402820D01*
X281168276Y-152402820D02*
X279618276Y-152402820D01*
X280118276Y-148352820D02*
X284683100Y-148352820D01*
X279623100Y-149432600D02*
X279618276Y-148852820D01*
X279618276Y-152402820D02*
X279623100Y-149432600D01*
X288568276Y-152402820D02*
G75*
G03*
X290568276Y-150402820I8J1999992D01*
G01*
X284683100Y-148352819D02*
G75*
G03*
X286977421Y-146512820I866J2349331D01*
G01*
X280118275Y-148352776D02*
G75*
G03*
X279618276Y-148852820I25J-500024D01*
G01*
%TO.C,SW28*%
X145745176Y-149580220D02*
X145745176Y-150380220D01*
X145745176Y-149580220D02*
X145745176Y-146490220D01*
D12*
X145745176Y-146490220D02*
X142154322Y-146490220D01*
D11*
X143745176Y-152380220D02*
X136345176Y-152380220D01*
X136345176Y-152380220D02*
X134795176Y-152380220D01*
X135295176Y-148330220D02*
X139860000Y-148330220D01*
X134800000Y-149410000D02*
X134795176Y-148830220D01*
X134795176Y-152380220D02*
X134800000Y-149410000D01*
X143745176Y-152380220D02*
G75*
G03*
X145745176Y-150380220I8J1999992D01*
G01*
X139860000Y-148330219D02*
G75*
G03*
X142154321Y-146490220I866J2349331D01*
G01*
X135295175Y-148330176D02*
G75*
G03*
X134795176Y-148830220I25J-500024D01*
G01*
%TO.C,SW32*%
X267881276Y-134187820D02*
X267881276Y-134987820D01*
X267881276Y-134187820D02*
X267881276Y-131097820D01*
D12*
X267881276Y-131097820D02*
X264290422Y-131097820D01*
D11*
X265881276Y-136987820D02*
X258481276Y-136987820D01*
X258481276Y-136987820D02*
X256931276Y-136987820D01*
X257431276Y-132937820D02*
X261996100Y-132937820D01*
X256936100Y-134017600D02*
X256931276Y-133437820D01*
X256931276Y-136987820D02*
X256936100Y-134017600D01*
X265881276Y-136987820D02*
G75*
G03*
X267881276Y-134987820I8J1999992D01*
G01*
X261996100Y-132937819D02*
G75*
G03*
X264290421Y-131097820I866J2349331D01*
G01*
X257431275Y-132937776D02*
G75*
G03*
X256931276Y-133437820I25J-500024D01*
G01*
%TO.C,SW36*%
X267881276Y-165372820D02*
X267881276Y-166172820D01*
X267881276Y-165372820D02*
X267881276Y-162282820D01*
D12*
X267881276Y-162282820D02*
X264290422Y-162282820D01*
D11*
X265881276Y-168172820D02*
X258481276Y-168172820D01*
X258481276Y-168172820D02*
X256931276Y-168172820D01*
X257431276Y-164122820D02*
X261996100Y-164122820D01*
X256936100Y-165202600D02*
X256931276Y-164622820D01*
X256931276Y-168172820D02*
X256936100Y-165202600D01*
X265881276Y-168172820D02*
G75*
G03*
X267881276Y-166172820I8J1999992D01*
G01*
X261996100Y-164122819D02*
G75*
G03*
X264290421Y-162282820I866J2349331D01*
G01*
X257431275Y-164122776D02*
G75*
G03*
X256931276Y-164622820I25J-500024D01*
G01*
%TO.C,SW10*%
X138789276Y-82451820D02*
X138789276Y-83251820D01*
X138789276Y-82451820D02*
X138789276Y-79361820D01*
D12*
X138789276Y-79361820D02*
X135198422Y-79361820D01*
D11*
X136789276Y-85251820D02*
X129389276Y-85251820D01*
X129389276Y-85251820D02*
X127839276Y-85251820D01*
X128339276Y-81201820D02*
X132904100Y-81201820D01*
X127844100Y-82281600D02*
X127839276Y-81701820D01*
X127839276Y-85251820D02*
X127844100Y-82281600D01*
X136789276Y-85251820D02*
G75*
G03*
X138789276Y-83251820I8J1999992D01*
G01*
X132904100Y-81201819D02*
G75*
G03*
X135198421Y-79361820I866J2349331D01*
G01*
X128339275Y-81201776D02*
G75*
G03*
X127839276Y-81701820I25J-500024D01*
G01*
%TO.C,SW30*%
X168436276Y-165371820D02*
X168436276Y-166171820D01*
X168436276Y-165371820D02*
X168436276Y-162281820D01*
D12*
X168436276Y-162281820D02*
X164845422Y-162281820D01*
D11*
X166436276Y-168171820D02*
X159036276Y-168171820D01*
X159036276Y-168171820D02*
X157486276Y-168171820D01*
X157986276Y-164121820D02*
X162551100Y-164121820D01*
X157491100Y-165201600D02*
X157486276Y-164621820D01*
X157486276Y-168171820D02*
X157491100Y-165201600D01*
X166436276Y-168171820D02*
G75*
G03*
X168436276Y-166171820I8J1999992D01*
G01*
X162551100Y-164121819D02*
G75*
G03*
X164845421Y-162281820I866J2349331D01*
G01*
X157986275Y-164121776D02*
G75*
G03*
X157486276Y-164621820I25J-500024D01*
G01*
%TO.C,SW17*%
X352456276Y-45447820D02*
X352456276Y-46247820D01*
X352456276Y-45447820D02*
X352456276Y-42357820D01*
D12*
X352456276Y-42357820D02*
X348865422Y-42357820D01*
D11*
X350456276Y-48247820D02*
X343056276Y-48247820D01*
X343056276Y-48247820D02*
X341506276Y-48247820D01*
X342006276Y-44197820D02*
X346571100Y-44197820D01*
X341511100Y-45277600D02*
X341506276Y-44697820D01*
X341506276Y-48247820D02*
X341511100Y-45277600D01*
X350456276Y-48247820D02*
G75*
G03*
X352456276Y-46247820I8J1999992D01*
G01*
X346571100Y-44197819D02*
G75*
G03*
X348865421Y-42357820I866J2349331D01*
G01*
X342006275Y-44197776D02*
G75*
G03*
X341506276Y-44697820I25J-500024D01*
G01*
%TO.C,SW21*%
X297583276Y-82077820D02*
X297583276Y-82877820D01*
X297583276Y-82077820D02*
X297583276Y-78987820D01*
D12*
X297583276Y-78987820D02*
X293992422Y-78987820D01*
D11*
X295583276Y-84877820D02*
X288183276Y-84877820D01*
X288183276Y-84877820D02*
X286633276Y-84877820D01*
X287133276Y-80827820D02*
X291698100Y-80827820D01*
X286638100Y-81907600D02*
X286633276Y-81327820D01*
X286633276Y-84877820D02*
X286638100Y-81907600D01*
X295583276Y-84877820D02*
G75*
G03*
X297583276Y-82877820I8J1999992D01*
G01*
X291698100Y-80827819D02*
G75*
G03*
X293992421Y-78987820I866J2349331D01*
G01*
X287133275Y-80827776D02*
G75*
G03*
X286633276Y-81327820I25J-500024D01*
G01*
%TO.C,SW6*%
X83861276Y-73414820D02*
X83861276Y-74214820D01*
X83861276Y-73414820D02*
X83861276Y-70324820D01*
D12*
X83861276Y-70324820D02*
X80270422Y-70324820D01*
D11*
X81861276Y-76214820D02*
X74461276Y-76214820D01*
X74461276Y-76214820D02*
X72911276Y-76214820D01*
X73411276Y-72164820D02*
X77976100Y-72164820D01*
X72916100Y-73244600D02*
X72911276Y-72664820D01*
X72911276Y-76214820D02*
X72916100Y-73244600D01*
X81861276Y-76214820D02*
G75*
G03*
X83861276Y-74214820I8J1999992D01*
G01*
X77976100Y-72164819D02*
G75*
G03*
X80270421Y-70324820I866J2349331D01*
G01*
X73411275Y-72164776D02*
G75*
G03*
X72911276Y-72664820I25J-500024D01*
G01*
%TO.C,SW4*%
X58581276Y-89717820D02*
X58581276Y-90517820D01*
X58581276Y-89717820D02*
X58581276Y-86627820D01*
D12*
X58581276Y-86627820D02*
X54990422Y-86627820D01*
D11*
X56581276Y-92517820D02*
X49181276Y-92517820D01*
X49181276Y-92517820D02*
X47631276Y-92517820D01*
X48131276Y-88467820D02*
X52696100Y-88467820D01*
X47636100Y-89547600D02*
X47631276Y-88967820D01*
X47631276Y-92517820D02*
X47636100Y-89547600D01*
X56581276Y-92517820D02*
G75*
G03*
X58581276Y-90517820I8J1999992D01*
G01*
X52696100Y-88467819D02*
G75*
G03*
X54990421Y-86627820I866J2349331D01*
G01*
X48131275Y-88467776D02*
G75*
G03*
X47631276Y-88967820I25J-500024D01*
G01*
%TO.C,SW14*%
X324101276Y-42472820D02*
X324101276Y-43272820D01*
X324101276Y-42472820D02*
X324101276Y-39382820D01*
D12*
X324101276Y-39382820D02*
X320510422Y-39382820D01*
D11*
X322101276Y-45272820D02*
X314701276Y-45272820D01*
X314701276Y-45272820D02*
X313151276Y-45272820D01*
X313651276Y-41222820D02*
X318216100Y-41222820D01*
X313156100Y-42302600D02*
X313151276Y-41722820D01*
X313151276Y-45272820D02*
X313156100Y-42302600D01*
X322101276Y-45272820D02*
G75*
G03*
X324101276Y-43272820I8J1999992D01*
G01*
X318216100Y-41222819D02*
G75*
G03*
X320510421Y-39382820I866J2349331D01*
G01*
X313651275Y-41222776D02*
G75*
G03*
X313151276Y-41722820I25J-500024D01*
G01*
%TD*%
%LPC*%
D13*
%TO.C,@HOLE15*%
X320031100Y-158103600D03*
%TD*%
D14*
%TO.C,@HOLE1*%
X348031100Y-144103600D03*
%TD*%
D15*
%TO.C,@HOLE6*%
X50031100Y-140103600D03*
%TD*%
D13*
%TO.C,@HOLE11*%
X238031100Y-41603600D03*
%TD*%
D15*
%TO.C,@HOLE8*%
X248031100Y-68103600D03*
%TD*%
D14*
%TO.C,@HOLE0*%
X132031100Y-163103600D03*
%TD*%
D15*
%TO.C,@HOLE4*%
X332031100Y-51103600D03*
%TD*%
D14*
%TO.C,@HOLE3*%
X246031100Y-123103600D03*
%TD*%
D15*
%TO.C,@HOLE5*%
X340031100Y-155103600D03*
%TD*%
D14*
%TO.C,@HOLE10*%
X182930000Y-56050000D03*
%TD*%
D13*
%TO.C,@HOLE12*%
X52431100Y-105303600D03*
%TD*%
D15*
%TO.C,@HOLE7*%
X129031100Y-46103600D03*
%TD*%
D14*
%TO.C,@HOLE2*%
X44031100Y-151103600D03*
%TD*%
D16*
%TO.C,@HOLE14*%
X186031100Y-127903600D03*
%TD*%
D13*
%TO.C,@HOLE13*%
X93831100Y-39803600D03*
%TD*%
D15*
%TO.C,@HOLE9*%
X200031100Y-157103600D03*
%TD*%
D17*
%TO.C,J1*%
X214324000Y-29717107D03*
X206974000Y-29717107D03*
X207924000Y-29067107D03*
X208324000Y-28367107D03*
X209124000Y-28367107D03*
X209524000Y-29067107D03*
X209924000Y-28367107D03*
X210324000Y-29067107D03*
X211124000Y-29067107D03*
X211524000Y-28367107D03*
X211924000Y-29067107D03*
X212324000Y-28367107D03*
X213124000Y-28367107D03*
X213524000Y-29067107D03*
D18*
X215213999Y-24077106D03*
X214778999Y-28467106D03*
X206518999Y-28467106D03*
X206233999Y-24077106D03*
%TD*%
D19*
%TO.C,SW25*%
X351451100Y-69107600D03*
D20*
X346371100Y-69107600D03*
D19*
X341291100Y-69107600D03*
D21*
X353481100Y-71657600D03*
D14*
X350181100Y-71647600D03*
D22*
X348891100Y-63977600D03*
D14*
X343831100Y-74187600D03*
D22*
X342631100Y-66537600D03*
D21*
X340521100Y-74192600D03*
%TD*%
D19*
%TO.C,SW40*%
X312220100Y-130237600D03*
D20*
X307140100Y-130237600D03*
D19*
X302060100Y-130237600D03*
D21*
X314250100Y-132787600D03*
D14*
X310950100Y-132777600D03*
D22*
X309660100Y-125107600D03*
D14*
X304600100Y-135317600D03*
D22*
X303400100Y-127667600D03*
D21*
X301290100Y-135322600D03*
%TD*%
D19*
%TO.C,SW8*%
X111212100Y-66738600D03*
D20*
X106132100Y-66738600D03*
D19*
X101052100Y-66738600D03*
D21*
X113242100Y-69288600D03*
D14*
X109942100Y-69278600D03*
D22*
X108652100Y-61608600D03*
D14*
X103592100Y-71818600D03*
D22*
X102392100Y-64168600D03*
D21*
X100282100Y-71823600D03*
%TD*%
D19*
%TO.C,SW22*%
X323096100Y-66132600D03*
D20*
X318016100Y-66132600D03*
D19*
X312936100Y-66132600D03*
D21*
X325126100Y-68682600D03*
D14*
X321826100Y-68672600D03*
D22*
X320536100Y-61002600D03*
D14*
X315476100Y-71212600D03*
D22*
X314276100Y-63562600D03*
D21*
X312166100Y-71217600D03*
%TD*%
D19*
%TO.C,SW26*%
X377674100Y-85143600D03*
D20*
X372594100Y-85143600D03*
D19*
X367514100Y-85143600D03*
D21*
X379704100Y-87693600D03*
D14*
X376404100Y-87683600D03*
D22*
X375114100Y-80013600D03*
D14*
X370054100Y-90223600D03*
D22*
X368854100Y-82573600D03*
D21*
X366744100Y-90228600D03*
%TD*%
D19*
%TO.C,SW3*%
X217516100Y-78501600D03*
D20*
X212436100Y-78501600D03*
D19*
X207356100Y-78501600D03*
D21*
X219546100Y-81051600D03*
D14*
X216246100Y-81041600D03*
D22*
X214956100Y-73371600D03*
D14*
X209896100Y-83581600D03*
D22*
X208696100Y-75931600D03*
D21*
X206586100Y-83586600D03*
%TD*%
D19*
%TO.C,SW35*%
X289563100Y-114467600D03*
D20*
X284483100Y-114467600D03*
D19*
X279403100Y-114467600D03*
D21*
X291593100Y-117017600D03*
D14*
X288293100Y-117007600D03*
D22*
X287003100Y-109337600D03*
D14*
X281943100Y-119547600D03*
D22*
X280743100Y-111897600D03*
D21*
X278633100Y-119552600D03*
%TD*%
D19*
%TO.C,SW19*%
X377674100Y-57533600D03*
D20*
X372594100Y-57533600D03*
D19*
X367514100Y-57533600D03*
D21*
X379704100Y-60083600D03*
D14*
X376404100Y-60073600D03*
D22*
X375114100Y-52403600D03*
D14*
X370054100Y-62613600D03*
D22*
X368854100Y-54963600D03*
D21*
X366744100Y-62618600D03*
%TD*%
D19*
%TO.C,SW12*%
X296578100Y-50518600D03*
D20*
X291498100Y-50518600D03*
D19*
X286418100Y-50518600D03*
D21*
X298608100Y-53068600D03*
D14*
X295308100Y-53058600D03*
D22*
X294018100Y-45388600D03*
D14*
X288958100Y-55598600D03*
D22*
X287758100Y-47948600D03*
D21*
X285648100Y-55603600D03*
%TD*%
D19*
%TO.C,SW38*%
X289563100Y-145652600D03*
D20*
X284483100Y-145652600D03*
D19*
X279403100Y-145652600D03*
D21*
X291593100Y-148202600D03*
D14*
X288293100Y-148192600D03*
D22*
X287003100Y-140522600D03*
D14*
X281943100Y-150732600D03*
D22*
X280743100Y-143082600D03*
D21*
X278633100Y-150737600D03*
%TD*%
D19*
%TO.C,SW28*%
X144740000Y-145630000D03*
D20*
X139660000Y-145630000D03*
D19*
X134580000Y-145630000D03*
D21*
X146770000Y-148180000D03*
D14*
X143470000Y-148170000D03*
D22*
X142180000Y-140500000D03*
D14*
X137120000Y-150710000D03*
D22*
X135920000Y-143060000D03*
D21*
X133810000Y-150715000D03*
%TD*%
D19*
%TO.C,SW32*%
X266876100Y-130237600D03*
D20*
X261796100Y-130237600D03*
D22*
X258056100Y-127667600D03*
D19*
X256716100Y-130237600D03*
D21*
X268906100Y-132787600D03*
D14*
X265606100Y-132777600D03*
D22*
X264316100Y-125107600D03*
D14*
X259256100Y-135317600D03*
D21*
X255946100Y-135322600D03*
%TD*%
D19*
%TO.C,SW36*%
X266876100Y-161422600D03*
D20*
X261796100Y-161422600D03*
D19*
X256716100Y-161422600D03*
D21*
X268906100Y-163972600D03*
D14*
X265606100Y-163962600D03*
D22*
X264316100Y-156292600D03*
D14*
X259256100Y-166502600D03*
D22*
X258056100Y-158852600D03*
D21*
X255946100Y-166507600D03*
%TD*%
D19*
%TO.C,SW10*%
X137784100Y-78501600D03*
D20*
X132704100Y-78501600D03*
D19*
X127624100Y-78501600D03*
D21*
X139814100Y-81051600D03*
D14*
X136514100Y-81041600D03*
D22*
X135224100Y-73371600D03*
D14*
X130164100Y-83581600D03*
D22*
X128964100Y-75931600D03*
D21*
X126854100Y-83586600D03*
%TD*%
D19*
%TO.C,SW30*%
X167431100Y-161421600D03*
D20*
X162351100Y-161421600D03*
D19*
X157271100Y-161421600D03*
D21*
X156501100Y-166506600D03*
X169461100Y-163971600D03*
D14*
X166161100Y-163961600D03*
D22*
X164871100Y-156291600D03*
D14*
X159811100Y-166501600D03*
D22*
X158611100Y-158851600D03*
%TD*%
D19*
%TO.C,SW17*%
X351451100Y-41497600D03*
D20*
X346371100Y-41497600D03*
D19*
X341291100Y-41497600D03*
D21*
X353481100Y-44047600D03*
D14*
X350181100Y-44037600D03*
D22*
X348891100Y-36367600D03*
D14*
X343831100Y-46577600D03*
D22*
X342631100Y-38927600D03*
D21*
X340521100Y-46582600D03*
%TD*%
D19*
%TO.C,SW21*%
X296578100Y-78127600D03*
D20*
X291498100Y-78127600D03*
D19*
X286418100Y-78127600D03*
D21*
X298608100Y-80677600D03*
D14*
X295308100Y-80667600D03*
D22*
X294018100Y-72997600D03*
D14*
X288958100Y-83207600D03*
D22*
X287758100Y-75557600D03*
D21*
X285648100Y-83212600D03*
%TD*%
D19*
%TO.C,SW6*%
X82856100Y-69464600D03*
D20*
X77776100Y-69464600D03*
D19*
X72696100Y-69464600D03*
D21*
X84886100Y-72014600D03*
D14*
X81586100Y-72004600D03*
D22*
X80296100Y-64334600D03*
D14*
X75236100Y-74544600D03*
D22*
X74036100Y-66894600D03*
D21*
X71926100Y-74549600D03*
%TD*%
D19*
%TO.C,SW4*%
X57576100Y-85767600D03*
D20*
X52496100Y-85767600D03*
D19*
X47416100Y-85767600D03*
D14*
X56306100Y-88307600D03*
D22*
X55016100Y-80637600D03*
D14*
X49956100Y-90847600D03*
D22*
X48756100Y-83197600D03*
D21*
X46646100Y-90852600D03*
X59606100Y-88317600D03*
%TD*%
D19*
%TO.C,SW14*%
X323096100Y-38522600D03*
D20*
X318016100Y-38522600D03*
D19*
X312936100Y-38522600D03*
D21*
X325126100Y-41072600D03*
D14*
X321826100Y-41062600D03*
D22*
X320536100Y-33392600D03*
D14*
X315476100Y-43602600D03*
D22*
X314276100Y-35952600D03*
D21*
X312166100Y-43607600D03*
%TD*%
M02*
