%TF.GenerationSoftware,KiCad,Pcbnew,(7.0.0)*%
%TF.CreationDate,2023-04-12T02:18:13-04:00*%
%TF.ProjectId,ICOF1,49434f46-312e-46b6-9963-61645f706362,rev?*%
%TF.SameCoordinates,Original*%
%TF.FileFunction,Legend,Top*%
%TF.FilePolarity,Positive*%
%FSLAX46Y46*%
G04 Gerber Fmt 4.6, Leading zero omitted, Abs format (unit mm)*
G04 Created by KiCad (PCBNEW (7.0.0)) date 2023-04-12 02:18:13*
%MOMM*%
%LPD*%
G01*
G04 APERTURE LIST*
G04 Aperture macros list*
%AMRoundRect*
0 Rectangle with rounded corners*
0 $1 Rounding radius*
0 $2 $3 $4 $5 $6 $7 $8 $9 X,Y pos of 4 corners*
0 Add a 4 corners polygon primitive as box body*
4,1,4,$2,$3,$4,$5,$6,$7,$8,$9,$2,$3,0*
0 Add four circle primitives for the rounded corners*
1,1,$1+$1,$2,$3*
1,1,$1+$1,$4,$5*
1,1,$1+$1,$6,$7*
1,1,$1+$1,$8,$9*
0 Add four rect primitives between the rounded corners*
20,1,$1+$1,$2,$3,$4,$5,0*
20,1,$1+$1,$4,$5,$6,$7,0*
20,1,$1+$1,$6,$7,$8,$9,0*
20,1,$1+$1,$8,$9,$2,$3,0*%
G04 Aperture macros list end*
%ADD10C,0.150000*%
%ADD11C,0.120000*%
%ADD12C,0.200000*%
%ADD13C,9.000000*%
%ADD14C,3.000000*%
%ADD15C,8.000000*%
%ADD16R,1.100000X1.800000*%
%ADD17RoundRect,0.140000X0.170000X-0.140000X0.170000X0.140000X-0.170000X0.140000X-0.170000X-0.140000X0*%
%ADD18RoundRect,0.200000X-0.275000X0.200000X-0.275000X-0.200000X0.275000X-0.200000X0.275000X0.200000X0*%
%ADD19RoundRect,0.135000X-0.135000X-0.185000X0.135000X-0.185000X0.135000X0.185000X-0.135000X0.185000X0*%
%ADD20RoundRect,0.150000X0.587500X0.150000X-0.587500X0.150000X-0.587500X-0.150000X0.587500X-0.150000X0*%
%ADD21RoundRect,0.140000X0.140000X0.170000X-0.140000X0.170000X-0.140000X-0.170000X0.140000X-0.170000X0*%
%ADD22RoundRect,0.243750X-0.243750X-0.456250X0.243750X-0.456250X0.243750X0.456250X-0.243750X0.456250X0*%
%ADD23RoundRect,0.200000X0.275000X-0.200000X0.275000X0.200000X-0.275000X0.200000X-0.275000X-0.200000X0*%
%ADD24RoundRect,0.140000X-0.219203X-0.021213X-0.021213X-0.219203X0.219203X0.021213X0.021213X0.219203X0*%
%ADD25RoundRect,0.135000X0.135000X0.185000X-0.135000X0.185000X-0.135000X-0.185000X0.135000X-0.185000X0*%
%ADD26R,1.400000X1.200000*%
%ADD27RoundRect,0.140000X-0.021213X0.219203X-0.219203X0.021213X0.021213X-0.219203X0.219203X-0.021213X0*%
%ADD28RoundRect,0.250000X-0.375000X-0.625000X0.375000X-0.625000X0.375000X0.625000X-0.375000X0.625000X0*%
%ADD29RoundRect,0.225000X0.375000X-0.225000X0.375000X0.225000X-0.375000X0.225000X-0.375000X-0.225000X0*%
%ADD30RoundRect,0.140000X-0.140000X-0.170000X0.140000X-0.170000X0.140000X0.170000X-0.140000X0.170000X0*%
%ADD31RoundRect,0.135000X0.185000X-0.135000X0.185000X0.135000X-0.185000X0.135000X-0.185000X-0.135000X0*%
%ADD32RoundRect,0.140000X-0.170000X0.140000X-0.170000X-0.140000X0.170000X-0.140000X0.170000X0.140000X0*%
%ADD33RoundRect,0.050000X-0.387500X-0.050000X0.387500X-0.050000X0.387500X0.050000X-0.387500X0.050000X0*%
%ADD34RoundRect,0.050000X-0.050000X-0.387500X0.050000X-0.387500X0.050000X0.387500X-0.050000X0.387500X0*%
%ADD35RoundRect,0.144000X-1.456000X-1.456000X1.456000X-1.456000X1.456000X1.456000X-1.456000X1.456000X0*%
%ADD36C,8.500000*%
%ADD37C,0.990600*%
%ADD38C,0.787400*%
%ADD39RoundRect,0.150000X-0.150000X0.512500X-0.150000X-0.512500X0.150000X-0.512500X0.150000X0.512500X0*%
%ADD40C,0.650000*%
%ADD41R,0.300000X0.900000*%
%ADD42R,0.300000X0.700000*%
%ADD43O,0.800000X1.400000*%
%ADD44RoundRect,0.150000X-0.650000X-0.150000X0.650000X-0.150000X0.650000X0.150000X-0.650000X0.150000X0*%
%ADD45C,2.286000*%
%ADD46C,1.750000*%
%ADD47C,3.987800*%
G04 APERTURE END LIST*
D10*
%TO.C,@HOLE15*%
%TO.C,@HOLE1*%
%TO.C,@HOLE6*%
%TO.C,SW1*%
X203732857Y-35525238D02*
X203770952Y-35410952D01*
X203770952Y-35410952D02*
X203809047Y-35372857D01*
X203809047Y-35372857D02*
X203885238Y-35334761D01*
X203885238Y-35334761D02*
X203999523Y-35334761D01*
X203999523Y-35334761D02*
X204075714Y-35372857D01*
X204075714Y-35372857D02*
X204113809Y-35410952D01*
X204113809Y-35410952D02*
X204151904Y-35487142D01*
X204151904Y-35487142D02*
X204151904Y-35791904D01*
X204151904Y-35791904D02*
X203351904Y-35791904D01*
X203351904Y-35791904D02*
X203351904Y-35525238D01*
X203351904Y-35525238D02*
X203390000Y-35449047D01*
X203390000Y-35449047D02*
X203428095Y-35410952D01*
X203428095Y-35410952D02*
X203504285Y-35372857D01*
X203504285Y-35372857D02*
X203580476Y-35372857D01*
X203580476Y-35372857D02*
X203656666Y-35410952D01*
X203656666Y-35410952D02*
X203694761Y-35449047D01*
X203694761Y-35449047D02*
X203732857Y-35525238D01*
X203732857Y-35525238D02*
X203732857Y-35791904D01*
X204151904Y-34877619D02*
X204113809Y-34953809D01*
X204113809Y-34953809D02*
X204075714Y-34991904D01*
X204075714Y-34991904D02*
X203999523Y-35030000D01*
X203999523Y-35030000D02*
X203770952Y-35030000D01*
X203770952Y-35030000D02*
X203694761Y-34991904D01*
X203694761Y-34991904D02*
X203656666Y-34953809D01*
X203656666Y-34953809D02*
X203618571Y-34877619D01*
X203618571Y-34877619D02*
X203618571Y-34763333D01*
X203618571Y-34763333D02*
X203656666Y-34687142D01*
X203656666Y-34687142D02*
X203694761Y-34649047D01*
X203694761Y-34649047D02*
X203770952Y-34610952D01*
X203770952Y-34610952D02*
X203999523Y-34610952D01*
X203999523Y-34610952D02*
X204075714Y-34649047D01*
X204075714Y-34649047D02*
X204113809Y-34687142D01*
X204113809Y-34687142D02*
X204151904Y-34763333D01*
X204151904Y-34763333D02*
X204151904Y-34877619D01*
X204151904Y-34153809D02*
X204113809Y-34229999D01*
X204113809Y-34229999D02*
X204075714Y-34268094D01*
X204075714Y-34268094D02*
X203999523Y-34306190D01*
X203999523Y-34306190D02*
X203770952Y-34306190D01*
X203770952Y-34306190D02*
X203694761Y-34268094D01*
X203694761Y-34268094D02*
X203656666Y-34229999D01*
X203656666Y-34229999D02*
X203618571Y-34153809D01*
X203618571Y-34153809D02*
X203618571Y-34039523D01*
X203618571Y-34039523D02*
X203656666Y-33963332D01*
X203656666Y-33963332D02*
X203694761Y-33925237D01*
X203694761Y-33925237D02*
X203770952Y-33887142D01*
X203770952Y-33887142D02*
X203999523Y-33887142D01*
X203999523Y-33887142D02*
X204075714Y-33925237D01*
X204075714Y-33925237D02*
X204113809Y-33963332D01*
X204113809Y-33963332D02*
X204151904Y-34039523D01*
X204151904Y-34039523D02*
X204151904Y-34153809D01*
X203618571Y-33658570D02*
X203618571Y-33353808D01*
X203351904Y-33544284D02*
X204037619Y-33544284D01*
X204037619Y-33544284D02*
X204113809Y-33506189D01*
X204113809Y-33506189D02*
X204151904Y-33429999D01*
X204151904Y-33429999D02*
X204151904Y-33353808D01*
%TO.C,@HOLE11*%
%TO.C,@HOLE8*%
%TO.C,@HOLE0*%
%TO.C,@HOLE4*%
%TO.C,@HOLE3*%
%TO.C,@HOLE5*%
%TO.C,@HOLE10*%
%TO.C,@HOLE12*%
%TO.C,@HOLE7*%
%TO.C,@HOLE2*%
%TO.C,@HOLE14*%
%TO.C,@HOLE13*%
%TO.C,@HOLE9*%
D11*
%TO.C,SW1*%
X199348000Y-31920000D02*
X201428000Y-31920000D01*
X203108000Y-33190000D02*
X202618000Y-32700000D01*
X203108000Y-33190000D02*
X203108000Y-36090000D01*
X197668000Y-33190000D02*
X198158000Y-32700000D01*
X197668000Y-33190000D02*
X197668000Y-36090000D01*
X203108000Y-36090000D02*
X202618000Y-36580000D01*
X197668000Y-36090000D02*
X198158000Y-36580000D01*
X199348000Y-37360000D02*
X201428000Y-37360000D01*
%TO.C,C13*%
X205108750Y-50210961D02*
X205108750Y-49995289D01*
X205828750Y-50210961D02*
X205828750Y-49995289D01*
%TO.C,R5*%
X223754500Y-49134742D02*
X223754500Y-49609258D01*
X222709500Y-49134742D02*
X222709500Y-49609258D01*
%TO.C,R4*%
X220276359Y-52240000D02*
X220583641Y-52240000D01*
X220276359Y-53000000D02*
X220583641Y-53000000D01*
%TO.C,U1*%
X215476500Y-41287107D02*
X217151500Y-41287107D01*
X215476500Y-41287107D02*
X214826500Y-41287107D01*
X215476500Y-38167107D02*
X216126500Y-38167107D01*
X215476500Y-38167107D02*
X214826500Y-38167107D01*
%TO.C,C2*%
X215131836Y-37847107D02*
X214916164Y-37847107D01*
X215131836Y-37127107D02*
X214916164Y-37127107D01*
%TO.C,D3*%
X221845000Y-51630000D02*
X221845000Y-53550000D01*
X221845000Y-53550000D02*
X224530000Y-53550000D01*
X224530000Y-51630000D02*
X221845000Y-51630000D01*
%TO.C,R6*%
X224249500Y-49609258D02*
X224249500Y-49134742D01*
X225294500Y-49609258D02*
X225294500Y-49134742D01*
%TO.C,C11*%
X217667718Y-55878601D02*
X217820221Y-56031104D01*
X217158601Y-56387718D02*
X217311104Y-56540221D01*
%TO.C,R2*%
X206893641Y-33880000D02*
X206586359Y-33880000D01*
X206893641Y-33120000D02*
X206586359Y-33120000D01*
%TO.C,Y1*%
X208206978Y-66890000D02*
X208206978Y-63590000D01*
X208206978Y-63590000D02*
X204206978Y-63590000D01*
%TO.C,C15*%
X204440810Y-55858307D02*
X204288307Y-56010810D01*
X203931693Y-55349190D02*
X203779190Y-55501693D01*
%TO.C,C8*%
X209983991Y-65217836D02*
X209983991Y-65002164D01*
X210703991Y-65217836D02*
X210703991Y-65002164D01*
%TO.C,F1*%
X215231936Y-33457107D02*
X216436064Y-33457107D01*
X215231936Y-35277107D02*
X216436064Y-35277107D01*
%TO.C,R1*%
X217760359Y-25624000D02*
X218067641Y-25624000D01*
X217760359Y-26384000D02*
X218067641Y-26384000D01*
%TO.C,D2*%
X220254000Y-38637107D02*
X221654000Y-38637107D01*
X219954000Y-38387107D02*
X219954000Y-34737107D01*
X221954000Y-38387107D02*
X221954000Y-34737107D01*
X219954000Y-38387107D02*
G75*
G03*
X220254000Y-38637107I289561J42473D01*
G01*
X221654000Y-38637107D02*
G75*
G03*
X221953999Y-38387107I10462J292445D01*
G01*
%TO.C,C9*%
X218151836Y-44692107D02*
X217936164Y-44692107D01*
X218151836Y-43972107D02*
X217936164Y-43972107D01*
%TO.C,C1*%
X217936164Y-45172107D02*
X218151836Y-45172107D01*
X217936164Y-45892107D02*
X218151836Y-45892107D01*
%TO.C,C4*%
X213109750Y-47670961D02*
X213109750Y-47455289D01*
X213829750Y-47670961D02*
X213829750Y-47455289D01*
%TO.C,R11*%
X207180000Y-61893641D02*
X207180000Y-61586359D01*
X207940000Y-61893641D02*
X207940000Y-61586359D01*
%TO.C,C6*%
X212680000Y-61292164D02*
X212680000Y-61507836D01*
X211960000Y-61292164D02*
X211960000Y-61507836D01*
%TO.C,C16*%
X217073164Y-48457357D02*
X217288836Y-48457357D01*
X217073164Y-49177357D02*
X217288836Y-49177357D01*
%TO.C,C12*%
X214125750Y-47670961D02*
X214125750Y-47455289D01*
X214845750Y-47670961D02*
X214845750Y-47455289D01*
%TO.C,C3*%
X207742164Y-40940000D02*
X207957836Y-40940000D01*
X207742164Y-41660000D02*
X207957836Y-41660000D01*
%TO.C,C7*%
X203280000Y-65252164D02*
X203280000Y-65467836D01*
X202560000Y-65252164D02*
X202560000Y-65467836D01*
%TO.C,REF\u002A\u002A*%
X214746359Y-58860000D02*
X215053641Y-58860000D01*
X214746359Y-59620000D02*
X215053641Y-59620000D01*
%TO.C,R9*%
X213186500Y-41809849D02*
X213186500Y-42284365D01*
X212141500Y-41809849D02*
X212141500Y-42284365D01*
%TO.C,R10*%
X198509641Y-40100000D02*
X198202359Y-40100000D01*
X198509641Y-39340000D02*
X198202359Y-39340000D01*
%TO.C,R8*%
X211656500Y-41809849D02*
X211656500Y-42284365D01*
X210611500Y-41809849D02*
X210611500Y-42284365D01*
%TO.C,C10*%
X210344000Y-45877193D02*
X210344000Y-45661521D01*
X211064000Y-45877193D02*
X211064000Y-45661521D01*
%TO.C,D1*%
X217874000Y-43567107D02*
X219274000Y-43567107D01*
X217574000Y-43317107D02*
X217574000Y-39667107D01*
X219574000Y-43317107D02*
X219574000Y-39667107D01*
X217574000Y-43317107D02*
G75*
G03*
X217874000Y-43567107I289561J42473D01*
G01*
X219274000Y-43567107D02*
G75*
G03*
X219573999Y-43317107I10462J292445D01*
G01*
%TO.C,C14*%
X211630000Y-61292164D02*
X211630000Y-61507836D01*
X210910000Y-61292164D02*
X210910000Y-61507836D01*
%TO.C,U3*%
X207094000Y-57412107D02*
X207094000Y-56762107D01*
X207744000Y-50192107D02*
X207094000Y-50192107D01*
X207744000Y-57412107D02*
X207094000Y-57412107D01*
X213664000Y-50192107D02*
X214314000Y-50192107D01*
X213664000Y-57412107D02*
X214314000Y-57412107D01*
X214314000Y-50192107D02*
X214314000Y-50842107D01*
X214314000Y-57412107D02*
X214314000Y-56762107D01*
%TO.C,C5*%
X208820000Y-45877193D02*
X208820000Y-45661521D01*
X209540000Y-45877193D02*
X209540000Y-45661521D01*
D12*
%TO.C,J2*%
X217146951Y-61290500D02*
X217163049Y-61290500D01*
X218212203Y-61883123D02*
X218845178Y-62933268D01*
X215464822Y-62933268D02*
X216097797Y-61883123D01*
X219060500Y-63707608D02*
X219060500Y-67229500D01*
X215249500Y-67229500D02*
X215249500Y-63707608D01*
X217760499Y-68529500D02*
X216549501Y-68529500D01*
X218212203Y-61883123D02*
G75*
G03*
X217163049Y-61290500I-1049152J-632373D01*
G01*
X217146951Y-61290501D02*
G75*
G03*
X216097798Y-61883123I0J-1224999D01*
G01*
X219060499Y-63707608D02*
G75*
G03*
X218845177Y-62933268I-1500007J-2D01*
G01*
X215464822Y-62933268D02*
G75*
G03*
X215249500Y-63707608I1284686J-774342D01*
G01*
X217760499Y-68529500D02*
G75*
G03*
X219060500Y-67229501I1J1300000D01*
G01*
X215249500Y-67229500D02*
G75*
G03*
X216549502Y-68529500I1300000J0D01*
G01*
D11*
%TO.C,U2*%
X212108000Y-36257107D02*
X212108000Y-34457107D01*
X212108000Y-36257107D02*
X212108000Y-37057107D01*
X208988000Y-36257107D02*
X208988000Y-35457107D01*
X208988000Y-36257107D02*
X208988000Y-37057107D01*
%TO.C,C17*%
X217073164Y-50701357D02*
X217288836Y-50701357D01*
X217073164Y-49981357D02*
X217288836Y-49981357D01*
%TO.C,R3*%
X218229339Y-31720000D02*
X218536621Y-31720000D01*
X218229339Y-32480000D02*
X218536621Y-32480000D01*
%TO.C,J1*%
X215746000Y-31716000D02*
X215746000Y-25816000D01*
X215746000Y-31716000D02*
X214106000Y-31716000D01*
X207806000Y-31716000D02*
X206366000Y-31716000D01*
X206366000Y-31716000D02*
X206366000Y-25816000D01*
%TO.C,U4*%
X199255000Y-40375000D02*
X199255000Y-40635000D01*
X199255000Y-40635000D02*
X197580000Y-40635000D01*
X199255000Y-45825000D02*
X199255000Y-45565000D01*
X201980000Y-40375000D02*
X199255000Y-40375000D01*
X201980000Y-40375000D02*
X204705000Y-40375000D01*
X201980000Y-45825000D02*
X199255000Y-45825000D01*
X201980000Y-45825000D02*
X204705000Y-45825000D01*
X204705000Y-40375000D02*
X204705000Y-40635000D01*
X204705000Y-45825000D02*
X204705000Y-45565000D01*
%TD*%
%LPC*%
D13*
%TO.C,@HOLE15*%
X320031100Y-158103600D03*
%TD*%
D14*
%TO.C,@HOLE1*%
X348031100Y-144103600D03*
%TD*%
D15*
%TO.C,@HOLE6*%
X50031100Y-140103600D03*
%TD*%
D16*
%TO.C,SW1*%
X202237999Y-31539999D03*
X202237999Y-37739999D03*
X198537999Y-31539999D03*
X198537999Y-37739999D03*
%TD*%
D17*
%TO.C,C13*%
X205468750Y-50583125D03*
X205468750Y-49623125D03*
%TD*%
D18*
%TO.C,R5*%
X223232000Y-48547000D03*
X223232000Y-50197000D03*
%TD*%
D19*
%TO.C,R4*%
X219920000Y-52620000D03*
X220940000Y-52620000D03*
%TD*%
D20*
%TO.C,U1*%
X216414000Y-40677107D03*
X216414000Y-38777107D03*
X214539000Y-39727107D03*
%TD*%
D13*
%TO.C,@HOLE11*%
X238031100Y-41603600D03*
%TD*%
D15*
%TO.C,@HOLE8*%
X248031100Y-68103600D03*
%TD*%
D21*
%TO.C,C2*%
X215504000Y-37487107D03*
X214544000Y-37487107D03*
%TD*%
D14*
%TO.C,@HOLE0*%
X132031100Y-163103600D03*
%TD*%
D22*
%TO.C,D3*%
X222592500Y-52590000D03*
X224467500Y-52590000D03*
%TD*%
D23*
%TO.C,R6*%
X224772000Y-50197000D03*
X224772000Y-48547000D03*
%TD*%
D24*
%TO.C,C11*%
X217150000Y-55870000D03*
X217828822Y-56548822D03*
%TD*%
D25*
%TO.C,R2*%
X207250000Y-33500000D03*
X206230000Y-33500000D03*
%TD*%
D26*
%TO.C,Y1*%
X207306977Y-64389999D03*
X205106977Y-64389999D03*
X205106977Y-66089999D03*
X207306977Y-66089999D03*
%TD*%
D27*
%TO.C,C15*%
X204449411Y-55340589D03*
X203770589Y-56019411D03*
%TD*%
D17*
%TO.C,C8*%
X210343991Y-65590000D03*
X210343991Y-64630000D03*
%TD*%
D28*
%TO.C,F1*%
X214434000Y-34367107D03*
X217234000Y-34367107D03*
%TD*%
D19*
%TO.C,R1*%
X217404000Y-26004000D03*
X218424000Y-26004000D03*
%TD*%
D15*
%TO.C,@HOLE4*%
X332031100Y-51103600D03*
%TD*%
D29*
%TO.C,D2*%
X220954000Y-38037107D03*
X220954000Y-34737107D03*
%TD*%
D21*
%TO.C,C9*%
X218524000Y-44332107D03*
X217564000Y-44332107D03*
%TD*%
D14*
%TO.C,@HOLE3*%
X246031100Y-123103600D03*
%TD*%
D30*
%TO.C,C1*%
X217564000Y-45532107D03*
X218524000Y-45532107D03*
%TD*%
D15*
%TO.C,@HOLE5*%
X340031100Y-155103600D03*
%TD*%
D17*
%TO.C,C4*%
X213469750Y-48043125D03*
X213469750Y-47083125D03*
%TD*%
D31*
%TO.C,R11*%
X207560000Y-62250000D03*
X207560000Y-61230000D03*
%TD*%
D32*
%TO.C,C6*%
X212320000Y-60920000D03*
X212320000Y-61880000D03*
%TD*%
D30*
%TO.C,C16*%
X216701000Y-48817357D03*
X217661000Y-48817357D03*
%TD*%
D14*
%TO.C,@HOLE10*%
X182930000Y-56050000D03*
%TD*%
D17*
%TO.C,C12*%
X214485750Y-48043125D03*
X214485750Y-47083125D03*
%TD*%
D30*
%TO.C,C3*%
X207370000Y-41300000D03*
X208330000Y-41300000D03*
%TD*%
D32*
%TO.C,C7*%
X202920000Y-64880000D03*
X202920000Y-65840000D03*
%TD*%
D19*
%TO.C,REF\u002A\u002A*%
X214390000Y-59240000D03*
X215410000Y-59240000D03*
%TD*%
D13*
%TO.C,@HOLE12*%
X52431100Y-105303600D03*
%TD*%
D18*
%TO.C,R9*%
X212664000Y-41222107D03*
X212664000Y-42872107D03*
%TD*%
D25*
%TO.C,R10*%
X198866000Y-39720000D03*
X197846000Y-39720000D03*
%TD*%
D15*
%TO.C,@HOLE7*%
X129031100Y-46103600D03*
%TD*%
D18*
%TO.C,R8*%
X211134000Y-41222107D03*
X211134000Y-42872107D03*
%TD*%
D17*
%TO.C,C10*%
X210704000Y-46249357D03*
X210704000Y-45289357D03*
%TD*%
D29*
%TO.C,D1*%
X218574000Y-42967107D03*
X218574000Y-39667107D03*
%TD*%
D14*
%TO.C,@HOLE2*%
X44031100Y-151103600D03*
%TD*%
D32*
%TO.C,C14*%
X211270000Y-60920000D03*
X211270000Y-61880000D03*
%TD*%
D33*
%TO.C,U3*%
X207266500Y-51202107D03*
X207266500Y-51602107D03*
X207266500Y-52002107D03*
X207266500Y-52402107D03*
X207266500Y-52802107D03*
X207266500Y-53202107D03*
X207266500Y-53602107D03*
X207266500Y-54002107D03*
X207266500Y-54402107D03*
X207266500Y-54802107D03*
X207266500Y-55202107D03*
X207266500Y-55602107D03*
X207266500Y-56002107D03*
X207266500Y-56402107D03*
D34*
X208104000Y-57239607D03*
X208504000Y-57239607D03*
X208904000Y-57239607D03*
X209304000Y-57239607D03*
X209704000Y-57239607D03*
X210104000Y-57239607D03*
X210504000Y-57239607D03*
X210904000Y-57239607D03*
X211304000Y-57239607D03*
X211704000Y-57239607D03*
X212104000Y-57239607D03*
X212504000Y-57239607D03*
X212904000Y-57239607D03*
X213304000Y-57239607D03*
D33*
X214141500Y-56402107D03*
X214141500Y-56002107D03*
X214141500Y-55602107D03*
X214141500Y-55202107D03*
X214141500Y-54802107D03*
X214141500Y-54402107D03*
X214141500Y-54002107D03*
X214141500Y-53602107D03*
X214141500Y-53202107D03*
X214141500Y-52802107D03*
X214141500Y-52402107D03*
X214141500Y-52002107D03*
X214141500Y-51602107D03*
X214141500Y-51202107D03*
D34*
X213304000Y-50364607D03*
X212904000Y-50364607D03*
X212504000Y-50364607D03*
X212104000Y-50364607D03*
X211704000Y-50364607D03*
X211304000Y-50364607D03*
X210904000Y-50364607D03*
X210504000Y-50364607D03*
X210104000Y-50364607D03*
X209704000Y-50364607D03*
X209304000Y-50364607D03*
X208904000Y-50364607D03*
X208504000Y-50364607D03*
X208104000Y-50364607D03*
D35*
X210704000Y-53802107D03*
%TD*%
D17*
%TO.C,C5*%
X209180000Y-46249357D03*
X209180000Y-45289357D03*
%TD*%
D36*
%TO.C,@HOLE14*%
X186031100Y-127903600D03*
%TD*%
D13*
%TO.C,@HOLE13*%
X93831100Y-39803600D03*
%TD*%
D37*
%TO.C,J2*%
X217155000Y-62370000D03*
X218171000Y-67450000D03*
X216139000Y-67450000D03*
D38*
X216520000Y-63640000D03*
X217790000Y-63640000D03*
X216520000Y-64910000D03*
X217790000Y-64910000D03*
X216520000Y-66180000D03*
X217790000Y-66180000D03*
%TD*%
D39*
%TO.C,U2*%
X211498000Y-35119607D03*
X210548000Y-35119607D03*
X209598000Y-35119607D03*
X209598000Y-37394607D03*
X210548000Y-37394607D03*
X211498000Y-37394607D03*
%TD*%
D15*
%TO.C,@HOLE9*%
X200031100Y-157103600D03*
%TD*%
D30*
%TO.C,C17*%
X217661000Y-50341357D03*
X216701000Y-50341357D03*
%TD*%
D19*
%TO.C,R3*%
X217872980Y-32100000D03*
X218892980Y-32100000D03*
%TD*%
D40*
%TO.C,J1*%
X214656000Y-30656000D03*
X207306000Y-30656000D03*
D41*
X213805999Y-31215999D03*
X213305999Y-31215999D03*
X212805999Y-31215999D03*
X212305999Y-31215999D03*
X211805999Y-31215999D03*
D42*
X211305999Y-31215999D03*
X210805999Y-31215999D03*
D41*
X210305999Y-31215999D03*
X209805999Y-31215999D03*
X209305999Y-31215999D03*
X208805999Y-31215999D03*
X208305999Y-31215999D03*
D40*
X208256000Y-30006000D03*
X208656000Y-29306000D03*
X209456000Y-29306000D03*
X209856000Y-30006000D03*
X210256000Y-29306000D03*
X210656000Y-30006000D03*
X211456000Y-30006000D03*
X211856000Y-29306000D03*
X212256000Y-30006000D03*
X212656000Y-29306000D03*
X213456000Y-29306000D03*
X213856000Y-30006000D03*
D43*
X215545999Y-25015999D03*
X215110999Y-29405999D03*
X206850999Y-29405999D03*
X206565999Y-25015999D03*
%TD*%
D44*
%TO.C,U4*%
X198380000Y-41195000D03*
X198380000Y-42465000D03*
X198380000Y-43735000D03*
X198380000Y-45005000D03*
X205580000Y-45005000D03*
X205580000Y-43735000D03*
X205580000Y-42465000D03*
X205580000Y-41195000D03*
%TD*%
D45*
%TO.C,SW25*%
X342631100Y-66537600D03*
X348891100Y-63977600D03*
D46*
X341291100Y-69107600D03*
D14*
X343831100Y-74187600D03*
D47*
X346371100Y-69107600D03*
D14*
X350181100Y-71647600D03*
D46*
X351451100Y-69107600D03*
%TD*%
%TO.C,SW40*%
X312220100Y-130237600D03*
D14*
X310950100Y-132777600D03*
D47*
X307140100Y-130237600D03*
D14*
X304600100Y-135317600D03*
D46*
X302060100Y-130237600D03*
D45*
X309660100Y-125107600D03*
X303400100Y-127667600D03*
%TD*%
D46*
%TO.C,SW8*%
X111212100Y-66738600D03*
D14*
X109942100Y-69278600D03*
D47*
X106132100Y-66738600D03*
D14*
X103592100Y-71818600D03*
D46*
X101052100Y-66738600D03*
D45*
X108652100Y-61608600D03*
X102392100Y-64168600D03*
%TD*%
D46*
%TO.C,SW22*%
X323096100Y-66132600D03*
D14*
X321826100Y-68672600D03*
D47*
X318016100Y-66132600D03*
D14*
X315476100Y-71212600D03*
D46*
X312936100Y-66132600D03*
D45*
X320536100Y-61002600D03*
X314276100Y-63562600D03*
%TD*%
D46*
%TO.C,SW26*%
X377674100Y-85143600D03*
D14*
X376404100Y-87683600D03*
D47*
X372594100Y-85143600D03*
D14*
X370054100Y-90223600D03*
D46*
X367514100Y-85143600D03*
D45*
X375114100Y-80013600D03*
X368854100Y-82573600D03*
%TD*%
D46*
%TO.C,SW3*%
X217516100Y-78501600D03*
D14*
X216246100Y-81041600D03*
D47*
X212436100Y-78501600D03*
D14*
X209896100Y-83581600D03*
D46*
X207356100Y-78501600D03*
D45*
X214956100Y-73371600D03*
X208696100Y-75931600D03*
%TD*%
D46*
%TO.C,SW35*%
X289563100Y-114467600D03*
D14*
X288293100Y-117007600D03*
D47*
X284483100Y-114467600D03*
D14*
X281943100Y-119547600D03*
D46*
X279403100Y-114467600D03*
D45*
X287003100Y-109337600D03*
X280743100Y-111897600D03*
%TD*%
D46*
%TO.C,SW19*%
X377674100Y-57533600D03*
D14*
X376404100Y-60073600D03*
D47*
X372594100Y-57533600D03*
D14*
X370054100Y-62613600D03*
D46*
X367514100Y-57533600D03*
D45*
X375114100Y-52403600D03*
X368854100Y-54963600D03*
%TD*%
D46*
%TO.C,SW12*%
X296578100Y-50518600D03*
D14*
X295308100Y-53058600D03*
D47*
X291498100Y-50518600D03*
D14*
X288958100Y-55598600D03*
D46*
X286418100Y-50518600D03*
D45*
X294018100Y-45388600D03*
X287758100Y-47948600D03*
%TD*%
D46*
%TO.C,SW38*%
X289563100Y-145652600D03*
D14*
X288293100Y-148192600D03*
D47*
X284483100Y-145652600D03*
D14*
X281943100Y-150732600D03*
D46*
X279403100Y-145652600D03*
D45*
X287003100Y-140522600D03*
X280743100Y-143082600D03*
%TD*%
D46*
%TO.C,SW28*%
X144740000Y-145630000D03*
D14*
X143470000Y-148170000D03*
D47*
X139660000Y-145630000D03*
D14*
X137120000Y-150710000D03*
D46*
X134580000Y-145630000D03*
D45*
X142180000Y-140500000D03*
X135920000Y-143060000D03*
%TD*%
D46*
%TO.C,SW32*%
X266876100Y-130237600D03*
D14*
X265606100Y-132777600D03*
D47*
X261796100Y-130237600D03*
D14*
X259256100Y-135317600D03*
D46*
X256716100Y-130237600D03*
D45*
X264316100Y-125107600D03*
X258056100Y-127667600D03*
%TD*%
D46*
%TO.C,SW36*%
X266876100Y-161422600D03*
D14*
X265606100Y-163962600D03*
D47*
X261796100Y-161422600D03*
D14*
X259256100Y-166502600D03*
D46*
X256716100Y-161422600D03*
D45*
X264316100Y-156292600D03*
X258056100Y-158852600D03*
%TD*%
D46*
%TO.C,SW10*%
X137784100Y-78501600D03*
D14*
X136514100Y-81041600D03*
D47*
X132704100Y-78501600D03*
D14*
X130164100Y-83581600D03*
D46*
X127624100Y-78501600D03*
D45*
X135224100Y-73371600D03*
X128964100Y-75931600D03*
%TD*%
D46*
%TO.C,SW30*%
X167431100Y-161421600D03*
D14*
X166161100Y-163961600D03*
D47*
X162351100Y-161421600D03*
D14*
X159811100Y-166501600D03*
D46*
X157271100Y-161421600D03*
D45*
X164871100Y-156291600D03*
X158611100Y-158851600D03*
%TD*%
D46*
%TO.C,SW17*%
X351451100Y-41497600D03*
D14*
X350181100Y-44037600D03*
D47*
X346371100Y-41497600D03*
D14*
X343831100Y-46577600D03*
D46*
X341291100Y-41497600D03*
D45*
X348891100Y-36367600D03*
X342631100Y-38927600D03*
%TD*%
D46*
%TO.C,SW21*%
X296578100Y-78127600D03*
D14*
X295308100Y-80667600D03*
D47*
X291498100Y-78127600D03*
D14*
X288958100Y-83207600D03*
D46*
X286418100Y-78127600D03*
D45*
X294018100Y-72997600D03*
X287758100Y-75557600D03*
%TD*%
D46*
%TO.C,SW6*%
X82856100Y-69464600D03*
D14*
X81586100Y-72004600D03*
D47*
X77776100Y-69464600D03*
D14*
X75236100Y-74544600D03*
D46*
X72696100Y-69464600D03*
D45*
X80296100Y-64334600D03*
X74036100Y-66894600D03*
%TD*%
D46*
%TO.C,SW4*%
X57576100Y-85767600D03*
D14*
X56306100Y-88307600D03*
D47*
X52496100Y-85767600D03*
D14*
X49956100Y-90847600D03*
D46*
X47416100Y-85767600D03*
D45*
X55016100Y-80637600D03*
X48756100Y-83197600D03*
%TD*%
D46*
%TO.C,SW14*%
X323096100Y-38522600D03*
D14*
X321826100Y-41062600D03*
D47*
X318016100Y-38522600D03*
D14*
X315476100Y-43602600D03*
D46*
X312936100Y-38522600D03*
D45*
X320536100Y-33392600D03*
X314276100Y-35952600D03*
%TD*%
M02*
