M48
; DRILL file {KiCad (7.0.0)} date Wed Mar 22 04:15:03 2023
; FORMAT={-:-/ absolute / inch / decimal}
; #@! TF.CreationDate,2023-03-22T04:15:03-04:00
; #@! TF.GenerationSoftware,Kicad,Pcbnew,(7.0.0)
; #@! TF.FileFunction,NonPlated,1,2,NPTH
FMAT,2
INCH
; #@! TA.AperFunction,NonPlated,NPTH,ComponentDrill
T1C0.0256
; #@! TA.AperFunction,NonPlated,NPTH,ComponentDrill
T2C0.0689
; #@! TA.AperFunction,NonPlated,NPTH,ComponentDrill
T3C0.1181
; #@! TA.AperFunction,NonPlated,NPTH,ComponentDrill
T4C0.1570
; #@! TA.AperFunction,NonPlated,NPTH,ComponentDrill
T5C0.3150
; #@! TA.AperFunction,NonPlated,NPTH,ComponentDrill
T6C0.3346
; #@! TA.AperFunction,NonPlated,NPTH,ComponentDrill
T7C0.3543
%
G90
G05
T1
X8.1486Y-1.17
X8.438Y-1.17
T2
X1.8668Y-3.3767
X2.2668Y-3.3767
X2.8621Y-2.7348
X3.2621Y-2.7348
X3.9784Y-2.6275
X4.3784Y-2.6275
X5.0246Y-3.0906
X5.2984Y-5.7335
X5.4246Y-3.0906
X5.6984Y-5.7335
X6.1918Y-6.3552
X6.5918Y-6.3552
X8.1636Y-3.0906
X8.5636Y-3.0906
X10.1069Y-5.1275
X10.1069Y-6.3552
X10.5069Y-5.1275
X10.5069Y-6.3552
X11.0001Y-4.5066
X11.0001Y-5.7344
X11.2763Y-1.9889
X11.2763Y-3.0759
X11.4001Y-4.5066
X11.4001Y-5.7344
X11.6763Y-1.9889
X11.6763Y-3.0759
X11.8921Y-5.1275
X12.2921Y-5.1275
X12.3203Y-1.5166
X12.3203Y-2.6036
X12.7203Y-1.5166
X12.7203Y-2.6036
X13.4367Y-1.6338
X13.4367Y-2.7208
X13.8367Y-1.6338
X13.8367Y-2.7208
X14.4691Y-2.2651
X14.4691Y-3.3521
X14.8691Y-2.2651
X14.8691Y-3.3521
T3
X1.7335Y-5.949
X5.1981Y-6.4214
X7.202Y-2.2067
X9.6863Y-4.8466
X13.702Y-5.6734
T4
X2.0668Y-3.3767
X3.0621Y-2.7348
X4.1784Y-2.6275
X5.2246Y-3.0906
X5.4984Y-5.7335
X6.3918Y-6.3552
X8.3636Y-3.0906
X10.3069Y-5.1275
X10.3069Y-6.3552
X11.2001Y-4.5066
X11.2001Y-5.7344
X11.4763Y-1.9889
X11.4763Y-3.0759
X12.0921Y-5.1275
X12.5203Y-1.5166
X12.5203Y-2.6036
X13.6367Y-1.6338
X13.6367Y-2.7208
X14.6691Y-2.2651
X14.6691Y-3.3521
T5
X1.9697Y-5.5159
X5.08Y-1.8151
X7.8752Y-6.1852
X9.765Y-2.6812
X13.0721Y-2.012
X13.3871Y-6.1064
T6
X7.3241Y-5.0356
T7
X2.0642Y-4.1458
X3.6941Y-1.5671
X9.3713Y-1.6379
X12.5996Y-6.2246
T0
M30
