%TF.GenerationSoftware,KiCad,Pcbnew,7.0.2-6a45011f42~172~ubuntu22.04.1*%
%TF.CreationDate,2023-05-17T04:17:18-04:00*%
%TF.ProjectId,ICOF1,49434f46-312e-46b6-9963-61645f706362,rev?*%
%TF.SameCoordinates,Original*%
%TF.FileFunction,Other,Comment*%
%FSLAX46Y46*%
G04 Gerber Fmt 4.6, Leading zero omitted, Abs format (unit mm)*
G04 Created by KiCad (PCBNEW 7.0.2-6a45011f42~172~ubuntu22.04.1) date 2023-05-17 04:17:18*
%MOMM*%
%LPD*%
G01*
G04 APERTURE LIST*
%ADD10C,0.030000*%
%ADD11C,0.070000*%
G04 APERTURE END LIST*
D10*
%TO.C,SW1*%
X200680523Y-38354284D02*
X200480523Y-38354284D01*
X200680523Y-38239999D02*
X200566238Y-38325713D01*
X200480523Y-38239999D02*
X200594809Y-38354284D01*
X200575761Y-38154284D02*
X200575761Y-38087618D01*
X200680523Y-38059046D02*
X200680523Y-38154284D01*
X200680523Y-38154284D02*
X200480523Y-38154284D01*
X200480523Y-38154284D02*
X200480523Y-38059046D01*
X200575761Y-37973332D02*
X200575761Y-37906666D01*
X200680523Y-37878094D02*
X200680523Y-37973332D01*
X200680523Y-37973332D02*
X200480523Y-37973332D01*
X200480523Y-37973332D02*
X200480523Y-37878094D01*
X200680523Y-37792380D02*
X200480523Y-37792380D01*
X200480523Y-37792380D02*
X200480523Y-37716190D01*
X200480523Y-37716190D02*
X200490047Y-37697142D01*
X200490047Y-37697142D02*
X200499571Y-37687619D01*
X200499571Y-37687619D02*
X200518619Y-37678095D01*
X200518619Y-37678095D02*
X200547190Y-37678095D01*
X200547190Y-37678095D02*
X200566238Y-37687619D01*
X200566238Y-37687619D02*
X200575761Y-37697142D01*
X200575761Y-37697142D02*
X200585285Y-37716190D01*
X200585285Y-37716190D02*
X200585285Y-37792380D01*
X200604333Y-37592380D02*
X200604333Y-37440000D01*
X200480523Y-37306666D02*
X200480523Y-37268571D01*
X200480523Y-37268571D02*
X200490047Y-37249523D01*
X200490047Y-37249523D02*
X200509095Y-37230476D01*
X200509095Y-37230476D02*
X200547190Y-37220952D01*
X200547190Y-37220952D02*
X200613857Y-37220952D01*
X200613857Y-37220952D02*
X200651952Y-37230476D01*
X200651952Y-37230476D02*
X200671000Y-37249523D01*
X200671000Y-37249523D02*
X200680523Y-37268571D01*
X200680523Y-37268571D02*
X200680523Y-37306666D01*
X200680523Y-37306666D02*
X200671000Y-37325714D01*
X200671000Y-37325714D02*
X200651952Y-37344761D01*
X200651952Y-37344761D02*
X200613857Y-37354285D01*
X200613857Y-37354285D02*
X200547190Y-37354285D01*
X200547190Y-37354285D02*
X200509095Y-37344761D01*
X200509095Y-37344761D02*
X200490047Y-37325714D01*
X200490047Y-37325714D02*
X200480523Y-37306666D01*
X200480523Y-37135237D02*
X200642428Y-37135237D01*
X200642428Y-37135237D02*
X200661476Y-37125714D01*
X200661476Y-37125714D02*
X200671000Y-37116190D01*
X200671000Y-37116190D02*
X200680523Y-37097142D01*
X200680523Y-37097142D02*
X200680523Y-37059047D01*
X200680523Y-37059047D02*
X200671000Y-37039999D01*
X200671000Y-37039999D02*
X200661476Y-37030476D01*
X200661476Y-37030476D02*
X200642428Y-37020952D01*
X200642428Y-37020952D02*
X200480523Y-37020952D01*
X200480523Y-36954285D02*
X200480523Y-36839999D01*
X200680523Y-36897142D02*
X200480523Y-36897142D01*
X200480523Y-36639999D02*
X200480523Y-36506666D01*
X200480523Y-36506666D02*
X200680523Y-36639999D01*
X200680523Y-36639999D02*
X200680523Y-36506666D01*
X200480523Y-36392380D02*
X200480523Y-36354285D01*
X200480523Y-36354285D02*
X200490047Y-36335237D01*
X200490047Y-36335237D02*
X200509095Y-36316190D01*
X200509095Y-36316190D02*
X200547190Y-36306666D01*
X200547190Y-36306666D02*
X200613857Y-36306666D01*
X200613857Y-36306666D02*
X200651952Y-36316190D01*
X200651952Y-36316190D02*
X200671000Y-36335237D01*
X200671000Y-36335237D02*
X200680523Y-36354285D01*
X200680523Y-36354285D02*
X200680523Y-36392380D01*
X200680523Y-36392380D02*
X200671000Y-36411428D01*
X200671000Y-36411428D02*
X200651952Y-36430475D01*
X200651952Y-36430475D02*
X200613857Y-36439999D01*
X200613857Y-36439999D02*
X200547190Y-36439999D01*
X200547190Y-36439999D02*
X200509095Y-36430475D01*
X200509095Y-36430475D02*
X200490047Y-36411428D01*
X200490047Y-36411428D02*
X200480523Y-36392380D01*
X200680523Y-36220951D02*
X200480523Y-36220951D01*
X200480523Y-36220951D02*
X200680523Y-36106666D01*
X200680523Y-36106666D02*
X200480523Y-36106666D01*
X200575761Y-36011427D02*
X200575761Y-35944761D01*
X200680523Y-35916189D02*
X200680523Y-36011427D01*
X200680523Y-36011427D02*
X200480523Y-36011427D01*
X200480523Y-36011427D02*
X200480523Y-35916189D01*
X200280523Y-38220952D02*
X200080523Y-38220952D01*
X200080523Y-38220952D02*
X200280523Y-38106667D01*
X200280523Y-38106667D02*
X200080523Y-38106667D01*
X200280523Y-37982857D02*
X200271000Y-38001905D01*
X200271000Y-38001905D02*
X200261476Y-38011428D01*
X200261476Y-38011428D02*
X200242428Y-38020952D01*
X200242428Y-38020952D02*
X200185285Y-38020952D01*
X200185285Y-38020952D02*
X200166238Y-38011428D01*
X200166238Y-38011428D02*
X200156714Y-38001905D01*
X200156714Y-38001905D02*
X200147190Y-37982857D01*
X200147190Y-37982857D02*
X200147190Y-37954286D01*
X200147190Y-37954286D02*
X200156714Y-37935238D01*
X200156714Y-37935238D02*
X200166238Y-37925714D01*
X200166238Y-37925714D02*
X200185285Y-37916190D01*
X200185285Y-37916190D02*
X200242428Y-37916190D01*
X200242428Y-37916190D02*
X200261476Y-37925714D01*
X200261476Y-37925714D02*
X200271000Y-37935238D01*
X200271000Y-37935238D02*
X200280523Y-37954286D01*
X200280523Y-37954286D02*
X200280523Y-37982857D01*
X200175761Y-37611429D02*
X200175761Y-37678095D01*
X200280523Y-37678095D02*
X200080523Y-37678095D01*
X200080523Y-37678095D02*
X200080523Y-37582857D01*
X200261476Y-37506666D02*
X200271000Y-37497143D01*
X200271000Y-37497143D02*
X200280523Y-37506666D01*
X200280523Y-37506666D02*
X200271000Y-37516190D01*
X200271000Y-37516190D02*
X200261476Y-37506666D01*
X200261476Y-37506666D02*
X200280523Y-37506666D01*
X200261476Y-37297143D02*
X200271000Y-37306667D01*
X200271000Y-37306667D02*
X200280523Y-37335238D01*
X200280523Y-37335238D02*
X200280523Y-37354286D01*
X200280523Y-37354286D02*
X200271000Y-37382857D01*
X200271000Y-37382857D02*
X200251952Y-37401905D01*
X200251952Y-37401905D02*
X200232904Y-37411428D01*
X200232904Y-37411428D02*
X200194809Y-37420952D01*
X200194809Y-37420952D02*
X200166238Y-37420952D01*
X200166238Y-37420952D02*
X200128142Y-37411428D01*
X200128142Y-37411428D02*
X200109095Y-37401905D01*
X200109095Y-37401905D02*
X200090047Y-37382857D01*
X200090047Y-37382857D02*
X200080523Y-37354286D01*
X200080523Y-37354286D02*
X200080523Y-37335238D01*
X200080523Y-37335238D02*
X200090047Y-37306667D01*
X200090047Y-37306667D02*
X200099571Y-37297143D01*
X200147190Y-37125714D02*
X200280523Y-37125714D01*
X200147190Y-37211428D02*
X200251952Y-37211428D01*
X200251952Y-37211428D02*
X200271000Y-37201905D01*
X200271000Y-37201905D02*
X200280523Y-37182857D01*
X200280523Y-37182857D02*
X200280523Y-37154286D01*
X200280523Y-37154286D02*
X200271000Y-37135238D01*
X200271000Y-37135238D02*
X200261476Y-37125714D01*
X200147190Y-36906667D02*
X200147190Y-36830476D01*
X200080523Y-36878095D02*
X200251952Y-36878095D01*
X200251952Y-36878095D02*
X200271000Y-36868572D01*
X200271000Y-36868572D02*
X200280523Y-36849524D01*
X200280523Y-36849524D02*
X200280523Y-36830476D01*
X200280523Y-36763809D02*
X200147190Y-36763809D01*
X200185285Y-36763809D02*
X200166238Y-36754286D01*
X200166238Y-36754286D02*
X200156714Y-36744762D01*
X200156714Y-36744762D02*
X200147190Y-36725714D01*
X200147190Y-36725714D02*
X200147190Y-36706667D01*
X200280523Y-36554285D02*
X200175761Y-36554285D01*
X200175761Y-36554285D02*
X200156714Y-36563809D01*
X200156714Y-36563809D02*
X200147190Y-36582857D01*
X200147190Y-36582857D02*
X200147190Y-36620952D01*
X200147190Y-36620952D02*
X200156714Y-36639999D01*
X200271000Y-36554285D02*
X200280523Y-36573333D01*
X200280523Y-36573333D02*
X200280523Y-36620952D01*
X200280523Y-36620952D02*
X200271000Y-36639999D01*
X200271000Y-36639999D02*
X200251952Y-36649523D01*
X200251952Y-36649523D02*
X200232904Y-36649523D01*
X200232904Y-36649523D02*
X200213857Y-36639999D01*
X200213857Y-36639999D02*
X200204333Y-36620952D01*
X200204333Y-36620952D02*
X200204333Y-36573333D01*
X200204333Y-36573333D02*
X200194809Y-36554285D01*
X200271000Y-36373333D02*
X200280523Y-36392381D01*
X200280523Y-36392381D02*
X200280523Y-36430476D01*
X200280523Y-36430476D02*
X200271000Y-36449524D01*
X200271000Y-36449524D02*
X200261476Y-36459047D01*
X200261476Y-36459047D02*
X200242428Y-36468571D01*
X200242428Y-36468571D02*
X200185285Y-36468571D01*
X200185285Y-36468571D02*
X200166238Y-36459047D01*
X200166238Y-36459047D02*
X200156714Y-36449524D01*
X200156714Y-36449524D02*
X200147190Y-36430476D01*
X200147190Y-36430476D02*
X200147190Y-36392381D01*
X200147190Y-36392381D02*
X200156714Y-36373333D01*
X200280523Y-36287618D02*
X200080523Y-36287618D01*
X200204333Y-36268571D02*
X200280523Y-36211428D01*
X200147190Y-36211428D02*
X200223380Y-36287618D01*
X200271000Y-36135237D02*
X200280523Y-36116190D01*
X200280523Y-36116190D02*
X200280523Y-36078094D01*
X200280523Y-36078094D02*
X200271000Y-36059047D01*
X200271000Y-36059047D02*
X200251952Y-36049523D01*
X200251952Y-36049523D02*
X200242428Y-36049523D01*
X200242428Y-36049523D02*
X200223380Y-36059047D01*
X200223380Y-36059047D02*
X200213857Y-36078094D01*
X200213857Y-36078094D02*
X200213857Y-36106666D01*
X200213857Y-36106666D02*
X200204333Y-36125713D01*
X200204333Y-36125713D02*
X200185285Y-36135237D01*
X200185285Y-36135237D02*
X200175761Y-36135237D01*
X200175761Y-36135237D02*
X200156714Y-36125713D01*
X200156714Y-36125713D02*
X200147190Y-36106666D01*
X200147190Y-36106666D02*
X200147190Y-36078094D01*
X200147190Y-36078094D02*
X200156714Y-36059047D01*
X200680523Y-33354284D02*
X200480523Y-33354284D01*
X200680523Y-33239999D02*
X200566238Y-33325713D01*
X200480523Y-33239999D02*
X200594809Y-33354284D01*
X200575761Y-33154284D02*
X200575761Y-33087618D01*
X200680523Y-33059046D02*
X200680523Y-33154284D01*
X200680523Y-33154284D02*
X200480523Y-33154284D01*
X200480523Y-33154284D02*
X200480523Y-33059046D01*
X200575761Y-32973332D02*
X200575761Y-32906666D01*
X200680523Y-32878094D02*
X200680523Y-32973332D01*
X200680523Y-32973332D02*
X200480523Y-32973332D01*
X200480523Y-32973332D02*
X200480523Y-32878094D01*
X200680523Y-32792380D02*
X200480523Y-32792380D01*
X200480523Y-32792380D02*
X200480523Y-32716190D01*
X200480523Y-32716190D02*
X200490047Y-32697142D01*
X200490047Y-32697142D02*
X200499571Y-32687619D01*
X200499571Y-32687619D02*
X200518619Y-32678095D01*
X200518619Y-32678095D02*
X200547190Y-32678095D01*
X200547190Y-32678095D02*
X200566238Y-32687619D01*
X200566238Y-32687619D02*
X200575761Y-32697142D01*
X200575761Y-32697142D02*
X200585285Y-32716190D01*
X200585285Y-32716190D02*
X200585285Y-32792380D01*
X200604333Y-32592380D02*
X200604333Y-32440000D01*
X200480523Y-32306666D02*
X200480523Y-32268571D01*
X200480523Y-32268571D02*
X200490047Y-32249523D01*
X200490047Y-32249523D02*
X200509095Y-32230476D01*
X200509095Y-32230476D02*
X200547190Y-32220952D01*
X200547190Y-32220952D02*
X200613857Y-32220952D01*
X200613857Y-32220952D02*
X200651952Y-32230476D01*
X200651952Y-32230476D02*
X200671000Y-32249523D01*
X200671000Y-32249523D02*
X200680523Y-32268571D01*
X200680523Y-32268571D02*
X200680523Y-32306666D01*
X200680523Y-32306666D02*
X200671000Y-32325714D01*
X200671000Y-32325714D02*
X200651952Y-32344761D01*
X200651952Y-32344761D02*
X200613857Y-32354285D01*
X200613857Y-32354285D02*
X200547190Y-32354285D01*
X200547190Y-32354285D02*
X200509095Y-32344761D01*
X200509095Y-32344761D02*
X200490047Y-32325714D01*
X200490047Y-32325714D02*
X200480523Y-32306666D01*
X200480523Y-32135237D02*
X200642428Y-32135237D01*
X200642428Y-32135237D02*
X200661476Y-32125714D01*
X200661476Y-32125714D02*
X200671000Y-32116190D01*
X200671000Y-32116190D02*
X200680523Y-32097142D01*
X200680523Y-32097142D02*
X200680523Y-32059047D01*
X200680523Y-32059047D02*
X200671000Y-32039999D01*
X200671000Y-32039999D02*
X200661476Y-32030476D01*
X200661476Y-32030476D02*
X200642428Y-32020952D01*
X200642428Y-32020952D02*
X200480523Y-32020952D01*
X200480523Y-31954285D02*
X200480523Y-31839999D01*
X200680523Y-31897142D02*
X200480523Y-31897142D01*
X200480523Y-31639999D02*
X200480523Y-31506666D01*
X200480523Y-31506666D02*
X200680523Y-31639999D01*
X200680523Y-31639999D02*
X200680523Y-31506666D01*
X200480523Y-31392380D02*
X200480523Y-31354285D01*
X200480523Y-31354285D02*
X200490047Y-31335237D01*
X200490047Y-31335237D02*
X200509095Y-31316190D01*
X200509095Y-31316190D02*
X200547190Y-31306666D01*
X200547190Y-31306666D02*
X200613857Y-31306666D01*
X200613857Y-31306666D02*
X200651952Y-31316190D01*
X200651952Y-31316190D02*
X200671000Y-31335237D01*
X200671000Y-31335237D02*
X200680523Y-31354285D01*
X200680523Y-31354285D02*
X200680523Y-31392380D01*
X200680523Y-31392380D02*
X200671000Y-31411428D01*
X200671000Y-31411428D02*
X200651952Y-31430475D01*
X200651952Y-31430475D02*
X200613857Y-31439999D01*
X200613857Y-31439999D02*
X200547190Y-31439999D01*
X200547190Y-31439999D02*
X200509095Y-31430475D01*
X200509095Y-31430475D02*
X200490047Y-31411428D01*
X200490047Y-31411428D02*
X200480523Y-31392380D01*
X200680523Y-31220951D02*
X200480523Y-31220951D01*
X200480523Y-31220951D02*
X200680523Y-31106666D01*
X200680523Y-31106666D02*
X200480523Y-31106666D01*
X200575761Y-31011427D02*
X200575761Y-30944761D01*
X200680523Y-30916189D02*
X200680523Y-31011427D01*
X200680523Y-31011427D02*
X200480523Y-31011427D01*
X200480523Y-31011427D02*
X200480523Y-30916189D01*
X200280523Y-33220952D02*
X200080523Y-33220952D01*
X200080523Y-33220952D02*
X200280523Y-33106667D01*
X200280523Y-33106667D02*
X200080523Y-33106667D01*
X200280523Y-32982857D02*
X200271000Y-33001905D01*
X200271000Y-33001905D02*
X200261476Y-33011428D01*
X200261476Y-33011428D02*
X200242428Y-33020952D01*
X200242428Y-33020952D02*
X200185285Y-33020952D01*
X200185285Y-33020952D02*
X200166238Y-33011428D01*
X200166238Y-33011428D02*
X200156714Y-33001905D01*
X200156714Y-33001905D02*
X200147190Y-32982857D01*
X200147190Y-32982857D02*
X200147190Y-32954286D01*
X200147190Y-32954286D02*
X200156714Y-32935238D01*
X200156714Y-32935238D02*
X200166238Y-32925714D01*
X200166238Y-32925714D02*
X200185285Y-32916190D01*
X200185285Y-32916190D02*
X200242428Y-32916190D01*
X200242428Y-32916190D02*
X200261476Y-32925714D01*
X200261476Y-32925714D02*
X200271000Y-32935238D01*
X200271000Y-32935238D02*
X200280523Y-32954286D01*
X200280523Y-32954286D02*
X200280523Y-32982857D01*
X200175761Y-32611429D02*
X200175761Y-32678095D01*
X200280523Y-32678095D02*
X200080523Y-32678095D01*
X200080523Y-32678095D02*
X200080523Y-32582857D01*
X200261476Y-32506666D02*
X200271000Y-32497143D01*
X200271000Y-32497143D02*
X200280523Y-32506666D01*
X200280523Y-32506666D02*
X200271000Y-32516190D01*
X200271000Y-32516190D02*
X200261476Y-32506666D01*
X200261476Y-32506666D02*
X200280523Y-32506666D01*
X200261476Y-32297143D02*
X200271000Y-32306667D01*
X200271000Y-32306667D02*
X200280523Y-32335238D01*
X200280523Y-32335238D02*
X200280523Y-32354286D01*
X200280523Y-32354286D02*
X200271000Y-32382857D01*
X200271000Y-32382857D02*
X200251952Y-32401905D01*
X200251952Y-32401905D02*
X200232904Y-32411428D01*
X200232904Y-32411428D02*
X200194809Y-32420952D01*
X200194809Y-32420952D02*
X200166238Y-32420952D01*
X200166238Y-32420952D02*
X200128142Y-32411428D01*
X200128142Y-32411428D02*
X200109095Y-32401905D01*
X200109095Y-32401905D02*
X200090047Y-32382857D01*
X200090047Y-32382857D02*
X200080523Y-32354286D01*
X200080523Y-32354286D02*
X200080523Y-32335238D01*
X200080523Y-32335238D02*
X200090047Y-32306667D01*
X200090047Y-32306667D02*
X200099571Y-32297143D01*
X200147190Y-32125714D02*
X200280523Y-32125714D01*
X200147190Y-32211428D02*
X200251952Y-32211428D01*
X200251952Y-32211428D02*
X200271000Y-32201905D01*
X200271000Y-32201905D02*
X200280523Y-32182857D01*
X200280523Y-32182857D02*
X200280523Y-32154286D01*
X200280523Y-32154286D02*
X200271000Y-32135238D01*
X200271000Y-32135238D02*
X200261476Y-32125714D01*
X200147190Y-31906667D02*
X200147190Y-31830476D01*
X200080523Y-31878095D02*
X200251952Y-31878095D01*
X200251952Y-31878095D02*
X200271000Y-31868572D01*
X200271000Y-31868572D02*
X200280523Y-31849524D01*
X200280523Y-31849524D02*
X200280523Y-31830476D01*
X200280523Y-31763809D02*
X200147190Y-31763809D01*
X200185285Y-31763809D02*
X200166238Y-31754286D01*
X200166238Y-31754286D02*
X200156714Y-31744762D01*
X200156714Y-31744762D02*
X200147190Y-31725714D01*
X200147190Y-31725714D02*
X200147190Y-31706667D01*
X200280523Y-31554285D02*
X200175761Y-31554285D01*
X200175761Y-31554285D02*
X200156714Y-31563809D01*
X200156714Y-31563809D02*
X200147190Y-31582857D01*
X200147190Y-31582857D02*
X200147190Y-31620952D01*
X200147190Y-31620952D02*
X200156714Y-31639999D01*
X200271000Y-31554285D02*
X200280523Y-31573333D01*
X200280523Y-31573333D02*
X200280523Y-31620952D01*
X200280523Y-31620952D02*
X200271000Y-31639999D01*
X200271000Y-31639999D02*
X200251952Y-31649523D01*
X200251952Y-31649523D02*
X200232904Y-31649523D01*
X200232904Y-31649523D02*
X200213857Y-31639999D01*
X200213857Y-31639999D02*
X200204333Y-31620952D01*
X200204333Y-31620952D02*
X200204333Y-31573333D01*
X200204333Y-31573333D02*
X200194809Y-31554285D01*
X200271000Y-31373333D02*
X200280523Y-31392381D01*
X200280523Y-31392381D02*
X200280523Y-31430476D01*
X200280523Y-31430476D02*
X200271000Y-31449524D01*
X200271000Y-31449524D02*
X200261476Y-31459047D01*
X200261476Y-31459047D02*
X200242428Y-31468571D01*
X200242428Y-31468571D02*
X200185285Y-31468571D01*
X200185285Y-31468571D02*
X200166238Y-31459047D01*
X200166238Y-31459047D02*
X200156714Y-31449524D01*
X200156714Y-31449524D02*
X200147190Y-31430476D01*
X200147190Y-31430476D02*
X200147190Y-31392381D01*
X200147190Y-31392381D02*
X200156714Y-31373333D01*
X200280523Y-31287618D02*
X200080523Y-31287618D01*
X200204333Y-31268571D02*
X200280523Y-31211428D01*
X200147190Y-31211428D02*
X200223380Y-31287618D01*
X200271000Y-31135237D02*
X200280523Y-31116190D01*
X200280523Y-31116190D02*
X200280523Y-31078094D01*
X200280523Y-31078094D02*
X200271000Y-31059047D01*
X200271000Y-31059047D02*
X200251952Y-31049523D01*
X200251952Y-31049523D02*
X200242428Y-31049523D01*
X200242428Y-31049523D02*
X200223380Y-31059047D01*
X200223380Y-31059047D02*
X200213857Y-31078094D01*
X200213857Y-31078094D02*
X200213857Y-31106666D01*
X200213857Y-31106666D02*
X200204333Y-31125713D01*
X200204333Y-31125713D02*
X200185285Y-31135237D01*
X200185285Y-31135237D02*
X200175761Y-31135237D01*
X200175761Y-31135237D02*
X200156714Y-31125713D01*
X200156714Y-31125713D02*
X200147190Y-31106666D01*
X200147190Y-31106666D02*
X200147190Y-31078094D01*
X200147190Y-31078094D02*
X200156714Y-31059047D01*
D11*
%TO.C,J2*%
X217340047Y-66148095D02*
X216940047Y-66148095D01*
X217340047Y-65919524D02*
X217111476Y-66090953D01*
X216940047Y-65919524D02*
X217168619Y-66148095D01*
X217130523Y-65748095D02*
X217130523Y-65614762D01*
X217340047Y-65557619D02*
X217340047Y-65748095D01*
X217340047Y-65748095D02*
X216940047Y-65748095D01*
X216940047Y-65748095D02*
X216940047Y-65557619D01*
X217130523Y-65386190D02*
X217130523Y-65252857D01*
X217340047Y-65195714D02*
X217340047Y-65386190D01*
X217340047Y-65386190D02*
X216940047Y-65386190D01*
X216940047Y-65386190D02*
X216940047Y-65195714D01*
X217340047Y-65024285D02*
X216940047Y-65024285D01*
X216940047Y-65024285D02*
X216940047Y-64871904D01*
X216940047Y-64871904D02*
X216959095Y-64833809D01*
X216959095Y-64833809D02*
X216978142Y-64814762D01*
X216978142Y-64814762D02*
X217016238Y-64795714D01*
X217016238Y-64795714D02*
X217073380Y-64795714D01*
X217073380Y-64795714D02*
X217111476Y-64814762D01*
X217111476Y-64814762D02*
X217130523Y-64833809D01*
X217130523Y-64833809D02*
X217149571Y-64871904D01*
X217149571Y-64871904D02*
X217149571Y-65024285D01*
X216940047Y-64548095D02*
X216940047Y-64471904D01*
X216940047Y-64471904D02*
X216959095Y-64433809D01*
X216959095Y-64433809D02*
X216997190Y-64395714D01*
X216997190Y-64395714D02*
X217073380Y-64376666D01*
X217073380Y-64376666D02*
X217206714Y-64376666D01*
X217206714Y-64376666D02*
X217282904Y-64395714D01*
X217282904Y-64395714D02*
X217321000Y-64433809D01*
X217321000Y-64433809D02*
X217340047Y-64471904D01*
X217340047Y-64471904D02*
X217340047Y-64548095D01*
X217340047Y-64548095D02*
X217321000Y-64586190D01*
X217321000Y-64586190D02*
X217282904Y-64624285D01*
X217282904Y-64624285D02*
X217206714Y-64643333D01*
X217206714Y-64643333D02*
X217073380Y-64643333D01*
X217073380Y-64643333D02*
X216997190Y-64624285D01*
X216997190Y-64624285D02*
X216959095Y-64586190D01*
X216959095Y-64586190D02*
X216940047Y-64548095D01*
X216940047Y-64205237D02*
X217263857Y-64205237D01*
X217263857Y-64205237D02*
X217301952Y-64186190D01*
X217301952Y-64186190D02*
X217321000Y-64167142D01*
X217321000Y-64167142D02*
X217340047Y-64129047D01*
X217340047Y-64129047D02*
X217340047Y-64052856D01*
X217340047Y-64052856D02*
X217321000Y-64014761D01*
X217321000Y-64014761D02*
X217301952Y-63995714D01*
X217301952Y-63995714D02*
X217263857Y-63976666D01*
X217263857Y-63976666D02*
X216940047Y-63976666D01*
X216940047Y-63843332D02*
X216940047Y-63614761D01*
X217340047Y-63729047D02*
X216940047Y-63729047D01*
%TD*%
M02*
