%TF.GenerationSoftware,KiCad,Pcbnew,7.0.2*%
%TF.CreationDate,2023-06-26T23:20:29-04:00*%
%TF.ProjectId,ICOF1,49434f46-312e-46b6-9963-61645f706362,rev?*%
%TF.SameCoordinates,Original*%
%TF.FileFunction,Soldermask,Top*%
%TF.FilePolarity,Negative*%
%FSLAX46Y46*%
G04 Gerber Fmt 4.6, Leading zero omitted, Abs format (unit mm)*
G04 Created by KiCad (PCBNEW 7.0.2) date 2023-06-26 23:20:29*
%MOMM*%
%LPD*%
G01*
G04 APERTURE LIST*
G04 Aperture macros list*
%AMRoundRect*
0 Rectangle with rounded corners*
0 $1 Rounding radius*
0 $2 $3 $4 $5 $6 $7 $8 $9 X,Y pos of 4 corners*
0 Add a 4 corners polygon primitive as box body*
4,1,4,$2,$3,$4,$5,$6,$7,$8,$9,$2,$3,0*
0 Add four circle primitives for the rounded corners*
1,1,$1+$1,$2,$3*
1,1,$1+$1,$4,$5*
1,1,$1+$1,$6,$7*
1,1,$1+$1,$8,$9*
0 Add four rect primitives between the rounded corners*
20,1,$1+$1,$2,$3,$4,$5,0*
20,1,$1+$1,$4,$5,$6,$7,0*
20,1,$1+$1,$6,$7,$8,$9,0*
20,1,$1+$1,$8,$9,$2,$3,0*%
G04 Aperture macros list end*
%ADD10C,9.000000*%
%ADD11C,3.000000*%
%ADD12C,8.000000*%
%ADD13R,1.100000X1.800000*%
%ADD14RoundRect,0.140000X0.170000X-0.140000X0.170000X0.140000X-0.170000X0.140000X-0.170000X-0.140000X0*%
%ADD15RoundRect,0.200000X-0.275000X0.200000X-0.275000X-0.200000X0.275000X-0.200000X0.275000X0.200000X0*%
%ADD16RoundRect,0.150000X0.587500X0.150000X-0.587500X0.150000X-0.587500X-0.150000X0.587500X-0.150000X0*%
%ADD17RoundRect,0.140000X0.140000X0.170000X-0.140000X0.170000X-0.140000X-0.170000X0.140000X-0.170000X0*%
%ADD18RoundRect,0.200000X0.275000X-0.200000X0.275000X0.200000X-0.275000X0.200000X-0.275000X-0.200000X0*%
%ADD19RoundRect,0.140000X-0.219203X-0.021213X-0.021213X-0.219203X0.219203X0.021213X0.021213X0.219203X0*%
%ADD20RoundRect,0.135000X0.135000X0.185000X-0.135000X0.185000X-0.135000X-0.185000X0.135000X-0.185000X0*%
%ADD21R,1.400000X1.200000*%
%ADD22RoundRect,0.140000X-0.021213X0.219203X-0.219203X0.021213X0.021213X-0.219203X0.219203X-0.021213X0*%
%ADD23RoundRect,0.250000X-0.375000X-0.625000X0.375000X-0.625000X0.375000X0.625000X-0.375000X0.625000X0*%
%ADD24RoundRect,0.135000X-0.135000X-0.185000X0.135000X-0.185000X0.135000X0.185000X-0.135000X0.185000X0*%
%ADD25RoundRect,0.225000X0.375000X-0.225000X0.375000X0.225000X-0.375000X0.225000X-0.375000X-0.225000X0*%
%ADD26RoundRect,0.140000X-0.140000X-0.170000X0.140000X-0.170000X0.140000X0.170000X-0.140000X0.170000X0*%
%ADD27RoundRect,0.135000X0.185000X-0.135000X0.185000X0.135000X-0.185000X0.135000X-0.185000X-0.135000X0*%
%ADD28RoundRect,0.140000X-0.170000X0.140000X-0.170000X-0.140000X0.170000X-0.140000X0.170000X0.140000X0*%
%ADD29RoundRect,0.135000X-0.185000X0.135000X-0.185000X-0.135000X0.185000X-0.135000X0.185000X0.135000X0*%
%ADD30RoundRect,0.243750X-0.494975X-0.150260X-0.150260X-0.494975X0.494975X0.150260X0.150260X0.494975X0*%
%ADD31RoundRect,0.050000X-0.387500X-0.050000X0.387500X-0.050000X0.387500X0.050000X-0.387500X0.050000X0*%
%ADD32RoundRect,0.050000X-0.050000X-0.387500X0.050000X-0.387500X0.050000X0.387500X-0.050000X0.387500X0*%
%ADD33RoundRect,0.144000X-1.456000X-1.456000X1.456000X-1.456000X1.456000X1.456000X-1.456000X1.456000X0*%
%ADD34C,8.500000*%
%ADD35C,0.990600*%
%ADD36C,0.787400*%
%ADD37RoundRect,0.150000X-0.150000X0.512500X-0.150000X-0.512500X0.150000X-0.512500X0.150000X0.512500X0*%
%ADD38C,0.650000*%
%ADD39R,0.300000X0.900000*%
%ADD40R,0.300000X0.700000*%
%ADD41O,0.800000X1.400000*%
%ADD42RoundRect,0.150000X-0.650000X-0.150000X0.650000X-0.150000X0.650000X0.150000X-0.650000X0.150000X0*%
%ADD43C,1.800000*%
%ADD44C,3.987800*%
%ADD45C,2.286000*%
G04 APERTURE END LIST*
D10*
%TO.C,@HOLE15*%
X320031100Y-158103600D03*
%TD*%
D11*
%TO.C,@HOLE1*%
X348031100Y-144103600D03*
%TD*%
D12*
%TO.C,@HOLE6*%
X50031100Y-140103600D03*
%TD*%
D13*
%TO.C,SW1*%
X202051726Y-30906330D03*
X202051726Y-37106330D03*
X198351726Y-30906330D03*
X198351726Y-37106330D03*
%TD*%
D14*
%TO.C,C13*%
X205468750Y-50583125D03*
X205468750Y-49623125D03*
%TD*%
D15*
%TO.C,R5*%
X223232000Y-48547000D03*
X223232000Y-50197000D03*
%TD*%
D16*
%TO.C,U1*%
X216414000Y-40677107D03*
X216414000Y-38777107D03*
X214539000Y-39727107D03*
%TD*%
D10*
%TO.C,@HOLE11*%
X238031100Y-41603600D03*
%TD*%
D12*
%TO.C,@HOLE8*%
X248031100Y-68103600D03*
%TD*%
D17*
%TO.C,C2*%
X215504000Y-37487107D03*
X214544000Y-37487107D03*
%TD*%
D11*
%TO.C,@HOLE0*%
X132031100Y-163103600D03*
%TD*%
D18*
%TO.C,R6*%
X224772000Y-50197000D03*
X224772000Y-48547000D03*
%TD*%
D19*
%TO.C,C11*%
X217150000Y-55870000D03*
X217828822Y-56548822D03*
%TD*%
D20*
%TO.C,R2*%
X207250000Y-33500000D03*
X206230000Y-33500000D03*
%TD*%
D21*
%TO.C,Y1*%
X207306978Y-64390000D03*
X205106978Y-64390000D03*
X205106978Y-66090000D03*
X207306978Y-66090000D03*
%TD*%
D22*
%TO.C,C15*%
X204449411Y-55340589D03*
X203770589Y-56019411D03*
%TD*%
D14*
%TO.C,C8*%
X210343991Y-65590000D03*
X210343991Y-64630000D03*
%TD*%
D23*
%TO.C,F1*%
X214434000Y-34367107D03*
X217234000Y-34367107D03*
%TD*%
D24*
%TO.C,R1*%
X217404000Y-29560000D03*
X218424000Y-29560000D03*
%TD*%
D12*
%TO.C,@HOLE4*%
X332031100Y-51103600D03*
%TD*%
D25*
%TO.C,D2*%
X220954000Y-38037107D03*
X220954000Y-34737107D03*
%TD*%
D17*
%TO.C,C9*%
X218524000Y-44332107D03*
X217564000Y-44332107D03*
%TD*%
D11*
%TO.C,@HOLE3*%
X246031100Y-123103600D03*
%TD*%
D26*
%TO.C,C1*%
X217564000Y-45532107D03*
X218524000Y-45532107D03*
%TD*%
D24*
%TO.C,R4*%
X215980000Y-53480000D03*
X217000000Y-53480000D03*
%TD*%
D12*
%TO.C,@HOLE5*%
X340031100Y-155103600D03*
%TD*%
D14*
%TO.C,C4*%
X213469750Y-48043125D03*
X213469750Y-47083125D03*
%TD*%
D27*
%TO.C,R11*%
X207560000Y-62250000D03*
X207560000Y-61230000D03*
%TD*%
D28*
%TO.C,C6*%
X212320000Y-60920000D03*
X212320000Y-61880000D03*
%TD*%
D26*
%TO.C,C16*%
X216701000Y-48817357D03*
X217661000Y-48817357D03*
%TD*%
D11*
%TO.C,@HOLE10*%
X182930000Y-56050000D03*
%TD*%
D14*
%TO.C,C12*%
X214485750Y-48043125D03*
X214485750Y-47083125D03*
%TD*%
D26*
%TO.C,C3*%
X207370000Y-41300000D03*
X208330000Y-41300000D03*
%TD*%
D28*
%TO.C,C7*%
X202920000Y-64880000D03*
X202920000Y-65840000D03*
%TD*%
D24*
%TO.C,REF\u002A\u002A*%
X214390000Y-59240000D03*
X215410000Y-59240000D03*
%TD*%
D10*
%TO.C,@HOLE12*%
X52431100Y-105303600D03*
%TD*%
D15*
%TO.C,R9*%
X212664000Y-41222107D03*
X212664000Y-42872107D03*
%TD*%
D29*
%TO.C,R10*%
X198380423Y-38729478D03*
X198380423Y-39749478D03*
%TD*%
D12*
%TO.C,@HOLE7*%
X129031100Y-46103600D03*
%TD*%
D15*
%TO.C,R8*%
X211134000Y-41222107D03*
X211134000Y-42872107D03*
%TD*%
D14*
%TO.C,C10*%
X210704000Y-46249357D03*
X210704000Y-45289357D03*
%TD*%
D25*
%TO.C,D1*%
X218574000Y-42967107D03*
X218574000Y-39667107D03*
%TD*%
D11*
%TO.C,@HOLE2*%
X44031100Y-151103600D03*
%TD*%
D28*
%TO.C,C14*%
X211270000Y-60920000D03*
X211270000Y-61880000D03*
%TD*%
D30*
%TO.C,D3*%
X219057087Y-54517087D03*
X220382913Y-55842913D03*
%TD*%
D31*
%TO.C,U3*%
X207266500Y-51202107D03*
X207266500Y-51602107D03*
X207266500Y-52002107D03*
X207266500Y-52402107D03*
X207266500Y-52802107D03*
X207266500Y-53202107D03*
X207266500Y-53602107D03*
X207266500Y-54002107D03*
X207266500Y-54402107D03*
X207266500Y-54802107D03*
X207266500Y-55202107D03*
X207266500Y-55602107D03*
X207266500Y-56002107D03*
X207266500Y-56402107D03*
D32*
X208104000Y-57239607D03*
X208504000Y-57239607D03*
X208904000Y-57239607D03*
X209304000Y-57239607D03*
X209704000Y-57239607D03*
X210104000Y-57239607D03*
X210504000Y-57239607D03*
X210904000Y-57239607D03*
X211304000Y-57239607D03*
X211704000Y-57239607D03*
X212104000Y-57239607D03*
X212504000Y-57239607D03*
X212904000Y-57239607D03*
X213304000Y-57239607D03*
D31*
X214141500Y-56402107D03*
X214141500Y-56002107D03*
X214141500Y-55602107D03*
X214141500Y-55202107D03*
X214141500Y-54802107D03*
X214141500Y-54402107D03*
X214141500Y-54002107D03*
X214141500Y-53602107D03*
X214141500Y-53202107D03*
X214141500Y-52802107D03*
X214141500Y-52402107D03*
X214141500Y-52002107D03*
X214141500Y-51602107D03*
X214141500Y-51202107D03*
D32*
X213304000Y-50364607D03*
X212904000Y-50364607D03*
X212504000Y-50364607D03*
X212104000Y-50364607D03*
X211704000Y-50364607D03*
X211304000Y-50364607D03*
X210904000Y-50364607D03*
X210504000Y-50364607D03*
X210104000Y-50364607D03*
X209704000Y-50364607D03*
X209304000Y-50364607D03*
X208904000Y-50364607D03*
X208504000Y-50364607D03*
X208104000Y-50364607D03*
D33*
X210704000Y-53802107D03*
%TD*%
D14*
%TO.C,C5*%
X209180000Y-46249357D03*
X209180000Y-45289357D03*
%TD*%
D34*
%TO.C,@HOLE14*%
X186031100Y-127903600D03*
%TD*%
D10*
%TO.C,@HOLE13*%
X93831100Y-39803600D03*
%TD*%
D35*
%TO.C,J2*%
X217155000Y-62370000D03*
X218171000Y-67450000D03*
X216139000Y-67450000D03*
D36*
X216520000Y-63640000D03*
X217790000Y-63640000D03*
X216520000Y-64910000D03*
X217790000Y-64910000D03*
X216520000Y-66180000D03*
X217790000Y-66180000D03*
%TD*%
D37*
%TO.C,U2*%
X211498000Y-35119607D03*
X210548000Y-35119607D03*
X209598000Y-35119607D03*
X209598000Y-37394607D03*
X210548000Y-37394607D03*
X211498000Y-37394607D03*
%TD*%
D12*
%TO.C,@HOLE9*%
X200031100Y-157103600D03*
%TD*%
D26*
%TO.C,C17*%
X216701000Y-50341357D03*
X217661000Y-50341357D03*
%TD*%
D24*
%TO.C,R3*%
X218420000Y-31465000D03*
X219440000Y-31465000D03*
%TD*%
D38*
%TO.C,J1*%
X214656000Y-30656000D03*
X207306000Y-30656000D03*
D39*
X213806000Y-31216000D03*
X213306000Y-31216000D03*
X212806000Y-31216000D03*
X212306000Y-31216000D03*
X211806000Y-31216000D03*
D40*
X211306000Y-31216000D03*
X210806000Y-31216000D03*
D39*
X210306000Y-31216000D03*
X209806000Y-31216000D03*
X209306000Y-31216000D03*
X208806000Y-31216000D03*
X208306000Y-31216000D03*
D38*
X208256000Y-30006000D03*
X208656000Y-29306000D03*
X209456000Y-29306000D03*
X209856000Y-30006000D03*
X210256000Y-29306000D03*
X210656000Y-30006000D03*
X211456000Y-30006000D03*
X211856000Y-29306000D03*
X212256000Y-30006000D03*
X212656000Y-29306000D03*
X213456000Y-29306000D03*
X213856000Y-30006000D03*
D41*
X215546000Y-25016000D03*
X215111000Y-29406000D03*
X206851000Y-29406000D03*
X206566000Y-25016000D03*
%TD*%
D42*
%TO.C,U4*%
X198380000Y-41195000D03*
X198380000Y-42465000D03*
X198380000Y-43735000D03*
X198380000Y-45005000D03*
X205580000Y-45005000D03*
X205580000Y-43735000D03*
X205580000Y-42465000D03*
X205580000Y-41195000D03*
%TD*%
D43*
%TO.C,SW25*%
X351451100Y-69107600D03*
D11*
X350181100Y-71647600D03*
D44*
X346371100Y-69107600D03*
D11*
X343831100Y-74187600D03*
D43*
X341291100Y-69107600D03*
D45*
X348891100Y-63977600D03*
X342631100Y-66537600D03*
%TD*%
D43*
%TO.C,SW40*%
X312220100Y-130237600D03*
D11*
X310950100Y-132777600D03*
D44*
X307140100Y-130237600D03*
D11*
X304600100Y-135317600D03*
D43*
X302060100Y-130237600D03*
D45*
X309660100Y-125107600D03*
X303400100Y-127667600D03*
%TD*%
D43*
%TO.C,SW8*%
X111212100Y-66738600D03*
D11*
X109942100Y-69278600D03*
D44*
X106132100Y-66738600D03*
D11*
X103592100Y-71818600D03*
D43*
X101052100Y-66738600D03*
D45*
X108652100Y-61608600D03*
X102392100Y-64168600D03*
%TD*%
D43*
%TO.C,SW22*%
X323096100Y-66132600D03*
D11*
X321826100Y-68672600D03*
D44*
X318016100Y-66132600D03*
D11*
X315476100Y-71212600D03*
D43*
X312936100Y-66132600D03*
D45*
X320536100Y-61002600D03*
X314276100Y-63562600D03*
%TD*%
D43*
%TO.C,SW26*%
X377674100Y-85143600D03*
D11*
X376404100Y-87683600D03*
D44*
X372594100Y-85143600D03*
D11*
X370054100Y-90223600D03*
D43*
X367514100Y-85143600D03*
D45*
X375114100Y-80013600D03*
X368854100Y-82573600D03*
%TD*%
D43*
%TO.C,SW3*%
X217516100Y-78501600D03*
D11*
X216246100Y-81041600D03*
D44*
X212436100Y-78501600D03*
D11*
X209896100Y-83581600D03*
D43*
X207356100Y-78501600D03*
D45*
X214956100Y-73371600D03*
X208696100Y-75931600D03*
%TD*%
D43*
%TO.C,SW35*%
X289563100Y-114467600D03*
D11*
X288293100Y-117007600D03*
D44*
X284483100Y-114467600D03*
D11*
X281943100Y-119547600D03*
D43*
X279403100Y-114467600D03*
D45*
X287003100Y-109337600D03*
X280743100Y-111897600D03*
%TD*%
D43*
%TO.C,SW19*%
X377674100Y-57533600D03*
D11*
X376404100Y-60073600D03*
D44*
X372594100Y-57533600D03*
D11*
X370054100Y-62613600D03*
D43*
X367514100Y-57533600D03*
D45*
X375114100Y-52403600D03*
X368854100Y-54963600D03*
%TD*%
D43*
%TO.C,SW12*%
X296578100Y-50518600D03*
D11*
X295308100Y-53058600D03*
D44*
X291498100Y-50518600D03*
D11*
X288958100Y-55598600D03*
D43*
X286418100Y-50518600D03*
D45*
X294018100Y-45388600D03*
X287758100Y-47948600D03*
%TD*%
D43*
%TO.C,SW38*%
X289563100Y-145652600D03*
D11*
X288293100Y-148192600D03*
D44*
X284483100Y-145652600D03*
D11*
X281943100Y-150732600D03*
D43*
X279403100Y-145652600D03*
D45*
X287003100Y-140522600D03*
X280743100Y-143082600D03*
%TD*%
D43*
%TO.C,SW28*%
X144740000Y-145630000D03*
D11*
X143470000Y-148170000D03*
D44*
X139660000Y-145630000D03*
D11*
X137120000Y-150710000D03*
D43*
X134580000Y-145630000D03*
D45*
X142180000Y-140500000D03*
X135920000Y-143060000D03*
%TD*%
D43*
%TO.C,SW32*%
X266876100Y-130237600D03*
D11*
X265606100Y-132777600D03*
D44*
X261796100Y-130237600D03*
D11*
X259256100Y-135317600D03*
D43*
X256716100Y-130237600D03*
D45*
X264316100Y-125107600D03*
X258056100Y-127667600D03*
%TD*%
D43*
%TO.C,SW36*%
X266876100Y-161422600D03*
D11*
X265606100Y-163962600D03*
D44*
X261796100Y-161422600D03*
D11*
X259256100Y-166502600D03*
D43*
X256716100Y-161422600D03*
D45*
X264316100Y-156292600D03*
X258056100Y-158852600D03*
%TD*%
D43*
%TO.C,SW10*%
X137784100Y-78501600D03*
D11*
X136514100Y-81041600D03*
D44*
X132704100Y-78501600D03*
D11*
X130164100Y-83581600D03*
D43*
X127624100Y-78501600D03*
D45*
X135224100Y-73371600D03*
X128964100Y-75931600D03*
%TD*%
D43*
%TO.C,SW30*%
X167431100Y-161421600D03*
D11*
X166161100Y-163961600D03*
D44*
X162351100Y-161421600D03*
D11*
X159811100Y-166501600D03*
D43*
X157271100Y-161421600D03*
D45*
X164871100Y-156291600D03*
X158611100Y-158851600D03*
%TD*%
D43*
%TO.C,SW17*%
X351451100Y-41497600D03*
D11*
X350181100Y-44037600D03*
D44*
X346371100Y-41497600D03*
D11*
X343831100Y-46577600D03*
D43*
X341291100Y-41497600D03*
D45*
X348891100Y-36367600D03*
X342631100Y-38927600D03*
%TD*%
D43*
%TO.C,SW21*%
X296578100Y-78127600D03*
D11*
X295308100Y-80667600D03*
D44*
X291498100Y-78127600D03*
D11*
X288958100Y-83207600D03*
D43*
X286418100Y-78127600D03*
D45*
X294018100Y-72997600D03*
X287758100Y-75557600D03*
%TD*%
D43*
%TO.C,SW6*%
X82856100Y-69464600D03*
D11*
X81586100Y-72004600D03*
D44*
X77776100Y-69464600D03*
D11*
X75236100Y-74544600D03*
D43*
X72696100Y-69464600D03*
D45*
X80296100Y-64334600D03*
X74036100Y-66894600D03*
%TD*%
D43*
%TO.C,SW4*%
X57576100Y-85767600D03*
D11*
X56306100Y-88307600D03*
D44*
X52496100Y-85767600D03*
D11*
X49956100Y-90847600D03*
D43*
X47416100Y-85767600D03*
D45*
X55016100Y-80637600D03*
X48756100Y-83197600D03*
%TD*%
D43*
%TO.C,SW14*%
X323096100Y-38522600D03*
D11*
X321826100Y-41062600D03*
D44*
X318016100Y-38522600D03*
D11*
X315476100Y-43602600D03*
D43*
X312936100Y-38522600D03*
D45*
X320536100Y-33392600D03*
X314276100Y-35952600D03*
%TD*%
M02*
