%TF.GenerationSoftware,KiCad,Pcbnew,(7.0.0)*%
%TF.CreationDate,2023-03-22T04:15:03-04:00*%
%TF.ProjectId,ICOF1,49434f46-312e-46b6-9963-61645f706362,rev?*%
%TF.SameCoordinates,Original*%
%TF.FileFunction,Other,Comment*%
%FSLAX46Y46*%
G04 Gerber Fmt 4.6, Leading zero omitted, Abs format (unit mm)*
G04 Created by KiCad (PCBNEW (7.0.0)) date 2023-03-22 04:15:03*
%MOMM*%
%LPD*%
G01*
G04 APERTURE LIST*
%ADD10C,0.030000*%
G04 APERTURE END LIST*
D10*
%TO.C,SW1*%
X200553476Y-37148094D02*
X200353476Y-37148094D01*
X200553476Y-37033809D02*
X200439190Y-37119523D01*
X200353476Y-37033809D02*
X200467761Y-37148094D01*
X200448714Y-36948094D02*
X200448714Y-36881428D01*
X200553476Y-36852856D02*
X200553476Y-36948094D01*
X200553476Y-36948094D02*
X200353476Y-36948094D01*
X200353476Y-36948094D02*
X200353476Y-36852856D01*
X200448714Y-36767142D02*
X200448714Y-36700476D01*
X200553476Y-36671904D02*
X200553476Y-36767142D01*
X200553476Y-36767142D02*
X200353476Y-36767142D01*
X200353476Y-36767142D02*
X200353476Y-36671904D01*
X200553476Y-36586190D02*
X200353476Y-36586190D01*
X200353476Y-36586190D02*
X200353476Y-36510000D01*
X200353476Y-36510000D02*
X200363000Y-36490952D01*
X200363000Y-36490952D02*
X200372523Y-36481429D01*
X200372523Y-36481429D02*
X200391571Y-36471905D01*
X200391571Y-36471905D02*
X200420142Y-36471905D01*
X200420142Y-36471905D02*
X200439190Y-36481429D01*
X200439190Y-36481429D02*
X200448714Y-36490952D01*
X200448714Y-36490952D02*
X200458238Y-36510000D01*
X200458238Y-36510000D02*
X200458238Y-36586190D01*
X200477285Y-36386190D02*
X200477285Y-36233810D01*
X200353476Y-36100476D02*
X200353476Y-36062381D01*
X200353476Y-36062381D02*
X200363000Y-36043333D01*
X200363000Y-36043333D02*
X200382047Y-36024286D01*
X200382047Y-36024286D02*
X200420142Y-36014762D01*
X200420142Y-36014762D02*
X200486809Y-36014762D01*
X200486809Y-36014762D02*
X200524904Y-36024286D01*
X200524904Y-36024286D02*
X200543952Y-36043333D01*
X200543952Y-36043333D02*
X200553476Y-36062381D01*
X200553476Y-36062381D02*
X200553476Y-36100476D01*
X200553476Y-36100476D02*
X200543952Y-36119524D01*
X200543952Y-36119524D02*
X200524904Y-36138571D01*
X200524904Y-36138571D02*
X200486809Y-36148095D01*
X200486809Y-36148095D02*
X200420142Y-36148095D01*
X200420142Y-36148095D02*
X200382047Y-36138571D01*
X200382047Y-36138571D02*
X200363000Y-36119524D01*
X200363000Y-36119524D02*
X200353476Y-36100476D01*
X200353476Y-35929047D02*
X200515380Y-35929047D01*
X200515380Y-35929047D02*
X200534428Y-35919524D01*
X200534428Y-35919524D02*
X200543952Y-35910000D01*
X200543952Y-35910000D02*
X200553476Y-35890952D01*
X200553476Y-35890952D02*
X200553476Y-35852857D01*
X200553476Y-35852857D02*
X200543952Y-35833809D01*
X200543952Y-35833809D02*
X200534428Y-35824286D01*
X200534428Y-35824286D02*
X200515380Y-35814762D01*
X200515380Y-35814762D02*
X200353476Y-35814762D01*
X200353476Y-35748095D02*
X200353476Y-35633809D01*
X200553476Y-35690952D02*
X200353476Y-35690952D01*
X200353476Y-35466190D02*
X200353476Y-35332857D01*
X200353476Y-35332857D02*
X200553476Y-35466190D01*
X200553476Y-35466190D02*
X200553476Y-35332857D01*
X200353476Y-35218571D02*
X200353476Y-35180476D01*
X200353476Y-35180476D02*
X200363000Y-35161428D01*
X200363000Y-35161428D02*
X200382047Y-35142381D01*
X200382047Y-35142381D02*
X200420142Y-35132857D01*
X200420142Y-35132857D02*
X200486809Y-35132857D01*
X200486809Y-35132857D02*
X200524904Y-35142381D01*
X200524904Y-35142381D02*
X200543952Y-35161428D01*
X200543952Y-35161428D02*
X200553476Y-35180476D01*
X200553476Y-35180476D02*
X200553476Y-35218571D01*
X200553476Y-35218571D02*
X200543952Y-35237619D01*
X200543952Y-35237619D02*
X200524904Y-35256666D01*
X200524904Y-35256666D02*
X200486809Y-35266190D01*
X200486809Y-35266190D02*
X200420142Y-35266190D01*
X200420142Y-35266190D02*
X200382047Y-35256666D01*
X200382047Y-35256666D02*
X200363000Y-35237619D01*
X200363000Y-35237619D02*
X200353476Y-35218571D01*
X200553476Y-35047142D02*
X200353476Y-35047142D01*
X200353476Y-35047142D02*
X200553476Y-34932857D01*
X200553476Y-34932857D02*
X200353476Y-34932857D01*
X200448714Y-34837618D02*
X200448714Y-34770952D01*
X200553476Y-34742380D02*
X200553476Y-34837618D01*
X200553476Y-34837618D02*
X200353476Y-34837618D01*
X200353476Y-34837618D02*
X200353476Y-34742380D01*
X200153476Y-36998571D02*
X199953476Y-36998571D01*
X199953476Y-36998571D02*
X200153476Y-36884286D01*
X200153476Y-36884286D02*
X199953476Y-36884286D01*
X200153476Y-36760476D02*
X200143952Y-36779524D01*
X200143952Y-36779524D02*
X200134428Y-36789047D01*
X200134428Y-36789047D02*
X200115380Y-36798571D01*
X200115380Y-36798571D02*
X200058238Y-36798571D01*
X200058238Y-36798571D02*
X200039190Y-36789047D01*
X200039190Y-36789047D02*
X200029666Y-36779524D01*
X200029666Y-36779524D02*
X200020142Y-36760476D01*
X200020142Y-36760476D02*
X200020142Y-36731905D01*
X200020142Y-36731905D02*
X200029666Y-36712857D01*
X200029666Y-36712857D02*
X200039190Y-36703333D01*
X200039190Y-36703333D02*
X200058238Y-36693809D01*
X200058238Y-36693809D02*
X200115380Y-36693809D01*
X200115380Y-36693809D02*
X200134428Y-36703333D01*
X200134428Y-36703333D02*
X200143952Y-36712857D01*
X200143952Y-36712857D02*
X200153476Y-36731905D01*
X200153476Y-36731905D02*
X200153476Y-36760476D01*
X200048714Y-36421429D02*
X200048714Y-36488095D01*
X200153476Y-36488095D02*
X199953476Y-36488095D01*
X199953476Y-36488095D02*
X199953476Y-36392857D01*
X200134428Y-36316666D02*
X200143952Y-36307143D01*
X200143952Y-36307143D02*
X200153476Y-36316666D01*
X200153476Y-36316666D02*
X200143952Y-36326190D01*
X200143952Y-36326190D02*
X200134428Y-36316666D01*
X200134428Y-36316666D02*
X200153476Y-36316666D01*
X200134428Y-36107143D02*
X200143952Y-36116667D01*
X200143952Y-36116667D02*
X200153476Y-36145238D01*
X200153476Y-36145238D02*
X200153476Y-36164286D01*
X200153476Y-36164286D02*
X200143952Y-36192857D01*
X200143952Y-36192857D02*
X200124904Y-36211905D01*
X200124904Y-36211905D02*
X200105857Y-36221428D01*
X200105857Y-36221428D02*
X200067761Y-36230952D01*
X200067761Y-36230952D02*
X200039190Y-36230952D01*
X200039190Y-36230952D02*
X200001095Y-36221428D01*
X200001095Y-36221428D02*
X199982047Y-36211905D01*
X199982047Y-36211905D02*
X199963000Y-36192857D01*
X199963000Y-36192857D02*
X199953476Y-36164286D01*
X199953476Y-36164286D02*
X199953476Y-36145238D01*
X199953476Y-36145238D02*
X199963000Y-36116667D01*
X199963000Y-36116667D02*
X199972523Y-36107143D01*
X200020142Y-35935714D02*
X200153476Y-35935714D01*
X200020142Y-36021428D02*
X200124904Y-36021428D01*
X200124904Y-36021428D02*
X200143952Y-36011905D01*
X200143952Y-36011905D02*
X200153476Y-35992857D01*
X200153476Y-35992857D02*
X200153476Y-35964286D01*
X200153476Y-35964286D02*
X200143952Y-35945238D01*
X200143952Y-35945238D02*
X200134428Y-35935714D01*
X200020142Y-35749048D02*
X200020142Y-35672857D01*
X199953476Y-35720476D02*
X200124904Y-35720476D01*
X200124904Y-35720476D02*
X200143952Y-35710953D01*
X200143952Y-35710953D02*
X200153476Y-35691905D01*
X200153476Y-35691905D02*
X200153476Y-35672857D01*
X200153476Y-35606190D02*
X200020142Y-35606190D01*
X200058238Y-35606190D02*
X200039190Y-35596667D01*
X200039190Y-35596667D02*
X200029666Y-35587143D01*
X200029666Y-35587143D02*
X200020142Y-35568095D01*
X200020142Y-35568095D02*
X200020142Y-35549048D01*
X200153476Y-35396666D02*
X200048714Y-35396666D01*
X200048714Y-35396666D02*
X200029666Y-35406190D01*
X200029666Y-35406190D02*
X200020142Y-35425238D01*
X200020142Y-35425238D02*
X200020142Y-35463333D01*
X200020142Y-35463333D02*
X200029666Y-35482380D01*
X200143952Y-35396666D02*
X200153476Y-35415714D01*
X200153476Y-35415714D02*
X200153476Y-35463333D01*
X200153476Y-35463333D02*
X200143952Y-35482380D01*
X200143952Y-35482380D02*
X200124904Y-35491904D01*
X200124904Y-35491904D02*
X200105857Y-35491904D01*
X200105857Y-35491904D02*
X200086809Y-35482380D01*
X200086809Y-35482380D02*
X200077285Y-35463333D01*
X200077285Y-35463333D02*
X200077285Y-35415714D01*
X200077285Y-35415714D02*
X200067761Y-35396666D01*
X200143952Y-35215714D02*
X200153476Y-35234762D01*
X200153476Y-35234762D02*
X200153476Y-35272857D01*
X200153476Y-35272857D02*
X200143952Y-35291905D01*
X200143952Y-35291905D02*
X200134428Y-35301428D01*
X200134428Y-35301428D02*
X200115380Y-35310952D01*
X200115380Y-35310952D02*
X200058238Y-35310952D01*
X200058238Y-35310952D02*
X200039190Y-35301428D01*
X200039190Y-35301428D02*
X200029666Y-35291905D01*
X200029666Y-35291905D02*
X200020142Y-35272857D01*
X200020142Y-35272857D02*
X200020142Y-35234762D01*
X200020142Y-35234762D02*
X200029666Y-35215714D01*
X200153476Y-35129999D02*
X199953476Y-35129999D01*
X200077285Y-35110952D02*
X200153476Y-35053809D01*
X200020142Y-35053809D02*
X200096333Y-35129999D01*
X200143952Y-34977618D02*
X200153476Y-34958571D01*
X200153476Y-34958571D02*
X200153476Y-34920475D01*
X200153476Y-34920475D02*
X200143952Y-34901428D01*
X200143952Y-34901428D02*
X200124904Y-34891904D01*
X200124904Y-34891904D02*
X200115380Y-34891904D01*
X200115380Y-34891904D02*
X200096333Y-34901428D01*
X200096333Y-34901428D02*
X200086809Y-34920475D01*
X200086809Y-34920475D02*
X200086809Y-34949047D01*
X200086809Y-34949047D02*
X200077285Y-34968094D01*
X200077285Y-34968094D02*
X200058238Y-34977618D01*
X200058238Y-34977618D02*
X200048714Y-34977618D01*
X200048714Y-34977618D02*
X200029666Y-34968094D01*
X200029666Y-34968094D02*
X200020142Y-34949047D01*
X200020142Y-34949047D02*
X200020142Y-34920475D01*
X200020142Y-34920475D02*
X200029666Y-34901428D01*
X200553476Y-32148094D02*
X200353476Y-32148094D01*
X200553476Y-32033809D02*
X200439190Y-32119523D01*
X200353476Y-32033809D02*
X200467761Y-32148094D01*
X200448714Y-31948094D02*
X200448714Y-31881428D01*
X200553476Y-31852856D02*
X200553476Y-31948094D01*
X200553476Y-31948094D02*
X200353476Y-31948094D01*
X200353476Y-31948094D02*
X200353476Y-31852856D01*
X200448714Y-31767142D02*
X200448714Y-31700476D01*
X200553476Y-31671904D02*
X200553476Y-31767142D01*
X200553476Y-31767142D02*
X200353476Y-31767142D01*
X200353476Y-31767142D02*
X200353476Y-31671904D01*
X200553476Y-31586190D02*
X200353476Y-31586190D01*
X200353476Y-31586190D02*
X200353476Y-31510000D01*
X200353476Y-31510000D02*
X200363000Y-31490952D01*
X200363000Y-31490952D02*
X200372523Y-31481429D01*
X200372523Y-31481429D02*
X200391571Y-31471905D01*
X200391571Y-31471905D02*
X200420142Y-31471905D01*
X200420142Y-31471905D02*
X200439190Y-31481429D01*
X200439190Y-31481429D02*
X200448714Y-31490952D01*
X200448714Y-31490952D02*
X200458238Y-31510000D01*
X200458238Y-31510000D02*
X200458238Y-31586190D01*
X200477285Y-31386190D02*
X200477285Y-31233810D01*
X200353476Y-31100476D02*
X200353476Y-31062381D01*
X200353476Y-31062381D02*
X200363000Y-31043333D01*
X200363000Y-31043333D02*
X200382047Y-31024286D01*
X200382047Y-31024286D02*
X200420142Y-31014762D01*
X200420142Y-31014762D02*
X200486809Y-31014762D01*
X200486809Y-31014762D02*
X200524904Y-31024286D01*
X200524904Y-31024286D02*
X200543952Y-31043333D01*
X200543952Y-31043333D02*
X200553476Y-31062381D01*
X200553476Y-31062381D02*
X200553476Y-31100476D01*
X200553476Y-31100476D02*
X200543952Y-31119524D01*
X200543952Y-31119524D02*
X200524904Y-31138571D01*
X200524904Y-31138571D02*
X200486809Y-31148095D01*
X200486809Y-31148095D02*
X200420142Y-31148095D01*
X200420142Y-31148095D02*
X200382047Y-31138571D01*
X200382047Y-31138571D02*
X200363000Y-31119524D01*
X200363000Y-31119524D02*
X200353476Y-31100476D01*
X200353476Y-30929047D02*
X200515380Y-30929047D01*
X200515380Y-30929047D02*
X200534428Y-30919524D01*
X200534428Y-30919524D02*
X200543952Y-30910000D01*
X200543952Y-30910000D02*
X200553476Y-30890952D01*
X200553476Y-30890952D02*
X200553476Y-30852857D01*
X200553476Y-30852857D02*
X200543952Y-30833809D01*
X200543952Y-30833809D02*
X200534428Y-30824286D01*
X200534428Y-30824286D02*
X200515380Y-30814762D01*
X200515380Y-30814762D02*
X200353476Y-30814762D01*
X200353476Y-30748095D02*
X200353476Y-30633809D01*
X200553476Y-30690952D02*
X200353476Y-30690952D01*
X200353476Y-30466190D02*
X200353476Y-30332857D01*
X200353476Y-30332857D02*
X200553476Y-30466190D01*
X200553476Y-30466190D02*
X200553476Y-30332857D01*
X200353476Y-30218571D02*
X200353476Y-30180476D01*
X200353476Y-30180476D02*
X200363000Y-30161428D01*
X200363000Y-30161428D02*
X200382047Y-30142381D01*
X200382047Y-30142381D02*
X200420142Y-30132857D01*
X200420142Y-30132857D02*
X200486809Y-30132857D01*
X200486809Y-30132857D02*
X200524904Y-30142381D01*
X200524904Y-30142381D02*
X200543952Y-30161428D01*
X200543952Y-30161428D02*
X200553476Y-30180476D01*
X200553476Y-30180476D02*
X200553476Y-30218571D01*
X200553476Y-30218571D02*
X200543952Y-30237619D01*
X200543952Y-30237619D02*
X200524904Y-30256666D01*
X200524904Y-30256666D02*
X200486809Y-30266190D01*
X200486809Y-30266190D02*
X200420142Y-30266190D01*
X200420142Y-30266190D02*
X200382047Y-30256666D01*
X200382047Y-30256666D02*
X200363000Y-30237619D01*
X200363000Y-30237619D02*
X200353476Y-30218571D01*
X200553476Y-30047142D02*
X200353476Y-30047142D01*
X200353476Y-30047142D02*
X200553476Y-29932857D01*
X200553476Y-29932857D02*
X200353476Y-29932857D01*
X200448714Y-29837618D02*
X200448714Y-29770952D01*
X200553476Y-29742380D02*
X200553476Y-29837618D01*
X200553476Y-29837618D02*
X200353476Y-29837618D01*
X200353476Y-29837618D02*
X200353476Y-29742380D01*
X200153476Y-31998571D02*
X199953476Y-31998571D01*
X199953476Y-31998571D02*
X200153476Y-31884286D01*
X200153476Y-31884286D02*
X199953476Y-31884286D01*
X200153476Y-31760476D02*
X200143952Y-31779524D01*
X200143952Y-31779524D02*
X200134428Y-31789047D01*
X200134428Y-31789047D02*
X200115380Y-31798571D01*
X200115380Y-31798571D02*
X200058238Y-31798571D01*
X200058238Y-31798571D02*
X200039190Y-31789047D01*
X200039190Y-31789047D02*
X200029666Y-31779524D01*
X200029666Y-31779524D02*
X200020142Y-31760476D01*
X200020142Y-31760476D02*
X200020142Y-31731905D01*
X200020142Y-31731905D02*
X200029666Y-31712857D01*
X200029666Y-31712857D02*
X200039190Y-31703333D01*
X200039190Y-31703333D02*
X200058238Y-31693809D01*
X200058238Y-31693809D02*
X200115380Y-31693809D01*
X200115380Y-31693809D02*
X200134428Y-31703333D01*
X200134428Y-31703333D02*
X200143952Y-31712857D01*
X200143952Y-31712857D02*
X200153476Y-31731905D01*
X200153476Y-31731905D02*
X200153476Y-31760476D01*
X200048714Y-31421429D02*
X200048714Y-31488095D01*
X200153476Y-31488095D02*
X199953476Y-31488095D01*
X199953476Y-31488095D02*
X199953476Y-31392857D01*
X200134428Y-31316666D02*
X200143952Y-31307143D01*
X200143952Y-31307143D02*
X200153476Y-31316666D01*
X200153476Y-31316666D02*
X200143952Y-31326190D01*
X200143952Y-31326190D02*
X200134428Y-31316666D01*
X200134428Y-31316666D02*
X200153476Y-31316666D01*
X200134428Y-31107143D02*
X200143952Y-31116667D01*
X200143952Y-31116667D02*
X200153476Y-31145238D01*
X200153476Y-31145238D02*
X200153476Y-31164286D01*
X200153476Y-31164286D02*
X200143952Y-31192857D01*
X200143952Y-31192857D02*
X200124904Y-31211905D01*
X200124904Y-31211905D02*
X200105857Y-31221428D01*
X200105857Y-31221428D02*
X200067761Y-31230952D01*
X200067761Y-31230952D02*
X200039190Y-31230952D01*
X200039190Y-31230952D02*
X200001095Y-31221428D01*
X200001095Y-31221428D02*
X199982047Y-31211905D01*
X199982047Y-31211905D02*
X199963000Y-31192857D01*
X199963000Y-31192857D02*
X199953476Y-31164286D01*
X199953476Y-31164286D02*
X199953476Y-31145238D01*
X199953476Y-31145238D02*
X199963000Y-31116667D01*
X199963000Y-31116667D02*
X199972523Y-31107143D01*
X200020142Y-30935714D02*
X200153476Y-30935714D01*
X200020142Y-31021428D02*
X200124904Y-31021428D01*
X200124904Y-31021428D02*
X200143952Y-31011905D01*
X200143952Y-31011905D02*
X200153476Y-30992857D01*
X200153476Y-30992857D02*
X200153476Y-30964286D01*
X200153476Y-30964286D02*
X200143952Y-30945238D01*
X200143952Y-30945238D02*
X200134428Y-30935714D01*
X200020142Y-30749048D02*
X200020142Y-30672857D01*
X199953476Y-30720476D02*
X200124904Y-30720476D01*
X200124904Y-30720476D02*
X200143952Y-30710953D01*
X200143952Y-30710953D02*
X200153476Y-30691905D01*
X200153476Y-30691905D02*
X200153476Y-30672857D01*
X200153476Y-30606190D02*
X200020142Y-30606190D01*
X200058238Y-30606190D02*
X200039190Y-30596667D01*
X200039190Y-30596667D02*
X200029666Y-30587143D01*
X200029666Y-30587143D02*
X200020142Y-30568095D01*
X200020142Y-30568095D02*
X200020142Y-30549048D01*
X200153476Y-30396666D02*
X200048714Y-30396666D01*
X200048714Y-30396666D02*
X200029666Y-30406190D01*
X200029666Y-30406190D02*
X200020142Y-30425238D01*
X200020142Y-30425238D02*
X200020142Y-30463333D01*
X200020142Y-30463333D02*
X200029666Y-30482380D01*
X200143952Y-30396666D02*
X200153476Y-30415714D01*
X200153476Y-30415714D02*
X200153476Y-30463333D01*
X200153476Y-30463333D02*
X200143952Y-30482380D01*
X200143952Y-30482380D02*
X200124904Y-30491904D01*
X200124904Y-30491904D02*
X200105857Y-30491904D01*
X200105857Y-30491904D02*
X200086809Y-30482380D01*
X200086809Y-30482380D02*
X200077285Y-30463333D01*
X200077285Y-30463333D02*
X200077285Y-30415714D01*
X200077285Y-30415714D02*
X200067761Y-30396666D01*
X200143952Y-30215714D02*
X200153476Y-30234762D01*
X200153476Y-30234762D02*
X200153476Y-30272857D01*
X200153476Y-30272857D02*
X200143952Y-30291905D01*
X200143952Y-30291905D02*
X200134428Y-30301428D01*
X200134428Y-30301428D02*
X200115380Y-30310952D01*
X200115380Y-30310952D02*
X200058238Y-30310952D01*
X200058238Y-30310952D02*
X200039190Y-30301428D01*
X200039190Y-30301428D02*
X200029666Y-30291905D01*
X200029666Y-30291905D02*
X200020142Y-30272857D01*
X200020142Y-30272857D02*
X200020142Y-30234762D01*
X200020142Y-30234762D02*
X200029666Y-30215714D01*
X200153476Y-30129999D02*
X199953476Y-30129999D01*
X200077285Y-30110952D02*
X200153476Y-30053809D01*
X200020142Y-30053809D02*
X200096333Y-30129999D01*
X200143952Y-29977618D02*
X200153476Y-29958571D01*
X200153476Y-29958571D02*
X200153476Y-29920475D01*
X200153476Y-29920475D02*
X200143952Y-29901428D01*
X200143952Y-29901428D02*
X200124904Y-29891904D01*
X200124904Y-29891904D02*
X200115380Y-29891904D01*
X200115380Y-29891904D02*
X200096333Y-29901428D01*
X200096333Y-29901428D02*
X200086809Y-29920475D01*
X200086809Y-29920475D02*
X200086809Y-29949047D01*
X200086809Y-29949047D02*
X200077285Y-29968094D01*
X200077285Y-29968094D02*
X200058238Y-29977618D01*
X200058238Y-29977618D02*
X200048714Y-29977618D01*
X200048714Y-29977618D02*
X200029666Y-29968094D01*
X200029666Y-29968094D02*
X200020142Y-29949047D01*
X200020142Y-29949047D02*
X200020142Y-29920475D01*
X200020142Y-29920475D02*
X200029666Y-29901428D01*
%TD*%
M02*
