%TF.GenerationSoftware,KiCad,Pcbnew,(7.0.0)*%
%TF.CreationDate,2023-06-16T05:12:17-04:00*%
%TF.ProjectId,ICOF1,49434f46-312e-46b6-9963-61645f706362,rev?*%
%TF.SameCoordinates,Original*%
%TF.FileFunction,Other,Comment*%
%FSLAX46Y46*%
G04 Gerber Fmt 4.6, Leading zero omitted, Abs format (unit mm)*
G04 Created by KiCad (PCBNEW (7.0.0)) date 2023-06-16 05:12:17*
%MOMM*%
%LPD*%
G01*
G04 APERTURE LIST*
%ADD10C,0.030000*%
%ADD11C,0.070000*%
G04 APERTURE END LIST*
D10*
%TO.C,SW1*%
X200475202Y-37704424D02*
X200275202Y-37704424D01*
X200475202Y-37590139D02*
X200360916Y-37675853D01*
X200275202Y-37590139D02*
X200389487Y-37704424D01*
X200370440Y-37504424D02*
X200370440Y-37437758D01*
X200475202Y-37409186D02*
X200475202Y-37504424D01*
X200475202Y-37504424D02*
X200275202Y-37504424D01*
X200275202Y-37504424D02*
X200275202Y-37409186D01*
X200370440Y-37323472D02*
X200370440Y-37256806D01*
X200475202Y-37228234D02*
X200475202Y-37323472D01*
X200475202Y-37323472D02*
X200275202Y-37323472D01*
X200275202Y-37323472D02*
X200275202Y-37228234D01*
X200475202Y-37142520D02*
X200275202Y-37142520D01*
X200275202Y-37142520D02*
X200275202Y-37066330D01*
X200275202Y-37066330D02*
X200284726Y-37047282D01*
X200284726Y-37047282D02*
X200294249Y-37037759D01*
X200294249Y-37037759D02*
X200313297Y-37028235D01*
X200313297Y-37028235D02*
X200341868Y-37028235D01*
X200341868Y-37028235D02*
X200360916Y-37037759D01*
X200360916Y-37037759D02*
X200370440Y-37047282D01*
X200370440Y-37047282D02*
X200379964Y-37066330D01*
X200379964Y-37066330D02*
X200379964Y-37142520D01*
X200399011Y-36942520D02*
X200399011Y-36790140D01*
X200275202Y-36656806D02*
X200275202Y-36618711D01*
X200275202Y-36618711D02*
X200284726Y-36599663D01*
X200284726Y-36599663D02*
X200303773Y-36580616D01*
X200303773Y-36580616D02*
X200341868Y-36571092D01*
X200341868Y-36571092D02*
X200408535Y-36571092D01*
X200408535Y-36571092D02*
X200446630Y-36580616D01*
X200446630Y-36580616D02*
X200465678Y-36599663D01*
X200465678Y-36599663D02*
X200475202Y-36618711D01*
X200475202Y-36618711D02*
X200475202Y-36656806D01*
X200475202Y-36656806D02*
X200465678Y-36675854D01*
X200465678Y-36675854D02*
X200446630Y-36694901D01*
X200446630Y-36694901D02*
X200408535Y-36704425D01*
X200408535Y-36704425D02*
X200341868Y-36704425D01*
X200341868Y-36704425D02*
X200303773Y-36694901D01*
X200303773Y-36694901D02*
X200284726Y-36675854D01*
X200284726Y-36675854D02*
X200275202Y-36656806D01*
X200275202Y-36485377D02*
X200437106Y-36485377D01*
X200437106Y-36485377D02*
X200456154Y-36475854D01*
X200456154Y-36475854D02*
X200465678Y-36466330D01*
X200465678Y-36466330D02*
X200475202Y-36447282D01*
X200475202Y-36447282D02*
X200475202Y-36409187D01*
X200475202Y-36409187D02*
X200465678Y-36390139D01*
X200465678Y-36390139D02*
X200456154Y-36380616D01*
X200456154Y-36380616D02*
X200437106Y-36371092D01*
X200437106Y-36371092D02*
X200275202Y-36371092D01*
X200275202Y-36304425D02*
X200275202Y-36190139D01*
X200475202Y-36247282D02*
X200275202Y-36247282D01*
X200275202Y-36022520D02*
X200275202Y-35889187D01*
X200275202Y-35889187D02*
X200475202Y-36022520D01*
X200475202Y-36022520D02*
X200475202Y-35889187D01*
X200275202Y-35774901D02*
X200275202Y-35736806D01*
X200275202Y-35736806D02*
X200284726Y-35717758D01*
X200284726Y-35717758D02*
X200303773Y-35698711D01*
X200303773Y-35698711D02*
X200341868Y-35689187D01*
X200341868Y-35689187D02*
X200408535Y-35689187D01*
X200408535Y-35689187D02*
X200446630Y-35698711D01*
X200446630Y-35698711D02*
X200465678Y-35717758D01*
X200465678Y-35717758D02*
X200475202Y-35736806D01*
X200475202Y-35736806D02*
X200475202Y-35774901D01*
X200475202Y-35774901D02*
X200465678Y-35793949D01*
X200465678Y-35793949D02*
X200446630Y-35812996D01*
X200446630Y-35812996D02*
X200408535Y-35822520D01*
X200408535Y-35822520D02*
X200341868Y-35822520D01*
X200341868Y-35822520D02*
X200303773Y-35812996D01*
X200303773Y-35812996D02*
X200284726Y-35793949D01*
X200284726Y-35793949D02*
X200275202Y-35774901D01*
X200475202Y-35603472D02*
X200275202Y-35603472D01*
X200275202Y-35603472D02*
X200475202Y-35489187D01*
X200475202Y-35489187D02*
X200275202Y-35489187D01*
X200370440Y-35393948D02*
X200370440Y-35327282D01*
X200475202Y-35298710D02*
X200475202Y-35393948D01*
X200475202Y-35393948D02*
X200275202Y-35393948D01*
X200275202Y-35393948D02*
X200275202Y-35298710D01*
X200075202Y-37554901D02*
X199875202Y-37554901D01*
X199875202Y-37554901D02*
X200075202Y-37440616D01*
X200075202Y-37440616D02*
X199875202Y-37440616D01*
X200075202Y-37316806D02*
X200065678Y-37335854D01*
X200065678Y-37335854D02*
X200056154Y-37345377D01*
X200056154Y-37345377D02*
X200037106Y-37354901D01*
X200037106Y-37354901D02*
X199979964Y-37354901D01*
X199979964Y-37354901D02*
X199960916Y-37345377D01*
X199960916Y-37345377D02*
X199951392Y-37335854D01*
X199951392Y-37335854D02*
X199941868Y-37316806D01*
X199941868Y-37316806D02*
X199941868Y-37288235D01*
X199941868Y-37288235D02*
X199951392Y-37269187D01*
X199951392Y-37269187D02*
X199960916Y-37259663D01*
X199960916Y-37259663D02*
X199979964Y-37250139D01*
X199979964Y-37250139D02*
X200037106Y-37250139D01*
X200037106Y-37250139D02*
X200056154Y-37259663D01*
X200056154Y-37259663D02*
X200065678Y-37269187D01*
X200065678Y-37269187D02*
X200075202Y-37288235D01*
X200075202Y-37288235D02*
X200075202Y-37316806D01*
X199970440Y-36977759D02*
X199970440Y-37044425D01*
X200075202Y-37044425D02*
X199875202Y-37044425D01*
X199875202Y-37044425D02*
X199875202Y-36949187D01*
X200056154Y-36872996D02*
X200065678Y-36863473D01*
X200065678Y-36863473D02*
X200075202Y-36872996D01*
X200075202Y-36872996D02*
X200065678Y-36882520D01*
X200065678Y-36882520D02*
X200056154Y-36872996D01*
X200056154Y-36872996D02*
X200075202Y-36872996D01*
X200056154Y-36663473D02*
X200065678Y-36672997D01*
X200065678Y-36672997D02*
X200075202Y-36701568D01*
X200075202Y-36701568D02*
X200075202Y-36720616D01*
X200075202Y-36720616D02*
X200065678Y-36749187D01*
X200065678Y-36749187D02*
X200046630Y-36768235D01*
X200046630Y-36768235D02*
X200027583Y-36777758D01*
X200027583Y-36777758D02*
X199989487Y-36787282D01*
X199989487Y-36787282D02*
X199960916Y-36787282D01*
X199960916Y-36787282D02*
X199922821Y-36777758D01*
X199922821Y-36777758D02*
X199903773Y-36768235D01*
X199903773Y-36768235D02*
X199884726Y-36749187D01*
X199884726Y-36749187D02*
X199875202Y-36720616D01*
X199875202Y-36720616D02*
X199875202Y-36701568D01*
X199875202Y-36701568D02*
X199884726Y-36672997D01*
X199884726Y-36672997D02*
X199894249Y-36663473D01*
X199941868Y-36492044D02*
X200075202Y-36492044D01*
X199941868Y-36577758D02*
X200046630Y-36577758D01*
X200046630Y-36577758D02*
X200065678Y-36568235D01*
X200065678Y-36568235D02*
X200075202Y-36549187D01*
X200075202Y-36549187D02*
X200075202Y-36520616D01*
X200075202Y-36520616D02*
X200065678Y-36501568D01*
X200065678Y-36501568D02*
X200056154Y-36492044D01*
X199941868Y-36305378D02*
X199941868Y-36229187D01*
X199875202Y-36276806D02*
X200046630Y-36276806D01*
X200046630Y-36276806D02*
X200065678Y-36267283D01*
X200065678Y-36267283D02*
X200075202Y-36248235D01*
X200075202Y-36248235D02*
X200075202Y-36229187D01*
X200075202Y-36162520D02*
X199941868Y-36162520D01*
X199979964Y-36162520D02*
X199960916Y-36152997D01*
X199960916Y-36152997D02*
X199951392Y-36143473D01*
X199951392Y-36143473D02*
X199941868Y-36124425D01*
X199941868Y-36124425D02*
X199941868Y-36105378D01*
X200075202Y-35952996D02*
X199970440Y-35952996D01*
X199970440Y-35952996D02*
X199951392Y-35962520D01*
X199951392Y-35962520D02*
X199941868Y-35981568D01*
X199941868Y-35981568D02*
X199941868Y-36019663D01*
X199941868Y-36019663D02*
X199951392Y-36038710D01*
X200065678Y-35952996D02*
X200075202Y-35972044D01*
X200075202Y-35972044D02*
X200075202Y-36019663D01*
X200075202Y-36019663D02*
X200065678Y-36038710D01*
X200065678Y-36038710D02*
X200046630Y-36048234D01*
X200046630Y-36048234D02*
X200027583Y-36048234D01*
X200027583Y-36048234D02*
X200008535Y-36038710D01*
X200008535Y-36038710D02*
X199999011Y-36019663D01*
X199999011Y-36019663D02*
X199999011Y-35972044D01*
X199999011Y-35972044D02*
X199989487Y-35952996D01*
X200065678Y-35772044D02*
X200075202Y-35791092D01*
X200075202Y-35791092D02*
X200075202Y-35829187D01*
X200075202Y-35829187D02*
X200065678Y-35848235D01*
X200065678Y-35848235D02*
X200056154Y-35857758D01*
X200056154Y-35857758D02*
X200037106Y-35867282D01*
X200037106Y-35867282D02*
X199979964Y-35867282D01*
X199979964Y-35867282D02*
X199960916Y-35857758D01*
X199960916Y-35857758D02*
X199951392Y-35848235D01*
X199951392Y-35848235D02*
X199941868Y-35829187D01*
X199941868Y-35829187D02*
X199941868Y-35791092D01*
X199941868Y-35791092D02*
X199951392Y-35772044D01*
X200075202Y-35686329D02*
X199875202Y-35686329D01*
X199999011Y-35667282D02*
X200075202Y-35610139D01*
X199941868Y-35610139D02*
X200018059Y-35686329D01*
X200065678Y-35533948D02*
X200075202Y-35514901D01*
X200075202Y-35514901D02*
X200075202Y-35476805D01*
X200075202Y-35476805D02*
X200065678Y-35457758D01*
X200065678Y-35457758D02*
X200046630Y-35448234D01*
X200046630Y-35448234D02*
X200037106Y-35448234D01*
X200037106Y-35448234D02*
X200018059Y-35457758D01*
X200018059Y-35457758D02*
X200008535Y-35476805D01*
X200008535Y-35476805D02*
X200008535Y-35505377D01*
X200008535Y-35505377D02*
X199999011Y-35524424D01*
X199999011Y-35524424D02*
X199979964Y-35533948D01*
X199979964Y-35533948D02*
X199970440Y-35533948D01*
X199970440Y-35533948D02*
X199951392Y-35524424D01*
X199951392Y-35524424D02*
X199941868Y-35505377D01*
X199941868Y-35505377D02*
X199941868Y-35476805D01*
X199941868Y-35476805D02*
X199951392Y-35457758D01*
X200475202Y-32704424D02*
X200275202Y-32704424D01*
X200475202Y-32590139D02*
X200360916Y-32675853D01*
X200275202Y-32590139D02*
X200389487Y-32704424D01*
X200370440Y-32504424D02*
X200370440Y-32437758D01*
X200475202Y-32409186D02*
X200475202Y-32504424D01*
X200475202Y-32504424D02*
X200275202Y-32504424D01*
X200275202Y-32504424D02*
X200275202Y-32409186D01*
X200370440Y-32323472D02*
X200370440Y-32256806D01*
X200475202Y-32228234D02*
X200475202Y-32323472D01*
X200475202Y-32323472D02*
X200275202Y-32323472D01*
X200275202Y-32323472D02*
X200275202Y-32228234D01*
X200475202Y-32142520D02*
X200275202Y-32142520D01*
X200275202Y-32142520D02*
X200275202Y-32066330D01*
X200275202Y-32066330D02*
X200284726Y-32047282D01*
X200284726Y-32047282D02*
X200294249Y-32037759D01*
X200294249Y-32037759D02*
X200313297Y-32028235D01*
X200313297Y-32028235D02*
X200341868Y-32028235D01*
X200341868Y-32028235D02*
X200360916Y-32037759D01*
X200360916Y-32037759D02*
X200370440Y-32047282D01*
X200370440Y-32047282D02*
X200379964Y-32066330D01*
X200379964Y-32066330D02*
X200379964Y-32142520D01*
X200399011Y-31942520D02*
X200399011Y-31790140D01*
X200275202Y-31656806D02*
X200275202Y-31618711D01*
X200275202Y-31618711D02*
X200284726Y-31599663D01*
X200284726Y-31599663D02*
X200303773Y-31580616D01*
X200303773Y-31580616D02*
X200341868Y-31571092D01*
X200341868Y-31571092D02*
X200408535Y-31571092D01*
X200408535Y-31571092D02*
X200446630Y-31580616D01*
X200446630Y-31580616D02*
X200465678Y-31599663D01*
X200465678Y-31599663D02*
X200475202Y-31618711D01*
X200475202Y-31618711D02*
X200475202Y-31656806D01*
X200475202Y-31656806D02*
X200465678Y-31675854D01*
X200465678Y-31675854D02*
X200446630Y-31694901D01*
X200446630Y-31694901D02*
X200408535Y-31704425D01*
X200408535Y-31704425D02*
X200341868Y-31704425D01*
X200341868Y-31704425D02*
X200303773Y-31694901D01*
X200303773Y-31694901D02*
X200284726Y-31675854D01*
X200284726Y-31675854D02*
X200275202Y-31656806D01*
X200275202Y-31485377D02*
X200437106Y-31485377D01*
X200437106Y-31485377D02*
X200456154Y-31475854D01*
X200456154Y-31475854D02*
X200465678Y-31466330D01*
X200465678Y-31466330D02*
X200475202Y-31447282D01*
X200475202Y-31447282D02*
X200475202Y-31409187D01*
X200475202Y-31409187D02*
X200465678Y-31390139D01*
X200465678Y-31390139D02*
X200456154Y-31380616D01*
X200456154Y-31380616D02*
X200437106Y-31371092D01*
X200437106Y-31371092D02*
X200275202Y-31371092D01*
X200275202Y-31304425D02*
X200275202Y-31190139D01*
X200475202Y-31247282D02*
X200275202Y-31247282D01*
X200275202Y-31022520D02*
X200275202Y-30889187D01*
X200275202Y-30889187D02*
X200475202Y-31022520D01*
X200475202Y-31022520D02*
X200475202Y-30889187D01*
X200275202Y-30774901D02*
X200275202Y-30736806D01*
X200275202Y-30736806D02*
X200284726Y-30717758D01*
X200284726Y-30717758D02*
X200303773Y-30698711D01*
X200303773Y-30698711D02*
X200341868Y-30689187D01*
X200341868Y-30689187D02*
X200408535Y-30689187D01*
X200408535Y-30689187D02*
X200446630Y-30698711D01*
X200446630Y-30698711D02*
X200465678Y-30717758D01*
X200465678Y-30717758D02*
X200475202Y-30736806D01*
X200475202Y-30736806D02*
X200475202Y-30774901D01*
X200475202Y-30774901D02*
X200465678Y-30793949D01*
X200465678Y-30793949D02*
X200446630Y-30812996D01*
X200446630Y-30812996D02*
X200408535Y-30822520D01*
X200408535Y-30822520D02*
X200341868Y-30822520D01*
X200341868Y-30822520D02*
X200303773Y-30812996D01*
X200303773Y-30812996D02*
X200284726Y-30793949D01*
X200284726Y-30793949D02*
X200275202Y-30774901D01*
X200475202Y-30603472D02*
X200275202Y-30603472D01*
X200275202Y-30603472D02*
X200475202Y-30489187D01*
X200475202Y-30489187D02*
X200275202Y-30489187D01*
X200370440Y-30393948D02*
X200370440Y-30327282D01*
X200475202Y-30298710D02*
X200475202Y-30393948D01*
X200475202Y-30393948D02*
X200275202Y-30393948D01*
X200275202Y-30393948D02*
X200275202Y-30298710D01*
X200075202Y-32554901D02*
X199875202Y-32554901D01*
X199875202Y-32554901D02*
X200075202Y-32440616D01*
X200075202Y-32440616D02*
X199875202Y-32440616D01*
X200075202Y-32316806D02*
X200065678Y-32335854D01*
X200065678Y-32335854D02*
X200056154Y-32345377D01*
X200056154Y-32345377D02*
X200037106Y-32354901D01*
X200037106Y-32354901D02*
X199979964Y-32354901D01*
X199979964Y-32354901D02*
X199960916Y-32345377D01*
X199960916Y-32345377D02*
X199951392Y-32335854D01*
X199951392Y-32335854D02*
X199941868Y-32316806D01*
X199941868Y-32316806D02*
X199941868Y-32288235D01*
X199941868Y-32288235D02*
X199951392Y-32269187D01*
X199951392Y-32269187D02*
X199960916Y-32259663D01*
X199960916Y-32259663D02*
X199979964Y-32250139D01*
X199979964Y-32250139D02*
X200037106Y-32250139D01*
X200037106Y-32250139D02*
X200056154Y-32259663D01*
X200056154Y-32259663D02*
X200065678Y-32269187D01*
X200065678Y-32269187D02*
X200075202Y-32288235D01*
X200075202Y-32288235D02*
X200075202Y-32316806D01*
X199970440Y-31977759D02*
X199970440Y-32044425D01*
X200075202Y-32044425D02*
X199875202Y-32044425D01*
X199875202Y-32044425D02*
X199875202Y-31949187D01*
X200056154Y-31872996D02*
X200065678Y-31863473D01*
X200065678Y-31863473D02*
X200075202Y-31872996D01*
X200075202Y-31872996D02*
X200065678Y-31882520D01*
X200065678Y-31882520D02*
X200056154Y-31872996D01*
X200056154Y-31872996D02*
X200075202Y-31872996D01*
X200056154Y-31663473D02*
X200065678Y-31672997D01*
X200065678Y-31672997D02*
X200075202Y-31701568D01*
X200075202Y-31701568D02*
X200075202Y-31720616D01*
X200075202Y-31720616D02*
X200065678Y-31749187D01*
X200065678Y-31749187D02*
X200046630Y-31768235D01*
X200046630Y-31768235D02*
X200027583Y-31777758D01*
X200027583Y-31777758D02*
X199989487Y-31787282D01*
X199989487Y-31787282D02*
X199960916Y-31787282D01*
X199960916Y-31787282D02*
X199922821Y-31777758D01*
X199922821Y-31777758D02*
X199903773Y-31768235D01*
X199903773Y-31768235D02*
X199884726Y-31749187D01*
X199884726Y-31749187D02*
X199875202Y-31720616D01*
X199875202Y-31720616D02*
X199875202Y-31701568D01*
X199875202Y-31701568D02*
X199884726Y-31672997D01*
X199884726Y-31672997D02*
X199894249Y-31663473D01*
X199941868Y-31492044D02*
X200075202Y-31492044D01*
X199941868Y-31577758D02*
X200046630Y-31577758D01*
X200046630Y-31577758D02*
X200065678Y-31568235D01*
X200065678Y-31568235D02*
X200075202Y-31549187D01*
X200075202Y-31549187D02*
X200075202Y-31520616D01*
X200075202Y-31520616D02*
X200065678Y-31501568D01*
X200065678Y-31501568D02*
X200056154Y-31492044D01*
X199941868Y-31305378D02*
X199941868Y-31229187D01*
X199875202Y-31276806D02*
X200046630Y-31276806D01*
X200046630Y-31276806D02*
X200065678Y-31267283D01*
X200065678Y-31267283D02*
X200075202Y-31248235D01*
X200075202Y-31248235D02*
X200075202Y-31229187D01*
X200075202Y-31162520D02*
X199941868Y-31162520D01*
X199979964Y-31162520D02*
X199960916Y-31152997D01*
X199960916Y-31152997D02*
X199951392Y-31143473D01*
X199951392Y-31143473D02*
X199941868Y-31124425D01*
X199941868Y-31124425D02*
X199941868Y-31105378D01*
X200075202Y-30952996D02*
X199970440Y-30952996D01*
X199970440Y-30952996D02*
X199951392Y-30962520D01*
X199951392Y-30962520D02*
X199941868Y-30981568D01*
X199941868Y-30981568D02*
X199941868Y-31019663D01*
X199941868Y-31019663D02*
X199951392Y-31038710D01*
X200065678Y-30952996D02*
X200075202Y-30972044D01*
X200075202Y-30972044D02*
X200075202Y-31019663D01*
X200075202Y-31019663D02*
X200065678Y-31038710D01*
X200065678Y-31038710D02*
X200046630Y-31048234D01*
X200046630Y-31048234D02*
X200027583Y-31048234D01*
X200027583Y-31048234D02*
X200008535Y-31038710D01*
X200008535Y-31038710D02*
X199999011Y-31019663D01*
X199999011Y-31019663D02*
X199999011Y-30972044D01*
X199999011Y-30972044D02*
X199989487Y-30952996D01*
X200065678Y-30772044D02*
X200075202Y-30791092D01*
X200075202Y-30791092D02*
X200075202Y-30829187D01*
X200075202Y-30829187D02*
X200065678Y-30848235D01*
X200065678Y-30848235D02*
X200056154Y-30857758D01*
X200056154Y-30857758D02*
X200037106Y-30867282D01*
X200037106Y-30867282D02*
X199979964Y-30867282D01*
X199979964Y-30867282D02*
X199960916Y-30857758D01*
X199960916Y-30857758D02*
X199951392Y-30848235D01*
X199951392Y-30848235D02*
X199941868Y-30829187D01*
X199941868Y-30829187D02*
X199941868Y-30791092D01*
X199941868Y-30791092D02*
X199951392Y-30772044D01*
X200075202Y-30686329D02*
X199875202Y-30686329D01*
X199999011Y-30667282D02*
X200075202Y-30610139D01*
X199941868Y-30610139D02*
X200018059Y-30686329D01*
X200065678Y-30533948D02*
X200075202Y-30514901D01*
X200075202Y-30514901D02*
X200075202Y-30476805D01*
X200075202Y-30476805D02*
X200065678Y-30457758D01*
X200065678Y-30457758D02*
X200046630Y-30448234D01*
X200046630Y-30448234D02*
X200037106Y-30448234D01*
X200037106Y-30448234D02*
X200018059Y-30457758D01*
X200018059Y-30457758D02*
X200008535Y-30476805D01*
X200008535Y-30476805D02*
X200008535Y-30505377D01*
X200008535Y-30505377D02*
X199999011Y-30524424D01*
X199999011Y-30524424D02*
X199979964Y-30533948D01*
X199979964Y-30533948D02*
X199970440Y-30533948D01*
X199970440Y-30533948D02*
X199951392Y-30524424D01*
X199951392Y-30524424D02*
X199941868Y-30505377D01*
X199941868Y-30505377D02*
X199941868Y-30476805D01*
X199941868Y-30476805D02*
X199951392Y-30457758D01*
D11*
%TO.C,J2*%
X217301952Y-66148095D02*
X216901952Y-66148095D01*
X217301952Y-65919524D02*
X217073380Y-66090953D01*
X216901952Y-65919524D02*
X217130523Y-66148095D01*
X217092428Y-65748095D02*
X217092428Y-65614762D01*
X217301952Y-65557619D02*
X217301952Y-65748095D01*
X217301952Y-65748095D02*
X216901952Y-65748095D01*
X216901952Y-65748095D02*
X216901952Y-65557619D01*
X217092428Y-65386190D02*
X217092428Y-65252857D01*
X217301952Y-65195714D02*
X217301952Y-65386190D01*
X217301952Y-65386190D02*
X216901952Y-65386190D01*
X216901952Y-65386190D02*
X216901952Y-65195714D01*
X217301952Y-65024285D02*
X216901952Y-65024285D01*
X216901952Y-65024285D02*
X216901952Y-64871904D01*
X216901952Y-64871904D02*
X216921000Y-64833809D01*
X216921000Y-64833809D02*
X216940047Y-64814762D01*
X216940047Y-64814762D02*
X216978142Y-64795714D01*
X216978142Y-64795714D02*
X217035285Y-64795714D01*
X217035285Y-64795714D02*
X217073380Y-64814762D01*
X217073380Y-64814762D02*
X217092428Y-64833809D01*
X217092428Y-64833809D02*
X217111476Y-64871904D01*
X217111476Y-64871904D02*
X217111476Y-65024285D01*
X216901952Y-64548095D02*
X216901952Y-64471904D01*
X216901952Y-64471904D02*
X216921000Y-64433809D01*
X216921000Y-64433809D02*
X216959095Y-64395714D01*
X216959095Y-64395714D02*
X217035285Y-64376666D01*
X217035285Y-64376666D02*
X217168619Y-64376666D01*
X217168619Y-64376666D02*
X217244809Y-64395714D01*
X217244809Y-64395714D02*
X217282904Y-64433809D01*
X217282904Y-64433809D02*
X217301952Y-64471904D01*
X217301952Y-64471904D02*
X217301952Y-64548095D01*
X217301952Y-64548095D02*
X217282904Y-64586190D01*
X217282904Y-64586190D02*
X217244809Y-64624285D01*
X217244809Y-64624285D02*
X217168619Y-64643333D01*
X217168619Y-64643333D02*
X217035285Y-64643333D01*
X217035285Y-64643333D02*
X216959095Y-64624285D01*
X216959095Y-64624285D02*
X216921000Y-64586190D01*
X216921000Y-64586190D02*
X216901952Y-64548095D01*
X216901952Y-64205237D02*
X217225761Y-64205237D01*
X217225761Y-64205237D02*
X217263857Y-64186190D01*
X217263857Y-64186190D02*
X217282904Y-64167142D01*
X217282904Y-64167142D02*
X217301952Y-64129047D01*
X217301952Y-64129047D02*
X217301952Y-64052856D01*
X217301952Y-64052856D02*
X217282904Y-64014761D01*
X217282904Y-64014761D02*
X217263857Y-63995714D01*
X217263857Y-63995714D02*
X217225761Y-63976666D01*
X217225761Y-63976666D02*
X216901952Y-63976666D01*
X216901952Y-63843332D02*
X216901952Y-63614761D01*
X217301952Y-63729047D02*
X216901952Y-63729047D01*
%TD*%
M02*
