%TF.GenerationSoftware,KiCad,Pcbnew,7.0.2*%
%TF.CreationDate,2023-06-26T23:20:29-04:00*%
%TF.ProjectId,ICOF1,49434f46-312e-46b6-9963-61645f706362,rev?*%
%TF.SameCoordinates,Original*%
%TF.FileFunction,Soldermask,Bot*%
%TF.FilePolarity,Negative*%
%FSLAX46Y46*%
G04 Gerber Fmt 4.6, Leading zero omitted, Abs format (unit mm)*
G04 Created by KiCad (PCBNEW 7.0.2) date 2023-06-26 23:20:29*
%MOMM*%
%LPD*%
G01*
G04 APERTURE LIST*
G04 Aperture macros list*
%AMRoundRect*
0 Rectangle with rounded corners*
0 $1 Rounding radius*
0 $2 $3 $4 $5 $6 $7 $8 $9 X,Y pos of 4 corners*
0 Add a 4 corners polygon primitive as box body*
4,1,4,$2,$3,$4,$5,$6,$7,$8,$9,$2,$3,0*
0 Add four circle primitives for the rounded corners*
1,1,$1+$1,$2,$3*
1,1,$1+$1,$4,$5*
1,1,$1+$1,$6,$7*
1,1,$1+$1,$8,$9*
0 Add four rect primitives between the rounded corners*
20,1,$1+$1,$2,$3,$4,$5,0*
20,1,$1+$1,$4,$5,$6,$7,0*
20,1,$1+$1,$6,$7,$8,$9,0*
20,1,$1+$1,$8,$9,$2,$3,0*%
G04 Aperture macros list end*
%ADD10C,9.000000*%
%ADD11C,3.000000*%
%ADD12C,8.000000*%
%ADD13C,8.500000*%
%ADD14C,0.990600*%
%ADD15C,0.650000*%
%ADD16O,0.800000X1.400000*%
%ADD17C,1.800000*%
%ADD18C,3.987800*%
%ADD19RoundRect,0.253000X-1.697000X-1.012000X1.697000X-1.012000X1.697000X1.012000X-1.697000X1.012000X0*%
%ADD20C,2.286000*%
G04 APERTURE END LIST*
D10*
%TO.C,@HOLE15*%
X320031100Y-158103600D03*
%TD*%
D11*
%TO.C,@HOLE1*%
X348031100Y-144103600D03*
%TD*%
D12*
%TO.C,@HOLE6*%
X50031100Y-140103600D03*
%TD*%
D10*
%TO.C,@HOLE11*%
X238031100Y-41603600D03*
%TD*%
D12*
%TO.C,@HOLE8*%
X248031100Y-68103600D03*
%TD*%
D11*
%TO.C,@HOLE0*%
X132031100Y-163103600D03*
%TD*%
D12*
%TO.C,@HOLE4*%
X332031100Y-51103600D03*
%TD*%
D11*
%TO.C,@HOLE3*%
X246031100Y-123103600D03*
%TD*%
D12*
%TO.C,@HOLE5*%
X340031100Y-155103600D03*
%TD*%
D11*
%TO.C,@HOLE10*%
X182930000Y-56050000D03*
%TD*%
D10*
%TO.C,@HOLE12*%
X52431100Y-105303600D03*
%TD*%
D12*
%TO.C,@HOLE7*%
X129031100Y-46103600D03*
%TD*%
D11*
%TO.C,@HOLE2*%
X44031100Y-151103600D03*
%TD*%
D13*
%TO.C,@HOLE14*%
X186031100Y-127903600D03*
%TD*%
D10*
%TO.C,@HOLE13*%
X93831100Y-39803600D03*
%TD*%
D14*
%TO.C,J2*%
X217155000Y-62370000D03*
X218171000Y-67450000D03*
X216139000Y-67450000D03*
%TD*%
D12*
%TO.C,@HOLE9*%
X200031100Y-157103600D03*
%TD*%
D15*
%TO.C,J1*%
X214656000Y-30656000D03*
X207306000Y-30656000D03*
X208256000Y-30006000D03*
X208656000Y-29306000D03*
X209456000Y-29306000D03*
X209856000Y-30006000D03*
X210256000Y-29306000D03*
X210656000Y-30006000D03*
X211456000Y-30006000D03*
X211856000Y-29306000D03*
X212256000Y-30006000D03*
X212656000Y-29306000D03*
X213456000Y-29306000D03*
X213856000Y-30006000D03*
D16*
X215546000Y-25016000D03*
X215111000Y-29406000D03*
X206851000Y-29406000D03*
X206566000Y-25016000D03*
%TD*%
D17*
%TO.C,SW25*%
X351451100Y-69107600D03*
D11*
X350181100Y-71647600D03*
D18*
X346371100Y-69107600D03*
D11*
X343831100Y-74187600D03*
D17*
X341291100Y-69107600D03*
D19*
X353481100Y-71657600D03*
D20*
X348891100Y-63977600D03*
X342631100Y-66537600D03*
D19*
X340521100Y-74192600D03*
%TD*%
D17*
%TO.C,SW40*%
X312220100Y-130237600D03*
D11*
X310950100Y-132777600D03*
D18*
X307140100Y-130237600D03*
D11*
X304600100Y-135317600D03*
D17*
X302060100Y-130237600D03*
D19*
X314250100Y-132787600D03*
D20*
X309660100Y-125107600D03*
X303400100Y-127667600D03*
D19*
X301290100Y-135322600D03*
%TD*%
D17*
%TO.C,SW8*%
X111212100Y-66738600D03*
D11*
X109942100Y-69278600D03*
D18*
X106132100Y-66738600D03*
D11*
X103592100Y-71818600D03*
D17*
X101052100Y-66738600D03*
D19*
X113242100Y-69288600D03*
D20*
X108652100Y-61608600D03*
X102392100Y-64168600D03*
D19*
X100282100Y-71823600D03*
%TD*%
D17*
%TO.C,SW22*%
X323096100Y-66132600D03*
D11*
X321826100Y-68672600D03*
D18*
X318016100Y-66132600D03*
D11*
X315476100Y-71212600D03*
D17*
X312936100Y-66132600D03*
D19*
X325126100Y-68682600D03*
D20*
X320536100Y-61002600D03*
X314276100Y-63562600D03*
D19*
X312166100Y-71217600D03*
%TD*%
D17*
%TO.C,SW26*%
X377674100Y-85143600D03*
D11*
X376404100Y-87683600D03*
D18*
X372594100Y-85143600D03*
D11*
X370054100Y-90223600D03*
D17*
X367514100Y-85143600D03*
D19*
X379704100Y-87693600D03*
D20*
X375114100Y-80013600D03*
X368854100Y-82573600D03*
D19*
X366744100Y-90228600D03*
%TD*%
D17*
%TO.C,SW3*%
X217516100Y-78501600D03*
D11*
X216246100Y-81041600D03*
D18*
X212436100Y-78501600D03*
D11*
X209896100Y-83581600D03*
D17*
X207356100Y-78501600D03*
D19*
X219546100Y-81051600D03*
D20*
X214956100Y-73371600D03*
X208696100Y-75931600D03*
D19*
X206586100Y-83586600D03*
%TD*%
D17*
%TO.C,SW35*%
X289563100Y-114467600D03*
D11*
X288293100Y-117007600D03*
D18*
X284483100Y-114467600D03*
D11*
X281943100Y-119547600D03*
D17*
X279403100Y-114467600D03*
D19*
X291593100Y-117017600D03*
D20*
X287003100Y-109337600D03*
X280743100Y-111897600D03*
D19*
X278633100Y-119552600D03*
%TD*%
D17*
%TO.C,SW19*%
X377674100Y-57533600D03*
D11*
X376404100Y-60073600D03*
D18*
X372594100Y-57533600D03*
D11*
X370054100Y-62613600D03*
D17*
X367514100Y-57533600D03*
D19*
X379704100Y-60083600D03*
D20*
X375114100Y-52403600D03*
X368854100Y-54963600D03*
D19*
X366744100Y-62618600D03*
%TD*%
D17*
%TO.C,SW12*%
X296578100Y-50518600D03*
D11*
X295308100Y-53058600D03*
D18*
X291498100Y-50518600D03*
D11*
X288958100Y-55598600D03*
D17*
X286418100Y-50518600D03*
D19*
X298608100Y-53068600D03*
D20*
X294018100Y-45388600D03*
X287758100Y-47948600D03*
D19*
X285648100Y-55603600D03*
%TD*%
D17*
%TO.C,SW38*%
X289563100Y-145652600D03*
D11*
X288293100Y-148192600D03*
D18*
X284483100Y-145652600D03*
D11*
X281943100Y-150732600D03*
D17*
X279403100Y-145652600D03*
D19*
X291593100Y-148202600D03*
D20*
X287003100Y-140522600D03*
X280743100Y-143082600D03*
D19*
X278633100Y-150737600D03*
%TD*%
D17*
%TO.C,SW28*%
X144740000Y-145630000D03*
D11*
X143470000Y-148170000D03*
D18*
X139660000Y-145630000D03*
D11*
X137120000Y-150710000D03*
D17*
X134580000Y-145630000D03*
D19*
X146770000Y-148180000D03*
D20*
X142180000Y-140500000D03*
X135920000Y-143060000D03*
D19*
X133810000Y-150715000D03*
%TD*%
D17*
%TO.C,SW32*%
X266876100Y-130237600D03*
D11*
X265606100Y-132777600D03*
D18*
X261796100Y-130237600D03*
D11*
X259256100Y-135317600D03*
D17*
X256716100Y-130237600D03*
D19*
X268906100Y-132787600D03*
D20*
X264316100Y-125107600D03*
X258056100Y-127667600D03*
D19*
X255946100Y-135322600D03*
%TD*%
D17*
%TO.C,SW36*%
X266876100Y-161422600D03*
D11*
X265606100Y-163962600D03*
D18*
X261796100Y-161422600D03*
D11*
X259256100Y-166502600D03*
D17*
X256716100Y-161422600D03*
D19*
X268906100Y-163972600D03*
D20*
X264316100Y-156292600D03*
X258056100Y-158852600D03*
D19*
X255946100Y-166507600D03*
%TD*%
D17*
%TO.C,SW10*%
X137784100Y-78501600D03*
D11*
X136514100Y-81041600D03*
D18*
X132704100Y-78501600D03*
D11*
X130164100Y-83581600D03*
D17*
X127624100Y-78501600D03*
D19*
X139814100Y-81051600D03*
D20*
X135224100Y-73371600D03*
X128964100Y-75931600D03*
D19*
X126854100Y-83586600D03*
%TD*%
D17*
%TO.C,SW30*%
X167431100Y-161421600D03*
D11*
X166161100Y-163961600D03*
D18*
X162351100Y-161421600D03*
D11*
X159811100Y-166501600D03*
D17*
X157271100Y-161421600D03*
D19*
X169461100Y-163971600D03*
D20*
X164871100Y-156291600D03*
X158611100Y-158851600D03*
D19*
X156501100Y-166506600D03*
%TD*%
D17*
%TO.C,SW17*%
X351451100Y-41497600D03*
D11*
X350181100Y-44037600D03*
D18*
X346371100Y-41497600D03*
D11*
X343831100Y-46577600D03*
D17*
X341291100Y-41497600D03*
D19*
X353481100Y-44047600D03*
D20*
X348891100Y-36367600D03*
X342631100Y-38927600D03*
D19*
X340521100Y-46582600D03*
%TD*%
D17*
%TO.C,SW21*%
X296578100Y-78127600D03*
D11*
X295308100Y-80667600D03*
D18*
X291498100Y-78127600D03*
D11*
X288958100Y-83207600D03*
D17*
X286418100Y-78127600D03*
D19*
X298608100Y-80677600D03*
D20*
X294018100Y-72997600D03*
X287758100Y-75557600D03*
D19*
X285648100Y-83212600D03*
%TD*%
D17*
%TO.C,SW6*%
X82856100Y-69464600D03*
D11*
X81586100Y-72004600D03*
D18*
X77776100Y-69464600D03*
D11*
X75236100Y-74544600D03*
D17*
X72696100Y-69464600D03*
D19*
X84886100Y-72014600D03*
D20*
X80296100Y-64334600D03*
X74036100Y-66894600D03*
D19*
X71926100Y-74549600D03*
%TD*%
D17*
%TO.C,SW4*%
X57576100Y-85767600D03*
D11*
X56306100Y-88307600D03*
D18*
X52496100Y-85767600D03*
D11*
X49956100Y-90847600D03*
D17*
X47416100Y-85767600D03*
D19*
X59606100Y-88317600D03*
D20*
X55016100Y-80637600D03*
X48756100Y-83197600D03*
D19*
X46646100Y-90852600D03*
%TD*%
D17*
%TO.C,SW14*%
X323096100Y-38522600D03*
D11*
X321826100Y-41062600D03*
D18*
X318016100Y-38522600D03*
D11*
X315476100Y-43602600D03*
D17*
X312936100Y-38522600D03*
D19*
X325126100Y-41072600D03*
D20*
X320536100Y-33392600D03*
X314276100Y-35952600D03*
D19*
X312166100Y-43607600D03*
%TD*%
M02*
