M48
; DRILL file {KiCad (7.0.0)} date Tue Mar 14 05:51:49 2023
; FORMAT={-:-/ absolute / inch / decimal}
; #@! TF.CreationDate,2023-03-14T05:51:49-04:00
; #@! TF.GenerationSoftware,Kicad,Pcbnew,(7.0.0)
; #@! TF.FileFunction,Plated,1,2,PTH
FMAT,2
INCH
; #@! TA.AperFunction,Plated,PTH,ViaDrill
T1C0.0118
; #@! TA.AperFunction,Plated,PTH,ViaDrill
T2C0.0138
; #@! TA.AperFunction,Plated,PTH,ComponentDrill
T3C0.0138
; #@! TA.AperFunction,Plated,PTH,ViaDrill
T4C0.0157
; #@! TA.AperFunction,Plated,PTH,ComponentDrill
T5C0.0157
; #@! TA.AperFunction,Plated,PTH,ComponentDrill
T6C0.0197
; #@! TA.AperFunction,Plated,PTH,ComponentDrill
T7C0.0400
; #@! TA.AperFunction,Plated,PTH,ComponentDrill
T8C0.0590
%
G90
G05
T1
X7.6785Y-2.3775
X7.8642Y-1.7469
X7.947Y-2.3774
X8.0093Y-2.2426
X8.0704Y-2.5126
X8.0893Y-1.9226
X8.1395Y-1.6369
X8.1939Y-1.4274
X8.2175Y-1.5959
X8.2202Y-1.3235
X8.2643Y-1.7576
X8.2704Y-1.8769
X8.3043Y-1.8576
X8.3081Y-1.7382
X8.3091Y-1.2355
X8.3093Y-2.3626
X8.3343Y-2.6176
X8.3593Y-2.4726
X8.3718Y-1.3235
X8.3754Y-1.3668
X8.3831Y-1.7382
X8.4243Y-2.3976
X8.4443Y-1.8176
X8.5093Y-2.6101
X8.5155Y-1.4755
X8.5344Y-1.793
X8.5383Y-1.2759
X8.5693Y-1.8889
X8.5702Y-2.0192
X8.6231Y-2.2732
X8.6372Y-1.7473
X8.716Y-1.2353
T2
X7.8359Y-4.256
X8.3199Y-2.2081
X8.3243Y-2.034
X11.3004Y-6.7757
X11.891Y-6.3427
X12.2847Y-5.7521
X12.954Y-6.6576
X12.9934Y-4.6497
X13.1115Y-5.5553
X13.9382Y-6.5789
T3
X8.2452Y-2.068
X8.2452Y-2.1182
X8.2452Y-2.1684
X8.2954Y-2.068
X8.2954Y-2.1182
X8.2954Y-2.1684
X8.3456Y-2.068
X8.3456Y-2.1182
X8.3456Y-2.1684
T4
X1.6154Y-4.9253
X1.7335Y-4.4135
X1.7729Y-3.7836
X1.8122Y-1.8545
X1.8122Y-2.8387
X1.891Y-6.3427
X2.0091Y-4.6891
X2.0485Y-6.7757
X2.1272Y-1.5395
X2.1272Y-2.2875
X2.4028Y-6.0671
X2.4028Y-6.4214
X2.5209Y-2.8387
X2.6784Y-6.697
X2.7965Y-1.382
X2.8359Y-2.2088
X2.8359Y-3.2324
X2.8752Y-1.8545
X2.9934Y-5.5553
X3.3083Y-4.2167
X3.6626Y-2.2482
X3.7808Y-4.1773
X3.8595Y-3.0356
X3.8595Y-3.6655
X4.2532Y-3.7049
X4.3319Y-2.0513
X4.5682Y-3.2324
X4.6075Y-1.382
X4.9619Y-6.0671
X5.6311Y-2.5238
X5.7099Y-1.5001
X5.8674Y-6.5789
X6.1036Y-3.2324
X6.143Y-5.7521
X6.2611Y-2.2088
X6.2611Y-2.8387
X6.3004Y-4.8072
X6.4579Y-1.5001
X6.7335Y-4.8072
X6.7729Y-2.5631
X6.8122Y-3.2718
X6.9304Y-5.8309
X7.2847Y-6.4608
X7.4422Y-2.9175
X7.4422Y-3.4293
X7.7965Y-3.9411
X8.0799Y-1.0787
X8.0858Y-4.1063
X8.1041Y-1.0458
X8.1134Y-4.0
X8.1803Y-5.813
X8.2689Y-2.8387
X8.2689Y-4.256
X8.3477Y-4.9647
X8.3871Y-3.7836
X8.3871Y-5.8309
X8.7808Y-4.0986
X9.0563Y-6.4608
X9.0957Y-3.508
X9.0957Y-4.5316
X9.2385Y-1.2442
X9.2689Y-2.6772
X9.6469Y-3.9411
X9.6863Y-5.8702
X9.765Y-2.0907
X9.8831Y-1.5001
X9.9619Y-6.7364
X10.3556Y-5.634
X10.3949Y-2.7206
X10.4737Y-1.9726
X10.4737Y-5.6734
X10.513Y-6.0277
X10.6311Y-4.7679
X10.7099Y-1.4608
X10.9855Y-6.2246
X11.0248Y-2.445
X11.0248Y-3.5474
X11.6154Y-3.7836
X11.6154Y-5.634
X11.6548Y-5.3584
X11.6941Y-1.3033
X11.7729Y-2.7206
X11.7729Y-4.6497
X11.8516Y-3.5474
X12.0091Y-4.2954
X12.1666Y-3.7836
X12.2059Y-1.9332
X12.2847Y-3.0356
X12.5996Y-5.1616
X12.639Y-3.3112
X12.8752Y-2.3269
X13.2689Y-3.2718
X13.2689Y-3.9017
X13.4264Y-2.0513
X13.5445Y-1.2246
X13.7808Y-3.3899
X13.9776Y-2.3269
X14.0957Y-3.823
X14.3319Y-1.382
X14.3713Y-2.6812
X14.45Y-1.8151
X14.765Y-1.5395
X14.8044Y-1.2639
X15.0012Y-3.7049
T5
X8.186Y-1.1444
X8.2017Y-1.1168
X8.2332Y-1.1168
X8.249Y-1.1444
X8.2647Y-1.1168
X8.2805Y-1.1444
X8.312Y-1.1444
X8.3277Y-1.1168
X8.3435Y-1.1444
X8.3592Y-1.1168
X8.3907Y-1.1168
X8.4065Y-1.1444
T7
X2.5996Y-3.6655
X3.1902Y-3.2324
X4.6469Y-2.9568
X5.7099Y-3.3505
X5.9067Y-6.1064
X6.9304Y-6.2246
X8.6626Y-3.5868
X9.7256Y-6.6183
X10.828Y-5.1222
X11.7729Y-5.7915
X11.8122Y-4.8072
X11.891Y-3.3112
X12.0091Y-2.2482
X12.639Y-5.4371
X12.9146Y-2.9962
X13.0721Y-1.4214
X13.9776Y-3.1537
X14.0957Y-2.012
X14.765Y-2.7206
X14.8437Y-3.823
T8
X1.9168Y-3.2767
X2.1668Y-3.1767
X2.9121Y-2.6348
X3.1621Y-2.5348
X4.0284Y-2.5275
X4.2784Y-2.4275
X5.0746Y-2.9906
X5.3246Y-2.8906
X5.3485Y-5.6344
X5.5985Y-5.5344
X6.2418Y-6.2552
X6.4918Y-6.1552
X8.2136Y-2.9906
X8.4636Y-2.8906
X10.1569Y-5.0275
X10.1569Y-6.2552
X10.4069Y-4.9275
X10.4069Y-6.1552
X11.0501Y-4.4066
X11.0501Y-5.6344
X11.3001Y-4.3066
X11.3001Y-5.5344
X11.3263Y-1.8889
X11.3263Y-2.9759
X11.5763Y-1.7889
X11.5763Y-2.8759
X11.9421Y-5.0275
X12.1921Y-4.9275
X12.3703Y-1.4166
X12.3703Y-2.5036
X12.6203Y-1.3166
X12.6203Y-2.4036
X13.4867Y-1.5338
X13.4867Y-2.6208
X13.7367Y-1.4338
X13.7367Y-2.5208
X14.5191Y-2.1651
X14.5191Y-3.2521
X14.7691Y-2.0651
X14.7691Y-3.1521
T6
G00X8.1194Y-0.9597
M15
G01X8.1194Y-0.9361
M16
G05
G00X8.1307Y-1.1326
M15
G01X8.1307Y-1.1089
M16
G05
G00X8.4559Y-1.1326
M15
G01X8.4559Y-1.1089
M16
G05
G00X8.473Y-0.9597
M15
G01X8.473Y-0.9361
M16
G05
T0
M30
