%TF.GenerationSoftware,KiCad,Pcbnew,(7.0.0)*%
%TF.CreationDate,2023-03-14T05:51:49-04:00*%
%TF.ProjectId,ICOF1,49434f46-312e-46b6-9963-61645f706362,rev?*%
%TF.SameCoordinates,Original*%
%TF.FileFunction,Soldermask,Bot*%
%TF.FilePolarity,Negative*%
%FSLAX46Y46*%
G04 Gerber Fmt 4.6, Leading zero omitted, Abs format (unit mm)*
G04 Created by KiCad (PCBNEW (7.0.0)) date 2023-03-14 05:51:49*
%MOMM*%
%LPD*%
G01*
G04 APERTURE LIST*
G04 Aperture macros list*
%AMRoundRect*
0 Rectangle with rounded corners*
0 $1 Rounding radius*
0 $2 $3 $4 $5 $6 $7 $8 $9 X,Y pos of 4 corners*
0 Add a 4 corners polygon primitive as box body*
4,1,4,$2,$3,$4,$5,$6,$7,$8,$9,$2,$3,0*
0 Add four circle primitives for the rounded corners*
1,1,$1+$1,$2,$3*
1,1,$1+$1,$4,$5*
1,1,$1+$1,$6,$7*
1,1,$1+$1,$8,$9*
0 Add four rect primitives between the rounded corners*
20,1,$1+$1,$2,$3,$4,$5,0*
20,1,$1+$1,$4,$5,$6,$7,0*
20,1,$1+$1,$6,$7,$8,$9,0*
20,1,$1+$1,$8,$9,$2,$3,0*%
%AMFreePoly0*
4,1,17,0.425901,0.806901,0.806901,0.425901,0.825500,0.381000,0.825500,-0.381000,0.806901,-0.425901,0.425901,-0.806901,0.381000,-0.825500,-0.381000,-0.825500,-0.425901,-0.806901,-0.806901,-0.425901,-0.825500,-0.381000,-0.825500,0.381000,-0.806901,0.425901,-0.425901,0.806901,-0.381000,0.825500,0.381000,0.825500,0.425901,0.806901,0.425901,0.806901,$1*%
G04 Aperture macros list end*
%ADD10C,1.701800*%
%ADD11C,3.000000*%
%ADD12C,3.987800*%
%ADD13C,2.374900*%
%ADD14RoundRect,0.063500X1.275000X1.250000X-1.275000X1.250000X-1.275000X-1.250000X1.275000X-1.250000X0*%
%ADD15FreePoly0,0.000000*%
%ADD16C,9.000000*%
%ADD17C,8.000000*%
%ADD18C,8.500000*%
%ADD19C,0.650000*%
%ADD20O,0.800000X1.400000*%
G04 APERTURE END LIST*
D10*
%TO.C,U$15*%
X351451100Y-69107600D03*
D11*
X350181100Y-71647600D03*
D12*
X346371100Y-69107600D03*
D11*
X343831100Y-74187600D03*
D10*
X341291100Y-69107600D03*
D13*
X342561100Y-66567600D03*
X348911100Y-64027600D03*
D14*
X354626100Y-71647600D03*
X339386100Y-74187600D03*
%TD*%
D10*
%TO.C,U$19*%
X312220100Y-130237600D03*
D11*
X310950100Y-132777600D03*
D12*
X307140100Y-130237600D03*
D11*
X304600100Y-135317600D03*
D10*
X302060100Y-130237600D03*
D13*
X303330100Y-127697600D03*
X309680100Y-125157600D03*
D14*
X315395100Y-132777600D03*
X300155100Y-135317600D03*
%TD*%
D10*
%TO.C,SW8*%
X111212100Y-66738600D03*
D11*
X109942100Y-69278600D03*
D12*
X106132100Y-66738600D03*
D11*
X103592100Y-71818600D03*
D10*
X101052100Y-66738600D03*
D13*
X102322100Y-64198600D03*
X108672100Y-61658600D03*
D14*
X114387100Y-69278600D03*
X99147100Y-71818600D03*
%TD*%
D15*
%TO.C,JP18*%
X275031100Y-130103600D03*
%TD*%
D16*
%TO.C,@HOLE15*%
X320031100Y-158103600D03*
%TD*%
D11*
%TO.C,@HOLE1*%
X348031100Y-144103600D03*
%TD*%
D17*
%TO.C,@HOLE6*%
X50031100Y-140103600D03*
%TD*%
D15*
%TO.C,JP13*%
X358031100Y-51103600D03*
%TD*%
D10*
%TO.C,U$14*%
X323096100Y-66132600D03*
D11*
X321826100Y-68672600D03*
D12*
X318016100Y-66132600D03*
D11*
X315476100Y-71212600D03*
D10*
X312936100Y-66132600D03*
D13*
X314206100Y-63592600D03*
X320556100Y-61052600D03*
D14*
X326271100Y-68672600D03*
X311031100Y-71212600D03*
%TD*%
D16*
%TO.C,@HOLE11*%
X238031100Y-41603600D03*
%TD*%
D17*
%TO.C,@HOLE8*%
X248031100Y-68103600D03*
%TD*%
D11*
%TO.C,@HOLE0*%
X132031100Y-163103600D03*
%TD*%
D10*
%TO.C,U$16*%
X377674100Y-85143600D03*
D11*
X376404100Y-87683600D03*
D12*
X372594100Y-85143600D03*
D11*
X370054100Y-90223600D03*
D10*
X367514100Y-85143600D03*
D13*
X368784100Y-82603600D03*
X375134100Y-80063600D03*
D14*
X380849100Y-87683600D03*
X365609100Y-90223600D03*
%TD*%
D10*
%TO.C,U$8*%
X217516100Y-78501600D03*
D11*
X216246100Y-81041600D03*
D12*
X212436100Y-78501600D03*
D11*
X209896100Y-83581600D03*
D10*
X207356100Y-78501600D03*
D13*
X208626100Y-75961600D03*
X214976100Y-73421600D03*
D14*
X220691100Y-81041600D03*
X205451100Y-83581600D03*
%TD*%
D15*
%TO.C,JP20*%
X299031100Y-147103600D03*
%TD*%
D10*
%TO.C,U$17*%
X289563100Y-114467600D03*
D11*
X288293100Y-117007600D03*
D12*
X284483100Y-114467600D03*
D11*
X281943100Y-119547600D03*
D10*
X279403100Y-114467600D03*
D13*
X280673100Y-111927600D03*
X287023100Y-109387600D03*
D14*
X292738100Y-117007600D03*
X277498100Y-119547600D03*
%TD*%
D10*
%TO.C,U$12*%
X377674100Y-57533600D03*
D11*
X376404100Y-60073600D03*
D12*
X372594100Y-57533600D03*
D11*
X370054100Y-62613600D03*
D10*
X367514100Y-57533600D03*
D13*
X368784100Y-54993600D03*
X375134100Y-52453600D03*
D14*
X380849100Y-60073600D03*
X365609100Y-62613600D03*
%TD*%
D10*
%TO.C,U$9*%
X296578100Y-50518600D03*
D11*
X295308100Y-53058600D03*
D12*
X291498100Y-50518600D03*
D11*
X288958100Y-55598600D03*
D10*
X286418100Y-50518600D03*
D13*
X287688100Y-47978600D03*
X294038100Y-45438600D03*
D14*
X299753100Y-53058600D03*
X284513100Y-55598600D03*
%TD*%
D10*
%TO.C,U$20*%
X289563100Y-145652600D03*
D11*
X288293100Y-148192600D03*
D12*
X284483100Y-145652600D03*
D11*
X281943100Y-150732600D03*
D10*
X279403100Y-145652600D03*
D13*
X280673100Y-143112600D03*
X287023100Y-140572600D03*
D14*
X292738100Y-148192600D03*
X277498100Y-150732600D03*
%TD*%
D15*
%TO.C,JP10*%
X302031100Y-84103600D03*
%TD*%
%TO.C,JP12*%
X332031100Y-36103600D03*
%TD*%
%TO.C,JP7*%
X176031100Y-158103600D03*
%TD*%
%TO.C,JP16*%
X355031100Y-80103600D03*
%TD*%
%TO.C,JP6*%
X150031100Y-155103600D03*
%TD*%
D10*
%TO.C,U$18*%
X266876100Y-130237600D03*
D11*
X265606100Y-132777600D03*
D12*
X261796100Y-130237600D03*
D11*
X259256100Y-135317600D03*
D10*
X256716100Y-130237600D03*
D13*
X257986100Y-127697600D03*
X264336100Y-125157600D03*
D14*
X270051100Y-132777600D03*
X254811100Y-135317600D03*
%TD*%
D17*
%TO.C,@HOLE4*%
X332031100Y-51103600D03*
%TD*%
D15*
%TO.C,JP19*%
X321031100Y-138103600D03*
%TD*%
D10*
%TO.C,U$21*%
X266876100Y-161422600D03*
D11*
X265606100Y-163962600D03*
D12*
X261796100Y-161422600D03*
D11*
X259256100Y-166502600D03*
D10*
X256716100Y-161422600D03*
D13*
X257986100Y-158882600D03*
X264336100Y-156342600D03*
D14*
X270051100Y-163962600D03*
X254811100Y-166502600D03*
%TD*%
D15*
%TO.C,JP2*%
X66031100Y-93103600D03*
%TD*%
D11*
%TO.C,@HOLE3*%
X246031100Y-123103600D03*
%TD*%
D17*
%TO.C,@HOLE5*%
X340031100Y-155103600D03*
%TD*%
D15*
%TO.C,JP3*%
X81031100Y-82103600D03*
%TD*%
D11*
%TO.C,@HOLE10*%
X182930000Y-56050000D03*
%TD*%
D15*
%TO.C,JP17*%
X300031100Y-122103600D03*
%TD*%
D10*
%TO.C,SW10*%
X137784100Y-78501600D03*
D11*
X136514100Y-81041600D03*
D12*
X132704100Y-78501600D03*
D11*
X130164100Y-83581600D03*
D10*
X127624100Y-78501600D03*
D13*
X128894100Y-75961600D03*
X135244100Y-73421600D03*
D14*
X140959100Y-81041600D03*
X125719100Y-83581600D03*
%TD*%
D15*
%TO.C,JP14*%
X375031100Y-69103600D03*
%TD*%
%TO.C,JP11*%
X328031100Y-76103600D03*
%TD*%
%TO.C,JP8*%
X220031100Y-91103600D03*
%TD*%
D16*
%TO.C,@HOLE12*%
X52431100Y-105303600D03*
%TD*%
D15*
%TO.C,JP15*%
X377031100Y-97103600D03*
%TD*%
D10*
%TO.C,U$7*%
X167431100Y-161421600D03*
D11*
X166161100Y-163961600D03*
D12*
X162351100Y-161421600D03*
D11*
X159811100Y-166501600D03*
D10*
X157271100Y-161421600D03*
D13*
X158541100Y-158881600D03*
X164891100Y-156341600D03*
D14*
X170606100Y-163961600D03*
X155366100Y-166501600D03*
%TD*%
D15*
%TO.C,JP5*%
X145031100Y-85103600D03*
%TD*%
D17*
%TO.C,@HOLE7*%
X129031100Y-46103600D03*
%TD*%
D10*
%TO.C,U$11*%
X351451100Y-41497600D03*
D11*
X350181100Y-44037600D03*
D12*
X346371100Y-41497600D03*
D11*
X343831100Y-46577600D03*
D10*
X341291100Y-41497600D03*
D13*
X342561100Y-38957600D03*
X348911100Y-36417600D03*
D14*
X354626100Y-44037600D03*
X339386100Y-46577600D03*
%TD*%
D10*
%TO.C,U$13*%
X296578100Y-78127600D03*
D11*
X295308100Y-80667600D03*
D12*
X291498100Y-78127600D03*
D11*
X288958100Y-83207600D03*
D10*
X286418100Y-78127600D03*
D13*
X287688100Y-75587600D03*
X294038100Y-73047600D03*
D14*
X299753100Y-80667600D03*
X284513100Y-83207600D03*
%TD*%
D11*
%TO.C,@HOLE2*%
X44031100Y-151103600D03*
%TD*%
D15*
%TO.C,JP4*%
X118031100Y-75103600D03*
%TD*%
D18*
%TO.C,@HOLE14*%
X186031100Y-127903600D03*
%TD*%
D16*
%TO.C,@HOLE13*%
X93831100Y-39803600D03*
%TD*%
D10*
%TO.C,SW6*%
X82856100Y-69464600D03*
D11*
X81586100Y-72004600D03*
D12*
X77776100Y-69464600D03*
D11*
X75236100Y-74544600D03*
D10*
X72696100Y-69464600D03*
D13*
X73966100Y-66924600D03*
X80316100Y-64384600D03*
D14*
X86031100Y-72004600D03*
X70791100Y-74544600D03*
%TD*%
D10*
%TO.C,SW4*%
X57576100Y-85767600D03*
D11*
X56306100Y-88307600D03*
D12*
X52496100Y-85767600D03*
D11*
X49956100Y-90847600D03*
D10*
X47416100Y-85767600D03*
D13*
X48686100Y-83227600D03*
X55036100Y-80687600D03*
D14*
X60751100Y-88307600D03*
X45511100Y-90847600D03*
%TD*%
D10*
%TO.C,U$6*%
X144743100Y-145652600D03*
D11*
X143473100Y-148192600D03*
D12*
X139663100Y-145652600D03*
D11*
X137123100Y-150732600D03*
D10*
X134583100Y-145652600D03*
D13*
X135853100Y-143112600D03*
X142203100Y-140572600D03*
D14*
X147918100Y-148192600D03*
X132678100Y-150732600D03*
%TD*%
D17*
%TO.C,@HOLE9*%
X200031100Y-157103600D03*
%TD*%
D15*
%TO.C,JP21*%
X247031100Y-168103600D03*
%TD*%
D10*
%TO.C,U$10*%
X323096100Y-38522600D03*
D11*
X321826100Y-41062600D03*
D12*
X318016100Y-38522600D03*
D11*
X315476100Y-43602600D03*
D10*
X312936100Y-38522600D03*
D13*
X314206100Y-35982600D03*
X320556100Y-33442600D03*
D14*
X326271100Y-41062600D03*
X311031100Y-43602600D03*
%TD*%
D19*
%TO.C,J1*%
X214324000Y-29717107D03*
X206974000Y-29717107D03*
X207924000Y-29067107D03*
X208324000Y-28367107D03*
X209124000Y-28367107D03*
X209524000Y-29067107D03*
X209924000Y-28367107D03*
X210324000Y-29067107D03*
X211124000Y-29067107D03*
X211524000Y-28367107D03*
X211924000Y-29067107D03*
X212324000Y-28367107D03*
X213124000Y-28367107D03*
X213524000Y-29067107D03*
D20*
X215213999Y-24077106D03*
X214778999Y-28467106D03*
X206518999Y-28467106D03*
X206233999Y-24077106D03*
%TD*%
D15*
%TO.C,JP9*%
X305031100Y-57103600D03*
%TD*%
M02*
